<svg width="1920" height="1007" viewBox="0 0 1920 1007" fill="none" xmlns="http://www.w3.org/2000/svg">
<g clip-path="url(#clip0_111_2)">
<path d="M633.447 -154.039L700.234 -85.3856C722.467 -62.5274 752.617 -49.6861 784.056 -49.6861C815.494 -49.6861 845.645 -62.5274 867.877 -85.3856L906.07 -124.661C909.947 -128.646 915.204 -130.884 920.685 -130.884C926.166 -130.884 931.423 -128.646 935.3 -124.661L935.682 -124.295C937.667 -122.257 939.242 -119.836 940.316 -117.172C941.39 -114.508 941.943 -111.652 941.943 -108.768C941.943 -105.883 941.39 -103.027 940.316 -100.363C939.242 -97.6989 937.667 -95.2786 935.682 -93.2407L814.432 31.5246C794.161 52.3778 782.774 80.656 782.774 110.141C782.774 139.626 794.161 167.904 814.432 188.758C824.469 199.085 836.387 207.278 849.505 212.868C862.623 218.457 876.683 221.334 890.882 221.334C905.081 221.334 919.141 218.457 932.258 212.868C945.376 207.278 957.294 199.085 967.332 188.758L1337.78 -192.163L1419.26 -180.72L1284.31 -41.9468C1270.31 -27.5571 1259.21 -10.4722 1251.63 8.33188C1244.05 27.136 1240.15 47.2908 1240.15 67.645C1240.15 87.9992 1244.05 108.154 1251.63 126.958C1259.21 145.762 1270.31 162.847 1284.31 177.237C1312.58 206.297 1350.91 222.622 1390.88 222.622C1430.85 222.622 1469.18 206.297 1497.45 177.237L1703.69 -34.851C1705.82 -37.044 1708.35 -38.7838 1711.13 -39.9709C1713.92 -41.158 1716.9 -41.769 1719.91 -41.769C1722.93 -41.769 1725.91 -41.158 1728.69 -39.9709C1731.48 -38.7838 1734 -37.044 1736.13 -34.851C1738.26 -32.6627 1739.95 -30.0645 1741.1 -27.205C1742.25 -24.3454 1742.85 -21.2804 1742.85 -18.1851C1742.85 -15.0898 1742.25 -12.0249 1741.1 -9.16528C1739.95 -6.30569 1738.26 -3.70755 1736.13 -1.5192L1430.92 312.449C1423.01 320.583 1416.73 330.241 1412.44 340.87C1408.16 351.5 1405.96 362.894 1405.96 374.4C1405.96 385.906 1408.16 397.3 1412.44 407.93C1416.73 418.559 1423.01 428.217 1430.92 436.351C1446.9 452.773 1468.56 461.999 1491.15 461.999C1513.74 461.999 1535.4 452.773 1551.38 436.351L1762.92 218.817C1765.2 216.469 1767.91 214.607 1770.89 213.337C1773.87 212.066 1777.07 211.412 1780.3 211.412C1783.52 211.412 1786.72 212.066 1789.7 213.337C1792.68 214.607 1795.39 216.469 1797.68 218.817C1802.27 223.562 1804.85 229.988 1804.85 236.687C1804.85 243.386 1802.27 249.812 1797.68 254.557L1793.91 258.354C1760.17 293.05 1741.22 340.104 1741.22 389.168C1741.22 438.231 1760.17 485.285 1793.91 519.981L1951.77 682.32V-258.774" fill="#B8E3DB"/>
<path d="M470.452 -90.6253C478.664 -184.139 411.602 -266.793 320.665 -275.237C229.729 -283.682 149.353 -214.72 141.141 -121.206C132.929 -27.6922 199.991 54.9614 290.928 63.406C381.864 71.8506 462.24 2.88844 470.452 -90.6253Z" fill="#FFCF54"/>
<path d="M589.958 -42.3657C571.162 -42.3709 552.786 -36.6436 537.156 -25.9083C521.525 -15.1729 509.342 0.0882263 502.146 17.9448C494.951 35.8014 493.067 55.4513 496.733 74.4091C500.399 93.3669 509.449 110.781 522.74 124.449C536.031 138.116 552.965 147.423 571.401 151.193C589.836 154.963 608.944 153.025 626.309 145.626C643.673 138.227 658.514 125.698 668.953 109.624C679.393 93.5508 684.962 74.6545 684.957 55.3256C684.923 29.4269 674.904 4.59885 657.095 -13.7143C639.287 -32.0275 615.143 -42.3311 589.958 -42.3657ZM589.958 133.772C574.85 133.772 560.082 129.165 547.52 120.534C534.959 111.902 525.168 99.6344 519.387 85.2811C513.605 70.9277 512.092 55.1337 515.04 39.8963C517.987 24.6589 525.262 10.6625 535.945 -0.323105C546.628 -11.3087 560.238 -18.7899 575.056 -21.8208C589.873 -24.8517 605.232 -23.2962 619.19 -17.3508C633.148 -11.4055 645.078 -1.33741 653.471 11.5802C661.864 24.4979 666.344 39.6849 666.344 55.2209C666.344 76.0539 658.297 96.0337 643.971 110.765C629.646 125.496 610.217 133.772 589.958 133.772Z" fill="#B8E3DB"/>
<path d="M1780.37 657.208C1803.18 647.49 1814.02 620.594 1804.57 597.134C1795.12 573.674 1768.96 562.533 1746.15 572.251C1723.34 581.968 1712.5 608.864 1721.95 632.325C1731.4 655.785 1757.56 666.926 1780.37 657.208Z" fill="#FFCF54"/>
<path d="M549.423 737.41C561.263 737.41 570.862 727.54 570.862 715.364C570.862 703.188 561.263 693.317 549.423 693.317C537.582 693.317 527.984 703.188 527.984 715.364C527.984 727.54 537.582 737.41 549.423 737.41Z" fill="#FFCF54"/>
<path d="M595.305 690.201C607.146 690.201 616.744 680.331 616.744 668.155C616.744 655.979 607.146 646.108 595.305 646.108C583.465 646.108 573.866 655.979 573.866 668.155C573.866 680.331 583.465 690.201 595.305 690.201Z" fill="#FFCF54"/>
<path d="M39.8496 406.138C57.3105 388.182 57.3105 359.07 39.8496 341.114C22.3887 323.159 -5.921 323.159 -23.3819 341.114C-40.8428 359.07 -40.8428 388.182 -23.3819 406.138C-5.921 424.094 22.3887 424.094 39.8496 406.138Z" fill="#FFCF54"/>
<path d="M-37.3 666.296L171.489 451.589C182.614 440.145 195.822 431.067 210.36 424.874C224.897 418.68 240.478 415.492 256.214 415.492C271.95 415.492 287.531 418.68 302.069 424.874C316.606 431.067 329.814 440.145 340.939 451.589C352.068 463.03 360.896 476.612 366.919 491.562C372.942 506.511 376.042 522.534 376.042 538.716C376.042 554.897 372.942 570.92 366.919 585.87C360.896 600.819 352.068 614.402 340.939 625.842L245.813 723.664C240.928 728.685 237.053 734.647 234.409 741.208C231.765 747.77 230.404 754.803 230.404 761.905C230.404 769.008 231.765 776.041 234.409 782.602C237.053 789.164 240.928 795.126 245.813 800.147C250.696 805.17 256.493 809.155 262.874 811.874C269.254 814.592 276.093 815.992 283 815.992C289.907 815.992 296.746 814.592 303.127 811.874C309.507 809.155 315.305 805.17 320.188 800.147L340.863 778.912C350.902 768.583 362.823 760.39 375.942 754.8C389.062 749.21 403.124 746.333 417.325 746.333C431.526 746.333 445.589 749.21 458.708 754.8C471.828 760.39 483.748 768.583 493.788 778.912C514.06 799.769 525.448 828.052 525.448 857.541C525.448 887.031 514.06 915.313 493.788 936.171L409.05 1023.28C404.665 1027.8 402.203 1033.92 402.203 1040.3C402.203 1046.69 404.665 1052.81 409.05 1057.32C413.442 1061.83 419.394 1064.36 425.6 1064.36C431.806 1064.36 437.759 1061.83 442.151 1057.32L648.776 844.816C666.318 826.782 690.108 816.651 714.913 816.651C739.719 816.651 763.508 826.782 781.051 844.816C798.587 862.851 808.438 887.311 808.438 912.815C808.438 938.319 798.587 962.779 781.051 980.814L725.238 1038.18C723.329 1040.13 721.813 1042.45 720.779 1045C719.745 1047.55 719.213 1050.29 719.213 1053.05C719.213 1055.82 719.745 1058.56 720.779 1061.11C721.813 1063.66 723.329 1065.98 725.238 1067.93C727.132 1069.89 729.387 1071.46 731.871 1072.52C734.356 1073.59 737.021 1074.14 739.713 1074.14C742.405 1074.14 745.071 1073.59 747.555 1072.52C750.04 1071.46 752.294 1069.89 754.188 1067.93L758.797 1063.19C805.802 1014.85 869.553 987.701 936.026 987.701C1002.5 987.701 1066.25 1014.85 1113.25 1063.19L1208.79 1161.43H-339C-339 1161.43 -18.7126 685.41 -37.3 666.296Z" fill="#CEF0E6"/>
<path d="M1488.49 915.748C1489.56 914.65 1490.82 913.78 1492.22 913.186C1493.61 912.592 1495.1 912.286 1496.61 912.286C1498.12 912.286 1499.61 912.592 1501.01 913.186C1502.4 913.78 1503.67 914.65 1504.73 915.748L1539.29 951.253C1540.35 952.347 1541.2 953.647 1541.78 955.078C1542.35 956.509 1542.65 958.043 1542.65 959.592C1542.65 961.141 1542.35 962.675 1541.78 964.106C1541.2 965.537 1540.35 966.837 1539.29 967.932C1538.22 969.028 1536.96 969.898 1535.57 970.492C1534.17 971.085 1532.68 971.391 1531.18 971.391C1529.67 971.391 1528.18 971.085 1526.79 970.492C1525.4 969.898 1524.13 969.028 1523.07 967.932L1488.51 932.427C1486.37 930.213 1485.16 927.217 1485.16 924.093C1485.15 920.968 1486.35 917.968 1488.49 915.748Z" fill="#566E8C"/>
<path d="M1539.29 915.748C1540.35 916.842 1541.2 918.142 1541.78 919.573C1542.35 921.004 1542.65 922.538 1542.65 924.087C1542.65 925.636 1542.35 927.17 1541.78 928.601C1541.2 930.032 1540.35 931.332 1539.29 932.427L1504.76 967.932C1503.69 969.029 1502.43 969.899 1501.03 970.493C1499.64 971.087 1498.15 971.393 1496.64 971.393C1495.13 971.393 1493.63 971.087 1492.24 970.493C1490.85 969.899 1489.58 969.029 1488.51 967.932C1486.37 965.715 1485.17 962.717 1485.17 959.592C1485.17 956.468 1486.37 953.47 1488.51 951.253L1523.07 915.748C1524.13 914.651 1525.4 913.781 1526.79 913.188C1528.18 912.594 1529.67 912.289 1531.18 912.289C1532.68 912.289 1534.17 912.594 1535.57 913.188C1536.96 913.781 1538.22 914.651 1539.29 915.748Z" fill="#566E8C"/>
<path d="M525.896 352.013C527.294 350.577 529.19 349.771 531.166 349.771C533.143 349.771 535.038 350.577 536.437 352.013L558.996 375.081C559.692 375.793 560.243 376.64 560.619 377.572C560.996 378.505 561.19 379.504 561.19 380.514C561.19 381.523 560.996 382.523 560.619 383.455C560.243 384.387 559.692 385.234 558.996 385.947C557.598 387.383 555.702 388.189 553.726 388.189C551.749 388.189 549.854 387.383 548.455 385.947L525.896 362.853C525.201 362.142 524.65 361.298 524.274 360.368C523.898 359.437 523.705 358.44 523.705 357.433C523.705 356.425 523.898 355.428 524.274 354.498C524.65 353.568 525.201 352.723 525.896 352.013Z" fill="#566E8C"/>
<path d="M558.996 352.013C559.691 352.723 560.242 353.568 560.618 354.498C560.994 355.428 561.187 356.425 561.187 357.433C561.187 358.44 560.994 359.437 560.618 360.368C560.242 361.298 559.691 362.142 558.996 362.853L536.539 385.973C535.14 387.409 533.244 388.215 531.268 388.215C529.292 388.215 527.396 387.409 525.997 385.973C525.302 385.26 524.751 384.414 524.374 383.481C523.998 382.549 523.804 381.549 523.804 380.54C523.804 379.53 523.998 378.531 524.374 377.599C524.751 376.666 525.302 375.819 525.997 375.107L548.455 352.013C549.854 350.577 551.749 349.771 553.726 349.771C555.702 349.771 557.598 350.577 558.996 352.013Z" fill="#566E8C"/>
<path d="M1009.58 191.917C1036.41 191.917 1058.16 169.55 1058.16 141.958C1058.16 114.367 1036.41 92 1009.58 92C982.751 92 961 114.367 961 141.958C961 169.55 982.751 191.917 1009.58 191.917Z" fill="#566E8C"/>
<path d="M139.28 143.381C154.171 143.381 166.244 130.967 166.244 115.653C166.244 100.339 154.171 87.9243 139.28 87.9243C124.388 87.9243 112.315 100.339 112.315 115.653C112.315 130.967 124.388 143.381 139.28 143.381Z" fill="#566E8C"/>
<path d="M1259.51 285.532C1263.95 285.532 1267.55 281.828 1267.55 277.258C1267.55 272.689 1263.95 268.984 1259.51 268.984C1255.07 268.984 1251.46 272.689 1251.46 277.258C1251.46 281.828 1255.07 285.532 1259.51 285.532Z" fill="#566E8C"/>
<path d="M1259.51 328.709C1263.95 328.709 1267.55 325.005 1267.55 320.435C1267.55 315.866 1263.95 312.161 1259.51 312.161C1255.07 312.161 1251.46 315.866 1251.46 320.435C1251.46 325.005 1255.07 328.709 1259.51 328.709Z" fill="#566E8C"/>
<path d="M1300.4 285.532C1304.84 285.532 1308.45 281.828 1308.45 277.258C1308.45 272.689 1304.84 268.984 1300.4 268.984C1295.96 268.984 1292.35 272.689 1292.35 277.258C1292.35 281.828 1295.96 285.532 1300.4 285.532Z" fill="#566E8C"/>
<path d="M1300.4 328.709C1304.84 328.709 1308.45 325.005 1308.45 320.435C1308.45 315.866 1304.84 312.161 1300.4 312.161C1295.96 312.161 1292.35 315.866 1292.35 320.435C1292.35 325.005 1295.96 328.709 1300.4 328.709Z" fill="#566E8C"/>
<path d="M115.142 207.584C119.585 207.584 123.188 203.879 123.188 199.31C123.188 194.74 119.585 191.036 115.142 191.036C110.698 191.036 107.095 194.74 107.095 199.31C107.095 203.879 110.698 207.584 115.142 207.584Z" fill="#566E8C"/>
<path d="M115.142 250.734C119.585 250.734 123.188 247.03 123.188 242.46C123.188 237.891 119.585 234.186 115.142 234.186C110.698 234.186 107.095 237.891 107.095 242.46C107.095 247.03 110.698 250.734 115.142 250.734Z" fill="#566E8C"/>
<path d="M156.034 207.584C160.477 207.584 164.08 203.879 164.08 199.31C164.08 194.74 160.477 191.036 156.034 191.036C151.59 191.036 147.988 194.74 147.988 199.31C147.988 203.879 151.59 207.584 156.034 207.584Z" fill="#566E8C"/>
<path d="M156.034 250.734C160.477 250.734 164.08 247.03 164.08 242.46C164.08 237.891 160.477 234.186 156.034 234.186C151.59 234.186 147.988 237.891 147.988 242.46C147.988 247.03 151.59 250.734 156.034 250.734Z" fill="#566E8C"/>
<path d="M32.3643 207.584C36.808 207.584 40.4103 203.879 40.4103 199.31C40.4103 194.74 36.808 191.036 32.3643 191.036C27.9206 191.036 24.3183 194.74 24.3183 199.31C24.3183 203.879 27.9206 207.584 32.3643 207.584Z" fill="#566E8C"/>
<path d="M32.3643 250.734C36.808 250.734 40.4103 247.03 40.4103 242.46C40.4103 237.891 36.808 234.186 32.3643 234.186C27.9206 234.186 24.3183 237.891 24.3183 242.46C24.3183 247.03 27.9206 250.734 32.3643 250.734Z" fill="#566E8C"/>
<path d="M73.2564 207.584C77.7001 207.584 81.3025 203.879 81.3025 199.31C81.3025 194.74 77.7001 191.036 73.2564 191.036C68.8128 191.036 65.2104 194.74 65.2104 199.31C65.2104 203.879 68.8128 207.584 73.2564 207.584Z" fill="#566E8C"/>
<path d="M73.2564 250.734C77.7001 250.734 81.3025 247.03 81.3025 242.46C81.3025 237.891 77.7001 234.186 73.2564 234.186C68.8128 234.186 65.2104 237.891 65.2104 242.46C65.2104 247.03 68.8128 250.734 73.2564 250.734Z" fill="#566E8C"/>
<path d="M1670.06 928.159C1674.5 928.159 1678.11 924.454 1678.11 919.885C1678.11 915.315 1674.5 911.611 1670.06 911.611C1665.62 911.611 1662.01 915.315 1662.01 919.885C1662.01 924.454 1665.62 928.159 1670.06 928.159Z" fill="#566E8C"/>
<path d="M1678.11 963.061C1678.11 964.698 1677.63 966.298 1676.75 967.658C1675.87 969.019 1674.61 970.079 1673.14 970.706C1671.67 971.332 1670.05 971.496 1668.49 971.176C1666.93 970.857 1665.5 970.069 1664.37 968.912C1663.24 967.755 1662.48 966.281 1662.17 964.676C1661.86 963.071 1662.02 961.407 1662.63 959.895C1663.23 958.383 1664.27 957.091 1665.59 956.182C1666.91 955.273 1668.47 954.787 1670.06 954.787C1671.12 954.784 1672.16 954.996 1673.14 955.41C1674.12 955.825 1675.01 956.434 1675.76 957.203C1676.5 957.972 1677.1 958.886 1677.5 959.891C1677.9 960.896 1678.11 961.974 1678.11 963.061Z" fill="#566E8C"/>
<path d="M1710.95 928.159C1715.4 928.159 1719 924.454 1719 919.885C1719 915.315 1715.4 911.611 1710.95 911.611C1706.51 911.611 1702.91 915.315 1702.91 919.885C1702.91 924.454 1706.51 928.159 1710.95 928.159Z" fill="#566E8C"/>
<path d="M1719 963.062C1719 964.698 1718.53 966.298 1717.64 967.658C1716.76 969.019 1715.5 970.08 1714.03 970.706C1712.56 971.332 1710.94 971.496 1709.38 971.177C1707.82 970.857 1706.39 970.069 1705.26 968.912C1704.14 967.755 1703.37 966.281 1703.06 964.676C1702.75 963.071 1702.91 961.407 1703.52 959.895C1704.13 958.383 1705.16 957.091 1706.48 956.182C1707.8 955.273 1709.36 954.788 1710.95 954.788C1713.09 954.788 1715.13 955.659 1716.64 957.211C1718.15 958.763 1719 960.867 1719 963.062Z" fill="#566E8C"/>
<path d="M1587.31 928.159C1591.75 928.159 1595.35 924.454 1595.35 919.885C1595.35 915.315 1591.75 911.611 1587.31 911.611C1582.86 911.611 1579.26 915.315 1579.26 919.885C1579.26 924.454 1582.86 928.159 1587.31 928.159Z" fill="#566E8C"/>
<path d="M1595.3 963.061C1595.3 964.699 1594.83 966.3 1593.94 967.661C1593.06 969.022 1591.8 970.083 1590.33 970.708C1588.86 971.334 1587.24 971.496 1585.68 971.175C1584.12 970.853 1582.68 970.063 1581.56 968.903C1580.43 967.743 1579.67 966.266 1579.36 964.659C1579.05 963.053 1579.22 961.388 1579.83 959.877C1580.44 958.366 1581.48 957.075 1582.81 956.169C1584.13 955.263 1585.69 954.782 1587.28 954.787C1588.34 954.787 1589.38 955.002 1590.36 955.418C1591.33 955.834 1592.22 956.444 1592.96 957.212C1593.71 957.981 1594.3 958.893 1594.7 959.897C1595.1 960.901 1595.31 961.976 1595.3 963.061Z" fill="#566E8C"/>
<path d="M1628.2 928.159C1632.64 928.159 1636.25 924.454 1636.25 919.885C1636.25 915.315 1632.64 911.611 1628.2 911.611C1623.76 911.611 1620.15 915.315 1620.15 919.885C1620.15 924.454 1623.76 928.159 1628.2 928.159Z" fill="#566E8C"/>
<path d="M1636.22 963.061C1636.22 964.699 1635.75 966.3 1634.86 967.661C1633.98 969.022 1632.72 970.083 1631.25 970.708C1629.78 971.334 1628.16 971.496 1626.6 971.175C1625.03 970.853 1623.6 970.063 1622.48 968.903C1621.35 967.743 1620.59 966.266 1620.28 964.659C1619.97 963.053 1620.14 961.388 1620.75 959.877C1621.36 958.366 1622.4 957.075 1623.72 956.169C1625.05 955.263 1626.61 954.782 1628.2 954.787C1629.26 954.787 1630.3 955.002 1631.27 955.418C1632.25 955.834 1633.13 956.444 1633.88 957.212C1634.63 957.981 1635.22 958.893 1635.62 959.897C1636.02 960.901 1636.22 961.976 1636.22 963.061Z" fill="#566E8C"/>
<path d="M1835.44 928.159C1839.88 928.159 1843.48 924.454 1843.48 919.885C1843.48 915.315 1839.88 911.611 1835.44 911.611C1830.99 911.611 1827.39 915.315 1827.39 919.885C1827.39 924.454 1830.99 928.159 1835.44 928.159Z" fill="#566E8C"/>
<path d="M1843.48 963.061C1843.48 964.698 1843.01 966.298 1842.13 967.658C1841.24 969.019 1839.98 970.079 1838.51 970.706C1837.04 971.332 1835.43 971.496 1833.87 971.176C1832.31 970.857 1830.87 970.069 1829.75 968.912C1828.62 967.755 1827.85 966.281 1827.54 964.676C1827.23 963.071 1827.39 961.407 1828 959.895C1828.61 958.383 1829.64 957.091 1830.97 956.182C1832.29 955.273 1833.84 954.787 1835.44 954.787C1836.49 954.784 1837.54 954.996 1838.52 955.41C1839.5 955.825 1840.38 956.434 1841.13 957.203C1841.88 957.972 1842.47 958.886 1842.88 959.891C1843.28 960.896 1843.48 961.974 1843.48 963.061Z" fill="#566E8C"/>
<path d="M1884.37 919.885C1884.37 921.521 1883.9 923.121 1883.02 924.481C1882.13 925.842 1880.88 926.903 1879.41 927.529C1877.94 928.155 1876.32 928.319 1874.76 928C1873.2 927.68 1871.76 926.892 1870.64 925.735C1869.51 924.578 1868.75 923.104 1868.44 921.499C1868.13 919.894 1868.29 918.23 1868.89 916.718C1869.5 915.206 1870.53 913.914 1871.86 913.005C1873.18 912.096 1874.74 911.611 1876.33 911.611C1878.46 911.611 1880.51 912.482 1882.02 914.034C1883.53 915.586 1884.37 917.69 1884.37 919.885Z" fill="#566E8C"/>
<path d="M1884.37 963.061C1884.37 964.698 1883.9 966.298 1883.02 967.658C1882.13 969.019 1880.88 970.079 1879.41 970.706C1877.94 971.332 1876.32 971.496 1874.76 971.176C1873.2 970.857 1871.76 970.069 1870.64 968.912C1869.51 967.755 1868.75 966.281 1868.44 964.676C1868.13 963.071 1868.29 961.407 1868.89 959.895C1869.5 958.383 1870.53 957.091 1871.86 956.182C1873.18 955.273 1874.74 954.787 1876.33 954.787C1877.39 954.784 1878.43 954.996 1879.41 955.41C1880.39 955.825 1881.28 956.434 1882.02 957.203C1882.77 957.972 1883.36 958.886 1883.77 959.891C1884.17 960.896 1884.38 961.974 1884.37 963.061Z" fill="#566E8C"/>
<path d="M1752.68 928.159C1757.13 928.159 1760.73 924.454 1760.73 919.885C1760.73 915.315 1757.13 911.611 1752.68 911.611C1748.24 911.611 1744.64 915.315 1744.64 919.885C1744.64 924.454 1748.24 928.159 1752.68 928.159Z" fill="#566E8C"/>
<path d="M1760.81 963.061C1760.81 964.699 1760.33 966.3 1759.45 967.661C1758.56 969.022 1757.3 970.083 1755.83 970.708C1754.36 971.334 1752.74 971.496 1751.18 971.175C1749.62 970.853 1748.19 970.063 1747.06 968.903C1745.94 967.743 1745.17 966.266 1744.87 964.659C1744.56 963.053 1744.72 961.388 1745.33 959.877C1745.95 958.366 1746.98 957.075 1748.31 956.169C1749.64 955.263 1751.19 954.782 1752.79 954.787C1753.84 954.787 1754.89 955.002 1755.86 955.418C1756.84 955.834 1757.72 956.444 1758.47 957.212C1759.21 957.981 1759.8 958.893 1760.2 959.897C1760.6 960.901 1760.81 961.976 1760.81 963.061Z" fill="#566E8C"/>
<path d="M1793.58 928.159C1798.02 928.159 1801.62 924.454 1801.62 919.885C1801.62 915.315 1798.02 911.611 1793.58 911.611C1789.13 911.611 1785.53 915.315 1785.53 919.885C1785.53 924.454 1789.13 928.159 1793.58 928.159Z" fill="#566E8C"/>
<path d="M1801.55 963.061C1801.55 964.699 1801.07 966.3 1800.19 967.661C1799.3 969.022 1798.04 970.083 1796.57 970.708C1795.1 971.334 1793.48 971.496 1791.92 971.175C1790.36 970.853 1788.93 970.063 1787.8 968.903C1786.68 967.743 1785.91 966.266 1785.6 964.659C1785.3 963.053 1785.46 961.388 1786.07 959.877C1786.69 958.366 1787.72 957.075 1789.05 956.169C1790.37 955.263 1791.93 954.782 1793.52 954.787C1794.58 954.787 1795.63 955.002 1796.6 955.418C1797.57 955.834 1798.46 956.444 1799.21 957.212C1799.95 957.981 1800.54 958.893 1800.94 959.897C1801.34 960.901 1801.55 961.976 1801.55 963.061Z" fill="#566E8C"/>
<path d="M590.773 922.87C601.728 922.87 610.608 913.738 610.608 902.473C610.608 891.208 601.728 882.075 590.773 882.075C579.818 882.075 570.938 891.208 570.938 902.473C570.938 913.738 579.818 922.87 590.773 922.87Z" fill="#566E8C"/>
<path d="M1660.05 346.697C1671.01 346.697 1679.89 337.565 1679.89 326.3C1679.89 315.035 1671.01 305.903 1660.05 305.903C1649.1 305.903 1640.22 315.035 1640.22 326.3C1640.22 337.565 1649.1 346.697 1660.05 346.697Z" fill="#566E8C"/>
<path d="M1643.43 198.655L1967.25 -134.349" stroke="white" stroke-width="3" stroke-miterlimit="10" stroke-linecap="round"/>
<path d="M-35.4666 935.516L293.631 597.066" stroke="white" stroke-width="3" stroke-miterlimit="10" stroke-linecap="round"/>
<path d="M-197.1 1005.87L97.8782 702.534" stroke="white" stroke-width="3" stroke-miterlimit="10" stroke-linecap="round"/>
<path d="M415.39 409.015C437.538 409.015 455.493 390.551 455.493 367.775C455.493 345 437.538 326.536 415.39 326.536C393.242 326.536 375.287 345 375.287 367.775C375.287 390.551 393.242 409.015 415.39 409.015Z" fill="#CEF0E6"/>
<path d="M1160.13 180.012C1171.83 180.012 1181.31 170.259 1181.31 158.227C1181.31 146.196 1171.83 136.443 1160.13 136.443C1148.43 136.443 1138.95 146.196 1138.95 158.227C1138.95 170.259 1148.43 180.012 1160.13 180.012Z" fill="#B8E3DB"/>
<path d="M1834.06 193.183C1845.76 193.183 1855.24 183.429 1855.24 171.398C1855.24 159.366 1845.76 149.613 1834.06 149.613C1822.36 149.613 1812.88 159.366 1812.88 171.398C1812.88 183.429 1822.36 193.183 1834.06 193.183Z" fill="#F7F3EA"/>
<path d="M186.563 923.681C215.32 923.681 238.633 899.708 238.633 870.136C238.633 840.563 215.32 816.59 186.563 816.59C157.805 816.59 134.493 840.563 134.493 870.136C134.493 899.708 157.805 923.681 186.563 923.681Z" fill="white"/>
<path d="M1227.17 970.21C1191.91 970.184 1157.43 980.915 1128.1 1001.04C1098.77 1021.17 1075.91 1049.8 1062.4 1083.29C1048.9 1116.79 1045.36 1153.65 1052.23 1189.22C1059.1 1224.79 1076.08 1257.46 1101.01 1283.1C1125.95 1308.74 1157.72 1326.2 1192.3 1333.27C1226.89 1340.33 1262.74 1336.69 1295.31 1322.8C1327.88 1308.92 1355.72 1285.4 1375.29 1255.24C1394.87 1225.08 1405.3 1189.63 1405.28 1153.36C1405.25 1104.8 1386.47 1058.23 1353.08 1023.89C1319.68 989.552 1274.4 970.244 1227.17 970.21ZM1227.17 1300.44C1198.89 1300.44 1171.23 1291.81 1147.71 1275.65C1124.19 1259.49 1105.86 1236.52 1095.04 1209.65C1084.21 1182.77 1081.38 1153.2 1086.9 1124.67C1092.42 1096.14 1106.04 1069.94 1126.04 1049.37C1146.04 1028.8 1171.53 1014.79 1199.27 1009.12C1227.01 1003.44 1255.77 1006.35 1281.9 1017.49C1308.04 1028.62 1330.37 1047.47 1346.09 1071.65C1361.8 1095.84 1370.19 1124.28 1370.19 1153.36C1370.19 1192.37 1355.12 1229.77 1328.3 1257.35C1301.48 1284.93 1265.1 1300.43 1227.17 1300.44Z" fill="#B8E3DB"/>
<path d="M76.2355 1171.98C79.8256 1170.75 215.92 1029.25 267.99 975.054C270.61 972.329 273.728 970.163 277.165 968.681C280.601 967.199 284.289 966.43 288.015 966.418C291.742 966.406 295.434 967.151 298.879 968.611C302.325 970.07 305.456 972.215 308.093 974.923C313.397 980.378 316.376 987.776 316.376 995.49C316.376 1003.2 313.397 1010.6 308.093 1016.06L265.317 1060.05C263.996 1061.4 262.947 1063.01 262.232 1064.78C261.517 1066.55 261.149 1068.45 261.149 1070.36C261.149 1072.28 261.517 1074.18 262.232 1075.95C262.947 1077.72 263.996 1079.33 265.317 1080.68C266.63 1082.04 268.191 1083.11 269.911 1083.85C271.63 1084.58 273.474 1084.96 275.336 1084.96C277.198 1084.96 279.042 1084.58 280.762 1083.85C282.481 1083.11 284.042 1082.04 285.355 1080.68L303.179 1062.35C306.055 1059.39 309.47 1057.04 313.229 1055.44C316.989 1053.83 321.019 1053.01 325.089 1053.01C329.159 1053.01 333.189 1053.83 336.949 1055.44C340.708 1057.04 344.123 1059.39 346.999 1062.35C352.81 1068.33 356.074 1076.43 356.074 1084.88C356.074 1093.33 352.81 1101.44 346.999 1107.41C344.539 1109.95 343.158 1113.39 343.158 1116.97C343.158 1120.55 344.539 1123.99 346.999 1126.53L397.159 1178.08H71.7796" fill="#B8E3DB"/>
<path d="M1605.26 -180.537L1450.17 -21.1046C1446.74 -17.5879 1444.02 -13.4107 1442.17 -8.81215C1440.31 -4.21362 1439.36 0.715912 1439.36 5.69435C1439.36 10.6728 1440.31 15.6024 1442.17 20.2009C1444.02 24.7994 1446.74 28.9766 1450.17 32.4934C1457.08 39.5958 1466.45 43.5856 1476.22 43.5856C1485.99 43.5856 1495.36 39.5958 1502.26 32.4934L1585.12 -52.7345C1587.5 -55.1333 1590.7 -56.4769 1594.03 -56.4769C1597.36 -56.4769 1600.56 -55.1333 1602.94 -52.7345C1605.27 -50.2873 1606.58 -46.9971 1606.58 -43.5702C1606.58 -40.1434 1605.27 -36.8532 1602.94 -34.4059L1574.93 -5.28967C1573.08 -3.38782 1571.61 -1.12883 1570.61 1.358C1569.6 3.84485 1569.09 6.5107 1569.09 9.20299C1569.09 11.8953 1569.6 14.5611 1570.61 17.048C1571.61 19.5348 1573.08 21.7938 1574.93 23.6957C1576.78 25.6013 1578.98 27.1131 1581.4 28.1446C1583.82 29.1761 1586.41 29.707 1589.03 29.707C1591.64 29.707 1594.24 29.1761 1596.65 28.1446C1599.07 27.1131 1601.27 25.6013 1603.12 23.6957L1679.1 -54.3317C1684.1 -59.4731 1690.03 -63.5514 1696.56 -66.334C1703.09 -69.1165 1710.09 -70.5487 1717.16 -70.5487C1724.23 -70.5487 1731.23 -69.1165 1737.77 -66.334C1744.3 -63.5514 1750.23 -59.4731 1755.23 -54.3317L1757.32 -52.1847L1905 -204.05C1905 -204.05 1605.26 -182.291 1605.26 -180.537Z" fill="#CEF0E6"/>
<path d="M760.758 1193.58L1129.14 814.757" stroke="#566E8C" stroke-width="10" stroke-miterlimit="10" stroke-linecap="round"/>
<path d="M1182.84 -262.361L884.478 44.4593" stroke="#566E8C" stroke-width="10" stroke-miterlimit="10" stroke-linecap="round"/>
<path d="M565.362 85.7771L490.529 162.731" stroke="#566E8C" stroke-width="10" stroke-miterlimit="10" stroke-linecap="round"/>
<path d="M993.659 1038.1L1065.49 964.24" stroke="#566E8C" stroke-width="10" stroke-miterlimit="10" stroke-linecap="round"/>
</g>
<defs>
<clipPath id="clip0_111_2">
<rect width="2313" height="1763" fill="white" transform="translate(-337 -345)"/>
</clipPath>
</defs>
</svg>
