<svg width="63" height="51" viewBox="0 0 63 51" fill="none" xmlns="http://www.w3.org/2000/svg">
<path d="M9.21059 9.83523L9.20877 9.83707C4.12291 14.9673 4.12291 23.2851 9.20877 28.4154L22.2898 41.6106C27.3757 46.7409 35.6215 46.7409 40.7074 41.6106L40.7092 41.6088C45.795 36.4785 45.795 28.1607 40.7092 23.0305L27.6281 9.83523C22.5423 4.70497 14.2965 4.70497 9.21059 9.83523Z" stroke="#566E8C" stroke-width="8" stroke-miterlimit="10"/>
<path opacity="0.77" d="M53.7912 9.93748L53.7894 9.93564C48.7035 4.80538 40.4577 4.80538 35.3719 9.93564L22.2908 23.1309C17.205 28.2611 17.205 36.5789 22.2908 41.7092L22.2927 41.711C27.3785 46.8413 35.6243 46.8413 40.7102 41.711L53.7912 28.5158C58.8771 23.3855 58.8771 15.0677 53.7912 9.93748Z" stroke="#6FCEDD" stroke-width="8" stroke-miterlimit="10"/>
</svg>
