<svg width="959" height="347" viewBox="0 0 959 347" fill="none" xmlns="http://www.w3.org/2000/svg">
<path d="M438.326 218.401C429.434 218.401 420.998 216.919 413.018 213.955C405.152 210.877 399.053 206.944 394.721 202.156L398.654 195.658C402.758 199.876 408.344 203.467 415.412 206.431C422.594 209.281 430.175 210.706 438.155 210.706C446.135 210.706 452.633 209.68 457.649 207.628C462.779 205.462 466.541 202.612 468.935 199.078C471.443 195.544 472.697 191.611 472.697 187.279C472.697 182.149 471.329 178.045 468.593 174.967C465.857 171.889 462.266 169.438 457.82 167.614C453.374 165.79 448.529 164.251 443.285 162.997C438.041 161.743 432.74 160.432 427.382 159.064C422.024 157.582 417.122 155.701 412.676 153.421C408.23 151.141 404.639 148.063 401.903 144.187C399.281 140.197 397.97 135.067 397.97 128.797C397.97 123.097 399.452 117.853 402.416 113.065C405.38 108.277 409.997 104.401 416.267 101.437C422.537 98.4729 430.574 96.9909 440.378 96.9909C446.99 96.9909 453.488 97.9599 459.872 99.8979C466.37 101.836 471.899 104.458 476.459 107.764L473.21 114.775C468.194 111.355 462.779 108.847 456.965 107.251C451.265 105.541 445.736 104.686 440.378 104.686C432.74 104.686 426.413 105.769 421.397 107.935C416.381 110.101 412.676 113.008 410.282 116.656C407.888 120.19 406.691 124.18 406.691 128.626C406.691 133.756 408.002 137.86 410.624 140.938C413.36 144.016 416.951 146.467 421.397 148.291C425.843 150.115 430.745 151.654 436.103 152.908C441.461 154.162 446.762 155.53 452.006 157.012C457.25 158.38 462.095 160.204 466.541 162.484C470.987 164.764 474.578 167.842 477.314 171.718C480.05 175.594 481.418 180.61 481.418 186.766C481.418 192.352 479.879 197.596 476.801 202.498C473.723 207.286 468.992 211.162 462.608 214.126C456.338 216.976 448.244 218.401 438.326 218.401ZM491.058 217.546L546.12 97.8459H554.841L609.903 217.546H600.498L548.514 103.318H552.276L500.463 217.546H491.058ZM511.236 183.859L514.143 176.506H585.792L588.699 183.859H511.236ZM631.633 217.546V97.8459H640.354V209.68H709.267V217.546H631.633ZM776.178 218.401C761.358 218.401 749.673 214.069 741.123 205.405C732.573 196.741 728.298 183.859 728.298 166.759V97.8459H737.019V166.417C737.019 181.351 740.439 192.409 747.279 199.591C754.119 206.773 763.809 210.364 776.349 210.364C788.775 210.364 798.408 206.773 805.248 199.591C812.088 192.409 815.508 181.351 815.508 166.417V97.8459H824.229V166.759C824.229 183.859 819.954 196.741 811.404 205.405C802.854 214.069 791.112 218.401 776.178 218.401ZM896.386 218.401C887.494 218.401 879.058 216.919 871.078 213.955C863.212 210.877 857.113 206.944 852.781 202.156L856.714 195.658C860.818 199.876 866.404 203.467 873.472 206.431C880.654 209.281 888.235 210.706 896.215 210.706C904.195 210.706 910.693 209.68 915.709 207.628C920.839 205.462 924.601 202.612 926.995 199.078C929.503 195.544 930.757 191.611 930.757 187.279C930.757 182.149 929.389 178.045 926.653 174.967C923.917 171.889 920.326 169.438 915.88 167.614C911.434 165.79 906.589 164.251 901.345 162.997C896.101 161.743 890.8 160.432 885.442 159.064C880.084 157.582 875.182 155.701 870.736 153.421C866.29 151.141 862.699 148.063 859.963 144.187C857.341 140.197 856.03 135.067 856.03 128.797C856.03 123.097 857.512 117.853 860.476 113.065C863.44 108.277 868.057 104.401 874.327 101.437C880.597 98.4729 888.634 96.9909 898.438 96.9909C905.05 96.9909 911.548 97.9599 917.932 99.8979C924.43 101.836 929.959 104.458 934.519 107.764L931.27 114.775C926.254 111.355 920.839 108.847 915.025 107.251C909.325 105.541 903.796 104.686 898.438 104.686C890.8 104.686 884.473 105.769 879.457 107.935C874.441 110.101 870.736 113.008 868.342 116.656C865.948 120.19 864.751 124.18 864.751 128.626C864.751 133.756 866.062 137.86 868.684 140.938C871.42 144.016 875.011 146.467 879.457 148.291C883.903 150.115 888.805 151.654 894.163 152.908C899.521 154.162 904.822 155.53 910.066 157.012C915.31 158.38 920.155 160.204 924.601 162.484C929.047 164.764 932.638 167.842 935.374 171.718C938.11 175.594 939.478 180.61 939.478 186.766C939.478 192.352 937.939 197.596 934.861 202.498C931.783 207.286 927.052 211.162 920.668 214.126C914.398 216.976 906.304 218.401 896.386 218.401Z" fill="#566E8C"/>
<path d="M51.9295 69.983L51.9192 69.9929C23.245 97.598 23.245 142.355 51.9192 169.96L125.67 240.961C154.345 268.566 200.835 268.566 229.509 240.961L229.519 240.951C258.193 213.346 258.193 168.589 229.519 140.984L155.768 69.983C127.094 42.378 80.6036 42.378 51.9295 69.983Z" stroke="#566E8C" stroke-width="50" stroke-miterlimit="10"/>
<path opacity="0.77" d="M303.276 70.5338L303.265 70.5239C274.591 42.9188 228.101 42.9188 199.427 70.5239L125.676 141.525C97.0018 169.13 97.0018 213.887 125.676 241.492L125.686 241.502C154.36 269.107 200.85 269.107 229.525 241.502L303.276 170.501C331.95 142.896 331.95 98.1389 303.276 70.5338Z" stroke="#6FCEDD" stroke-width="50" stroke-miterlimit="10"/>
<path d="M391.886 292V265.4H394.204L406.364 286.148H405.148L417.194 265.4H419.512V292H416.814V269.618H417.46L406.364 288.618H405.034L393.862 269.618H394.584V292H391.886ZM427.83 292V272.05H430.528V280.866H443.106V272.05H445.804V292H443.106V283.184H430.528V292H427.83ZM461.681 292.19C459.755 292.19 458.02 291.759 456.475 290.898C454.955 290.011 453.751 288.808 452.865 287.288C451.978 285.743 451.535 283.982 451.535 282.006C451.535 280.005 451.978 278.244 452.865 276.724C453.751 275.204 454.955 274.013 456.475 273.152C457.995 272.291 459.73 271.86 461.681 271.86C463.657 271.86 465.405 272.291 466.925 273.152C468.47 274.013 469.673 275.204 470.535 276.724C471.421 278.244 471.865 280.005 471.865 282.006C471.865 283.982 471.421 285.743 470.535 287.288C469.673 288.808 468.47 290.011 466.925 290.898C465.379 291.759 463.631 292.19 461.681 292.19ZM461.681 289.796C463.125 289.796 464.404 289.479 465.519 288.846C466.633 288.187 467.507 287.275 468.141 286.11C468.799 284.919 469.129 283.551 469.129 282.006C469.129 280.435 468.799 279.067 468.141 277.902C467.507 276.737 466.633 275.837 465.519 275.204C464.404 274.545 463.137 274.216 461.719 274.216C460.3 274.216 459.033 274.545 457.919 275.204C456.804 275.837 455.917 276.737 455.259 277.902C454.6 279.067 454.271 280.435 454.271 282.006C454.271 283.551 454.6 284.919 455.259 286.11C455.917 287.275 456.804 288.187 457.919 288.846C459.033 289.479 460.287 289.796 461.681 289.796ZM477.631 292V272.05H491.767V274.406H479.645L480.329 273.722V292H477.631ZM502.946 292.19C501.021 292.19 499.286 291.759 497.74 290.898C496.22 290.011 495.017 288.808 494.13 287.288C493.244 285.743 492.8 283.982 492.8 282.006C492.8 280.005 493.244 278.244 494.13 276.724C495.017 275.204 496.22 274.013 497.74 273.152C499.26 272.291 500.996 271.86 502.946 271.86C504.922 271.86 506.67 272.291 508.19 273.152C509.736 274.013 510.939 275.204 511.8 276.724C512.687 278.244 513.13 280.005 513.13 282.006C513.13 283.982 512.687 285.743 511.8 287.288C510.939 288.808 509.736 290.011 508.19 290.898C506.645 291.759 504.897 292.19 502.946 292.19ZM502.946 289.796C504.39 289.796 505.67 289.479 506.784 288.846C507.899 288.187 508.773 287.275 509.406 286.11C510.065 284.919 510.394 283.551 510.394 282.006C510.394 280.435 510.065 279.067 509.406 277.902C508.773 276.737 507.899 275.837 506.784 275.204C505.67 274.545 504.403 274.216 502.984 274.216C501.566 274.216 500.299 274.545 499.184 275.204C498.07 275.837 497.183 276.737 496.524 277.902C495.866 279.067 495.536 280.435 495.536 282.006C495.536 283.551 495.866 284.919 496.524 286.11C497.183 287.275 498.07 288.187 499.184 288.846C500.299 289.479 501.553 289.796 502.946 289.796ZM518.897 292V272.05H536.833V292H534.135V273.684L534.819 274.406H520.911L521.595 273.684V292H518.897ZM554.8 292.19C553.077 292.19 551.519 291.797 550.126 291.012C548.733 290.201 547.618 289.049 546.782 287.554C545.971 286.034 545.566 284.185 545.566 282.006C545.566 279.827 545.971 277.991 546.782 276.496C547.593 274.976 548.695 273.823 550.088 273.038C551.481 272.253 553.052 271.86 554.8 271.86C556.7 271.86 558.397 272.291 559.892 273.152C561.412 273.988 562.603 275.179 563.464 276.724C564.325 278.244 564.756 280.005 564.756 282.006C564.756 284.033 564.325 285.806 563.464 287.326C562.603 288.846 561.412 290.037 559.892 290.898C558.397 291.759 556.7 292.19 554.8 292.19ZM544.502 299.372V272.05H547.086V278.054L546.82 282.044L547.2 286.072V299.372H544.502ZM554.61 289.796C556.029 289.796 557.295 289.479 558.41 288.846C559.525 288.187 560.411 287.275 561.07 286.11C561.729 284.919 562.058 283.551 562.058 282.006C562.058 280.461 561.729 279.105 561.07 277.94C560.411 276.775 559.525 275.863 558.41 275.204C557.295 274.545 556.029 274.216 554.61 274.216C553.191 274.216 551.912 274.545 550.772 275.204C549.657 275.863 548.771 276.775 548.112 277.94C547.479 279.105 547.162 280.461 547.162 282.006C547.162 283.551 547.479 284.919 548.112 286.11C548.771 287.275 549.657 288.187 550.772 288.846C551.912 289.479 553.191 289.796 554.61 289.796ZM578.761 292.19C576.836 292.19 575.1 291.759 573.555 290.898C572.035 290.011 570.832 288.808 569.945 287.288C569.058 285.743 568.615 283.982 568.615 282.006C568.615 280.005 569.058 278.244 569.945 276.724C570.832 275.204 572.035 274.013 573.555 273.152C575.075 272.291 576.81 271.86 578.761 271.86C580.737 271.86 582.485 272.291 584.005 273.152C585.55 274.013 586.754 275.204 587.615 276.724C588.502 278.244 588.945 280.005 588.945 282.006C588.945 283.982 588.502 285.743 587.615 287.288C586.754 288.808 585.55 290.011 584.005 290.898C582.46 291.759 580.712 292.19 578.761 292.19ZM578.761 289.796C580.205 289.796 581.484 289.479 582.599 288.846C583.714 288.187 584.588 287.275 585.221 286.11C585.88 284.919 586.209 283.551 586.209 282.006C586.209 280.435 585.88 279.067 585.221 277.902C584.588 276.737 583.714 275.837 582.599 275.204C581.484 274.545 580.218 274.216 578.799 274.216C577.38 274.216 576.114 274.545 574.999 275.204C573.884 275.837 572.998 276.737 572.339 277.902C571.68 279.067 571.351 280.435 571.351 282.006C571.351 283.551 571.68 284.919 572.339 286.11C572.998 287.275 573.884 288.187 574.999 288.846C576.114 289.479 577.368 289.796 578.761 289.796ZM605.921 292.228C605.921 292.228 605.87 292.228 605.769 292.228C605.668 292.228 605.566 292.228 605.465 292.228C605.389 292.228 605.326 292.228 605.275 292.228C601.323 292.203 598.245 291.303 596.041 289.53C593.837 287.757 592.735 285.236 592.735 281.968C592.735 278.751 593.837 276.268 596.041 274.52C598.27 272.747 601.399 271.847 605.427 271.822C605.452 271.822 605.503 271.822 605.579 271.822C605.68 271.822 605.769 271.822 605.845 271.822C605.921 271.822 605.972 271.822 605.997 271.822C610.05 271.847 613.204 272.747 615.459 274.52C617.714 276.268 618.841 278.751 618.841 281.968C618.841 285.261 617.701 287.795 615.421 289.568C613.166 291.341 610 292.228 605.921 292.228ZM605.883 289.872C608.138 289.872 610.025 289.568 611.545 288.96C613.065 288.327 614.218 287.427 615.003 286.262C615.788 285.097 616.181 283.665 616.181 281.968C616.181 280.321 615.788 278.928 615.003 277.788C614.218 276.623 613.065 275.736 611.545 275.128C610.025 274.52 608.138 274.216 605.883 274.216C605.858 274.216 605.782 274.216 605.655 274.216C605.554 274.216 605.49 274.216 605.465 274.216C603.261 274.216 601.412 274.533 599.917 275.166C598.422 275.774 597.295 276.648 596.535 277.788C595.775 278.928 595.395 280.321 595.395 281.968C595.395 283.64 595.775 285.059 596.535 286.224C597.32 287.389 598.46 288.289 599.955 288.922C601.45 289.53 603.286 289.847 605.465 289.872C605.516 289.872 605.592 289.872 605.693 289.872C605.794 289.872 605.858 289.872 605.883 289.872ZM604.439 299.372V263.804H607.061V299.372H604.439ZM624.547 292V272.05H627.245V287.896L640.583 272.05H642.977V292H640.279V276.116L626.979 292H624.547ZM647.061 291.962L647.251 289.644C647.428 289.669 647.593 289.707 647.745 289.758C647.922 289.783 648.074 289.796 648.201 289.796C649.012 289.796 649.658 289.492 650.139 288.884C650.646 288.276 651.026 287.465 651.279 286.452C651.532 285.439 651.71 284.299 651.811 283.032C651.912 281.74 652.001 280.448 652.077 279.156L652.419 272.05H667.049V292H664.351V273.608L665.035 274.406H654.167L654.813 273.57L654.509 279.346C654.433 281.069 654.294 282.715 654.091 284.286C653.914 285.857 653.622 287.237 653.217 288.428C652.837 289.619 652.305 290.556 651.621 291.24C650.937 291.899 650.063 292.228 648.999 292.228C648.695 292.228 648.378 292.203 648.049 292.152C647.745 292.101 647.416 292.038 647.061 291.962ZM683.307 279.08C685.815 279.105 687.715 279.663 689.007 280.752C690.324 281.841 690.983 283.412 690.983 285.464C690.983 287.592 690.274 289.226 688.855 290.366C687.462 291.506 685.435 292.063 682.775 292.038L674.719 292V272.05H677.417V279.004L683.307 279.08ZM682.623 289.986C684.472 290.011 685.866 289.644 686.803 288.884C687.766 288.099 688.247 286.959 688.247 285.464C688.247 283.969 687.778 282.88 686.841 282.196C685.904 281.487 684.498 281.119 682.623 281.094L677.417 281.018V289.91L682.623 289.986ZM696.131 292V272.05H698.829V280.866H711.407V272.05H714.105V292H711.407V283.184H698.829V292H696.131ZM734.162 292V287.592L734.048 286.87V279.498C734.048 277.801 733.566 276.496 732.604 275.584C731.666 274.672 730.26 274.216 728.386 274.216C727.094 274.216 725.865 274.431 724.7 274.862C723.534 275.293 722.546 275.863 721.736 276.572L720.52 274.558C721.533 273.697 722.749 273.038 724.168 272.582C725.586 272.101 727.081 271.86 728.652 271.86C731.236 271.86 733.224 272.506 734.618 273.798C736.036 275.065 736.746 277.003 736.746 279.612V292H734.162ZM727.284 292.19C725.789 292.19 724.484 291.949 723.37 291.468C722.28 290.961 721.444 290.277 720.862 289.416C720.279 288.529 719.988 287.516 719.988 286.376C719.988 285.337 720.228 284.4 720.71 283.564C721.216 282.703 722.027 282.019 723.142 281.512C724.282 280.98 725.802 280.714 727.702 280.714H734.58V282.728H727.778C725.852 282.728 724.51 283.07 723.75 283.754C723.015 284.438 722.648 285.287 722.648 286.3C722.648 287.44 723.091 288.352 723.978 289.036C724.864 289.72 726.106 290.062 727.702 290.062C729.222 290.062 730.526 289.72 731.616 289.036C732.73 288.327 733.541 287.313 734.048 285.996L734.656 287.858C734.149 289.175 733.262 290.227 731.996 291.012C730.754 291.797 729.184 292.19 727.284 292.19ZM756.81 292V284.818L757.304 285.388H750.54C747.981 285.388 745.98 284.831 744.536 283.716C743.092 282.601 742.37 280.98 742.37 278.852C742.37 276.572 743.143 274.875 744.688 273.76C746.233 272.62 748.298 272.05 750.882 272.05H759.28V292H756.81ZM742.218 292L747.69 284.324H750.502L745.144 292H742.218ZM756.81 284.02V273.608L757.304 274.406H750.958C749.109 274.406 747.665 274.761 746.626 275.47C745.613 276.179 745.106 277.332 745.106 278.928C745.106 281.892 746.993 283.374 750.768 283.374H757.304L756.81 284.02ZM791.548 292L783.34 282.12L785.582 280.79L794.74 292H791.548ZM776.918 292V272.05H779.616V292H776.918ZM778.78 283.108V280.79H785.202V283.108H778.78ZM785.81 282.31L783.302 281.93L791.244 272.05H794.17L785.81 282.31ZM795.35 291.962L795.54 289.644C795.717 289.669 795.882 289.707 796.034 289.758C796.211 289.783 796.363 289.796 796.49 289.796C797.301 289.796 797.947 289.492 798.428 288.884C798.935 288.276 799.315 287.465 799.568 286.452C799.821 285.439 799.999 284.299 800.1 283.032C800.201 281.74 800.29 280.448 800.366 279.156L800.708 272.05H815.338V292H812.64V273.608L813.324 274.406H802.456L803.102 273.57L802.798 279.346C802.722 281.069 802.583 282.715 802.38 284.286C802.203 285.857 801.911 287.237 801.506 288.428C801.126 289.619 800.594 290.556 799.91 291.24C799.226 291.899 798.352 292.228 797.288 292.228C796.984 292.228 796.667 292.203 796.338 292.152C796.034 292.101 795.705 292.038 795.35 291.962ZM823.008 292V272.05H825.706V287.896L839.044 272.05H841.438V292H838.74V276.116L825.44 292H823.008ZM849.17 292V272.05H851.868V280.866H864.446V272.05H867.144V292H864.446V283.184H851.868V292H849.17ZM874.813 292V272.05H877.511V287.896L890.849 272.05H893.243V292H890.545V276.116L877.245 292H874.813ZM915.605 292L907.397 282.12L909.639 280.79L918.797 292H915.605ZM900.975 292V272.05H903.673V292H900.975ZM902.837 283.108V280.79H909.259V283.108H902.837ZM909.867 282.31L907.359 281.93L915.301 272.05H918.227L909.867 282.31ZM935.072 292V287.592L934.958 286.87V279.498C934.958 277.801 934.476 276.496 933.514 275.584C932.576 274.672 931.17 274.216 929.296 274.216C928.004 274.216 926.775 274.431 925.61 274.862C924.444 275.293 923.456 275.863 922.646 276.572L921.43 274.558C922.443 273.697 923.659 273.038 925.078 272.582C926.496 272.101 927.991 271.86 929.562 271.86C932.146 271.86 934.134 272.506 935.528 273.798C936.946 275.065 937.656 277.003 937.656 279.612V292H935.072ZM928.194 292.19C926.699 292.19 925.394 291.949 924.28 291.468C923.19 290.961 922.354 290.277 921.772 289.416C921.189 288.529 920.898 287.516 920.898 286.376C920.898 285.337 921.138 284.4 921.62 283.564C922.126 282.703 922.937 282.019 924.052 281.512C925.192 280.98 926.712 280.714 928.612 280.714H935.49V282.728H928.688C926.762 282.728 925.42 283.07 924.66 283.754C923.925 284.438 923.558 285.287 923.558 286.3C923.558 287.44 924.001 288.352 924.888 289.036C925.774 289.72 927.016 290.062 928.612 290.062C930.132 290.062 931.436 289.72 932.526 289.036C933.64 288.327 934.451 287.313 934.958 285.996L935.566 287.858C935.059 289.175 934.172 290.227 932.906 291.012C931.664 291.797 930.094 292.19 928.194 292.19ZM74.6335 338.19C72.6575 338.19 70.8842 337.759 69.3135 336.898C67.7682 336.011 66.5522 334.808 65.6655 333.288C64.7789 331.743 64.3355 329.982 64.3355 328.006C64.3355 326.005 64.7789 324.244 65.6655 322.724C66.5522 321.204 67.7682 320.013 69.3135 319.152C70.8842 318.291 72.6575 317.86 74.6335 317.86C76.3309 317.86 77.8635 318.189 79.2315 318.848C80.5995 319.507 81.6762 320.495 82.4615 321.812L80.4475 323.18C79.7635 322.167 78.9149 321.419 77.9015 320.938C76.8882 320.457 75.7862 320.216 74.5955 320.216C73.1769 320.216 71.8975 320.545 70.7575 321.204C69.6175 321.837 68.7182 322.737 68.0595 323.902C67.4009 325.067 67.0715 326.435 67.0715 328.006C67.0715 329.577 67.4009 330.945 68.0595 332.11C68.7182 333.275 69.6175 334.187 70.7575 334.846C71.8975 335.479 73.1769 335.796 74.5955 335.796C75.7862 335.796 76.8882 335.555 77.9015 335.074C78.9149 334.593 79.7635 333.858 80.4475 332.87L82.4615 334.238C81.6762 335.53 80.5995 336.518 79.2315 337.202C77.8635 337.861 76.3309 338.19 74.6335 338.19ZM97.631 338V318.05H106.447C108.702 318.05 110.475 318.481 111.767 319.342C113.084 320.203 113.743 321.47 113.743 323.142C113.743 324.763 113.122 326.017 111.881 326.904C110.64 327.765 109.006 328.196 106.979 328.196L107.511 327.398C109.892 327.398 111.64 327.841 112.755 328.728C113.87 329.615 114.427 330.894 114.427 332.566C114.427 334.289 113.794 335.631 112.527 336.594C111.286 337.531 109.348 338 106.713 338H97.631ZM100.253 335.872H106.599C108.296 335.872 109.576 335.606 110.437 335.074C111.324 334.517 111.767 333.63 111.767 332.414C111.767 331.198 111.374 330.311 110.589 329.754C109.804 329.197 108.562 328.918 106.865 328.918H100.253V335.872ZM100.253 326.904H106.257C107.802 326.904 108.98 326.613 109.791 326.03C110.627 325.447 111.045 324.599 111.045 323.484C111.045 322.369 110.627 321.533 109.791 320.976C108.98 320.419 107.802 320.14 106.257 320.14H100.253V326.904ZM140.206 338V318.05H142.904V338H140.206ZM129.148 325.08C131.656 325.105 133.569 325.663 134.886 326.752C136.203 327.841 136.862 329.412 136.862 331.464C136.862 333.592 136.153 335.226 134.734 336.366C133.315 337.506 131.289 338.063 128.654 338.038L120.75 338V318.05H123.448V325.004L129.148 325.08ZM128.464 335.986C130.339 336.011 131.745 335.644 132.682 334.884C133.645 334.099 134.126 332.959 134.126 331.464C134.126 329.969 133.657 328.88 132.72 328.196C131.783 327.487 130.364 327.119 128.464 327.094L123.448 327.018V335.91L128.464 335.986ZM158.946 338.19C156.97 338.19 155.197 337.759 153.626 336.898C152.081 336.011 150.865 334.808 149.978 333.288C149.091 331.743 148.648 329.982 148.648 328.006C148.648 326.005 149.091 324.244 149.978 322.724C150.865 321.204 152.081 320.013 153.626 319.152C155.197 318.291 156.97 317.86 158.946 317.86C160.643 317.86 162.176 318.189 163.544 318.848C164.912 319.507 165.989 320.495 166.774 321.812L164.76 323.18C164.076 322.167 163.227 321.419 162.214 320.938C161.201 320.457 160.099 320.216 158.908 320.216C157.489 320.216 156.21 320.545 155.07 321.204C153.93 321.837 153.031 322.737 152.372 323.902C151.713 325.067 151.384 326.435 151.384 328.006C151.384 329.577 151.713 330.945 152.372 332.11C153.031 333.275 153.93 334.187 155.07 334.846C156.21 335.479 157.489 335.796 158.908 335.796C160.099 335.796 161.201 335.555 162.214 335.074C163.227 334.593 164.076 333.858 164.76 332.87L166.774 334.238C165.989 335.53 164.912 336.518 163.544 337.202C162.176 337.861 160.643 338.19 158.946 338.19ZM179.872 338.19C177.947 338.19 176.212 337.759 174.666 336.898C173.146 336.011 171.943 334.808 171.056 333.288C170.17 331.743 169.726 329.982 169.726 328.006C169.726 326.005 170.17 324.244 171.056 322.724C171.943 321.204 173.146 320.013 174.666 319.152C176.186 318.291 177.922 317.86 179.872 317.86C181.848 317.86 183.596 318.291 185.116 319.152C186.662 320.013 187.865 321.204 188.726 322.724C189.613 324.244 190.056 326.005 190.056 328.006C190.056 329.982 189.613 331.743 188.726 333.288C187.865 334.808 186.662 336.011 185.116 336.898C183.571 337.759 181.823 338.19 179.872 338.19ZM179.872 335.796C181.316 335.796 182.596 335.479 183.71 334.846C184.825 334.187 185.699 333.275 186.332 332.11C186.991 330.919 187.32 329.551 187.32 328.006C187.32 326.435 186.991 325.067 186.332 323.902C185.699 322.737 184.825 321.837 183.71 321.204C182.596 320.545 181.329 320.216 179.91 320.216C178.492 320.216 177.225 320.545 176.11 321.204C174.996 321.837 174.109 322.737 173.45 323.902C172.792 325.067 172.462 326.435 172.462 328.006C172.462 329.551 172.792 330.919 173.45 332.11C174.109 333.275 174.996 334.187 176.11 334.846C177.225 335.479 178.479 335.796 179.872 335.796ZM210.452 338L202.244 328.12L204.486 326.79L213.644 338H210.452ZM195.822 338V318.05H198.52V338H195.822ZM197.684 329.108V326.79H204.106V329.108H197.684ZM204.714 328.31L202.206 327.93L210.148 318.05H213.074L204.714 328.31ZM225.405 338.19C223.48 338.19 221.745 337.759 220.199 336.898C218.679 336.011 217.476 334.808 216.589 333.288C215.703 331.743 215.259 329.982 215.259 328.006C215.259 326.005 215.703 324.244 216.589 322.724C217.476 321.204 218.679 320.013 220.199 319.152C221.719 318.291 223.455 317.86 225.405 317.86C227.381 317.86 229.129 318.291 230.649 319.152C232.195 320.013 233.398 321.204 234.259 322.724C235.146 324.244 235.589 326.005 235.589 328.006C235.589 329.982 235.146 331.743 234.259 333.288C233.398 334.808 232.195 336.011 230.649 336.898C229.104 337.759 227.356 338.19 225.405 338.19ZM225.405 335.796C226.849 335.796 228.129 335.479 229.243 334.846C230.358 334.187 231.232 333.275 231.865 332.11C232.524 330.919 232.853 329.551 232.853 328.006C232.853 326.435 232.524 325.067 231.865 323.902C231.232 322.737 230.358 321.837 229.243 321.204C228.129 320.545 226.862 320.216 225.443 320.216C224.025 320.216 222.758 320.545 221.643 321.204C220.529 321.837 219.642 322.737 218.983 323.902C218.325 325.067 217.995 326.435 217.995 328.006C217.995 329.551 218.325 330.919 218.983 332.11C219.642 333.275 220.529 334.187 221.643 334.846C222.758 335.479 224.012 335.796 225.405 335.796ZM240.169 328.88V326.524H250.125V328.88H240.169ZM270.866 338L262.658 328.12L264.9 326.79L274.058 338H270.866ZM256.236 338V318.05H258.934V338H256.236ZM258.098 329.108V326.79H264.52V329.108H258.098ZM265.128 328.31L262.62 327.93L270.562 318.05H273.488L265.128 328.31ZM278.317 338V318.05H287.133C289.387 318.05 291.161 318.481 292.453 319.342C293.77 320.203 294.429 321.47 294.429 323.142C294.429 324.763 293.808 326.017 292.567 326.904C291.325 327.765 289.691 328.196 287.665 328.196L288.197 327.398C290.578 327.398 292.326 327.841 293.441 328.728C294.555 329.615 295.113 330.894 295.113 332.566C295.113 334.289 294.479 335.631 293.213 336.594C291.971 337.531 290.033 338 287.399 338H278.317ZM280.939 335.872H287.285C288.982 335.872 290.261 335.606 291.123 335.074C292.009 334.517 292.453 333.63 292.453 332.414C292.453 331.198 292.06 330.311 291.275 329.754C290.489 329.197 289.248 328.918 287.551 328.918H280.939V335.872ZM280.939 326.904H286.943C288.488 326.904 289.666 326.613 290.477 326.03C291.313 325.447 291.731 324.599 291.731 323.484C291.731 322.369 291.313 321.533 290.477 320.976C289.666 320.419 288.488 320.14 286.943 320.14H280.939V326.904ZM313.824 338V333.592L313.71 332.87V325.498C313.71 323.801 313.228 322.496 312.266 321.584C311.328 320.672 309.922 320.216 308.048 320.216C306.756 320.216 305.527 320.431 304.362 320.862C303.196 321.293 302.208 321.863 301.398 322.572L300.182 320.558C301.195 319.697 302.411 319.038 303.83 318.582C305.248 318.101 306.743 317.86 308.314 317.86C310.898 317.86 312.886 318.506 314.28 319.798C315.698 321.065 316.408 323.003 316.408 325.612V338H313.824ZM306.946 338.19C305.451 338.19 304.146 337.949 303.032 337.468C301.942 336.961 301.106 336.277 300.524 335.416C299.941 334.529 299.65 333.516 299.65 332.376C299.65 331.337 299.89 330.4 300.372 329.564C300.878 328.703 301.689 328.019 302.804 327.512C303.944 326.98 305.464 326.714 307.364 326.714H314.242V328.728H307.44C305.514 328.728 304.172 329.07 303.412 329.754C302.677 330.438 302.31 331.287 302.31 332.3C302.31 333.44 302.753 334.352 303.64 335.036C304.526 335.72 305.768 336.062 307.364 336.062C308.884 336.062 310.188 335.72 311.278 335.036C312.392 334.327 313.203 333.313 313.71 331.996L314.318 333.858C313.811 335.175 312.924 336.227 311.658 337.012C310.416 337.797 308.846 338.19 306.946 338.19ZM319.942 337.962L320.132 335.644C320.309 335.669 320.474 335.707 320.626 335.758C320.803 335.783 320.955 335.796 321.082 335.796C321.893 335.796 322.539 335.492 323.02 334.884C323.527 334.276 323.907 333.465 324.16 332.452C324.413 331.439 324.591 330.299 324.692 329.032C324.793 327.74 324.882 326.448 324.958 325.156L325.3 318.05H339.93V338H337.232V319.608L337.916 320.406H327.048L327.694 319.57L327.39 325.346C327.314 327.069 327.175 328.715 326.972 330.286C326.795 331.857 326.503 333.237 326.098 334.428C325.718 335.619 325.186 336.556 324.502 337.24C323.818 337.899 322.944 338.228 321.88 338.228C321.576 338.228 321.259 338.203 320.93 338.152C320.626 338.101 320.297 338.038 319.942 337.962ZM347.6 338V318.05H350.298V333.896L363.636 318.05H366.03V338H363.332V322.116L350.032 338H347.6ZM384.972 338.228C384.972 338.228 384.921 338.228 384.82 338.228C384.718 338.228 384.617 338.228 384.516 338.228C384.44 338.228 384.376 338.228 384.326 338.228C380.374 338.203 377.296 337.303 375.092 335.53C372.888 333.757 371.786 331.236 371.786 327.968C371.786 324.751 372.888 322.268 375.092 320.52C377.321 318.747 380.45 317.847 384.478 317.822C384.503 317.822 384.554 317.822 384.63 317.822C384.731 317.822 384.82 317.822 384.896 317.822C384.972 317.822 385.022 317.822 385.048 317.822C389.101 317.847 392.255 318.747 394.51 320.52C396.764 322.268 397.892 324.751 397.892 327.968C397.892 331.261 396.752 333.795 394.472 335.568C392.217 337.341 389.05 338.228 384.972 338.228ZM384.934 335.872C387.188 335.872 389.076 335.568 390.596 334.96C392.116 334.327 393.268 333.427 394.054 332.262C394.839 331.097 395.232 329.665 395.232 327.968C395.232 326.321 394.839 324.928 394.054 323.788C393.268 322.623 392.116 321.736 390.596 321.128C389.076 320.52 387.188 320.216 384.934 320.216C384.908 320.216 384.832 320.216 384.706 320.216C384.604 320.216 384.541 320.216 384.516 320.216C382.312 320.216 380.462 320.533 378.968 321.166C377.473 321.774 376.346 322.648 375.586 323.788C374.826 324.928 374.446 326.321 374.446 327.968C374.446 329.64 374.826 331.059 375.586 332.224C376.371 333.389 377.511 334.289 379.006 334.922C380.5 335.53 382.337 335.847 384.516 335.872C384.566 335.872 384.642 335.872 384.744 335.872C384.845 335.872 384.908 335.872 384.934 335.872ZM383.49 345.372V309.804H386.112V345.372H383.49ZM403.598 338V318.05H406.296V333.896L419.634 318.05H422.028V338H419.33V322.116L406.03 338H403.598ZM429.76 338V318.05H432.458V335.644H444.656V318.05H447.354V338H429.76ZM448.038 342.826V337.772L448.722 338H444.656V335.644H450.584V342.826H448.038ZM455.736 338V318.05H458.434V333.896L471.772 318.05H474.166V338H471.468V322.116L458.168 338H455.736ZM492.197 338.19C490.474 338.19 488.916 337.797 487.523 337.012C486.129 336.201 485.015 335.049 484.179 333.554C483.368 332.034 482.963 330.185 482.963 328.006C482.963 325.827 483.368 323.991 484.179 322.496C484.989 320.976 486.091 319.823 487.485 319.038C488.878 318.253 490.449 317.86 492.197 317.86C494.097 317.86 495.794 318.291 497.289 319.152C498.809 319.988 499.999 321.179 500.861 322.724C501.722 324.244 502.153 326.005 502.153 328.006C502.153 330.033 501.722 331.806 500.861 333.326C499.999 334.846 498.809 336.037 497.289 336.898C495.794 337.759 494.097 338.19 492.197 338.19ZM481.899 345.372V318.05H484.483V324.054L484.217 328.044L484.597 332.072V345.372H481.899ZM492.007 335.796C493.425 335.796 494.692 335.479 495.807 334.846C496.921 334.187 497.808 333.275 498.467 332.11C499.125 330.919 499.455 329.551 499.455 328.006C499.455 326.461 499.125 325.105 498.467 323.94C497.808 322.775 496.921 321.863 495.807 321.204C494.692 320.545 493.425 320.216 492.007 320.216C490.588 320.216 489.309 320.545 488.169 321.204C487.054 321.863 486.167 322.775 485.509 323.94C484.875 325.105 484.559 326.461 484.559 328.006C484.559 329.551 484.875 330.919 485.509 332.11C486.167 333.275 487.054 334.187 488.169 334.846C489.309 335.479 490.588 335.796 492.007 335.796ZM516.157 338.19C514.232 338.19 512.497 337.759 510.951 336.898C509.431 336.011 508.228 334.808 507.341 333.288C506.455 331.743 506.011 329.982 506.011 328.006C506.011 326.005 506.455 324.244 507.341 322.724C508.228 321.204 509.431 320.013 510.951 319.152C512.471 318.291 514.207 317.86 516.157 317.86C518.133 317.86 519.881 318.291 521.401 319.152C522.947 320.013 524.15 321.204 525.011 322.724C525.898 324.244 526.341 326.005 526.341 328.006C526.341 329.982 525.898 331.743 525.011 333.288C524.15 334.808 522.947 336.011 521.401 336.898C519.856 337.759 518.108 338.19 516.157 338.19ZM516.157 335.796C517.601 335.796 518.881 335.479 519.995 334.846C521.11 334.187 521.984 333.275 522.617 332.11C523.276 330.919 523.605 329.551 523.605 328.006C523.605 326.435 523.276 325.067 522.617 323.902C521.984 322.737 521.11 321.837 519.995 321.204C518.881 320.545 517.614 320.216 516.195 320.216C514.777 320.216 513.51 320.545 512.395 321.204C511.281 321.837 510.394 322.737 509.735 323.902C509.077 325.067 508.747 326.435 508.747 328.006C508.747 329.551 509.077 330.919 509.735 332.11C510.394 333.275 511.281 334.187 512.395 334.846C513.51 335.479 514.764 335.796 516.157 335.796ZM532.108 338V318.05H540.924C543.178 318.05 544.952 318.481 546.244 319.342C547.561 320.203 548.22 321.47 548.22 323.142C548.22 324.763 547.599 326.017 546.358 326.904C545.116 327.765 543.482 328.196 541.456 328.196L541.988 327.398C544.369 327.398 546.117 327.841 547.232 328.728C548.346 329.615 548.904 330.894 548.904 332.566C548.904 334.289 548.27 335.631 547.004 336.594C545.762 337.531 543.824 338 541.19 338H532.108ZM534.73 335.872H541.076C542.773 335.872 544.052 335.606 544.914 335.074C545.8 334.517 546.244 333.63 546.244 332.414C546.244 331.198 545.851 330.311 545.066 329.754C544.28 329.197 543.039 328.918 541.342 328.918H534.73V335.872ZM534.73 326.904H540.734C542.279 326.904 543.457 326.613 544.268 326.03C545.104 325.447 545.522 324.599 545.522 323.484C545.522 322.369 545.104 321.533 544.268 320.976C543.457 320.419 542.279 320.14 540.734 320.14H534.73V326.904ZM567.615 338V333.592L567.501 332.87V325.498C567.501 323.801 567.019 322.496 566.057 321.584C565.119 320.672 563.713 320.216 561.839 320.216C560.547 320.216 559.318 320.431 558.153 320.862C556.987 321.293 555.999 321.863 555.189 322.572L553.973 320.558C554.986 319.697 556.202 319.038 557.621 318.582C559.039 318.101 560.534 317.86 562.105 317.86C564.689 317.86 566.677 318.506 568.071 319.798C569.489 321.065 570.199 323.003 570.199 325.612V338H567.615ZM560.737 338.19C559.242 338.19 557.937 337.949 556.823 337.468C555.733 336.961 554.897 336.277 554.315 335.416C553.732 334.529 553.441 333.516 553.441 332.376C553.441 331.337 553.681 330.4 554.163 329.564C554.669 328.703 555.48 328.019 556.595 327.512C557.735 326.98 559.255 326.714 561.155 326.714H568.033V328.728H561.231C559.305 328.728 557.963 329.07 557.203 329.754C556.468 330.438 556.101 331.287 556.101 332.3C556.101 333.44 556.544 334.352 557.431 335.036C558.317 335.72 559.559 336.062 561.155 336.062C562.675 336.062 563.979 335.72 565.069 335.036C566.183 334.327 566.994 333.313 567.501 331.996L568.109 333.858C567.602 335.175 566.715 336.227 565.449 337.012C564.207 337.797 562.637 338.19 560.737 338.19ZM577.381 338V318.05H580.079V326.866H592.657V318.05H595.355V338H592.657V329.184H580.079V338H577.381ZM603.024 338V318.05H605.722V326.866H618.3V318.05H620.998V338H618.3V329.184H605.722V338H603.024ZM648.122 338V318.05H650.82V338H648.122ZM637.064 325.08C639.572 325.105 641.485 325.663 642.802 326.752C644.119 327.841 644.778 329.412 644.778 331.464C644.778 333.592 644.069 335.226 642.65 336.366C641.231 337.506 639.205 338.063 636.57 338.038L628.666 338V318.05H631.364V325.004L637.064 325.08ZM636.38 335.986C638.255 336.011 639.661 335.644 640.598 334.884C641.561 334.099 642.042 332.959 642.042 331.464C642.042 329.969 641.573 328.88 640.636 328.196C639.699 327.487 638.28 327.119 636.38 327.094L631.364 327.018V335.91L636.38 335.986ZM658.502 338V318.05H661.238L670.282 333.364H669.142L678.338 318.05H680.846V338H678.376V321.128L678.87 321.356L670.282 335.568H669.066L660.402 321.204L660.972 321.09V338H658.502ZM698.469 338V318.05H716.405V338H713.707V319.684L714.391 320.406H700.483L701.167 319.684V338H698.469ZM732.624 338.19C730.547 338.19 728.723 337.759 727.152 336.898C725.582 336.011 724.353 334.808 723.466 333.288C722.58 331.743 722.136 329.982 722.136 328.006C722.136 326.03 722.554 324.282 723.39 322.762C724.252 321.242 725.417 320.051 726.886 319.19C728.381 318.303 730.053 317.86 731.902 317.86C733.777 317.86 735.436 318.291 736.88 319.152C738.35 319.988 739.502 321.179 740.338 322.724C741.174 324.244 741.592 326.005 741.592 328.006C741.592 328.133 741.58 328.272 741.554 328.424C741.554 328.551 741.554 328.69 741.554 328.842H724.188V326.828H740.11L739.046 327.626C739.046 326.182 738.73 324.903 738.096 323.788C737.488 322.648 736.652 321.761 735.588 321.128C734.524 320.495 733.296 320.178 731.902 320.178C730.534 320.178 729.306 320.495 728.216 321.128C727.127 321.761 726.278 322.648 725.67 323.788C725.062 324.928 724.758 326.233 724.758 327.702V328.12C724.758 329.64 725.088 330.983 725.746 332.148C726.43 333.288 727.368 334.187 728.558 334.846C729.774 335.479 731.155 335.796 732.7 335.796C733.916 335.796 735.044 335.581 736.082 335.15C737.146 334.719 738.058 334.061 738.818 333.174L740.338 334.922C739.452 335.986 738.337 336.797 736.994 337.354C735.677 337.911 734.22 338.19 732.624 338.19ZM757.863 338.19C756.14 338.19 754.582 337.797 753.189 337.012C751.795 336.201 750.681 335.049 749.845 333.554C749.034 332.034 748.629 330.185 748.629 328.006C748.629 325.827 749.034 323.991 749.845 322.496C750.655 320.976 751.757 319.823 753.151 319.038C754.544 318.253 756.115 317.86 757.863 317.86C759.763 317.86 761.46 318.291 762.955 319.152C764.475 319.988 765.665 321.179 766.527 322.724C767.388 324.244 767.819 326.005 767.819 328.006C767.819 330.033 767.388 331.806 766.527 333.326C765.665 334.846 764.475 336.037 762.955 336.898C761.46 337.759 759.763 338.19 757.863 338.19ZM747.565 345.372V318.05H750.149V324.054L749.883 328.044L750.263 332.072V345.372H747.565ZM757.673 335.796C759.091 335.796 760.358 335.479 761.473 334.846C762.587 334.187 763.474 333.275 764.133 332.11C764.791 330.919 765.121 329.551 765.121 328.006C765.121 326.461 764.791 325.105 764.133 323.94C763.474 322.775 762.587 321.863 761.473 321.204C760.358 320.545 759.091 320.216 757.673 320.216C756.254 320.216 754.975 320.545 753.835 321.204C752.72 321.863 751.833 322.775 751.175 323.94C750.541 325.105 750.225 326.461 750.225 328.006C750.225 329.551 750.541 330.919 751.175 332.11C751.833 333.275 752.72 334.187 753.835 334.846C754.975 335.479 756.254 335.796 757.673 335.796ZM781.975 338.19C779.999 338.19 778.226 337.759 776.655 336.898C775.11 336.011 773.894 334.808 773.007 333.288C772.121 331.743 771.677 329.982 771.677 328.006C771.677 326.005 772.121 324.244 773.007 322.724C773.894 321.204 775.11 320.013 776.655 319.152C778.226 318.291 779.999 317.86 781.975 317.86C783.673 317.86 785.205 318.189 786.573 318.848C787.941 319.507 789.018 320.495 789.803 321.812L787.789 323.18C787.105 322.167 786.257 321.419 785.243 320.938C784.23 320.457 783.128 320.216 781.937 320.216C780.519 320.216 779.239 320.545 778.099 321.204C776.959 321.837 776.06 322.737 775.401 323.902C774.743 325.067 774.413 326.435 774.413 328.006C774.413 329.577 774.743 330.945 775.401 332.11C776.06 333.275 776.959 334.187 778.099 334.846C779.239 335.479 780.519 335.796 781.937 335.796C783.128 335.796 784.23 335.555 785.243 335.074C786.257 334.593 787.105 333.858 787.789 332.87L789.803 334.238C789.018 335.53 787.941 336.518 786.573 337.202C785.205 337.861 783.673 338.19 781.975 338.19ZM802.901 338.19C800.976 338.19 799.241 337.759 797.695 336.898C796.175 336.011 794.972 334.808 794.085 333.288C793.199 331.743 792.755 329.982 792.755 328.006C792.755 326.005 793.199 324.244 794.085 322.724C794.972 321.204 796.175 320.013 797.695 319.152C799.215 318.291 800.951 317.86 802.901 317.86C804.877 317.86 806.625 318.291 808.145 319.152C809.691 320.013 810.894 321.204 811.755 322.724C812.642 324.244 813.085 326.005 813.085 328.006C813.085 329.982 812.642 331.743 811.755 333.288C810.894 334.808 809.691 336.011 808.145 336.898C806.6 337.759 804.852 338.19 802.901 338.19ZM802.901 335.796C804.345 335.796 805.625 335.479 806.739 334.846C807.854 334.187 808.728 333.275 809.361 332.11C810.02 330.919 810.349 329.551 810.349 328.006C810.349 326.435 810.02 325.067 809.361 323.902C808.728 322.737 807.854 321.837 806.739 321.204C805.625 320.545 804.358 320.216 802.939 320.216C801.521 320.216 800.254 320.545 799.139 321.204C798.025 321.837 797.138 322.737 796.479 323.902C795.821 325.067 795.491 326.435 795.491 328.006C795.491 329.551 795.821 330.919 796.479 332.11C797.138 333.275 798.025 334.187 799.139 334.846C800.254 335.479 801.508 335.796 802.901 335.796ZM818.852 338V318.05H821.55V326.866H834.128V318.05H836.826V338H834.128V329.184H821.55V338H818.852ZM856.882 338V333.592L856.768 332.87V325.498C856.768 323.801 856.287 322.496 855.324 321.584C854.387 320.672 852.981 320.216 851.106 320.216C849.814 320.216 848.586 320.431 847.42 320.862C846.255 321.293 845.267 321.863 844.456 322.572L843.24 320.558C844.254 319.697 845.47 319.038 846.888 318.582C848.307 318.101 849.802 317.86 851.372 317.86C853.956 317.86 855.945 318.506 857.338 319.798C858.757 321.065 859.466 323.003 859.466 325.612V338H856.882ZM850.004 338.19C848.51 338.19 847.205 337.949 846.09 337.468C845.001 336.961 844.165 336.277 843.582 335.416C843 334.529 842.708 333.516 842.708 332.376C842.708 331.337 842.949 330.4 843.43 329.564C843.937 328.703 844.748 328.019 845.862 327.512C847.002 326.98 848.522 326.714 850.422 326.714H857.3V328.728H850.498C848.573 328.728 847.23 329.07 846.47 329.754C845.736 330.438 845.368 331.287 845.368 332.3C845.368 333.44 845.812 334.352 846.698 335.036C847.585 335.72 848.826 336.062 850.422 336.062C851.942 336.062 853.247 335.72 854.336 335.036C855.451 334.327 856.262 333.313 856.768 331.996L857.376 333.858C856.87 335.175 855.983 336.227 854.716 337.012C853.475 337.797 851.904 338.19 850.004 338.19ZM863.001 337.962L863.191 335.644C863.368 335.669 863.533 335.707 863.685 335.758C863.862 335.783 864.014 335.796 864.141 335.796C864.951 335.796 865.597 335.492 866.079 334.884C866.585 334.276 866.965 333.465 867.219 332.452C867.472 331.439 867.649 330.299 867.751 329.032C867.852 327.74 867.941 326.448 868.017 325.156L868.359 318.05H882.989V338H880.291V319.608L880.975 320.406H870.107L870.753 319.57L870.449 325.346C870.373 327.069 870.233 328.715 870.031 330.286C869.853 331.857 869.562 333.237 869.157 334.428C868.777 335.619 868.245 336.556 867.561 337.24C866.877 337.899 866.003 338.228 864.939 338.228C864.635 338.228 864.318 338.203 863.989 338.152C863.685 338.101 863.355 338.038 863.001 337.962ZM898.866 338.19C896.941 338.19 895.206 337.759 893.66 336.898C892.14 336.011 890.937 334.808 890.05 333.288C889.164 331.743 888.72 329.982 888.72 328.006C888.72 326.005 889.164 324.244 890.05 322.724C890.937 321.204 892.14 320.013 893.66 319.152C895.18 318.291 896.916 317.86 898.866 317.86C900.842 317.86 902.59 318.291 904.11 319.152C905.656 320.013 906.859 321.204 907.72 322.724C908.607 324.244 909.05 326.005 909.05 328.006C909.05 329.982 908.607 331.743 907.72 333.288C906.859 334.808 905.656 336.011 904.11 336.898C902.565 337.759 900.817 338.19 898.866 338.19ZM898.866 335.796C900.31 335.796 901.59 335.479 902.704 334.846C903.819 334.187 904.693 333.275 905.326 332.11C905.985 330.919 906.314 329.551 906.314 328.006C906.314 326.435 905.985 325.067 905.326 323.902C904.693 322.737 903.819 321.837 902.704 321.204C901.59 320.545 900.323 320.216 898.904 320.216C897.486 320.216 896.219 320.545 895.104 321.204C893.99 321.837 893.103 322.737 892.444 323.902C891.786 325.067 891.456 326.435 891.456 328.006C891.456 329.551 891.786 330.919 892.444 332.11C893.103 333.275 893.99 334.187 895.104 334.846C896.219 335.479 897.473 335.796 898.866 335.796ZM914.817 338V318.05H917.553L926.597 333.364H925.457L934.653 318.05H937.161V338H934.691V321.128L935.185 321.356L926.597 335.568H925.381L916.717 321.204L917.287 321.09V338H914.817Z" fill="#566E8C"/>
<path d="M430.72 58L413.74 36.88L416.32 35.38L434.32 58H430.72ZM401.56 58V16H404.62V58H401.56ZM403.6 38.08V35.32H416.38V38.08H403.6ZM416.5 37.3L413.68 36.7L429.82 16H433.24L416.5 37.3ZM435.023 57.88L435.323 55.3C435.563 55.34 435.803 55.4 436.043 55.48C436.323 55.52 436.563 55.54 436.763 55.54C438.123 55.54 439.203 55.04 440.003 54.04C440.803 53 441.403 51.62 441.803 49.9C442.243 48.18 442.543 46.24 442.703 44.08C442.903 41.92 443.063 39.72 443.183 37.48L443.723 26.68H465.683V58H462.683V28.42L463.523 29.38H445.643L446.423 28.36L445.943 37.72C445.783 40.44 445.563 43.04 445.283 45.52C445.003 48 444.583 50.2 444.023 52.12C443.463 54.04 442.663 55.56 441.623 56.68C440.583 57.76 439.243 58.3 437.603 58.3C437.203 58.3 436.783 58.26 436.343 58.18C435.943 58.1 435.503 58 435.023 57.88ZM478.644 58V26.68H481.644V53.38L503.964 26.68H506.604V58H503.604V31.3L481.284 58H478.644ZM519.543 58V26.68H522.543V40.96H543.783V26.68H546.783V58H543.783V43.6H522.543V58H519.543ZM559.738 58V26.68H562.738V53.38L585.058 26.68H587.698V58H584.698V31.3L562.378 58H559.738ZM623.736 58L610.296 42.34L612.816 40.9L627.336 58H623.736ZM600.636 58V26.68H603.636V58H600.636ZM602.676 43.48V40.9H612.516V43.48H602.676ZM612.996 42.64L610.236 42.16L623.076 26.68H626.376L612.996 42.64ZM653.712 58V50.86L653.592 49.78V38.02C653.592 35.1 652.792 32.88 651.192 31.36C649.632 29.84 647.332 29.08 644.292 29.08C642.132 29.08 640.112 29.46 638.232 30.22C636.392 30.94 634.812 31.88 633.492 33.04L631.992 30.88C633.552 29.48 635.432 28.4 637.632 27.64C639.832 26.84 642.132 26.44 644.532 26.44C648.412 26.44 651.392 27.42 653.472 29.38C655.552 31.34 656.592 34.26 656.592 38.14V58H653.712ZM642.432 58.24C640.112 58.24 638.092 57.88 636.372 57.16C634.692 56.4 633.392 55.34 632.472 53.98C631.592 52.62 631.152 51.06 631.152 49.3C631.152 47.7 631.512 46.26 632.232 44.98C632.992 43.66 634.232 42.6 635.952 41.8C637.672 40.96 639.972 40.54 642.852 40.54H654.372V42.88H642.912C639.672 42.88 637.392 43.48 636.072 44.68C634.792 45.88 634.152 47.38 634.152 49.18C634.152 51.18 634.912 52.78 636.432 53.98C637.952 55.18 640.092 55.78 642.852 55.78C645.492 55.78 647.712 55.18 649.512 53.98C651.352 52.78 652.712 51.04 653.592 48.76L654.432 50.8C653.592 53.08 652.152 54.9 650.112 56.26C648.112 57.58 645.552 58.24 642.432 58.24Z" fill="#566E8C"/>
</svg>
