<svg width="606" height="769" viewBox="0 0 606 769" fill="none" xmlns="http://www.w3.org/2000/svg">
<path d="M74.6947 597.401C65.8027 597.401 57.3667 595.919 49.3867 592.955C41.5207 589.877 35.4217 585.944 31.0897 581.156L35.0227 574.658C39.1267 578.876 44.7127 582.467 51.7807 585.431C58.9627 588.281 66.5437 589.706 74.5237 589.706C82.5037 589.706 89.0017 588.68 94.0177 586.628C99.1477 584.462 102.91 581.612 105.304 578.078C107.812 574.544 109.066 570.611 109.066 566.279C109.066 561.149 107.698 557.045 104.962 553.967C102.226 550.889 98.6347 548.438 94.1887 546.614C89.7427 544.79 84.8977 543.251 79.6537 541.997C74.4097 540.743 69.1087 539.432 63.7507 538.064C58.3927 536.582 53.4907 534.701 49.0447 532.421C44.5987 530.141 41.0077 527.063 38.2717 523.187C35.6497 519.197 34.3387 514.067 34.3387 507.797C34.3387 502.097 35.8207 496.853 38.7847 492.065C41.7487 487.277 46.3657 483.401 52.6357 480.437C58.9057 477.473 66.9427 475.991 76.7467 475.991C83.3587 475.991 89.8567 476.96 96.2407 478.898C102.739 480.836 108.268 483.458 112.828 486.764L109.579 493.775C104.563 490.355 99.1477 487.847 93.3337 486.251C87.6337 484.541 82.1047 483.686 76.7467 483.686C69.1087 483.686 62.7817 484.769 57.7657 486.935C52.7497 489.101 49.0447 492.008 46.6507 495.656C44.2567 499.19 43.0597 503.18 43.0597 507.626C43.0597 512.756 44.3707 516.86 46.9927 519.938C49.7287 523.016 53.3197 525.467 57.7657 527.291C62.2117 529.115 67.1137 530.654 72.4717 531.908C77.8297 533.162 83.1307 534.53 88.3747 536.012C93.6187 537.38 98.4637 539.204 102.91 541.484C107.356 543.764 110.947 546.842 113.683 550.718C116.419 554.594 117.787 559.61 117.787 565.766C117.787 571.352 116.248 576.596 113.17 581.498C110.092 586.286 105.361 590.162 98.9767 593.126C92.7067 595.976 84.6127 597.401 74.6947 597.401ZM127.427 596.546L182.489 476.846H191.21L246.272 596.546H236.867L184.883 482.318H188.645L136.832 596.546H127.427ZM147.605 562.859L150.512 555.506H222.161L225.068 562.859H147.605ZM268.002 596.546V476.846H276.723V588.68H345.636V596.546H268.002ZM412.547 597.401C397.727 597.401 386.042 593.069 377.492 584.405C368.942 575.741 364.667 562.859 364.667 545.759V476.846H373.388V545.417C373.388 560.351 376.808 571.409 383.648 578.591C390.488 585.773 400.178 589.364 412.718 589.364C425.144 589.364 434.777 585.773 441.617 578.591C448.457 571.409 451.877 560.351 451.877 545.417V476.846H460.598V545.759C460.598 562.859 456.323 575.741 447.773 584.405C439.223 593.069 427.481 597.401 412.547 597.401ZM532.754 597.401C523.862 597.401 515.426 595.919 507.446 592.955C499.58 589.877 493.481 585.944 489.149 581.156L493.082 574.658C497.186 578.876 502.772 582.467 509.84 585.431C517.022 588.281 524.603 589.706 532.583 589.706C540.563 589.706 547.061 588.68 552.077 586.628C557.207 584.462 560.969 581.612 563.363 578.078C565.871 574.544 567.125 570.611 567.125 566.279C567.125 561.149 565.757 557.045 563.021 553.967C560.285 550.889 556.694 548.438 552.248 546.614C547.802 544.79 542.957 543.251 537.713 541.997C532.469 540.743 527.168 539.432 521.81 538.064C516.452 536.582 511.55 534.701 507.104 532.421C502.658 530.141 499.067 527.063 496.331 523.187C493.709 519.197 492.398 514.067 492.398 507.797C492.398 502.097 493.88 496.853 496.844 492.065C499.808 487.277 504.425 483.401 510.695 480.437C516.965 477.473 525.002 475.991 534.806 475.991C541.418 475.991 547.916 476.96 554.3 478.898C560.798 480.836 566.327 483.458 570.887 486.764L567.638 493.775C562.622 490.355 557.207 487.847 551.393 486.251C545.693 484.541 540.164 483.686 534.806 483.686C527.168 483.686 520.841 484.769 515.825 486.935C510.809 489.101 507.104 492.008 504.71 495.656C502.316 499.19 501.119 503.18 501.119 507.626C501.119 512.756 502.43 516.86 505.052 519.938C507.788 523.016 511.379 525.467 515.825 527.291C520.271 529.115 525.173 530.654 530.531 531.908C535.889 533.162 541.19 534.53 546.434 536.012C551.678 537.38 556.523 539.204 560.969 541.484C565.415 543.764 569.006 546.842 571.742 550.718C574.478 554.594 575.846 559.61 575.846 565.766C575.846 571.352 574.307 576.596 571.229 581.498C568.151 586.286 563.42 590.162 557.036 593.126C550.766 595.976 542.672 597.401 532.754 597.401Z" fill="#566E8C"/>
<path d="M146.745 62.3188L146.732 62.3311C110.982 96.7488 110.982 152.551 146.732 186.969L238.685 275.492C274.435 309.91 332.399 309.91 368.149 275.492L368.162 275.48C403.913 241.062 403.913 185.26 368.162 150.843L276.21 62.3188C240.459 27.9011 182.496 27.9011 146.745 62.3188Z" stroke="#566E8C" stroke-width="59" stroke-miterlimit="10"/>
<path opacity="0.77" d="M460.121 63.005L460.108 62.9926C424.358 28.5749 366.394 28.5749 330.644 62.9926L238.692 151.516C202.941 185.934 202.941 241.736 238.692 276.154L238.704 276.166C274.455 310.584 332.418 310.584 368.169 276.166L460.121 187.643C495.872 153.225 495.872 97.4227 460.121 63.005Z" stroke="#6FCEDD" stroke-width="59" stroke-miterlimit="10"/>
<path d="M37.8514 670V644.1H40.1084L51.9484 664.302H50.7644L62.4934 644.1H64.7504V670H62.1234V648.207H62.7524L51.9484 666.707H50.6534L39.7754 648.207H40.4784V670H37.8514ZM72.8493 670V650.575H75.4763V659.159H87.7233V650.575H90.3503V670H87.7233V661.416H75.4763V670H72.8493ZM105.809 670.185C103.934 670.185 102.245 669.766 100.74 668.927C99.2601 668.064 98.0884 666.892 97.2251 665.412C96.3617 663.907 95.9301 662.193 95.9301 660.269C95.9301 658.32 96.3617 656.606 97.2251 655.126C98.0884 653.646 99.2601 652.487 100.74 651.648C102.22 650.809 103.91 650.39 105.809 650.39C107.733 650.39 109.435 650.809 110.915 651.648C112.42 652.487 113.591 653.646 114.43 655.126C115.293 656.606 115.725 658.32 115.725 660.269C115.725 662.193 115.293 663.907 114.43 665.412C113.591 666.892 112.42 668.064 110.915 668.927C109.41 669.766 107.708 670.185 105.809 670.185ZM105.809 667.854C107.215 667.854 108.461 667.546 109.546 666.929C110.631 666.288 111.482 665.4 112.099 664.265C112.74 663.106 113.061 661.774 113.061 660.269C113.061 658.74 112.74 657.408 112.099 656.273C111.482 655.138 110.631 654.263 109.546 653.646C108.461 653.005 107.227 652.684 105.846 652.684C104.465 652.684 103.231 653.005 102.146 653.646C101.061 654.263 100.197 655.138 99.5561 656.273C98.9147 657.408 98.5941 658.74 98.5941 660.269C98.5941 661.774 98.9147 663.106 99.5561 664.265C100.197 665.4 101.061 666.288 102.146 666.929C103.231 667.546 104.452 667.854 105.809 667.854ZM121.34 670V650.575H135.104V652.869H123.301L123.967 652.203V670H121.34ZM145.989 670.185C144.114 670.185 142.424 669.766 140.92 668.927C139.44 668.064 138.268 666.892 137.405 665.412C136.541 663.907 136.11 662.193 136.11 660.269C136.11 658.32 136.541 656.606 137.405 655.126C138.268 653.646 139.44 652.487 140.92 651.648C142.4 650.809 144.089 650.39 145.989 650.39C147.913 650.39 149.615 650.809 151.095 651.648C152.599 652.487 153.771 653.646 154.61 655.126C155.473 656.606 155.905 658.32 155.905 660.269C155.905 662.193 155.473 663.907 154.61 665.412C153.771 666.892 152.599 668.064 151.095 668.927C149.59 669.766 147.888 670.185 145.989 670.185ZM145.989 667.854C147.395 667.854 148.64 667.546 149.726 666.929C150.811 666.288 151.662 665.4 152.279 664.265C152.92 663.106 153.241 661.774 153.241 660.269C153.241 658.74 152.92 657.408 152.279 656.273C151.662 655.138 150.811 654.263 149.726 653.646C148.64 653.005 147.407 652.684 146.026 652.684C144.644 652.684 143.411 653.005 142.326 653.646C141.24 654.263 140.377 655.138 139.736 656.273C139.094 657.408 138.774 658.74 138.774 660.269C138.774 661.774 139.094 663.106 139.736 664.265C140.377 665.4 141.24 666.288 142.326 666.929C143.411 667.546 144.632 667.854 145.989 667.854ZM161.519 670V650.575H178.983V670H176.356V652.166L177.022 652.869H163.48L164.146 652.166V670H161.519ZM196.478 670.185C194.801 670.185 193.284 669.803 191.927 669.038C190.57 668.249 189.485 667.126 188.671 665.671C187.882 664.191 187.487 662.39 187.487 660.269C187.487 658.148 187.882 656.359 188.671 654.904C189.46 653.424 190.533 652.302 191.89 651.537C193.247 650.772 194.776 650.39 196.478 650.39C198.328 650.39 199.981 650.809 201.436 651.648C202.916 652.462 204.075 653.621 204.914 655.126C205.753 656.606 206.172 658.32 206.172 660.269C206.172 662.242 205.753 663.969 204.914 665.449C204.075 666.929 202.916 668.088 201.436 668.927C199.981 669.766 198.328 670.185 196.478 670.185ZM186.451 677.178V650.575H188.967V656.421L188.708 660.306L189.078 664.228V677.178H186.451ZM196.293 667.854C197.674 667.854 198.908 667.546 199.993 666.929C201.078 666.288 201.942 665.4 202.583 664.265C203.224 663.106 203.545 661.774 203.545 660.269C203.545 658.764 203.224 657.445 202.583 656.31C201.942 655.175 201.078 654.287 199.993 653.646C198.908 653.005 197.674 652.684 196.293 652.684C194.912 652.684 193.666 653.005 192.556 653.646C191.471 654.287 190.607 655.175 189.966 656.31C189.349 657.445 189.041 658.764 189.041 660.269C189.041 661.774 189.349 663.106 189.966 664.265C190.607 665.4 191.471 666.288 192.556 666.929C193.666 667.546 194.912 667.854 196.293 667.854ZM219.808 670.185C217.933 670.185 216.244 669.766 214.739 668.927C213.259 668.064 212.087 666.892 211.224 665.412C210.361 663.907 209.929 662.193 209.929 660.269C209.929 658.32 210.361 656.606 211.224 655.126C212.087 653.646 213.259 652.487 214.739 651.648C216.219 650.809 217.909 650.39 219.808 650.39C221.732 650.39 223.434 650.809 224.914 651.648C226.419 652.487 227.59 653.646 228.429 655.126C229.292 656.606 229.724 658.32 229.724 660.269C229.724 662.193 229.292 663.907 228.429 665.412C227.59 666.892 226.419 668.064 224.914 668.927C223.409 669.766 221.707 670.185 219.808 670.185ZM219.808 667.854C221.214 667.854 222.46 667.546 223.545 666.929C224.63 666.288 225.481 665.4 226.098 664.265C226.739 663.106 227.06 661.774 227.06 660.269C227.06 658.74 226.739 657.408 226.098 656.273C225.481 655.138 224.63 654.263 223.545 653.646C222.46 653.005 221.226 652.684 219.845 652.684C218.464 652.684 217.23 653.005 216.145 653.646C215.06 654.263 214.196 655.138 213.555 656.273C212.914 657.408 212.593 658.74 212.593 660.269C212.593 661.774 212.914 663.106 213.555 664.265C214.196 665.4 215.06 666.288 216.145 666.929C217.23 667.546 218.451 667.854 219.808 667.854ZM246.254 670.222C246.254 670.222 246.204 670.222 246.106 670.222C246.007 670.222 245.908 670.222 245.81 670.222C245.736 670.222 245.674 670.222 245.625 670.222C241.777 670.197 238.78 669.322 236.634 667.595C234.488 665.868 233.415 663.414 233.415 660.232C233.415 657.099 234.488 654.682 236.634 652.98C238.804 651.253 241.851 650.378 245.773 650.353C245.797 650.353 245.847 650.353 245.921 650.353C246.019 650.353 246.106 650.353 246.18 650.353C246.254 650.353 246.303 650.353 246.328 650.353C250.274 650.378 253.345 651.253 255.541 652.98C257.736 654.682 258.834 657.099 258.834 660.232C258.834 663.439 257.724 665.905 255.504 667.632C253.308 669.359 250.225 670.222 246.254 670.222ZM246.217 667.928C248.412 667.928 250.25 667.632 251.73 667.04C253.21 666.423 254.332 665.548 255.097 664.413C255.861 663.278 256.244 661.885 256.244 660.232C256.244 658.629 255.861 657.272 255.097 656.162C254.332 655.027 253.21 654.164 251.73 653.572C250.25 652.98 248.412 652.684 246.217 652.684C246.192 652.684 246.118 652.684 245.995 652.684C245.896 652.684 245.834 652.684 245.81 652.684C243.664 652.684 241.863 652.992 240.408 653.609C238.952 654.201 237.855 655.052 237.115 656.162C236.375 657.272 236.005 658.629 236.005 660.232C236.005 661.86 236.375 663.241 237.115 664.376C237.879 665.511 238.989 666.386 240.445 667.003C241.9 667.595 243.688 667.903 245.81 667.928C245.859 667.928 245.933 667.928 246.032 667.928C246.13 667.928 246.192 667.928 246.217 667.928ZM244.811 677.178V642.546H247.364V677.178H244.811ZM264.389 670V650.575H267.016V666.004L280.003 650.575H282.334V670H279.707V654.534L266.757 670H264.389ZM286.311 669.963L286.496 667.706C286.669 667.731 286.829 667.768 286.977 667.817C287.15 667.842 287.298 667.854 287.421 667.854C288.21 667.854 288.839 667.558 289.308 666.966C289.801 666.374 290.171 665.585 290.418 664.598C290.665 663.611 290.837 662.501 290.936 661.268C291.035 660.01 291.121 658.752 291.195 657.494L291.528 650.575H305.773V670H303.146V652.092L303.812 652.869H293.23L293.859 652.055L293.563 657.679C293.489 659.356 293.353 660.96 293.156 662.489C292.983 664.018 292.7 665.363 292.305 666.522C291.935 667.681 291.417 668.594 290.751 669.26C290.085 669.901 289.234 670.222 288.198 670.222C287.902 670.222 287.594 670.197 287.273 670.148C286.977 670.099 286.656 670.037 286.311 669.963ZM321.603 657.42C324.045 657.445 325.895 657.987 327.153 659.048C328.436 660.109 329.077 661.638 329.077 663.636C329.077 665.708 328.386 667.299 327.005 668.409C325.648 669.519 323.675 670.062 321.085 670.037L313.241 670V650.575H315.868V657.346L321.603 657.42ZM320.937 668.039C322.738 668.064 324.094 667.706 325.007 666.966C325.944 666.201 326.413 665.091 326.413 663.636C326.413 662.181 325.957 661.12 325.044 660.454C324.131 659.763 322.762 659.406 320.937 659.381L315.868 659.307V667.965L320.937 668.039ZM334.09 670V650.575H336.717V659.159H348.964V650.575H351.591V670H348.964V661.416H336.717V670H334.09ZM371.119 670V665.708L371.008 665.005V657.827C371.008 656.174 370.54 654.904 369.602 654.016C368.69 653.128 367.321 652.684 365.495 652.684C364.237 652.684 363.041 652.894 361.906 653.313C360.772 653.732 359.81 654.287 359.02 654.978L357.836 653.017C358.823 652.178 360.007 651.537 361.388 651.093C362.77 650.624 364.225 650.39 365.754 650.39C368.27 650.39 370.207 651.019 371.563 652.277C372.945 653.51 373.635 655.397 373.635 657.938V670H371.119ZM364.422 670.185C362.967 670.185 361.697 669.951 360.611 669.482C359.551 668.989 358.737 668.323 358.169 667.484C357.602 666.621 357.318 665.634 357.318 664.524C357.318 663.513 357.553 662.6 358.021 661.786C358.515 660.947 359.304 660.281 360.389 659.788C361.499 659.27 362.979 659.011 364.829 659.011H371.526V660.972H364.903C363.029 660.972 361.721 661.305 360.981 661.971C360.266 662.637 359.908 663.463 359.908 664.45C359.908 665.56 360.34 666.448 361.203 667.114C362.067 667.78 363.275 668.113 364.829 668.113C366.309 668.113 367.58 667.78 368.64 667.114C369.726 666.423 370.515 665.437 371.008 664.154L371.6 665.967C371.107 667.25 370.244 668.273 369.01 669.038C367.802 669.803 366.272 670.185 364.422 670.185ZM393.172 670V663.007L393.653 663.562H387.067C384.575 663.562 382.627 663.019 381.221 661.934C379.815 660.849 379.112 659.27 379.112 657.198C379.112 654.978 379.864 653.325 381.369 652.24C382.873 651.13 384.884 650.575 387.4 650.575H395.577V670H393.172ZM378.964 670L384.292 662.526H387.03L381.813 670H378.964ZM393.172 662.23V652.092L393.653 652.869H387.474C385.673 652.869 384.267 653.214 383.256 653.905C382.269 654.596 381.776 655.718 381.776 657.272C381.776 660.158 383.613 661.601 387.289 661.601H393.653L393.172 662.23ZM426.996 670L419.004 660.38L421.187 659.085L430.104 670H426.996ZM412.751 670V650.575H415.378V670H412.751ZM414.564 661.342V659.085H420.817V661.342H414.564ZM421.409 660.565L418.967 660.195L426.7 650.575H429.549L421.409 660.565ZM430.698 669.963L430.883 667.706C431.055 667.731 431.216 667.768 431.364 667.817C431.536 667.842 431.684 667.854 431.808 667.854C432.597 667.854 433.226 667.558 433.695 666.966C434.188 666.374 434.558 665.585 434.805 664.598C435.051 663.611 435.224 662.501 435.323 661.268C435.421 660.01 435.508 658.752 435.582 657.494L435.915 650.575H450.16V670H447.533V652.092L448.199 652.869H437.617L438.246 652.055L437.95 657.679C437.876 659.356 437.74 660.96 437.543 662.489C437.37 664.018 437.086 665.363 436.692 666.522C436.322 667.681 435.804 668.594 435.138 669.26C434.472 669.901 433.621 670.222 432.585 670.222C432.289 670.222 431.98 670.197 431.66 670.148C431.364 670.099 431.043 670.037 430.698 669.963ZM457.628 670V650.575H460.255V666.004L473.242 650.575H475.573V670H472.946V654.534L459.996 670H457.628ZM483.101 670V650.575H485.728V659.159H497.975V650.575H500.602V670H497.975V661.416H485.728V670H483.101ZM508.069 670V650.575H510.696V666.004L523.683 650.575H526.014V670H523.387V654.534L510.437 670H508.069ZM547.788 670L539.796 660.38L541.979 659.085L550.896 670H547.788ZM533.543 670V650.575H536.17V670H533.543ZM535.356 661.342V659.085H541.609V661.342H535.356ZM542.201 660.565L539.759 660.195L547.492 650.575H550.341L542.201 660.565ZM566.742 670V665.708L566.631 665.005V657.827C566.631 656.174 566.163 654.904 565.225 654.016C564.313 653.128 562.944 652.684 561.118 652.684C559.86 652.684 558.664 652.894 557.529 653.313C556.395 653.732 555.433 654.287 554.643 654.978L553.459 653.017C554.446 652.178 555.63 651.537 557.011 651.093C558.393 650.624 559.848 650.39 561.377 650.39C563.893 650.39 565.83 651.019 567.186 652.277C568.568 653.51 569.258 655.397 569.258 657.938V670H566.742ZM560.045 670.185C558.59 670.185 557.32 669.951 556.234 669.482C555.174 668.989 554.36 668.323 553.792 667.484C553.225 666.621 552.941 665.634 552.941 664.524C552.941 663.513 553.176 662.6 553.644 661.786C554.138 660.947 554.927 660.281 556.012 659.788C557.122 659.27 558.602 659.011 560.452 659.011H567.149V660.972H560.526C558.652 660.972 557.344 661.305 556.604 661.971C555.889 662.637 555.531 663.463 555.531 664.45C555.531 665.56 555.963 666.448 556.826 667.114C557.69 667.78 558.898 668.113 560.452 668.113C561.932 668.113 563.203 667.78 564.263 667.114C565.349 666.423 566.138 665.437 566.631 664.154L567.223 665.967C566.73 667.25 565.867 668.273 564.633 669.038C563.425 669.803 561.895 670.185 560.045 670.185ZM11.9395 715.185C10.0155 715.185 8.28883 714.766 6.7595 713.927C5.25483 713.064 4.07083 711.892 3.2075 710.412C2.34417 708.907 1.9125 707.193 1.9125 705.269C1.9125 703.32 2.34417 701.606 3.2075 700.126C4.07083 698.646 5.25483 697.487 6.7595 696.648C8.28883 695.809 10.0155 695.39 11.9395 695.39C13.5922 695.39 15.0845 695.711 16.4165 696.352C17.7485 696.993 18.7968 697.955 19.5615 699.238L17.6005 700.57C16.9345 699.583 16.1082 698.856 15.1215 698.387C14.1348 697.918 13.0618 697.684 11.9025 697.684C10.5212 697.684 9.2755 698.005 8.1655 698.646C7.0555 699.263 6.17983 700.138 5.5385 701.273C4.89717 702.408 4.5765 703.74 4.5765 705.269C4.5765 706.798 4.89717 708.13 5.5385 709.265C6.17983 710.4 7.0555 711.288 8.1655 711.929C9.2755 712.546 10.5212 712.854 11.9025 712.854C13.0618 712.854 14.1348 712.62 15.1215 712.151C16.1082 711.682 16.9345 710.967 17.6005 710.005L19.5615 711.337C18.7968 712.595 17.7485 713.557 16.4165 714.223C15.0845 714.864 13.5922 715.185 11.9395 715.185ZM34.3317 715V695.575H42.9157C45.1111 695.575 46.8377 695.994 48.0957 696.833C49.3784 697.672 50.0197 698.905 50.0197 700.533C50.0197 702.112 49.4154 703.333 48.2067 704.196C46.9981 705.035 45.4071 705.454 43.4337 705.454L43.9517 704.677C46.2704 704.677 47.9724 705.109 49.0577 705.972C50.1431 706.835 50.6857 708.081 50.6857 709.709C50.6857 711.386 50.0691 712.694 48.8357 713.631C47.6271 714.544 45.7401 715 43.1747 715H34.3317ZM36.8847 712.928H43.0637C44.7164 712.928 45.9621 712.669 46.8007 712.151C47.6641 711.608 48.0957 710.745 48.0957 709.561C48.0957 708.377 47.7134 707.514 46.9487 706.971C46.1841 706.428 44.9754 706.157 43.3227 706.157H36.8847V712.928ZM36.8847 704.196H42.7307C44.2354 704.196 45.3824 703.912 46.1717 703.345C46.9857 702.778 47.3927 701.951 47.3927 700.866C47.3927 699.781 46.9857 698.967 46.1717 698.424C45.3824 697.881 44.2354 697.61 42.7307 697.61H36.8847V704.196ZM75.7865 715V695.575H78.4135V715H75.7865ZM65.0195 702.42C67.4615 702.445 69.3238 702.987 70.6065 704.048C71.8891 705.109 72.5305 706.638 72.5305 708.636C72.5305 710.708 71.8398 712.299 70.4585 713.409C69.0771 714.519 67.1038 715.062 64.5385 715.037L56.8425 715V695.575H59.4695V702.346L65.0195 702.42ZM64.3535 713.039C66.1788 713.064 67.5478 712.706 68.4605 711.966C69.3978 711.201 69.8665 710.091 69.8665 708.636C69.8665 707.181 69.4101 706.12 68.4975 705.454C67.5848 704.763 66.2035 704.406 64.3535 704.381L59.4695 704.307V712.965L64.3535 713.039ZM94.0333 715.185C92.1093 715.185 90.3826 714.766 88.8533 713.927C87.3486 713.064 86.1646 711.892 85.3013 710.412C84.4379 708.907 84.0063 707.193 84.0063 705.269C84.0063 703.32 84.4379 701.606 85.3013 700.126C86.1646 698.646 87.3486 697.487 88.8533 696.648C90.3826 695.809 92.1093 695.39 94.0333 695.39C95.6859 695.39 97.1783 695.711 98.5103 696.352C99.8423 696.993 100.891 697.955 101.655 699.238L99.6943 700.57C99.0283 699.583 98.2019 698.856 97.2153 698.387C96.2286 697.918 95.1556 697.684 93.9963 697.684C92.6149 697.684 91.3693 698.005 90.2593 698.646C89.1493 699.263 88.2736 700.138 87.6323 701.273C86.9909 702.408 86.6703 703.74 86.6703 705.269C86.6703 706.798 86.9909 708.13 87.6323 709.265C88.2736 710.4 89.1493 711.288 90.2593 711.929C91.3693 712.546 92.6149 712.854 93.9963 712.854C95.1556 712.854 96.2286 712.62 97.2153 712.151C98.2019 711.682 99.0283 710.967 99.6943 710.005L101.655 711.337C100.891 712.595 99.8423 713.557 98.5103 714.223C97.1783 714.864 95.6859 715.185 94.0333 715.185ZM114.409 715.185C112.534 715.185 110.844 714.766 109.34 713.927C107.86 713.064 106.688 711.892 105.825 710.412C104.961 708.907 104.53 707.193 104.53 705.269C104.53 703.32 104.961 701.606 105.825 700.126C106.688 698.646 107.86 697.487 109.34 696.648C110.82 695.809 112.509 695.39 114.409 695.39C116.333 695.39 118.035 695.809 119.515 696.648C121.019 697.487 122.191 698.646 123.03 700.126C123.893 701.606 124.325 703.32 124.325 705.269C124.325 707.193 123.893 708.907 123.03 710.412C122.191 711.892 121.019 713.064 119.515 713.927C118.01 714.766 116.308 715.185 114.409 715.185ZM114.409 712.854C115.815 712.854 117.06 712.546 118.146 711.929C119.231 711.288 120.082 710.4 120.699 709.265C121.34 708.106 121.661 706.774 121.661 705.269C121.661 703.74 121.34 702.408 120.699 701.273C120.082 700.138 119.231 699.263 118.146 698.646C117.06 698.005 115.827 697.684 114.446 697.684C113.064 697.684 111.831 698.005 110.746 698.646C109.66 699.263 108.797 700.138 108.156 701.273C107.514 702.408 107.194 703.74 107.194 705.269C107.194 706.774 107.514 708.106 108.156 709.265C108.797 710.4 109.66 711.288 110.746 711.929C111.831 712.546 113.052 712.854 114.409 712.854ZM144.184 715L136.192 705.38L138.375 704.085L147.292 715H144.184ZM129.939 715V695.575H132.566V715H129.939ZM131.752 706.342V704.085H138.005V706.342H131.752ZM138.597 705.565L136.155 705.195L143.888 695.575H146.737L138.597 705.565ZM158.744 715.185C156.869 715.185 155.179 714.766 153.675 713.927C152.195 713.064 151.023 711.892 150.16 710.412C149.296 708.907 148.865 707.193 148.865 705.269C148.865 703.32 149.296 701.606 150.16 700.126C151.023 698.646 152.195 697.487 153.675 696.648C155.155 695.809 156.844 695.39 158.744 695.39C160.668 695.39 162.37 695.809 163.85 696.648C165.354 697.487 166.526 698.646 167.365 700.126C168.228 701.606 168.66 703.32 168.66 705.269C168.66 707.193 168.228 708.907 167.365 710.412C166.526 711.892 165.354 713.064 163.85 713.927C162.345 714.766 160.643 715.185 158.744 715.185ZM158.744 712.854C160.15 712.854 161.395 712.546 162.481 711.929C163.566 711.288 164.417 710.4 165.034 709.265C165.675 708.106 165.996 706.774 165.996 705.269C165.996 703.74 165.675 702.408 165.034 701.273C164.417 700.138 163.566 699.263 162.481 698.646C161.395 698.005 160.162 697.684 158.781 697.684C157.399 697.684 156.166 698.005 155.081 698.646C153.995 699.263 153.132 700.138 152.491 701.273C151.849 702.408 151.529 703.74 151.529 705.269C151.529 706.774 151.849 708.106 152.491 709.265C153.132 710.4 153.995 711.288 155.081 711.929C156.166 712.546 157.387 712.854 158.744 712.854ZM173.118 706.12V703.826H182.812V706.12H173.118ZM203.008 715L195.016 705.38L197.199 704.085L206.116 715H203.008ZM188.763 715V695.575H191.39V715H188.763ZM190.576 706.342V704.085H196.829V706.342H190.576ZM197.421 705.565L194.979 705.195L202.712 695.575H205.561L197.421 705.565ZM210.262 715V695.575H218.846C221.042 695.575 222.768 695.994 224.026 696.833C225.309 697.672 225.95 698.905 225.95 700.533C225.95 702.112 225.346 703.333 224.137 704.196C222.929 705.035 221.338 705.454 219.364 705.454L219.882 704.677C222.201 704.677 223.903 705.109 224.988 705.972C226.074 706.835 226.616 708.081 226.616 709.709C226.616 711.386 226 712.694 224.766 713.631C223.558 714.544 221.671 715 219.105 715H210.262ZM212.815 712.928H218.994C220.647 712.928 221.893 712.669 222.731 712.151C223.595 711.608 224.026 710.745 224.026 709.561C224.026 708.377 223.644 707.514 222.879 706.971C222.115 706.428 220.906 706.157 219.253 706.157H212.815V712.928ZM212.815 704.196H218.661C220.166 704.196 221.313 703.912 222.102 703.345C222.916 702.778 223.323 701.951 223.323 700.866C223.323 699.781 222.916 698.967 222.102 698.424C221.313 697.881 220.166 697.61 218.661 697.61H212.815V704.196ZM244.835 715V710.708L244.724 710.005V702.827C244.724 701.174 244.255 699.904 243.318 699.016C242.405 698.128 241.036 697.684 239.211 697.684C237.953 697.684 236.757 697.894 235.622 698.313C234.487 698.732 233.525 699.287 232.736 699.978L231.552 698.017C232.539 697.178 233.723 696.537 235.104 696.093C236.485 695.624 237.941 695.39 239.47 695.39C241.986 695.39 243.922 696.019 245.279 697.277C246.66 698.51 247.351 700.397 247.351 702.938V715H244.835ZM238.138 715.185C236.683 715.185 235.412 714.951 234.327 714.482C233.266 713.989 232.452 713.323 231.885 712.484C231.318 711.621 231.034 710.634 231.034 709.524C231.034 708.513 231.268 707.6 231.737 706.786C232.23 705.947 233.02 705.281 234.105 704.788C235.215 704.27 236.695 704.011 238.545 704.011H245.242V705.972H238.619C236.744 705.972 235.437 706.305 234.697 706.971C233.982 707.637 233.624 708.463 233.624 709.45C233.624 710.56 234.056 711.448 234.919 712.114C235.782 712.78 236.991 713.113 238.545 713.113C240.025 713.113 241.295 712.78 242.356 712.114C243.441 711.423 244.231 710.437 244.724 709.154L245.316 710.967C244.823 712.25 243.959 713.273 242.726 714.038C241.517 714.803 239.988 715.185 238.138 715.185ZM250.792 714.963L250.977 712.706C251.15 712.731 251.31 712.768 251.458 712.817C251.631 712.842 251.779 712.854 251.902 712.854C252.692 712.854 253.321 712.558 253.789 711.966C254.283 711.374 254.653 710.585 254.899 709.598C255.146 708.611 255.319 707.501 255.417 706.268C255.516 705.01 255.602 703.752 255.676 702.494L256.009 695.575H270.254V715H267.627V697.092L268.293 697.869H257.711L258.34 697.055L258.044 702.679C257.97 704.356 257.835 705.96 257.637 707.489C257.465 709.018 257.181 710.363 256.786 711.522C256.416 712.681 255.898 713.594 255.232 714.26C254.566 714.901 253.715 715.222 252.679 715.222C252.383 715.222 252.075 715.197 251.754 715.148C251.458 715.099 251.138 715.037 250.792 714.963ZM277.722 715V695.575H280.349V711.004L293.336 695.575H295.667V715H293.04V699.534L280.09 715H277.722ZM314.111 715.222C314.111 715.222 314.062 715.222 313.963 715.222C313.864 715.222 313.766 715.222 313.667 715.222C313.593 715.222 313.531 715.222 313.482 715.222C309.634 715.197 306.637 714.322 304.491 712.595C302.345 710.868 301.272 708.414 301.272 705.232C301.272 702.099 302.345 699.682 304.491 697.98C306.662 696.253 309.708 695.378 313.63 695.353C313.655 695.353 313.704 695.353 313.778 695.353C313.877 695.353 313.963 695.353 314.037 695.353C314.111 695.353 314.16 695.353 314.185 695.353C318.132 695.378 321.203 696.253 323.398 697.98C325.593 699.682 326.691 702.099 326.691 705.232C326.691 708.439 325.581 710.905 323.361 712.632C321.166 714.359 318.082 715.222 314.111 715.222ZM314.074 712.928C316.269 712.928 318.107 712.632 319.587 712.04C321.067 711.423 322.189 710.548 322.954 709.413C323.719 708.278 324.101 706.885 324.101 705.232C324.101 703.629 323.719 702.272 322.954 701.162C322.189 700.027 321.067 699.164 319.587 698.572C318.107 697.98 316.269 697.684 314.074 697.684C314.049 697.684 313.975 697.684 313.852 697.684C313.753 697.684 313.692 697.684 313.667 697.684C311.521 697.684 309.72 697.992 308.265 698.609C306.81 699.201 305.712 700.052 304.972 701.162C304.232 702.272 303.862 703.629 303.862 705.232C303.862 706.86 304.232 708.241 304.972 709.376C305.737 710.511 306.847 711.386 308.302 712.003C309.757 712.595 311.546 712.903 313.667 712.928C313.716 712.928 313.79 712.928 313.889 712.928C313.988 712.928 314.049 712.928 314.074 712.928ZM312.668 722.178V687.546H315.221V722.178H312.668ZM332.247 715V695.575H334.874V711.004L347.861 695.575H350.192V715H347.565V699.534L334.615 715H332.247ZM357.72 715V695.575H360.347V712.706H372.224V695.575H374.851V715H357.72ZM375.517 719.699V714.778L376.183 715H372.224V712.706H377.996V719.699H375.517ZM383.013 715V695.575H385.64V711.004L398.627 695.575H400.958V715H398.331V699.534L385.381 715H383.013ZM418.514 715.185C416.837 715.185 415.32 714.803 413.963 714.038C412.606 713.249 411.521 712.126 410.707 710.671C409.918 709.191 409.523 707.39 409.523 705.269C409.523 703.148 409.918 701.359 410.707 699.904C411.496 698.424 412.569 697.302 413.926 696.537C415.283 695.772 416.812 695.39 418.514 695.39C420.364 695.39 422.017 695.809 423.472 696.648C424.952 697.462 426.111 698.621 426.95 700.126C427.789 701.606 428.208 703.32 428.208 705.269C428.208 707.242 427.789 708.969 426.95 710.449C426.111 711.929 424.952 713.088 423.472 713.927C422.017 714.766 420.364 715.185 418.514 715.185ZM408.487 722.178V695.575H411.003V701.421L410.744 705.306L411.114 709.228V722.178H408.487ZM418.329 712.854C419.71 712.854 420.944 712.546 422.029 711.929C423.114 711.288 423.978 710.4 424.619 709.265C425.26 708.106 425.581 706.774 425.581 705.269C425.581 703.764 425.26 702.445 424.619 701.31C423.978 700.175 423.114 699.287 422.029 698.646C420.944 698.005 419.71 697.684 418.329 697.684C416.948 697.684 415.702 698.005 414.592 698.646C413.507 699.287 412.643 700.175 412.002 701.31C411.385 702.445 411.077 703.764 411.077 705.269C411.077 706.774 411.385 708.106 412.002 709.265C412.643 710.4 413.507 711.288 414.592 711.929C415.702 712.546 416.948 712.854 418.329 712.854ZM441.844 715.185C439.97 715.185 438.28 714.766 436.775 713.927C435.295 713.064 434.124 711.892 433.26 710.412C432.397 708.907 431.965 707.193 431.965 705.269C431.965 703.32 432.397 701.606 433.26 700.126C434.124 698.646 435.295 697.487 436.775 696.648C438.255 695.809 439.945 695.39 441.844 695.39C443.768 695.39 445.47 695.809 446.95 696.648C448.455 697.487 449.627 698.646 450.465 700.126C451.329 701.606 451.76 703.32 451.76 705.269C451.76 707.193 451.329 708.907 450.465 710.412C449.627 711.892 448.455 713.064 446.95 713.927C445.446 714.766 443.744 715.185 441.844 715.185ZM441.844 712.854C443.25 712.854 444.496 712.546 445.581 711.929C446.667 711.288 447.518 710.4 448.134 709.265C448.776 708.106 449.096 706.774 449.096 705.269C449.096 703.74 448.776 702.408 448.134 701.273C447.518 700.138 446.667 699.263 445.581 698.646C444.496 698.005 443.263 697.684 441.881 697.684C440.5 697.684 439.267 698.005 438.181 698.646C437.096 699.263 436.233 700.138 435.591 701.273C434.95 702.408 434.629 703.74 434.629 705.269C434.629 706.774 434.95 708.106 435.591 709.265C436.233 710.4 437.096 711.288 438.181 711.929C439.267 712.546 440.488 712.854 441.844 712.854ZM457.375 715V695.575H465.959C468.154 695.575 469.881 695.994 471.139 696.833C472.421 697.672 473.063 698.905 473.063 700.533C473.063 702.112 472.458 703.333 471.25 704.196C470.041 705.035 468.45 705.454 466.477 705.454L466.995 704.677C469.313 704.677 471.015 705.109 472.101 705.972C473.186 706.835 473.729 708.081 473.729 709.709C473.729 711.386 473.112 712.694 471.879 713.631C470.67 714.544 468.783 715 466.218 715H457.375ZM459.928 712.928H466.107C467.759 712.928 469.005 712.669 469.844 712.151C470.707 711.608 471.139 710.745 471.139 709.561C471.139 708.377 470.756 707.514 469.992 706.971C469.227 706.428 468.018 706.157 466.366 706.157H459.928V712.928ZM459.928 704.196H465.774C467.278 704.196 468.425 703.912 469.215 703.345C470.029 702.778 470.436 701.951 470.436 700.866C470.436 699.781 470.029 698.967 469.215 698.424C468.425 697.881 467.278 697.61 465.774 697.61H459.928V704.196ZM491.947 715V710.708L491.836 710.005V702.827C491.836 701.174 491.368 699.904 490.43 699.016C489.518 698.128 488.149 697.684 486.323 697.684C485.065 697.684 483.869 697.894 482.734 698.313C481.6 698.732 480.638 699.287 479.848 699.978L478.664 698.017C479.651 697.178 480.835 696.537 482.216 696.093C483.598 695.624 485.053 695.39 486.582 695.39C489.098 695.39 491.035 696.019 492.391 697.277C493.773 698.51 494.463 700.397 494.463 702.938V715H491.947ZM485.25 715.185C483.795 715.185 482.525 714.951 481.439 714.482C480.379 713.989 479.565 713.323 478.997 712.484C478.43 711.621 478.146 710.634 478.146 709.524C478.146 708.513 478.381 707.6 478.849 706.786C479.343 705.947 480.132 705.281 481.217 704.788C482.327 704.27 483.807 704.011 485.657 704.011H492.354V705.972H485.731C483.857 705.972 482.549 706.305 481.809 706.971C481.094 707.637 480.736 708.463 480.736 709.45C480.736 710.56 481.168 711.448 482.031 712.114C482.895 712.78 484.103 713.113 485.657 713.113C487.137 713.113 488.408 712.78 489.468 712.114C490.554 711.423 491.343 710.437 491.836 709.154L492.428 710.967C491.935 712.25 491.072 713.273 489.838 714.038C488.63 714.803 487.1 715.185 485.25 715.185ZM501.457 715V695.575H504.084V704.159H516.331V695.575H518.958V715H516.331V706.416H504.084V715H501.457ZM526.425 715V695.575H529.052V704.159H541.299V695.575H543.926V715H541.299V706.416H529.052V715H526.425ZM570.336 715V695.575H572.963V715H570.336ZM559.569 702.42C562.011 702.445 563.874 702.987 565.156 704.048C566.439 705.109 567.08 706.638 567.08 708.636C567.08 710.708 566.39 712.299 565.008 713.409C563.627 714.519 561.654 715.062 559.088 715.037L551.392 715V695.575H554.019V702.346L559.569 702.42ZM558.903 713.039C560.729 713.064 562.098 712.706 563.01 711.966C563.948 711.201 564.416 710.091 564.416 708.636C564.416 707.181 563.96 706.12 563.047 705.454C562.135 704.763 560.753 704.406 558.903 704.381L554.019 704.307V712.965L558.903 713.039ZM580.443 715V695.575H583.107L591.913 710.486H590.803L599.757 695.575H602.199V715H599.794V698.572L600.275 698.794L591.913 712.632H590.729L582.293 698.646L582.848 698.535V715H580.443ZM186.794 760V740.575H204.258V760H201.631V742.166L202.297 742.869H188.755L189.421 742.166V760H186.794ZM220.051 760.185C218.028 760.185 216.252 759.766 214.723 758.927C213.193 758.064 211.997 756.892 211.134 755.412C210.27 753.907 209.839 752.193 209.839 750.269C209.839 748.345 210.246 746.643 211.06 745.163C211.898 743.683 213.033 742.524 214.464 741.685C215.919 740.822 217.547 740.39 219.348 740.39C221.173 740.39 222.789 740.809 224.195 741.648C225.625 742.462 226.748 743.621 227.562 745.126C228.376 746.606 228.783 748.32 228.783 750.269C228.783 750.392 228.77 750.528 228.746 750.676C228.746 750.799 228.746 750.935 228.746 751.083H211.837V749.122H227.34L226.304 749.899C226.304 748.493 225.995 747.247 225.379 746.162C224.787 745.052 223.973 744.189 222.937 743.572C221.901 742.955 220.704 742.647 219.348 742.647C218.016 742.647 216.819 742.955 215.759 743.572C214.698 744.189 213.872 745.052 213.28 746.162C212.688 747.272 212.392 748.542 212.392 749.973V750.38C212.392 751.86 212.712 753.167 213.354 754.302C214.02 755.412 214.932 756.288 216.092 756.929C217.276 757.546 218.62 757.854 220.125 757.854C221.309 757.854 222.406 757.644 223.418 757.225C224.454 756.806 225.342 756.164 226.082 755.301L227.562 757.003C226.698 758.039 225.613 758.828 224.306 759.371C223.023 759.914 221.605 760.185 220.051 760.185ZM244.625 760.185C242.948 760.185 241.431 759.803 240.074 759.038C238.717 758.249 237.632 757.126 236.818 755.671C236.029 754.191 235.634 752.39 235.634 750.269C235.634 748.148 236.029 746.359 236.818 744.904C237.607 743.424 238.68 742.302 240.037 741.537C241.394 740.772 242.923 740.39 244.625 740.39C246.475 740.39 248.128 740.809 249.583 741.648C251.063 742.462 252.222 743.621 253.061 745.126C253.9 746.606 254.319 748.32 254.319 750.269C254.319 752.242 253.9 753.969 253.061 755.449C252.222 756.929 251.063 758.088 249.583 758.927C248.128 759.766 246.475 760.185 244.625 760.185ZM234.598 767.178V740.575H237.114V746.421L236.855 750.306L237.225 754.228V767.178H234.598ZM244.44 757.854C245.821 757.854 247.055 757.546 248.14 756.929C249.225 756.288 250.089 755.4 250.73 754.265C251.371 753.106 251.692 751.774 251.692 750.269C251.692 748.764 251.371 747.445 250.73 746.31C250.089 745.175 249.225 744.287 248.14 743.646C247.055 743.005 245.821 742.684 244.44 742.684C243.059 742.684 241.813 743.005 240.703 743.646C239.618 744.287 238.754 745.175 238.113 746.31C237.496 747.445 237.188 748.764 237.188 750.269C237.188 751.774 237.496 753.106 238.113 754.265C238.754 755.4 239.618 756.288 240.703 756.929C241.813 757.546 243.059 757.854 244.44 757.854ZM268.103 760.185C266.179 760.185 264.452 759.766 262.923 758.927C261.418 758.064 260.234 756.892 259.371 755.412C258.508 753.907 258.076 752.193 258.076 750.269C258.076 748.32 258.508 746.606 259.371 745.126C260.234 743.646 261.418 742.487 262.923 741.648C264.452 740.809 266.179 740.39 268.103 740.39C269.756 740.39 271.248 740.711 272.58 741.352C273.912 741.993 274.96 742.955 275.725 744.238L273.764 745.57C273.098 744.583 272.272 743.856 271.285 743.387C270.298 742.918 269.225 742.684 268.066 742.684C266.685 742.684 265.439 743.005 264.329 743.646C263.219 744.263 262.343 745.138 261.702 746.273C261.061 747.408 260.74 748.74 260.74 750.269C260.74 751.798 261.061 753.13 261.702 754.265C262.343 755.4 263.219 756.288 264.329 756.929C265.439 757.546 266.685 757.854 268.066 757.854C269.225 757.854 270.298 757.62 271.285 757.151C272.272 756.682 273.098 755.967 273.764 755.005L275.725 756.337C274.96 757.595 273.912 758.557 272.58 759.223C271.248 759.864 269.756 760.185 268.103 760.185ZM288.479 760.185C286.604 760.185 284.914 759.766 283.41 758.927C281.93 758.064 280.758 756.892 279.895 755.412C279.031 753.907 278.6 752.193 278.6 750.269C278.6 748.32 279.031 746.606 279.895 745.126C280.758 743.646 281.93 742.487 283.41 741.648C284.89 740.809 286.579 740.39 288.479 740.39C290.403 740.39 292.105 740.809 293.585 741.648C295.089 742.487 296.261 743.646 297.1 745.126C297.963 746.606 298.395 748.32 298.395 750.269C298.395 752.193 297.963 753.907 297.1 755.412C296.261 756.892 295.089 758.064 293.585 758.927C292.08 759.766 290.378 760.185 288.479 760.185ZM288.479 757.854C289.885 757.854 291.13 757.546 292.216 756.929C293.301 756.288 294.152 755.4 294.769 754.265C295.41 753.106 295.731 751.774 295.731 750.269C295.731 748.74 295.41 747.408 294.769 746.273C294.152 745.138 293.301 744.263 292.216 743.646C291.13 743.005 289.897 742.684 288.516 742.684C287.134 742.684 285.901 743.005 284.816 743.646C283.73 744.263 282.867 745.138 282.226 746.273C281.584 747.408 281.264 748.74 281.264 750.269C281.264 751.774 281.584 753.106 282.226 754.265C282.867 755.4 283.73 756.288 284.816 756.929C285.901 757.546 287.122 757.854 288.479 757.854ZM304.009 760V740.575H306.636V749.159H318.883V740.575H321.51V760H318.883V751.416H306.636V760H304.009ZM341.039 760V755.708L340.928 755.005V747.827C340.928 746.174 340.459 744.904 339.522 744.016C338.609 743.128 337.24 742.684 335.415 742.684C334.157 742.684 332.96 742.894 331.826 743.313C330.691 743.732 329.729 744.287 328.94 744.978L327.756 743.017C328.742 742.178 329.926 741.537 331.308 741.093C332.689 740.624 334.144 740.39 335.674 740.39C338.19 740.39 340.126 741.019 341.483 742.277C342.864 743.51 343.555 745.397 343.555 747.938V760H341.039ZM334.342 760.185C332.886 760.185 331.616 759.951 330.531 759.482C329.47 758.989 328.656 758.323 328.089 757.484C327.521 756.621 327.238 755.634 327.238 754.524C327.238 753.513 327.472 752.6 327.941 751.786C328.434 750.947 329.223 750.281 330.309 749.788C331.419 749.27 332.899 749.011 334.749 749.011H341.446V750.972H334.823C332.948 750.972 331.641 751.305 330.901 751.971C330.185 752.637 329.828 753.463 329.828 754.45C329.828 755.56 330.259 756.448 331.123 757.114C331.986 757.78 333.195 758.113 334.749 758.113C336.229 758.113 337.499 757.78 338.56 757.114C339.645 756.423 340.434 755.437 340.928 754.154L341.52 755.967C341.026 757.25 340.163 758.273 338.93 759.038C337.721 759.803 336.192 760.185 334.342 760.185ZM346.996 759.963L347.181 757.706C347.354 757.731 347.514 757.768 347.662 757.817C347.835 757.842 347.983 757.854 348.106 757.854C348.895 757.854 349.524 757.558 349.993 756.966C350.486 756.374 350.856 755.585 351.103 754.598C351.35 753.611 351.522 752.501 351.621 751.268C351.72 750.01 351.806 748.752 351.88 747.494L352.213 740.575H366.458V760H363.831V742.092L364.497 742.869H353.915L354.544 742.055L354.248 747.679C354.174 749.356 354.038 750.96 353.841 752.489C353.668 754.018 353.385 755.363 352.99 756.522C352.62 757.681 352.102 758.594 351.436 759.26C350.77 759.901 349.919 760.222 348.883 760.222C348.587 760.222 348.279 760.197 347.958 760.148C347.662 760.099 347.341 760.037 346.996 759.963ZM381.918 760.185C380.043 760.185 378.354 759.766 376.849 758.927C375.369 758.064 374.197 756.892 373.334 755.412C372.471 753.907 372.039 752.193 372.039 750.269C372.039 748.32 372.471 746.606 373.334 745.126C374.197 743.646 375.369 742.487 376.849 741.648C378.329 740.809 380.019 740.39 381.918 740.39C383.842 740.39 385.544 740.809 387.024 741.648C388.529 742.487 389.7 743.646 390.539 745.126C391.402 746.606 391.834 748.32 391.834 750.269C391.834 752.193 391.402 753.907 390.539 755.412C389.7 756.892 388.529 758.064 387.024 758.927C385.519 759.766 383.817 760.185 381.918 760.185ZM381.918 757.854C383.324 757.854 384.57 757.546 385.655 756.929C386.74 756.288 387.591 755.4 388.208 754.265C388.849 753.106 389.17 751.774 389.17 750.269C389.17 748.74 388.849 747.408 388.208 746.273C387.591 745.138 386.74 744.263 385.655 743.646C384.57 743.005 383.336 742.684 381.955 742.684C380.574 742.684 379.34 743.005 378.255 743.646C377.17 744.263 376.306 745.138 375.665 746.273C375.024 747.408 374.703 748.74 374.703 750.269C374.703 751.774 375.024 753.106 375.665 754.265C376.306 755.4 377.17 756.288 378.255 756.929C379.34 757.546 380.561 757.854 381.918 757.854ZM397.448 760V740.575H400.112L408.918 755.486H407.808L416.762 740.575H419.204V760H416.799V743.572L417.28 743.794L408.918 757.632H407.734L399.298 743.646L399.853 743.535V760H397.448Z" fill="#566E8C"/>
<path d="M206.07 432L189.09 410.88L191.67 409.38L209.67 432H206.07ZM176.91 432V390H179.97V432H176.91ZM178.95 412.08V409.32H191.73V412.08H178.95ZM191.85 411.3L189.03 410.7L205.17 390H208.59L191.85 411.3ZM210.372 431.88L210.672 429.3C210.912 429.34 211.152 429.4 211.392 429.48C211.672 429.52 211.912 429.54 212.112 429.54C213.472 429.54 214.552 429.04 215.352 428.04C216.152 427 216.752 425.62 217.152 423.9C217.592 422.18 217.892 420.24 218.052 418.08C218.252 415.92 218.412 413.72 218.532 411.48L219.072 400.68H241.032V432H238.032V402.42L238.872 403.38H220.992L221.772 402.36L221.292 411.72C221.132 414.44 220.912 417.04 220.632 419.52C220.352 422 219.932 424.2 219.372 426.12C218.812 428.04 218.012 429.56 216.972 430.68C215.932 431.76 214.592 432.3 212.952 432.3C212.552 432.3 212.132 432.26 211.692 432.18C211.292 432.1 210.852 432 210.372 431.88ZM253.994 432V400.68H256.994V427.38L279.314 400.68H281.954V432H278.954V405.3L256.634 432H253.994ZM294.892 432V400.68H297.892V414.96H319.132V400.68H322.132V432H319.132V417.6H297.892V432H294.892ZM335.087 432V400.68H338.087V427.38L360.407 400.68H363.047V432H360.047V405.3L337.727 432H335.087ZM399.086 432L385.646 416.34L388.166 414.9L402.686 432H399.086ZM375.986 432V400.68H378.986V432H375.986ZM378.026 417.48V414.9H387.866V417.48H378.026ZM388.346 416.64L385.586 416.16L398.426 400.68H401.726L388.346 416.64ZM429.061 432V424.86L428.941 423.78V412.02C428.941 409.1 428.141 406.88 426.541 405.36C424.981 403.84 422.681 403.08 419.641 403.08C417.481 403.08 415.461 403.46 413.581 404.22C411.741 404.94 410.161 405.88 408.841 407.04L407.341 404.88C408.901 403.48 410.781 402.4 412.981 401.64C415.181 400.84 417.481 400.44 419.881 400.44C423.761 400.44 426.741 401.42 428.821 403.38C430.901 405.34 431.941 408.26 431.941 412.14V432H429.061ZM417.781 432.24C415.461 432.24 413.441 431.88 411.721 431.16C410.041 430.4 408.741 429.34 407.821 427.98C406.941 426.62 406.501 425.06 406.501 423.3C406.501 421.7 406.861 420.26 407.581 418.98C408.341 417.66 409.581 416.6 411.301 415.8C413.021 414.96 415.321 414.54 418.201 414.54H429.721V416.88H418.261C415.021 416.88 412.741 417.48 411.421 418.68C410.141 419.88 409.501 421.38 409.501 423.18C409.501 425.18 410.261 426.78 411.781 427.98C413.301 429.18 415.441 429.78 418.201 429.78C420.841 429.78 423.061 429.18 424.861 427.98C426.701 426.78 428.061 425.04 428.941 422.76L429.781 424.8C428.941 427.08 427.501 428.9 425.461 430.26C423.461 431.58 420.901 432.24 417.781 432.24Z" fill="#566E8C"/>
</svg>
