<svg xmlns="http://www.w3.org/2000/svg" viewBox="0 0 932 932"><defs><style>.cls-1{fill:#506988;}</style></defs><g id="Слой_2" data-name="Слой 2"><g id="LANGS"><g id="EN"><path class="cls-1" d="M879.12,0H52.88A52.87,52.87,0,0,0,0,52.88V879.12A52.87,52.87,0,0,0,52.88,932H879.12A52.87,52.87,0,0,0,932,879.12V52.88A52.87,52.87,0,0,0,879.12,0ZM364.21,424.8V480H192v94.8q0,18,8.1,26.4t24.9,8.4H387l3.6,55.8q-28.22,2.42-60,3.3t-64.5,1.2q-32.72.3-63.9.3-38.42,0-61.5-21.3T117,591.6V332.4q.58-36,23.7-57.3t61.5-21.3h63.9q32.68,0,64.5,1.2t60,3.6L387,314.4H225q-16.81,0-24.9,8.4T192,349.2v75.6Zm435,216q0,28.22-27.6,28.2h-51q-12.6,0-19.2-5.7t-12-17.1L564,396.6q-6-13.19-13.2-29.1a229.3,229.3,0,0,1-11.4-30.3h-7.8q1.2,15,2.1,30.3t.9,30.3V669h-72V283.2q0-28.18,27.6-28.2H540q12.6,0,19.2,5.7t12,17.1L693,520.8q7.2,13.22,14.7,29.7t14.1,33.3h9q-1.2-17.38-2.1-33.9t-.9-32.7V255h71.4Z"/></g></g></g></svg>