<svg xmlns="http://www.w3.org/2000/svg" viewBox="0 0 932 932"><defs><style>.cls-1{fill:#506988;}</style></defs><g id="Слой_2" data-name="Слой 2"><g id="LANGS"><path class="cls-1" d="M336,334.2q-6.61-14.4-22.2-20.1t-42.6-5.7q-43.5,0-76.8.41V443.4h76.8q27-.58,42.6-6.3T336,416.7q6.58-14.68,6.6-41.7Q342.61,348.62,336,334.2Z"/><path class="cls-1" d="M879.12,0H52.88A52.87,52.87,0,0,0,0,52.88V879.12A52.87,52.87,0,0,0,52.88,932H879.12A52.87,52.87,0,0,0,932,879.12V52.88A52.87,52.87,0,0,0,879.12,0ZM354.61,669l-34.2-127.8q-6.62-21.6-18-30.3t-31.2-8.7q-39,0-66.6-.3l-10.2-.12V669h-73.8V255q24-2.38,45.3-3.6t46.5-1.5q25.2-.28,60.6-.3,51.58,0,83.7,10.8t46.8,36.9q14.69,26.1,14.7,73.5,0,31.21-7.5,53.1t-24.6,34.8q-17.1,12.92-45.9,16.5v3a72.75,72.75,0,0,1,21.3,9.3q11.08,6.92,20.4,19.5T396,539.4L433.81,669ZM818.4,507q0,61.82-15,99t-49.2,54q-34.2,16.8-91.8,16.8-60,0-96-16.8t-51.9-54q-15.9-37.18-15.9-99V255h75V507q0,40.82,8.1,64.8t26.7,33.9q18.6,9.9,50.4,9.9t50.1-9.9q18.3-9.9,26.4-33.9t8.1-64.8V255h75Z"/></g></g></svg>