<svg xmlns="http://www.w3.org/2000/svg" viewBox="0 0 932 932"><defs><style>.cls-1{fill:#506988;}</style></defs><g id="Слой_2" data-name="Слой 2"><g id="LANGS"><path class="cls-1" d="M879.12,0H52.88A52.87,52.87,0,0,0,0,52.88V879.12A52.87,52.87,0,0,0,52.88,932H879.12A52.87,52.87,0,0,0,932,879.12V52.88A52.87,52.87,0,0,0,879.12,0ZM437.41,507q0,61.82-15,99t-49.2,54q-34.2,16.8-91.8,16.8-60,0-96-16.8t-51.9-54q-15.91-37.18-15.9-99V255h75V507q0,40.82,8.1,64.8t26.7,33.9q18.59,9.9,50.4,9.9t50.1-9.9q18.29-9.9,26.4-33.9t8.1-64.8V255h75ZM802.2,669H506.4V610.8L714.78,313.2H510.6V255H797.4v58.2L589.62,610.8H802.2Z"/></g></g></svg>