<svg width="92" height="92" viewBox="0 0 92 92" fill="none" xmlns="http://www.w3.org/2000/svg">
<path d="M47.2395 62.2728L53.3381 68.3712V48.0419L47.2395 41.9431V62.2728Z" fill="#566E8C" fill-opacity="0.85"/>
<path d="M81.8826 76.5865L57.6504 52.3542V72.6835L71.7181 86.7507C73.066 88.0987 74.8942 88.856 76.8005 88.8561C78.7067 88.8561 80.535 88.0989 81.8829 86.7511L81.8828 86.7507C82.5501 86.0833 83.0795 85.291 83.4407 84.419C83.8019 83.547 83.9878 82.6124 83.9878 81.6686C83.9878 80.7247 83.8018 79.7901 83.4406 78.9181C83.0794 78.0462 82.55 77.2539 81.8826 76.5865Z" fill="#566E8C" fill-opacity="0.85"/>
<path d="M31.6504 43.826C32.5046 46.5538 34.0054 49.0348 36.025 51.0577L42.9275 57.9606V37.631L40.3863 35.0901L31.6504 43.826Z" fill="#566E8C" fill-opacity="0.85"/>
<path d="M8.44036 3.14404C6.76826 13.7733 9.99106 25.0241 18.1823 33.2154C21.2604 36.2936 24.8933 38.7614 28.8893 40.4885L37.3369 32.0407L8.44036 3.14404Z" fill="#566E8C" fill-opacity="0.85"/>
</svg>
