<?xml version="1.0" standalone="no"?>
<!DOCTYPE svg PUBLIC "-//W3C//DTD SVG 1.1//EN" "http://www.w3.org/Graphics/SVG/1.1/DTD/svg11.dtd" >
<svg>
<metadata>
Created by FontForge 20090914 at Wed Dec 28 21:15:00 2022
 By www-data
Copyright 2011 The Montserrat Project Authors (https://github.com/JulietaUla/Montserrat)
</metadata>
<defs>
<font id="Montserrat-ExtraBold" horiz-adv-x="0" >
  <font-face 
    font-family="Montserrat ExtraBold"
    font-weight="800"
    font-stretch="normal"
    units-per-em="1000"
    panose-1="0 0 0 0 0 0 0 0 0 0"
    ascent="800"
    descent="-200"
    x-height="542"
    cap-height="700"
    bbox="-215 -268.007 1715 1088"
    underline-thickness="50"
    underline-position="-75"
    unicode-range="U+000D-U+FB02"
  />
<missing-glyph horiz-adv-x="587" 
d="M40 0v700h507v-700h-507zM120 70h347v560h-347v-560z" />
    <glyph glyph-name="fi" unicode="fi" horiz-adv-x="736" 
d="M83 0v536c0 65.333 19.5 117.5 58.5 156.5s94.833 58.5 167.5 58.5c23.333 0 46.333 -2.33301 69 -7s41.667 -11.667 57 -21l-47 -134c-8 4.66699 -17 8.5 -27 11.5s-20 4.5 -30 4.5c-20 0 -35.5 -5.83301 -46.5 -17.5s-16.5 -29.5 -16.5 -53.5v-39l5 -79v-416h-190z
M4 380v142h393v-142h-393zM484 0v542h190v-542h-190zM579 602c-34.667 0 -62.667 9.66699 -84 29s-32 43.333 -32 72s10.667 52.667 32 72s49.333 29 84 29s62.667 -9.16699 84 -27.5s32 -41.833 32 -70.5c0 -30 -10.5 -54.833 -31.5 -74.5s-49.167 -29.5 -84.5 -29.5z" />
    <glyph glyph-name="fl" unicode="fl" horiz-adv-x="736" 
d="M83 0v536c0 65.333 19.5 117.5 58.5 156.5s94.833 58.5 167.5 58.5c23.333 0 46.333 -2.33301 69 -7s41.667 -11.667 57 -21l-47 -134c-8 4.66699 -17 8.5 -27 11.5s-20 4.5 -30 4.5c-20 0 -35.5 -5.83301 -46.5 -17.5s-16.5 -29.5 -16.5 -53.5v-39l5 -79v-416h-190z
M4 380v142h393v-142h-393zM484 0v742h190v-742h-190z" />
    <glyph glyph-name=".notdef" horiz-adv-x="587" 
d="M40 0v700h507v-700h-507zM120 70h347v560h-347v-560z" />
    <glyph glyph-name="NULL" 
 />
    <glyph glyph-name="NULL" 
 />
    <glyph glyph-name="CR" unicode="&#xd;" horiz-adv-x="291" 
 />
    <glyph glyph-name="space" unicode=" " horiz-adv-x="291" 
 />
    <glyph glyph-name="exclam" unicode="!" horiz-adv-x="301" 
d="M75 255l-37 445h226l-38 -445h-151zM151 -9c-33.333 0 -60.666 10.333 -81.999 31s-32 45.334 -32 74.001c0 29.333 10.667 53.833 32 73.5s48.666 29.5 81.999 29.5s60.5 -9.83301 81.5 -29.5s31.5 -44.167 31.5 -73.5c0 -28.667 -10.5 -53.334 -31.5 -74.001
s-48.167 -31 -81.5 -31z" />
    <glyph glyph-name="quotedbl" unicode="&#x22;" horiz-adv-x="462" 
d="M53 408l-12 292h160l-13 -292h-135zM273 408l-12 292h160l-13 -292h-135z" />
    <glyph glyph-name="numbersign" unicode="#" horiz-adv-x="730" 
d="M383 0l87 700h136l-87 -700h-136zM17 149v129h662v-129h-662zM124 0l87 700h136l-87 -700h-136zM50 422v129h663v-129h-663z" />
    <glyph glyph-name="dollar" unicode="$" horiz-adv-x="647" 
d="M274 -120v940h120v-940h-120zM316 -14c-57.333 0 -112.5 7.16895 -165.5 21.502s-96.167 32.833 -129.5 55.5l65 146c31.333 -20 67.5 -36.5 108.5 -49.5s81.833 -19.5 122.5 -19.5c27.333 0 49.333 2.5 66 7.5s28.834 11.667 36.501 20s11.5 18.166 11.5 29.499
c0 16 -7.33301 28.667 -22 38s-33.667 17 -57 23s-49.166 12 -77.499 18s-56.666 13.667 -84.999 23s-54.166 21.5 -77.499 36.5s-42.333 34.667 -57 59s-22 55.166 -22 92.499c0 42 11.5 80 34.5 114s57.5 61.333 103.5 82s103.333 31 172 31
c46 0 91.167 -5.16699 135.5 -15.5s83.833 -25.5 118.5 -45.5l-61 -147c-33.333 18 -66.333 31.5 -99 40.5s-64.334 13.5 -95.001 13.5c-27.333 0 -49.333 -2.83301 -66 -8.5s-28.667 -13.167 -36 -22.5s-11 -20 -11 -32c0 -15.333 7.16699 -27.5 21.5 -36.5
s33.333 -16.333 57 -22s49.667 -11.5 78 -17.5s56.666 -13.5 84.999 -22.5s54.166 -21 77.499 -36s42.166 -34.667 56.499 -59s21.5 -54.833 21.5 -91.5c0 -40.667 -11.5 -78.167 -34.5 -112.5s-57.333 -61.833 -103 -82.5s-103.167 -31 -172.5 -31z" />
    <glyph glyph-name="percent" unicode="%" horiz-adv-x="897" 
d="M137 0l478 700h144l-478 -700h-144zM201 321c-34 0 -64.667 7.66602 -92 22.999s-48.666 37.5 -63.999 66.5s-23 63.833 -23 104.5s7.66699 75.334 23 104.001s36.666 50.834 63.999 66.501s58 23.5 92 23.5c34.667 0 65.5 -7.83301 92.5 -23.5
s48.333 -37.834 64 -66.501s23.5 -63.334 23.5 -104.001c0 -40 -7.83301 -74.667 -23.5 -104s-37 -51.666 -64 -66.999s-57.833 -23 -92.5 -23zM202 415.999c16.667 0 30.5 7.66699 41.5 23s16.5 40.666 16.5 75.999s-5.5 60.666 -16.5 75.999s-24.833 23 -41.5 23
s-30.834 -7.66699 -42.501 -23s-17.5 -40.666 -17.5 -75.999s5.83301 -60.666 17.5 -75.999s25.834 -23 42.501 -23zM695 -9.00098c-34.667 0 -65.5 7.66699 -92.5 23s-48.167 37.5 -63.5 66.5s-23 63.833 -23 104.5s7.66699 75.334 23 104.001s36.5 50.834 63.5 66.501
s57.833 23.5 92.5 23.5s65.5 -7.83301 92.5 -23.5s48.333 -37.834 64 -66.501s23.5 -63.334 23.5 -104.001s-7.83301 -75.5 -23.5 -104.5s-37 -51.167 -64 -66.5s-57.833 -23 -92.5 -23zM695 85.999c16.667 0 30.667 7.66699 42 23s17 40.666 17 75.999
s-5.66699 60.666 -17 75.999s-25.333 23 -42 23c-16 0 -29.833 -7.66699 -41.5 -23s-17.5 -40.666 -17.5 -75.999s5.83301 -60.666 17.5 -75.999s25.5 -23 41.5 -23z" />
    <glyph glyph-name="ampersand" unicode="&#x26;" horiz-adv-x="752" 
d="M310 -14c-53.333 0 -100.997 8.49609 -142.997 25.4961s-75.167 40.5 -99.5 70.5s-36.5 63.667 -36.5 101c0 36.667 8.16699 69.334 24.5 98.001s41.666 55 75.999 79s78.166 47 131.499 69c35.333 15.333 63 29 83 41s34.167 23.5 42.5 34.5s12.5 22.167 12.5 33.5
c0 14 -4.66699 25.333 -14 34s-23.333 13 -42 13c-19.333 0 -34.5 -5 -45.5 -15s-16.5 -22.333 -16.5 -37c0 -8.66699 1.83301 -17.334 5.5 -26.001s11 -18.667 22 -30s26.5 -26 46.5 -44l369 -328l-102 -117l-416 371c-22.667 20 -41.167 39.333 -55.5 58
s-25 37.334 -32 56.001s-10.5 37.667 -10.5 57c0 36 9.66699 67.5 29 94.5s46.666 48 81.999 63s76.666 22.5 123.999 22.5c43.333 0 81.166 -6.66699 113.499 -20s57.5 -32.666 75.5 -57.999s27 -55.333 27 -90c0 -30.667 -7.83301 -58.667 -23.5 -84
s-39.667 -48.666 -72 -69.999s-73.5 -42.333 -123.5 -63c-30.667 -12.667 -55.167 -25.334 -73.5 -38.001s-31.5 -25.5 -39.5 -38.5s-12 -27.833 -12 -44.5c0 -13.333 4.33301 -25.666 13 -36.999s21 -20.166 37 -26.499s35 -9.5 57 -9.5c38.667 0 74.334 9.5 107.001 28.5
s60.834 46.833 84.501 83.5s39.834 81 48.501 133l153 -46c-14.667 -68.667 -41.167 -128.667 -79.5 -180s-85.333 -91.5 -141 -120.5s-117.834 -43.5 -186.501 -43.5z" />
    <glyph glyph-name="quotesingle" unicode="'" horiz-adv-x="242" 
d="M53 408l-12 292h160l-13 -292h-135z" />
    <glyph glyph-name="parenleft" unicode="(" horiz-adv-x="369" 
d="M189 -194c-41.333 60 -73.166 130.169 -95.499 210.502s-33.5 166.166 -33.5 257.499s11.167 177.166 33.5 257.499s54.166 150.5 95.499 210.5h182c-43.333 -77.333 -75 -154 -95 -230s-30 -155.333 -30 -238s10 -162 30 -238s51.667 -152.667 95 -230h-182z" />
    <glyph glyph-name="parenright" unicode=")" horiz-adv-x="369" 
d="M180 -194l-182 -0.00195312c44 77.333 75.833 154 95.5 230s29.5 155.333 29.5 238s-9.83301 162 -29.5 238s-51.5 152.667 -95.5 230h182c42 -60 74 -130.167 96 -210.5s33 -166.166 33 -257.499s-11 -177.166 -33 -257.499s-54 -150.5 -96 -210.5z" />
    <glyph glyph-name="asterisk" unicode="*" horiz-adv-x="453" 
d="M443 594l-130 -71v30l130 -70l-58 -96l-120 72l15 9l3 -133h-114l3 133l15 -9l-120 -72l-57 96l130 70v-30l-130 71l57 96l120 -73l-15 -9l-3 134h114l-3 -134l-15 9l120 73z" />
    <glyph glyph-name="plus" unicode="+" horiz-adv-x="609" 
d="M228 112v476h154v-476h-154zM58 277v146h493v-146h-493z" />
    <glyph glyph-name="comma" unicode="," horiz-adv-x="283" 
d="M40 -157l74.998 259.998l27 -108c-33.333 0 -60.666 9.83301 -81.999 29.5s-32 46.167 -32 79.5c0 34.667 10.833 62 32.5 82s48.834 30 81.501 30s59.667 -10.167 81 -30.5s32 -47.5 32 -81.5c0 -9.33301 -0.666992 -18.666 -2 -27.999s-4.33301 -20.666 -9 -33.999
s-12 -31 -22 -53l-63 -146h-119z" />
    <glyph glyph-name="hyphen" unicode="-" horiz-adv-x="388" 
d="M48 212v146h292v-146h-292z" />
    <glyph glyph-name="period" unicode="." horiz-adv-x="283" 
d="M141 -9c-32 0 -59 10.667 -81 32s-33 48.333 -33 81c0 34 11 61.167 33 81.5s49 30.5 81 30.5s59 -10.167 81 -30.5s33 -47.5 33 -81.5c0 -32.667 -11 -59.667 -33 -81s-49 -32 -81 -32z" />
    <glyph glyph-name="slash" unicode="/" horiz-adv-x="415" 
d="M-37 -100l330 942h169l-330 -942h-169z" />
    <glyph glyph-name="zero" unicode="0" horiz-adv-x="685" 
d="M343 -14c-60 0 -113.167 14.333 -159.5 43s-82.833 70 -109.5 124s-40 119.667 -40 197s13.333 143 40 197s63.167 95.333 109.5 124s99.5 43 159.5 43c59.333 0 112.166 -14.333 158.499 -43s82.833 -70 109.5 -124s40 -119.667 40 -197s-13.333 -143 -40 -197
s-63.167 -95.333 -109.5 -124s-99.166 -43 -158.499 -43zM343 148c21.333 0 40.166 6.66699 56.499 20s29.166 34.833 38.499 64.5s14 68.834 14 117.501c0 49.333 -4.66699 88.666 -14 117.999s-22.166 50.666 -38.499 63.999s-35.166 20 -56.499 20
s-40.166 -6.66699 -56.499 -20s-29.333 -34.666 -39 -63.999s-14.5 -68.666 -14.5 -117.999c0 -48.667 4.83301 -87.834 14.5 -117.501s22.667 -51.167 39 -64.5s35.166 -20 56.499 -20z" />
    <glyph glyph-name="one" unicode="1" horiz-adv-x="405" 
d="M136 0v629l85 -82h-215v153h328v-700h-198z" />
    <glyph glyph-name="two" unicode="2" horiz-adv-x="599" 
d="M30 0v124l262 245c18.667 17.333 32.5 32.666 41.5 45.999s15 25.5 18 36.5s4.5 21.167 4.5 30.5c0 22.667 -7.5 40.334 -22.5 53.001s-37.5 19 -67.5 19c-25.333 0 -49 -5.66699 -71 -17s-40 -28.333 -54 -51l-147 82c26 44 63.667 79.333 113 106s108.333 40 177 40
c54 0 101.333 -8.66699 142 -26s72.5 -42 95.5 -74s34.5 -69.667 34.5 -113c0 -22.667 -3 -45.167 -9 -67.5s-17.5 -46 -34.5 -71s-42.167 -52.833 -75.5 -83.5l-208 -192l-33 70h379v-157h-545z" />
    <glyph glyph-name="three" unicode="3" horiz-adv-x="603" 
d="M268 -14c-48.667 0 -97.165 5.99902 -145.498 17.999s-90.5 29 -126.5 51l72 149c28 -18.667 59.167 -33 93.5 -43s67.833 -15 100.5 -15c34 0 61 6.33301 81 19s30 30.667 30 54c0 20.667 -8.33301 37.167 -25 49.5s-44 18.5 -82 18.5h-83v125l188 203l19 -68h-358v153
h506v-124l-188 -203l-97 55h54c87.333 0 153.5 -19.5 198.5 -58.5s67.5 -89.167 67.5 -150.5c0 -40 -10.833 -77.667 -32.5 -113s-54.834 -64.166 -99.501 -86.499s-102.334 -33.5 -173.001 -33.5z" />
    <glyph glyph-name="four" unicode="4" horiz-adv-x="700" 
d="M27 134v129l314 437h205l-305 -437l-94 28h547v-157h-667zM397 0v134l6 157v119h187v-410h-193z" />
    <glyph glyph-name="five" unicode="5" horiz-adv-x="607" 
d="M279 -14c-48 0 -96.332 5.99902 -144.999 17.999s-90.667 29 -126 51l71 149c28.667 -18.667 59.834 -33 93.501 -43s67.167 -15 100.5 -15s60.333 6.5 81 19.5s31 31.167 31 54.5c0 14 -4 26.5 -12 37.5s-21.667 19.333 -41 25s-47 8.5 -83 8.5h-190l35 409h446v-153
h-376l101 87l-23 -276l-101 87h155c69.333 0 125 -9.83301 167 -29.5s72.667 -46 92 -79s29 -70.167 29 -111.5s-10.833 -80.166 -32.5 -116.499s-54.834 -65.833 -99.501 -88.5s-102.334 -34 -173.001 -34z" />
    <glyph glyph-name="six" unicode="6" horiz-adv-x="649" 
d="M358 -14c-65.333 0 -122.166 13.001 -170.499 39.001s-86 64.667 -113 116s-40.5 114.666 -40.5 189.999c0 81.333 15.833 150.5 47.5 207.5s75.334 100.5 131.001 130.5s120.167 45 193.5 45c39.333 0 77.166 -4.5 113.499 -13.5s67.166 -21.5 92.499 -37.5l-72 -142
c-20 14 -40.833 23.5 -62.5 28.5s-43.834 7.5 -66.501 7.5c-54 0 -97.167 -16.333 -129.5 -49s-48.5 -80.334 -48.5 -143.001c0 -11.333 0.166992 -23.166 0.5 -35.499s1.5 -24.833 3.5 -37.5l-50 41c13.333 24.667 29.5 45.334 48.5 62.001s41.667 29.334 68 38.001
s55.833 13 88.5 13c44 0 84.167 -9.16699 120.5 -27.5s65.5 -44 87.5 -77s33 -71.833 33 -116.5c0 -48.667 -12.333 -90.834 -37 -126.501s-57.667 -63.334 -99 -83.001s-87.666 -29.5 -138.999 -29.5zM346 127.001c18.667 0 35.166 3.66699 49.499 11
s25.5 17.666 33.5 30.999s12 29 12 47c0 26.667 -8.83301 48 -26.5 64s-40.834 24 -69.501 24c-19.333 0 -36.166 -3.66699 -50.499 -11s-25.666 -17.666 -33.999 -30.999s-12.5 -29 -12.5 -47c0 -17.333 4 -32.5 12 -45.5s19.333 -23.333 34 -31s32 -11.5 52 -11.5z" />
    <glyph glyph-name="seven" unicode="7" horiz-adv-x="632" 
d="M140 0l273 627l53 -84h-355l81 91v-199h-169v265h580v-124l-247 -576h-216z" />
    <glyph glyph-name="eight" unicode="8" horiz-adv-x="669" 
d="M334 -14c-60.667 0 -113.668 9 -159.001 27s-80.833 43.5 -106.5 76.5s-38.5 71.833 -38.5 116.5c0 44 12.833 81.5 38.5 112.5s61.334 54.667 107.001 71s98.5 24.5 158.5 24.5s112.833 -8.16699 158.5 -24.5s81.334 -40 107.001 -71s38.5 -68.5 38.5 -112.5
c0 -44.667 -12.667 -83.5 -38 -116.5s-60.833 -58.5 -106.5 -76.5s-98.834 -27 -159.501 -27zM333.999 125c32 0 57.5 7.66699 76.5 23s28.5 36.666 28.5 63.999c0 26.667 -9.5 47.834 -28.5 63.501s-44.5 23.5 -76.5 23.5s-57.5 -7.83301 -76.5 -23.5
s-28.5 -36.834 -28.5 -63.501c0 -27.333 9.5 -48.666 28.5 -63.999s44.5 -23 76.5 -23zM333.999 316c-54.667 0 -102.834 7.66699 -144.501 23s-74.5 37.5 -98.5 66.5s-36 63.833 -36 104.5c0 42 11.833 78 35.5 108s56.5 53.5 98.5 70.5s90.333 25.5 145 25.5
c55.333 0 103.833 -8.5 145.5 -25.5s74.334 -40.5 98.001 -70.5s35.5 -66 35.5 -108c0 -40.667 -11.833 -75.5 -35.5 -104.5s-56.5 -51.167 -98.5 -66.5s-90.333 -23 -145 -23zM333.999 428c25.333 0 45.668 6.5 61.001 19.5s23 30.833 23 53.5
c0 24 -7.83301 42.333 -23.5 55s-35.834 19 -60.501 19s-44.667 -6.33301 -60 -19s-23 -31 -23 -55c0 -22.667 7.66699 -40.5 23 -53.5s35.333 -19.5 60 -19.5z" />
    <glyph glyph-name="nine" unicode="9" horiz-adv-x="649" 
d="M290 714c66 0 123.167 -13.001 171.5 -39.001s86 -64.5 113 -115.5s40.5 -114.5 40.5 -190.5c0 -81.333 -15.833 -150.5 -47.5 -207.5s-75.334 -100.5 -131.001 -130.5s-120.5 -45 -194.5 -45c-38.667 0 -76 4.5 -112 13.5s-67 21.5 -93 37.5l72 142
c20 -14 40.833 -23.5 62.5 -28.5s43.834 -7.5 66.501 -7.5c54 0 97 16.333 129 49s48 80.334 48 143.001v35.5c0 12.333 -1 24.833 -3 37.5l49 -41c-12 -24.667 -27.667 -45.334 -47 -62.001s-42 -29.334 -68 -38.001s-55.667 -13 -89 -13
c-44 0 -84.167 9.16699 -120.5 27.5s-65.5 44 -87.5 77s-33 71.833 -33 116.5c0 48.667 12.333 90.834 37 126.501s57.667 63.334 99 83.001s87.333 29.5 138 29.5zM303 572.999c-18.667 0 -35.001 -3.66602 -49.001 -10.999s-25.167 -17.5 -33.5 -30.5
s-12.5 -28.833 -12.5 -47.5c0 -26.667 8.83301 -48 26.5 -64s40.834 -24 69.501 -24c19.333 0 36.333 3.66699 51 11s26 17.666 34 30.999s12 29 12 47c0 17.333 -4 32.5 -12 45.5s-19.333 23.333 -34 31s-32 11.5 -52 11.5z" />
    <glyph glyph-name="colon" unicode=":" horiz-adv-x="283" 
d="M141 326c-32 0 -59 10.667 -81 32s-33 48.333 -33 81c0 34 11 61.167 33 81.5s49 30.5 81 30.5s59 -10.167 81 -30.5s33 -47.5 33 -81.5c0 -32.667 -11 -59.667 -33 -81s-49 -32 -81 -32zM141 -9c-32 0 -59 10.667 -81 32s-33 48.333 -33 81c0 34 11 61.167 33 81.5
s49 30.5 81 30.5s59 -10.167 81 -30.5s33 -47.5 33 -81.5c0 -32.667 -11 -59.667 -33 -81s-49 -32 -81 -32z" />
    <glyph glyph-name="semicolon" unicode=";" horiz-adv-x="283" 
d="M141 326c-32 0 -59 10.667 -81 32s-33 48.333 -33 81c0 34 11 61.167 33 81.5s49 30.5 81 30.5s59 -10.167 81 -30.5s33 -47.5 33 -81.5c0 -32.667 -11 -59.667 -33 -81s-49 -32 -81 -32zM40 -157l74.998 259.998l27 -108c-33.333 0 -60.666 9.83301 -81.999 29.5
s-32 46.167 -32 79.5c0 34.667 10.833 62 32.5 82s48.834 30 81.501 30s59.667 -10.167 81 -30.5s32 -47.5 32 -81.5c0 -9.33301 -0.666992 -18.666 -2 -27.999s-4.33301 -20.666 -9 -33.999s-12 -31 -22 -53l-63 -146h-119z" />
    <glyph glyph-name="less" unicode="&#x3c;" horiz-adv-x="609" 
d="M551 91l-493 182v154l493 182v-146l-437 -155v84l437 -155v-146z" />
    <glyph glyph-name="equal" unicode="=" horiz-adv-x="609" 
d="M58 404v145h493v-145h-493zM58 151v145h493v-145h-493z" />
    <glyph glyph-name="greater" unicode="&#x3e;" horiz-adv-x="609" 
d="M58 91v146l438 155v-84l-438 155v146l493 -182v-154z" />
    <glyph glyph-name="question" unicode="?" horiz-adv-x="597" 
d="M212 255c0 22 3.50098 41.5 10.501 58.5s15.833 32.167 26.5 45.5s22.167 25.5 34.5 36.5l34.5 32c10.667 10.333 19.5 20.833 26.5 31.5s10.5 22.334 10.5 35.001c0 20 -8.16699 35.667 -24.5 47s-37.5 17 -63.5 17c-26.667 0 -50.834 -6.33301 -72.501 -19
s-39.167 -30.334 -52.5 -53.001l-149 80c26 44.667 63.667 80.5 113 107.5s110.666 40.5 183.999 40.5c51.333 0 96.833 -7.16699 136.5 -21.5s70.834 -35.5 93.501 -63.5s34 -62.333 34 -103c0 -26 -4 -48.667 -12 -68s-18.167 -36.333 -30.5 -51
s-25.5 -28.167 -39.5 -40.5l-39.5 -35.5c-12.333 -11.333 -22.5 -23 -30.5 -35s-12 -25.667 -12 -41h-178zM301.001 -9c-32.667 0 -59.667 10.333 -81 31s-32 45.334 -32 74.001c0 29.333 10.667 53.833 32 73.5s48.333 29.5 81 29.5c34 0 61.5 -9.83301 82.5 -29.5
s31.5 -44.167 31.5 -73.5c0 -28.667 -10.5 -53.334 -31.5 -74.001s-48.5 -31 -82.5 -31z" />
    <glyph glyph-name="at" unicode="@" horiz-adv-x="1036" 
d="M521 -208c-73.333 0 -139.998 11.668 -199.998 35.001s-111.333 55.833 -154 97.5s-75.5 90.5 -98.5 146.5s-34.5 116.667 -34.5 182s11.5 125.833 34.5 181.5s56 104.167 99 145.5s94.833 73.666 155.5 96.999s128 35 202 35c71.333 0 136.166 -11 194.499 -33
s108.5 -52.667 150.5 -92s74.5 -85.5 97.5 -138.5s34.5 -109.833 34.5 -170.5c0 -61.333 -9.66699 -113.333 -29 -156s-45.5 -75 -78.5 -97s-70.5 -33 -112.5 -33c-50 0 -89.5 14.5 -118.5 43.5s-43.5 71.5 -43.5 127.5v34l1 50l-9 162v76h163v-305
c0 -22.667 4.33301 -38.334 13 -47.001s19 -13 31 -13c12.667 0 23.667 5 33 15s16.666 26.333 21.999 49s8 53 8 91c0 48 -8.5 92 -25.5 132s-41.167 74.5 -72.5 103.5s-69 51.333 -113 67s-92.667 23.5 -146 23.5s-102 -8.66699 -146 -26s-81.833 -41.666 -113.5 -72.999
s-56 -68.166 -73 -110.499s-25.5 -88.5 -25.5 -138.5c0 -50.667 8.33301 -97.334 25 -140.001s40.667 -79.667 72 -111s68.666 -55.666 111.999 -72.999s91.666 -26 144.999 -26c32.667 0 65.834 3.5 99.501 10.5s66.834 18.167 99.501 33.5l37 -107
c-30 -14.667 -66.333 -26.334 -109 -35.001s-85 -13 -127 -13zM473.002 -7.99902c-39.333 0 -75.8311 10.3311 -109.498 30.998s-60.834 49.834 -81.501 87.501s-31 81.834 -31 132.501s10.167 94.667 30.5 132s47.333 66.333 81 87s70.5 31 110.5 31
c43.333 0 79.666 -10.167 108.999 -30.5s51.333 -49 66 -86s22 -81.5 22 -133.5c0 -51.333 -7 -95.833 -21 -133.5s-35.333 -66.667 -64 -87s-66 -30.5 -112 -30.5zM516.004 127.999c19.333 0 36.333 4.33398 51 13.001s26.334 21.667 35.001 39s13 38.333 13 63
s-4.33301 45.5 -13 62.5s-20.334 29.833 -35.001 38.5s-31.667 13 -51 13c-18.667 0 -35.5 -4.5 -50.5 -13.5s-26.667 -21.833 -35 -38.5s-12.5 -37.334 -12.5 -62.001c0 -24 4.16699 -44.667 12.5 -62s20 -30.5 35 -39.5s31.833 -13.5 50.5 -13.5z" />
    <glyph glyph-name="A" unicode="A" horiz-adv-x="786" 
d="M-14 0l309 700h195l310 -700h-206l-242 603h78l-242 -603h-202zM155 136l51 146h342l51 -146h-444z" />
    <glyph glyph-name="B" unicode="B" horiz-adv-x="769" 
d="M70 0l-0.000976562 700.002h358c92 0 160.667 -16.833 206 -50.5s68 -77.834 68 -132.501c0 -36 -9.5 -67.5 -28.5 -94.5s-45.667 -48.333 -80 -64s-75.166 -23.5 -122.499 -23.5l20 48c49.333 0 92.333 -7.5 129 -22.5s65.167 -36.667 85.5 -65
s30.5 -62.833 30.5 -103.5c0 -60.667 -24.5 -107.834 -73.5 -141.501s-120.5 -50.5 -214.5 -50.5h-378zM265.999 143.002h166c34 0 59.833 5.83301 77.5 17.5s26.5 29.5 26.5 53.5s-8.83301 41.833 -26.5 53.5s-43.5 17.5 -77.5 17.5h-180v137h150
c33.333 0 58.333 5.66699 75 17s25 28.333 25 51s-8.33301 39.5 -25 50.5s-41.667 16.5 -75 16.5h-136v-414z" />
    <glyph glyph-name="C" unicode="C" horiz-adv-x="738" 
d="M419 -14c-55.333 0 -106.5 8.83594 -153.5 26.5029s-87.667 42.834 -122 75.501s-61.166 71.167 -80.499 115.5s-29 93.166 -29 146.499s9.66699 102.166 29 146.499s46.166 82.833 80.499 115.5s75 57.834 122 75.501s98.167 26.5 153.5 26.5
c64.667 0 122.5 -11.333 173.5 -34s93.5 -55.334 127.5 -98.001l-126 -114c-22.667 26.667 -47.5 47 -74.5 61s-57.167 21 -90.5 21c-28.667 0 -55 -4.66699 -79 -14s-44.5 -22.833 -61.5 -40.5s-30.333 -38.834 -40 -63.501s-14.5 -52 -14.5 -82s4.83301 -57.333 14.5 -82
s23 -45.834 40 -63.501s37.5 -31.167 61.5 -40.5s50.333 -14 79 -14c33.333 0 63.5 7 90.5 21s51.833 34.333 74.5 61l126 -114c-34 -42 -76.5 -74.5 -127.5 -97.5s-108.833 -34.5 -173.5 -34.5z" />
    <glyph glyph-name="D" unicode="D" horiz-adv-x="826" 
d="M70 0v699.999h331c77.333 0 145.333 -14.333 204 -43s104.5 -69 137.5 -121s49.5 -114 49.5 -186c0 -71.333 -16.5 -133.166 -49.5 -185.499s-78.833 -92.833 -137.5 -121.5s-126.667 -43 -204 -43h-331zM268 157.999l125 -0.000976562c40 0 74.833 7.5 104.5 22.5
s52.834 37 69.501 66s25 63.5 25 103.5c0 40.667 -8.33301 75.334 -25 104.001s-39.834 50.5 -69.501 65.5s-64.5 22.5 -104.5 22.5h-125v-384z" />
    <glyph glyph-name="E" unicode="E" horiz-adv-x="672" 
d="M252 429h325v-148h-325v148zM266 153h366v-153h-562v700h549v-153h-353v-394z" />
    <glyph glyph-name="F" unicode="F" horiz-adv-x="642" 
d="M254 393h323v-153h-323v153zM268 0h-198v700h549v-153h-351v-547z" />
    <glyph glyph-name="G" unicode="G" horiz-adv-x="770" 
d="M420 -14c-55.333 0 -106.668 8.83496 -154.001 26.502s-88.166 42.834 -122.499 75.501s-61.166 71.167 -80.499 115.5s-29 93.166 -29 146.499s9.66699 102.166 29 146.499s46.333 82.833 81 115.5s75.834 57.834 123.501 75.501s99.834 26.5 156.501 26.5
c66 0 125 -11 177 -33s95 -53.667 129 -95l-126 -114c-24 26 -49.833 45.5 -77.5 58.5s-58.5 19.5 -92.5 19.5c-30 0 -57.333 -4.66699 -82 -14s-45.667 -22.833 -63 -40.5s-30.833 -38.667 -40.5 -63s-14.5 -51.833 -14.5 -82.5c0 -29.333 4.83301 -56.333 14.5 -81
s23.167 -45.834 40.5 -63.501s38.166 -31.334 62.499 -41.001s51.166 -14.5 80.499 -14.5s58 4.83301 86 14.5s56.333 26.167 85 49.5l111 -139c-40 -28.667 -86.333 -50.667 -139 -66s-104.334 -23 -155.001 -23zM538.998 101.002v264h175v-290z" />
    <glyph glyph-name="H" unicode="H" horiz-adv-x="806" 
d="M538 700h198v-700h-198v700zM268 0h-198v700h198v-700zM552 273h-298v164h298v-164z" />
    <glyph glyph-name="I" unicode="I" horiz-adv-x="339" 
d="M70 0v700h198v-700h-198z" />
    <glyph glyph-name="J" unicode="J" horiz-adv-x="557" 
d="M223 -14c-51.333 0 -97.833 8.83301 -139.5 26.5s-76.167 43.167 -103.5 76.5l108 128c18.667 -24 38 -42.167 58 -54.5s41 -18.5 63 -18.5c58.667 0 88 34 88 102v301h-242v153h438v-442c0 -91.333 -23 -159.5 -69 -204.5s-113 -67.5 -201 -67.5z" />
    <glyph glyph-name="K" unicode="K" horiz-adv-x="752" 
d="M247 155l-11 222l301 323h218l-300 -325l-110 -115zM70 0v700h196v-700h-196zM540 0l-228 289l129 138l329 -427h-230z" />
    <glyph glyph-name="L" unicode="L" horiz-adv-x="610" 
d="M70 0v700h198v-543h334v-157h-532z" />
    <glyph glyph-name="M" unicode="M" horiz-adv-x="954" 
d="M70 0v700h163l290 -476h-86l282 476h163l2 -700h-182l-2 423h31l-211 -354h-88l-217 354h38v-423h-183z" />
    <glyph glyph-name="N" unicode="N" horiz-adv-x="806" 
d="M70 0v700h163l386 -466h-77v466h194v-700h-163l-386 466h77v-466h-194z" />
    <glyph glyph-name="O" unicode="O" horiz-adv-x="846" 
d="M423 -14c-56 0 -107.667 9 -155 27s-88.5 43.5 -123.5 76.5s-62.167 71.5 -81.5 115.5s-29 92.333 -29 145s9.66699 101 29 145s46.5 82.5 81.5 115.5s76.167 58.5 123.5 76.5s99 27 155 27c56.667 0 108.5 -9 155.5 -27s87.833 -43.5 122.5 -76.5
s61.834 -71.5 81.501 -115.5s29.5 -92.333 29.5 -145s-9.83301 -101.167 -29.5 -145.5s-46.834 -82.833 -81.501 -115.5s-75.5 -58 -122.5 -76s-98.833 -27 -155.5 -27zM423 150c26.667 0 51.5 4.66699 74.5 14s43 22.833 60 40.5s30.333 38.834 40 63.501s14.5 52 14.5 82
c0 30.667 -4.83301 58.167 -14.5 82.5s-23 45.333 -40 63s-37 31.167 -60 40.5s-47.833 14 -74.5 14s-51.5 -4.66699 -74.5 -14s-43 -22.833 -60 -40.5s-30.333 -38.667 -40 -63s-14.5 -51.833 -14.5 -82.5c0 -30 4.83301 -57.333 14.5 -82s23 -45.834 40 -63.501
s37 -31.167 60 -40.5s47.833 -14 74.5 -14z" />
    <glyph glyph-name="P" unicode="P" horiz-adv-x="737" 
d="M70 0v700.001h320c64 0 119.167 -10.333 165.5 -31s82.166 -50.5 107.499 -89.5s38 -85.167 38 -138.5c0 -52.667 -12.667 -98.334 -38 -137.001s-61.166 -68.5 -107.499 -89.5s-101.5 -31.5 -165.5 -31.5h-210l88 86v-269h-198zM268 248.001l-88 91h198
c41.333 0 72.166 9 92.499 27s30.5 43 30.5 75c0 32.667 -10.167 58 -30.5 76s-51.166 27 -92.499 27h-198l88 91v-387z" />
    <glyph glyph-name="Q" unicode="Q" horiz-adv-x="846" 
d="M423 -14c-56 0 -107.667 9 -155 27s-88.5 43.5 -123.5 76.5s-62.167 71.5 -81.5 115.5s-29 92.333 -29 145s9.66699 101 29 145s46.5 82.5 81.5 115.5s76.167 58.5 123.5 76.5s99 27 155 27c56.667 0 108.5 -9 155.5 -27s87.833 -43.333 122.5 -76
s61.834 -71.167 81.501 -115.5s29.5 -92.833 29.5 -145.5s-9.83301 -101.167 -29.5 -145.5s-46.834 -82.833 -81.501 -115.5s-75.5 -58 -122.5 -76s-98.833 -27 -155.5 -27zM652 -169c-30 0 -58 3.16699 -84 9.5s-51.5 16.5 -76.5 30.5s-51 33 -78 57
s-57.167 53.667 -90.5 89l207 52c16.667 -24.667 31.667 -44 45 -58s26.5 -24 39.5 -30s26.833 -9 41.5 -9c38.667 0 74 16.333 106 49l86 -102c-48.667 -58.667 -114 -88 -196 -88zM423 150c26.667 0 51.5 4.66699 74.5 14s43 22.833 60 40.5s30.333 38.834 40 63.501
s14.5 52 14.5 82c0 30.667 -4.83301 58.167 -14.5 82.5s-23 45.333 -40 63s-37 31.167 -60 40.5s-47.833 14 -74.5 14s-51.5 -4.66699 -74.5 -14s-43 -22.833 -60 -40.5s-30.333 -38.667 -40 -63s-14.5 -51.833 -14.5 -82.5c0 -30 4.83301 -57.333 14.5 -82
s23 -45.834 40 -63.501s37 -31.167 60 -40.5s47.833 -14 74.5 -14z" />
    <glyph glyph-name="R" unicode="R" horiz-adv-x="740" 
d="M70 0v699.999h320c64 0 119.167 -10.333 165.5 -31s82.166 -50.5 107.499 -89.5s38 -85.167 38 -138.5c0 -52.667 -12.667 -98.167 -38 -136.5s-61.166 -67.666 -107.499 -87.999s-101.5 -30.5 -165.5 -30.5h-210l88 83v-269h-198zM503 -0.000976562l-174 255h211
l175 -255h-212zM268 247.999l-88 91h198c41.333 0 72.166 9 92.499 27s30.5 43 30.5 75c0 32.667 -10.167 58 -30.5 76s-51.166 27 -92.499 27h-198l88 91v-387z" />
    <glyph glyph-name="S" unicode="S" horiz-adv-x="647" 
d="M316 -14c-57.333 0 -112.5 7.16895 -165.5 21.502s-96.167 32.833 -129.5 55.5l65 146c31.333 -20 67.5 -36.5 108.5 -49.5s81.833 -19.5 122.5 -19.5c27.333 0 49.333 2.5 66 7.5s28.834 11.667 36.501 20s11.5 18.166 11.5 29.499c0 16 -7.33301 28.667 -22 38
s-33.667 17 -57 23s-49.166 12 -77.499 18s-56.666 13.667 -84.999 23s-54.166 21.5 -77.499 36.5s-42.333 34.667 -57 59s-22 55.166 -22 92.499c0 42 11.5 80 34.5 114s57.5 61.333 103.5 82s103.333 31 172 31c46 0 91.167 -5.16699 135.5 -15.5
s83.833 -25.5 118.5 -45.5l-61 -147c-33.333 18 -66.333 31.5 -99 40.5s-64.334 13.5 -95.001 13.5c-27.333 0 -49.333 -2.83301 -66 -8.5s-28.667 -13.167 -36 -22.5s-11 -20 -11 -32c0 -15.333 7.16699 -27.5 21.5 -36.5s33.333 -16.333 57 -22s49.667 -11.5 78 -17.5
s56.666 -13.5 84.999 -22.5s54.166 -21 77.499 -36s42.166 -34.667 56.499 -59s21.5 -54.833 21.5 -91.5c0 -40.667 -11.5 -78.167 -34.5 -112.5s-57.333 -61.833 -103 -82.5s-103.167 -31 -172.5 -31z" />
    <glyph glyph-name="T" unicode="T" horiz-adv-x="635" 
d="M219 0v543h-215v157h627v-157h-214v-543h-198z" />
    <glyph glyph-name="U" unicode="U" horiz-adv-x="786" 
d="M393 -14c-103.333 0 -183.999 28.333 -241.999 85s-87 137 -87 241v388h198v-382c0 -60 11.833 -103 35.5 -129s56.167 -39 97.5 -39s73.666 13 96.999 39s35 69 35 129v382h195v-388c0 -104 -29 -184.333 -87 -241s-138.667 -85 -242 -85z" />
    <glyph glyph-name="V" unicode="V" horiz-adv-x="766" 
d="M285 0l-299 700h214l252 -606h-126l258 606h196l-300 -700h-195z" />
    <glyph glyph-name="W" unicode="W" horiz-adv-x="1184" 
d="M243 0l-227 700h204l191 -606h-103l201 606h182l190 -606h-99l197 606h189l-227 -700h-212l-162 515h57l-169 -515h-212z" />
    <glyph glyph-name="X" unicode="X" horiz-adv-x="737" 
d="M-2 0l306 425l-1 -141l-294 416h223l188 -271l-95 -1l185 272h214l-294 -408v140l310 -432h-228l-191 285h91l-188 -285h-226z" />
    <glyph glyph-name="Y" unicode="Y" horiz-adv-x="693" 
d="M247 0v296l46 -119l-313 523h209l226 -379h-121l227 379h192l-312 -523l44 119v-296h-198z" />
    <glyph glyph-name="Z" unicode="Z" horiz-adv-x="679" 
d="M35 0v124l412 489l24 -70h-427v157h603v-124l-412 -489l-24 70h451v-157h-627z" />
    <glyph glyph-name="bracketleft" unicode="[" horiz-adv-x="389" 
d="M70 -194v936h306v-145h-116v-646h116v-145h-306z" />
    <glyph glyph-name="backslash" unicode="\" horiz-adv-x="415" 
d="M452 -100h-169l-330 942h169z" />
    <glyph glyph-name="bracketright" unicode="]" horiz-adv-x="389" 
d="M318 -194h-306v145h116v646h-116v145h306v-936z" />
    <glyph glyph-name="asciicircum" unicode="^" horiz-adv-x="610" 
d="M47 140l183 420h150l183 -420h-144l-155 373h82l-155 -373h-144z" />
    <glyph glyph-name="underscore" unicode="_" horiz-adv-x="500" 
d="M0 -104v104h500v-104h-500z" />
    <glyph glyph-name="grave" unicode="`" horiz-adv-x="600" 
d="M262 607l-188 152h190l134 -152h-136z" />
    <glyph glyph-name="a" unicode="a" horiz-adv-x="628" 
d="M392 0l0.000976562 101l-13 25v186c0 30 -9.16699 53.167 -27.5 69.5s-47.5 24.5 -87.5 24.5c-26 0 -52.333 -4.16699 -79 -12.5s-49.334 -19.833 -68.001 -34.5l-64 129c30.667 20 67.5 35.5 110.5 46.5s85.833 16.5 128.5 16.5c88 0 156.167 -20.167 204.5 -60.5
s72.5 -103.5 72.5 -189.5v-301h-177zM232.001 -9c-43.333 0 -80 7.33594 -110 22.0029s-52.833 34.667 -68.5 60s-23.5 53.666 -23.5 84.999c0 33.333 8.5 62.166 25.5 86.499s43.167 43 78.5 56s81 19.5 137 19.5h128v-99h-102c-30.667 0 -52.167 -5 -64.5 -15
s-18.5 -23.333 -18.5 -40s6.33301 -30 19 -40s30 -15 52 -15c20.667 0 39.5 5.16699 56.5 15.5s29.5 26.166 37.5 47.499l26 -70c-10 -37.333 -29.5 -65.5 -58.5 -84.5s-67.167 -28.5 -114.5 -28.5z" />
    <glyph glyph-name="b" unicode="b" horiz-adv-x="695" 
d="M402 -9c-48.667 0 -89.167 10.002 -121.5 30.002s-56.5 50.667 -72.5 92s-24 94.333 -24 159c0 63.333 8.5 115.666 25.5 156.999s41.833 72 74.5 92s72 30 118 30c49.333 0 94.166 -11.333 134.499 -34s72.333 -54.834 96 -96.501s35.5 -91.167 35.5 -148.5
c0 -58 -11.833 -107.833 -35.5 -149.5s-55.667 -74 -96 -97s-85.166 -34.5 -134.499 -34.5zM61 0.00195312v742h190v-291l-10 -179l1 -179v-93h-181zM362 142.002c21.333 0 40.5 5 57.5 15s30.667 24.833 41 44.5s15.5 43.167 15.5 70.5s-5.16699 50.5 -15.5 69.5
s-24 33.5 -41 43.5s-36.167 15 -57.5 15s-40.5 -5 -57.5 -15s-30.667 -24.5 -41 -43.5s-15.5 -42.167 -15.5 -69.5s5.16699 -50.833 15.5 -70.5s24 -34.5 41 -44.5s36.167 -15 57.5 -15z" />
    <glyph glyph-name="c" unicode="c" horiz-adv-x="603" 
d="M338 -9c-60 0 -113.5 12 -160.5 36s-83.833 57.167 -110.5 99.5s-40 90.833 -40 145.5s13.333 103 40 145s63.5 74.833 110.5 98.5s100.5 35.5 160.5 35.5c61.333 0 114.333 -13 159 -39s76.334 -62.667 95.001 -110l-147 -75
c-12.667 25.333 -28.334 43.833 -47.001 55.5s-39 17.5 -61 17.5s-42 -5 -60 -15s-32.167 -24.5 -42.5 -43.5s-15.5 -42.167 -15.5 -69.5c0 -28 5.16699 -51.667 15.5 -71s24.5 -34 42.5 -44s38 -15 60 -15s42.333 5.83301 61 17.5s34.334 30.167 47.001 55.5l147 -75
c-18.667 -47.333 -50.334 -84 -95.001 -110s-97.667 -39 -159 -39z" />
    <glyph glyph-name="d" unicode="d" horiz-adv-x="698" 
d="M297 -9c-49.333 0 -94.166 11.498 -134.499 34.498s-72.5 55.333 -96.5 97s-36 91.5 -36 149.5c0 57.333 12 106.833 36 148.5s56.167 73.834 96.5 96.501s85.166 34 134.499 34c46.667 0 86.167 -10 118.5 -30s56.833 -50.667 73.5 -92s25 -93.666 25 -156.999
c0 -64.667 -8 -117.667 -24 -159s-40 -72 -72 -92s-72.333 -30 -121 -30zM337 141.998c21.333 0 40.5 5 57.5 15s30.5 24.833 40.5 44.5s15 43.167 15 70.5s-5 50.5 -15 69.5s-23.5 33.5 -40.5 43.5s-36.167 15 -57.5 15c-22 0 -41.5 -5 -58.5 -15s-30.5 -24.5 -40.5 -43.5
s-15 -42.167 -15 -69.5s5 -50.833 15 -70.5s23.5 -34.5 40.5 -44.5s36.5 -15 58.5 -15zM456 -0.00195312v93l1 179l-10 179v291h190v-742h-181z" />
    <glyph glyph-name="e" unicode="e" horiz-adv-x="642" 
d="M345 -9c-64 0 -119.833 12.168 -167.5 36.501s-84.667 57.666 -111 99.999s-39.5 90.5 -39.5 144.5s12.833 102.167 38.5 144.5s61.167 75.333 106.5 99s96.333 35.5 153 35.5c53.333 0 102 -10.833 146 -32.5s79 -53.5 105 -95.5s39 -93 39 -153
c0 -6.66699 -0.333008 -14.334 -1 -23.001s-1.33398 -16.667 -2.00098 -24h-429v100h328l-72 -28c0.666992 24.667 -3.83301 46 -13.5 64s-23 32 -40 42s-36.833 15 -59.5 15s-42.5 -5 -59.5 -15s-30.167 -24.167 -39.5 -42.5s-14 -39.833 -14 -64.5v-29
c0 -26.667 5.5 -49.667 16.5 -69s26.833 -34.166 47.5 -44.499s45.334 -15.5 74.001 -15.5c26.667 0 49.5 3.83301 68.5 11.5s37.833 19.5 56.5 35.5l100 -104c-26 -28.667 -58 -50.5 -96 -65.5s-83 -22.5 -135 -22.5z" />
    <glyph glyph-name="f" unicode="f" horiz-adv-x="406" 
d="M83 0v536c0 65.333 19.5 117.5 58.5 156.5s94.833 58.5 167.5 58.5c23.333 0 46.333 -2.33301 69 -7s41.667 -11.667 57 -21l-47 -134c-8 4.66699 -17 8.5 -27 11.5s-20 4.5 -30 4.5c-20 0 -35.5 -5.83301 -46.5 -17.5s-16.5 -29.5 -16.5 -53.5v-39l5 -79v-416h-190z
M4 380v142h393v-142h-393z" />
    <glyph glyph-name="g" unicode="g" horiz-adv-x="705" 
d="M326 -203c-52 0 -101.502 6 -148.502 18s-87.167 29.667 -120.5 53l69 133c22.667 -18 50.834 -32.167 84.501 -42.5s66.5 -15.5 98.5 -15.5c51.333 0 88.333 11.167 111 33.5s34 54.833 34 97.5v64l10 152l-1 153v99h181v-443c0 -102.667 -27.667 -178.667 -83 -228
s-133.666 -74 -234.999 -74zM292.998 28c-48 0 -92.167 10.834 -132.5 32.501s-72.666 52 -96.999 91s-36.5 85.167 -36.5 138.5s12.167 99.5 36.5 138.5s56.666 69.167 96.999 90.5s84.5 32 132.5 32c46 0 85.333 -9.16699 118 -27.5s57.5 -46.833 74.5 -85.5
s25.5 -88 25.5 -148s-8.5 -109.333 -25.5 -148s-41.833 -67.334 -74.5 -86.001s-72 -28 -118 -28zM337.998 179.001c22.667 0 42.834 4.66699 60.501 14s31.667 22.333 42 39s15.5 36 15.5 58s-5.16699 41.333 -15.5 58s-24.333 29.5 -42 38.5s-37.834 13.5 -60.501 13.5
s-43 -4.5 -61 -13.5s-32.167 -21.833 -42.5 -38.5s-15.5 -36 -15.5 -58s5.16699 -41.333 15.5 -58s24.5 -29.667 42.5 -39s38.333 -14 61 -14z" />
    <glyph glyph-name="h" unicode="h" horiz-adv-x="696" 
d="M414 551c42 0 80 -8.50098 114 -25.501s60.833 -43.167 80.5 -78.5s29.5 -81 29.5 -137v-310h-190v279c0 38.667 -7.83301 66.834 -23.5 84.501s-37.5 26.5 -65.5 26.5c-20 0 -38.333 -4.5 -55 -13.5s-29.667 -22.833 -39 -41.5s-14 -43 -14 -73v-262h-190v742h190v-354
l-44 45c20.667 39.333 49 68.833 85 88.5s76.667 29.5 122 29.5z" />
    <glyph glyph-name="i" unicode="i" horiz-adv-x="313" 
d="M61 0v542h190v-542h-190zM156 602c-34.667 0 -62.667 9.66699 -84 29s-32 43.333 -32 72s10.667 52.667 32 72s49.333 29 84 29s62.667 -9.16699 84 -27.5s32 -41.833 32 -70.5c0 -30 -10.5 -54.833 -31.5 -74.5s-49.167 -29.5 -84.5 -29.5z" />
    <glyph glyph-name="j" unicode="j" horiz-adv-x="320" 
d="M38 -203c-25.333 0 -49.5 2.5 -72.5 7.5s-42.833 11.833 -59.5 20.5l48 135c17.333 -10.667 37 -16 59 -16c16.667 0 30.167 5.66699 40.5 17s15.5 29.333 15.5 54v527h190v-528c0 -66 -19.333 -118.667 -58 -158s-93 -59 -163 -59zM164 602
c-34.667 0 -62.667 9.66699 -84 29s-32 43.333 -32 72s10.667 52.667 32 72s49.333 29 84 29s62.667 -9.16699 84 -27.5s32 -41.833 32 -70.5c0 -30 -10.5 -54.833 -31.5 -74.5s-49.167 -29.5 -84.5 -29.5z" />
    <glyph glyph-name="k" unicode="k" horiz-adv-x="686" 
d="M219 100l5 227l221 215h225l-245 -253l-97 -78zM61 0v742h190v-742h-190zM459 0l-166 208l118 146l278 -354h-230z" />
    <glyph glyph-name="l" unicode="l" horiz-adv-x="313" 
d="M61 0v742h190v-742h-190z" />
    <glyph glyph-name="m" unicode="m" horiz-adv-x="1045" 
d="M767 551c42 0 79.498 -8.50098 112.498 -25.501s59 -43.167 78 -78.5s28.5 -81 28.5 -137v-310h-190v279c0 38.667 -7.33301 66.834 -22 84.501s-34.667 26.5 -60 26.5c-18 0 -34.333 -4.33301 -49 -13s-26 -21.834 -34 -39.501s-12 -40.5 -12 -68.5v-269h-190v279
c0 38.667 -7.16699 66.834 -21.5 84.501s-34.5 26.5 -60.5 26.5c-18.667 0 -35.167 -4.33301 -49.5 -13s-25.666 -21.834 -33.999 -39.501s-12.5 -40.5 -12.5 -68.5v-269h-190v542h181v-151l-36 43c20 38.667 47.333 67.834 82 87.501s73.334 29.5 116.001 29.5
c48.667 0 91.5 -12.5 128.5 -37.5s61.833 -63.833 74.5 -116.5l-62 13c19.333 44 48.5 78.5 87.5 103.5s83.833 37.5 134.5 37.5z" />
    <glyph glyph-name="n" unicode="n" horiz-adv-x="696" 
d="M414 551c42 0 80 -8.50098 114 -25.501s60.833 -43.167 80.5 -78.5s29.5 -81 29.5 -137v-310h-190v279c0 38.667 -7.83301 66.834 -23.5 84.501s-37.5 26.5 -65.5 26.5c-20 0 -38.333 -4.5 -55 -13.5s-29.667 -22.833 -39 -41.5s-14 -43 -14 -73v-262h-190v542h181v-154
l-35 45c20.667 39.333 49 68.833 85 88.5s76.667 29.5 122 29.5z" />
    <glyph glyph-name="o" unicode="o" horiz-adv-x="666" 
d="M333 -9c-59.333 0 -112 12 -158 36s-82.167 57.167 -108.5 99.5s-39.5 90.833 -39.5 145.5s13.167 103 39.5 145s62.5 74.833 108.5 98.5s98.667 35.5 158 35.5s112.166 -11.833 158.499 -35.5s82.5 -56.5 108.5 -98.5s39 -90.333 39 -145s-13 -103.167 -39 -145.5
s-62.167 -75.5 -108.5 -99.5s-99.166 -36 -158.499 -36zM333 142c22 0 41.5 5 58.5 15s30.5 24.833 40.5 44.5s15 43.167 15 70.5s-5 50.5 -15 69.5s-23.5 33.5 -40.5 43.5s-36.5 15 -58.5 15c-21.333 0 -40.5 -5 -57.5 -15s-30.667 -24.5 -41 -43.5
s-15.5 -42.167 -15.5 -69.5s5.16699 -50.833 15.5 -70.5s24 -34.5 41 -44.5s36.167 -15 57.5 -15z" />
    <glyph glyph-name="p" unicode="p" horiz-adv-x="695" 
d="M402 -9c-46 0 -85.333 10.167 -118 30.5s-57.5 51 -74.5 92s-25.5 93.5 -25.5 157.5c0 64.667 8 117.5 24 158.5s40.167 71.5 72.5 91.5s72.833 30 121.5 30c49.333 0 94.166 -11.5 134.499 -34.5s72.333 -55.333 96 -97s35.5 -91.167 35.5 -148.5
s-11.833 -107 -35.5 -149s-55.667 -74.333 -96 -97s-85.166 -34 -134.499 -34zM61 -194v736h181v-92l-1 -179l10 -180v-285h-190zM362 142c21.333 0 40.5 5 57.5 15s30.667 24.667 41 44s15.5 42.666 15.5 69.999s-5.16699 50.666 -15.5 69.999s-24 34 -41 44
s-36.167 15 -57.5 15s-40.5 -5 -57.5 -15s-30.667 -24.667 -41 -44s-15.5 -42.666 -15.5 -69.999s5.16699 -50.666 15.5 -69.999s24 -34 41 -44s36.167 -15 57.5 -15z" />
    <glyph glyph-name="q" unicode="q" horiz-adv-x="695" 
d="M293 -9c-48.667 0 -93.334 11.333 -134.001 34s-72.834 55 -96.501 97s-35.5 91.667 -35.5 149s11.833 106.833 35.5 148.5s55.834 74 96.501 97s85.334 34.5 134.001 34.5c49.333 0 90 -10 122 -30s56 -50.5 72 -91.5s24 -93.833 24 -158.5
c0 -64 -8.5 -116.5 -25.5 -157.5s-41.667 -71.667 -74 -92s-71.833 -30.5 -118.5 -30.5zM333 142c21.333 0 40.5 5 57.5 15s30.667 24.667 41 44s15.5 42.666 15.5 69.999s-5.16699 50.666 -15.5 69.999s-24 34 -41 44s-36.167 15 -57.5 15s-40.5 -5 -57.5 -15
s-30.667 -24.667 -41 -44s-15.5 -42.666 -15.5 -69.999s5.16699 -50.666 15.5 -69.999s24 -34 41 -44s36.167 -15 57.5 -15zM444 -194v285l10 180l-1 179v92h181v-736h-190z" />
    <glyph glyph-name="r" unicode="r" horiz-adv-x="443" 
d="M61 0l-0.000976562 542.001h181v-158l-27 45c16 40.667 42 71.167 78 91.5s79.667 30.5 131 30.5v-171c-8.66699 1.33301 -16.167 2.16602 -22.5 2.49902s-13.166 0.5 -20.499 0.5c-38.667 0 -70 -10.5 -94 -31.5s-36 -55.167 -36 -102.5v-249h-190z" />
    <glyph glyph-name="s" unicode="s" horiz-adv-x="547" 
d="M258 -9c-46 0 -90.8291 5.33496 -134.496 16.002s-78.834 24 -105.501 40l57 130c25.333 -15.333 55 -27.5 89 -36.5s67.333 -13.5 100 -13.5c32 0 54.167 3.33301 66.5 10s18.5 15.667 18.5 27c0 10.667 -5.83301 18.5 -17.5 23.5s-27 8.83301 -46 11.5l-62.5 9
c-22.667 3.33301 -45.5 7.83301 -68.5 13.5s-44 14.334 -63 26.001s-34.167 27.5 -45.5 47.5s-17 45.333 -17 76c0 34.667 10.167 65.5 30.5 92.5s50.166 48.333 89.499 64s87.333 23.5 144 23.5c38 0 76.5 -3.83301 115.5 -11.5s71.833 -19.167 98.5 -34.5l-57 -129
c-26.667 15.333 -53.334 25.833 -80.001 31.5s-52 8.5 -76 8.5c-32 0 -54.5 -3.66699 -67.5 -11s-19.5 -16.333 -19.5 -27s5.66699 -18.834 17 -24.501s26.5 -10 45.5 -13s39.833 -6 62.5 -9s45.5 -7.5 68.5 -13.5s44 -14.833 63 -26.5s34.167 -27.334 45.5 -47.001
s17 -44.834 17 -75.501c0 -33.333 -10.167 -63.333 -30.5 -90s-50.333 -48 -90 -64s-88.834 -24 -147.501 -24z" />
    <glyph glyph-name="t" unicode="t" horiz-adv-x="447" 
d="M303 -9c-69.333 0 -123.335 17.168 -162.002 51.501s-58 86.166 -58 155.499v465h190v-463c0 -19.333 5.33301 -34.5 16 -45.5s24.334 -16.5 41.001 -16.5c22.667 0 42 5.66699 58 17l47 -133c-16 -10.667 -35.667 -18.5 -59 -23.5s-47.666 -7.5 -72.999 -7.5z
M3.99805 380.001v142h393v-142h-393z" />
    <glyph glyph-name="u" unicode="u" horiz-adv-x="692" 
d="M289 -9c-44 0 -83.501 8.66699 -118.501 26s-62.333 44.5 -82 81.5s-29.5 83.833 -29.5 140.5v303h190v-272c0 -42 7.83301 -72 23.5 -90s37.834 -27 66.501 -27c18.667 0 35.667 4.33301 51 13s27.666 22.5 36.999 41.5s14 43.5 14 73.5v261h190v-542h-181v153l35 -43
c-18.667 -40 -45.667 -69.833 -81 -89.5s-73.666 -29.5 -114.999 -29.5z" />
    <glyph glyph-name="v" unicode="v" horiz-adv-x="620" 
d="M212 0l-223 542h195l178 -453h-98l187 453h181l-224 -542h-196z" />
    <glyph glyph-name="w" unicode="w" horiz-adv-x="956" 
d="M190 0l-193 542h180l153 -453h-86l159 453h162l153 -453h-84l158 453h167l-193 -542h-184l-130 375h56l-134 -375h-184z" />
    <glyph glyph-name="x" unicode="x" horiz-adv-x="619" 
d="M-2 0l249 327l-4 -108l-239 323h214l134 -191l-80 -4l142 195h201l-239 -316v104l246 -330h-217l-140 204l80 -11l-141 -193h-206z" />
    <glyph glyph-name="y" unicode="y" horiz-adv-x="620" 
d="M154 -203c-28.667 0 -57.5 4.5 -86.5 13.5s-52.5 20.833 -70.5 35.5l66 133c11.333 -10 24.5 -17.833 39.5 -23.5s29.833 -8.5 44.5 -8.5c20.667 0 37 4.66699 49 14s22.333 24 31 44l25 63l15 19l184 455h181l-234 -564c-18.667 -46.667 -40.167 -83.167 -64.5 -109.5
s-51.333 -44.833 -81 -55.5s-62.5 -16 -98.5 -16zM228 -23l-239 565h195l176 -438z" />
    <glyph glyph-name="z" unicode="z" horiz-adv-x="556" 
d="M33 0v112l304 350l32 -61h-329v141h483v-111l-305 -351l-32 62h347v-142h-500z" />
    <glyph glyph-name="braceleft" unicode="{" horiz-adv-x="414" 
d="M336 -194c-70 0 -122.667 16.9961 -158 50.9961s-53 82 -53 144v155c0 15.333 -4 26.666 -12 33.999s-18.333 11 -31 11h-34v146h34c12.667 0 23 3.83301 31 11.5s12 18.834 12 33.501v155c0 62 17.667 110 53 144s88 51 158 51h65v-145h-14
c-23.333 0 -41.166 -6.16699 -53.499 -18.5s-18.5 -30.166 -18.5 -53.499v-128c0 -33.333 -4.66699 -59.166 -14 -77.499s-23.833 -31.5 -43.5 -39.5s-45.167 -13.333 -76.5 -16v20c31.333 -2.66699 56.833 -8 76.5 -16s34.167 -21.167 43.5 -39.5s14 -44.166 14 -77.499
v-128c0 -23.333 6.16699 -41.166 18.5 -53.499s30.166 -18.5 53.499 -18.5h14v-145h-65z" />
    <glyph glyph-name="bar" unicode="|" horiz-adv-x="314" 
d="M70 -194v936h174v-936h-174z" />
    <glyph glyph-name="braceright" unicode="}" horiz-adv-x="414" 
d="M78 -194l-66 0.00390625v145h15c23.333 0 41.166 6.16699 53.499 18.5s18.5 30.166 18.5 53.499v128c0 33.333 4.66699 59.166 14 77.499s23.833 31.5 43.5 39.5s45.167 13.333 76.5 16v-20c-31.333 2.66699 -56.833 8 -76.5 16s-34.167 21.167 -43.5 39.5
s-14 44.166 -14 77.499v128c0 23.333 -6.16699 41.166 -18.5 53.499s-30.166 18.5 -53.499 18.5h-15v145h66c70 0 122.667 -17 158 -51s53 -82 53 -144v-155c0 -14.667 4 -25.834 12 -33.501s18.333 -11.5 31 -11.5h33v-146h-33c-12.667 0 -23 -3.66699 -31 -11
s-12 -18.666 -12 -33.999v-155c0 -62 -17.667 -110 -53 -144s-88 -51 -158 -51z" />
    <glyph glyph-name="asciitilde" unicode="~" horiz-adv-x="609" 
d="M404 243c-22.667 0 -42.8311 4.16699 -60.498 12.5s-33.667 17.666 -48 27.999l-40 28c-12.333 8.33301 -24.5 12.5 -36.5 12.5c-16.667 0 -30 -6.16699 -40 -18.5s-15.667 -29.5 -17 -51.5h-117c1.33301 66 16.833 116.667 46.5 152s67.5 53 113.5 53
c23.333 0 43.833 -4.16699 61.5 -12.5s33.667 -17.666 48 -27.999l39.5 -28c12 -8.33301 24.333 -12.5 37 -12.5c16.667 0 30 6.33301 40 19s15.333 30 16 52h117c-0.666992 -66 -15.834 -116.833 -45.501 -152.5s-67.834 -53.5 -114.501 -53.5z" />
    <glyph glyph-name="uni00A0" unicode="&#xa0;" horiz-adv-x="291" 
 />
    <glyph glyph-name="exclamdown" unicode="&#xa1;" horiz-adv-x="301" 
d="M226 287l38 -441h-226l37 441h151zM151 551c33.333 0 60.5 -10.167 81.5 -30.5s31.5 -45.166 31.5 -74.499c0 -28.667 -10.5 -53 -31.5 -73s-48.167 -30 -81.5 -30s-60.666 10 -81.999 30s-32 44.333 -32 73c0 29.333 10.667 54.166 32 74.499s48.666 30.5 81.999 30.5z
" />
    <glyph glyph-name="cent" unicode="&#xa2;" horiz-adv-x="603" 
d="M268 -120v782h120v-782h-120zM338 -9c-60 0 -113.5 12 -160.5 36s-83.833 57.167 -110.5 99.5s-40 90.833 -40 145.5s13.333 103 40 145s63.5 74.833 110.5 98.5s100.5 35.5 160.5 35.5c61.333 0 114.333 -13 159 -39s76.334 -62.667 95.001 -110l-147 -75
c-12.667 25.333 -28.334 43.833 -47.001 55.5s-39 17.5 -61 17.5s-42 -5 -60 -15s-32.167 -24.5 -42.5 -43.5s-15.5 -42.167 -15.5 -69.5c0 -28 5.16699 -51.667 15.5 -71s24.5 -34 42.5 -44s38 -15 60 -15s42.333 5.83301 61 17.5s34.334 30.167 47.001 55.5l147 -75
c-18.667 -47.333 -50.334 -84 -95.001 -110s-97.667 -39 -159 -39z" />
    <glyph glyph-name="sterling" unicode="&#xa3;" horiz-adv-x="681" 
d="M125 18l0.00390625 395c0 64 13.5 118.333 40.5 163s65.833 78.834 116.5 102.501s112 35.5 184 35.5c41.333 0 79.166 -3.83301 113.499 -11.5s64.5 -18.834 90.5 -33.501l-58 -152c-20.667 12 -42.834 20.5 -66.501 25.5s-46.834 7.5 -69.501 7.5
c-48.667 0 -86.334 -11 -113.001 -33s-40 -55.333 -40 -100v-399h-198zM30.0039 0v153h618v-153h-618zM30.0039 293v114h519v-114h-519z" />
    <glyph glyph-name="currency" unicode="&#xa4;" horiz-adv-x="700" 
d="M131 429l-109 110l105 107l110 -109zM127 -11l-105 107l109 110l106 -108zM572 -11l-110 109l106 108l110 -110zM568 429l-106 108l110 109l106 -107zM349 65c-35.333 0 -68.666 6.83301 -99.999 20.5s-58.833 32.167 -82.5 55.5s-42.167 50.5 -55.5 81.5
s-20 64.167 -20 99.5s6.66699 68.5 20 99.5s31.833 58.333 55.5 82s51.167 42.167 82.5 55.5s64.666 20 99.999 20c36 0 69.667 -6.66699 101 -20s58.833 -31.833 82.5 -55.5s42.167 -51 55.5 -82s20 -64.167 20 -99.5s-6.66699 -68.5 -20 -99.5
s-31.833 -58.167 -55.5 -81.5s-51.167 -41.833 -82.5 -55.5s-65 -20.5 -101 -20.5zM349 214c20.667 0 39.334 4.83301 56.001 14.5s30.167 22.667 40.5 39s15.5 34.5 15.5 54.5s-5.16699 38.167 -15.5 54.5s-23.833 29.5 -40.5 39.5s-35.334 15 -56.001 15
c-20 0 -38.333 -5 -55 -15s-30 -23.167 -40 -39.5s-15 -34.5 -15 -54.5s5 -38.167 15 -54.5s23.333 -29.333 40 -39s35 -14.5 55 -14.5z" />
    <glyph glyph-name="yen" unicode="&#xa5;" horiz-adv-x="753" 
d="M277 0v306l46 -120l-343 514h211l255 -379h-125l257 379h195l-342 -514l44 120v-306h-198zM103 76v97h546v-97h-546zM103 214v97h546v-97h-546z" />
    <glyph glyph-name="brokenbar" unicode="&#xa6;" horiz-adv-x="314" 
d="M70 392v350h174v-350h-174zM70 -194v350h174v-350h-174z" />
    <glyph glyph-name="section" unicode="&#xa7;" horiz-adv-x="535" 
d="M383 146l-95.9971 87.002c18 5.33301 32.167 13.666 42.5 24.999s15.5 24.333 15.5 39c0 12.667 -5.5 22.667 -16.5 30s-25.5 13.333 -43.5 18s-37.5 9.16699 -58.5 13.5s-42.333 9.83301 -64 16.5s-41.334 15.834 -59.001 27.501s-32 27.167 -43 46.5
s-16.5 43.666 -16.5 72.999c0 36 9.66699 68 29 96s48.833 50.167 88.5 66.5s89.167 24.5 148.5 24.5c19.333 0 41.833 -1.66699 67.5 -5s51.167 -8.33301 76.5 -15s46.666 -15.334 63.999 -26.001l-53 -129c-26.667 15.333 -53.834 26.166 -81.501 32.499
s-55.5 9.5 -83.5 9.5c-32.667 0 -55.667 -4.33301 -69 -13s-20 -20 -20 -34c0 -11.333 5.16699 -20.166 15.5 -26.499s24.5 -11.666 42.5 -15.999s37.667 -8.66602 59 -12.999s42.666 -10 63.999 -17s40.833 -16.833 58.5 -29.5s31.834 -28.834 42.501 -48.501
s16 -44.834 16 -75.501c0 -33.333 -10.5 -64.333 -31.5 -93s-52.5 -50 -94.5 -64zM250.003 -108.998c-28 0 -56.5059 2.50195 -85.5059 7.50195s-56.167 11.667 -81.5 20s-46.666 18.166 -63.999 29.499l53 129c24.667 -16 53.5 -28.833 86.5 -38.5s63.5 -14.5 91.5 -14.5
c24.667 0 43 4.5 55 13.5s18 20.167 18 33.5c0 12.667 -5.5 22.5 -16.5 29.5s-25.167 12.667 -42.5 17s-36.833 8.5 -58.5 12.5s-43.167 9.16699 -64.5 15.5s-40.666 15.166 -57.999 26.499s-31.5 26.5 -42.5 45.5s-16.5 43.167 -16.5 72.5c0 38 10.667 71.333 32 100
s52.333 50.334 93 65.001l96 -88c-17.333 -4.66699 -31.166 -12.667 -41.499 -24s-15.5 -24.333 -15.5 -39c0 -12.667 5.5 -22.667 16.5 -30s25.333 -13.333 43 -18s37.334 -9.16699 59.001 -13.5s43.334 -9.83301 65.001 -16.5s41.334 -15.834 59.001 -27.501
s32 -27.334 43 -47.001s16.5 -44.5 16.5 -74.5c0 -34.667 -9.16699 -66.167 -27.5 -94.5s-45.333 -50.666 -81 -66.999s-79.5 -24.5 -131.5 -24.5z" />
    <glyph glyph-name="dieresis" unicode="&#xa8;" horiz-adv-x="600" 
d="M406 606c-22 0 -40.667 7.16699 -56 21.5s-23 33.166 -23 56.499s7.66699 42.333 23 57s34 22 56 22s40.667 -7.33301 56 -22s23 -33.667 23 -57s-7.66699 -42.166 -23 -56.499s-34 -21.5 -56 -21.5zM194 606c-22 0 -40.667 7.16699 -56 21.5s-23 33.166 -23 56.499
s7.66699 42.333 23 57s34 22 56 22s40.667 -7.33301 56 -22s23 -33.667 23 -57s-7.66699 -42.166 -23 -56.499s-34 -21.5 -56 -21.5z" />
    <glyph glyph-name="copyright" unicode="&#xa9;" horiz-adv-x="775" 
d="M386 -3c-50 0 -96.334 9 -139.001 27s-80 43.167 -112 75.5s-56.833 69.833 -74.5 112.5s-26.5 88.667 -26.5 138s9 95.333 27 138s43 80.167 75 112.5s69.5 57.5 112.5 75.5s89.5 27 139.5 27s96.5 -8.83301 139.5 -26.5s80.333 -42.5 112 -74.5
s56.334 -69.167 74.001 -111.5s26.5 -88.5 26.5 -138.5s-9 -96.5 -27 -139.5s-43.167 -80.667 -75.5 -113s-69.833 -57.5 -112.5 -75.5s-89 -27 -139 -27zM385.999 73c39.333 0 75.5 7.16602 108.5 21.499s61.833 34 86.5 59s43.834 54.5 57.501 88.5s20.5 70.667 20.5 110
s-6.66699 75.833 -20 109.5s-32 62.834 -56 87.501s-52.5 43.834 -85.5 57.501s-69.5 20.5 -109.5 20.5c-39.333 0 -75.666 -7 -108.999 -21s-62.333 -33.667 -87 -59s-43.667 -54.833 -57 -88.5s-20 -69.834 -20 -108.501s6.66699 -75 20 -109s32.166 -63.5 56.499 -88.5
s53.166 -44.5 86.499 -58.5s69.333 -21 108 -21zM400.999 149.999c-42 0 -79 8.5 -111 25.5s-57.333 40.5 -76 70.5s-28 64.667 -28 104s9.33301 74 28 104s44 53.5 76 70.5s69 25.5 111 25.5s78.333 -9.16699 109 -27.5s52.667 -43.833 66 -76.5l-108 -59
c-8.66699 16 -18.667 27.333 -30 34s-24 10 -38 10c-13.333 0 -25.5 -3.16699 -36.5 -9.5s-20 -15.5 -27 -27.5s-10.5 -26.667 -10.5 -44s3.5 -32 10.5 -44s16 -21.167 27 -27.5s23.167 -9.5 36.5 -9.5c14 0 26.667 3.33301 38 10s21.333 18 30 34l108 -59
c-13.333 -32 -35.333 -57.333 -66 -76s-67 -28 -109 -28z" />
    <glyph glyph-name="ordfeminine" unicode="&#xaa;" horiz-adv-x="417" 
d="M253 422l-0.000976562 59.999l-10 14v110c0 18 -5.66699 31.5 -17 40.5s-29.666 13.5 -54.999 13.5c-15.333 0 -31.5 -2.5 -48.5 -7.5s-31.5 -11.833 -43.5 -20.5l-42 80c20 12.667 44.167 22.334 72.5 29.001s55.5 10 81.5 10c58 0 102.833 -12.167 134.5 -36.5
s47.5 -62.5 47.5 -114.5v-178h-120zM150.999 416.999c-42.667 0 -74.6709 9.66699 -96.0039 29s-32 43 -32 71c0 30 12.333 53.5 37 70.5s63.334 25.5 116.001 25.5h80v-62h-60c-17.333 0 -30.166 -2.5 -38.499 -7.5s-12.5 -12.167 -12.5 -21.5
s3.83301 -16.666 11.5 -21.999s18.167 -8 31.5 -8c12.667 0 23.834 2.66699 33.501 8s16.834 13.666 21.501 24.999l17 -44c-6 -20.667 -18.167 -36.5 -36.5 -47.5s-42.5 -16.5 -72.5 -16.5z" />
    <glyph glyph-name="guillemotleft" unicode="&#xab;" horiz-adv-x="605" 
d="M170 74l-139 198l139 197h169l-135 -197l135 -198h-169zM415 74l-139 198l139 197h169l-135 -197l135 -198h-169z" />
    <glyph glyph-name="logicalnot" unicode="&#xac;" horiz-adv-x="609" 
d="M551 423v-318h-154v173h-339v145h493z" />
    <glyph glyph-name="uni00AD" unicode="&#xad;" horiz-adv-x="388" 
d="M48 212v146h292v-146h-292z" />
    <glyph glyph-name="registered" unicode="&#xae;" horiz-adv-x="775" 
d="M386 -3c-50 0 -96.334 9 -139.001 27s-80 43.167 -112 75.5s-56.833 69.833 -74.5 112.5s-26.5 88.667 -26.5 138s9 95.333 27 138s43 80.167 75 112.5s69.5 57.5 112.5 75.5s89.5 27 139.5 27s96.5 -8.83301 139.5 -26.5s80.333 -42.5 112 -74.5
s56.334 -69.167 74.001 -111.5s26.5 -88.5 26.5 -138.5s-9 -96.5 -27 -139.5s-43.167 -80.667 -75.5 -113s-69.833 -57.5 -112.5 -75.5s-89 -27 -139 -27zM464.999 159l-94 145h125l94 -145h-125zM385.999 73c39.333 0 75.5 7.16309 108.5 21.4961s61.833 34 86.5 59
s43.834 54.5 57.501 88.5s20.5 70.667 20.5 110s-6.66699 75.833 -20 109.5s-32 62.834 -56 87.501s-52.5 43.834 -85.5 57.501s-69.5 20.5 -109.5 20.5c-39.333 0 -75.666 -7 -108.999 -21s-62.333 -33.667 -87 -59s-43.667 -54.666 -57 -87.999s-20 -69.666 -20 -108.999
c0 -38.667 6.66699 -75 20 -109s32.166 -63.5 56.499 -88.5s53.166 -44.5 86.499 -58.5s69.333 -21 108 -21zM227.999 158.996v382h173c54.667 0 97.167 -12.5 127.5 -37.5s45.5 -58.833 45.5 -101.5c0 -45.333 -15.167 -79.833 -45.5 -103.5s-72.5 -35.5 -126.5 -35.5h-51
v-104h-123zM350.999 350.996l43 -0.000976562c18 0 32.167 4.5 42.5 13.5s15.5 21.5 15.5 37.5c0 16.667 -5.16699 29.334 -15.5 38.001s-24.5 13 -42.5 13h-43v-102z" />
    <glyph glyph-name="macron" unicode="&#xaf;" horiz-adv-x="600" 
d="M103 632v102h394v-102h-394z" />
    <glyph glyph-name="degree" unicode="&#xb0;" horiz-adv-x="417" 
d="M208 358c-32.667 0 -62.8311 7.66699 -90.498 23s-49.667 36.333 -66 63s-24.5 56.667 -24.5 90c0 32.667 8.16699 62.334 24.5 89.001s38.166 47.834 65.499 63.501s57.666 23.5 90.999 23.5c34 0 64.667 -7.83301 92 -23.5s49.166 -36.834 65.499 -63.501
s24.5 -56.334 24.5 -89.001c0 -33.333 -8.16699 -63.333 -24.5 -90s-38.166 -47.667 -65.499 -63s-58 -23 -92 -23zM208.003 448c16.667 0 31.334 3.83398 44.001 11.501s22.667 17.834 30 30.501s11 27 11 43c0 16.667 -3.66699 31.5 -11 44.5s-17.333 23.167 -30 30.5
s-27.334 11 -44.001 11c-16 0 -30.333 -3.66699 -43 -11s-22.667 -17.5 -30 -30.5s-11 -27.5 -11 -43.5c0 -16.667 3.66699 -31.334 11 -44.001s17.333 -22.834 30 -30.501s27 -11.5 43 -11.5z" />
    <glyph glyph-name="plusminus" unicode="&#xb1;" horiz-adv-x="609" 
d="M58 0v145h493v-145h-493zM228 221v455h154v-455h-154zM58 379v139h493v-139h-493z" />
    <glyph glyph-name="uni00B2" unicode="&#xb2;" horiz-adv-x="430" 
d="M38 327l0.000976562 78.999l166 143c18 14.667 29.667 26.834 35 36.501s8 18.5 8 26.5c0 10.667 -4.5 19.667 -13.5 27s-23.5 11 -43.5 11c-17.333 0 -33 -3.5 -47 -10.5s-25 -17.167 -33 -30.5l-97 52c15.333 26.667 38.666 48.334 69.999 65.001s71 25 119 25
c54.667 0 98.167 -11.833 130.5 -35.5s48.5 -54.834 48.5 -93.501c0 -20 -5.16699 -39.667 -15.5 -59s-31.833 -43.333 -64.5 -72l-127 -109l-23 44h244v-99h-357z" />
    <glyph glyph-name="uni00B3" unicode="&#xb3;" horiz-adv-x="430" 
d="M202 318c-36 0 -70.999 4.16699 -104.999 12.5s-61.667 19.166 -83 32.499l45 94c20 -12 42.667 -21.333 68 -28s49.666 -10 72.999 -10c24 0 42 3.5 54 10.5s18 16.5 18 28.5c0 10.667 -4.83301 19.334 -14.5 26.001s-26.167 10 -49.5 10h-65v79l124 115l15 -43h-248v97
h348v-79l-125 -115l-58 35h36c56 0 98.5 -11.667 127.5 -35s43.5 -53.333 43.5 -90c0 -23.333 -7.16699 -45.833 -21.5 -67.5s-36.5 -39.167 -66.5 -52.5s-68.667 -20 -116 -20z" />
    <glyph glyph-name="acute" unicode="&#xb4;" horiz-adv-x="600" 
d="M202 607l134 152h190l-188 -152h-136z" />
    <glyph glyph-name="uni00B5" unicode="&#xb5;" horiz-adv-x="695" 
d="M61 -194l-0.000976562 736h190v-272c0 -42 8 -72 24 -90s38.333 -27 67 -27c18.667 0 35.667 4.33301 51 13s27.666 22.5 36.999 41.5s14 43.5 14 73.5v261h190v-542h-168v149l27 -20c-6.66699 -34 -18.167 -61.167 -34.5 -81.5s-35.166 -34.833 -56.499 -43.5
s-42.666 -13 -63.999 -13c-27.333 0 -51.833 5.5 -73.5 16.5s-39.5 26.5 -53.5 46.5l40 56v-304h-190z" />
    <glyph glyph-name="paragraph" unicode="&#xb6;" horiz-adv-x="707" 
d="M228 -100v447.001c-40.667 0.666992 -77.334 9.16699 -110.001 25.5s-58.667 39.166 -78 68.499s-29 63.666 -29 102.999c0 40.667 10.333 75.834 31 105.501s49.834 52.5 87.501 68.5s81.5 24 131.5 24h376v-842h-154v709h-101v-709h-154z" />
    <glyph glyph-name="periodcentered" unicode="&#xb7;" horiz-adv-x="323" 
d="M161 172c-32.667 0 -59.834 10.5 -81.501 31.5s-32.5 48.5 -32.5 82.5s10.833 61.333 32.5 82s48.834 31 81.501 31c34 0 61.5 -10.333 82.5 -31s31.5 -48 31.5 -82s-10.5 -61.5 -31.5 -82.5s-48.5 -31.5 -82.5 -31.5z" />
    <glyph glyph-name="cedilla" unicode="&#xb8;" horiz-adv-x="600" 
d="M263 -236c-16.667 0 -33.833 2 -51.5 6s-32.167 9 -43.5 15l26 75c8.66699 -4 18.167 -7.33301 28.5 -10s21.5 -4 33.5 -4c18 0 30.833 2.66699 38.5 8s11.5 12 11.5 20s-3.5 14.167 -10.5 18.5s-18.5 6.5 -34.5 6.5h-37l26 110h99l-14 -60
c30.667 -3.33301 52.667 -13 66 -29s20 -33.333 20 -52c0 -32 -14.333 -57.333 -43 -76s-67 -28 -115 -28z" />
    <glyph glyph-name="uni00B9" unicode="&#xb9;" horiz-adv-x="430" 
d="M300 376l-34 48h116v-97h-313v97h129l-34 -48v322l58 -53h-144v97h222v-366z" />
    <glyph glyph-name="ordmasculine" unicode="&#xba;" horiz-adv-x="432" 
d="M217 417c-38.667 0 -72.667 7.16699 -102 21.5s-52.5 34.166 -69.5 59.499s-25.5 54 -25.5 86c0 32.667 8.5 61.5 25.5 86.5s40.333 44.667 70 59s63.167 21.5 100.5 21.5c38.667 0 72.667 -7.16699 102 -21.5s52.333 -34 69 -59s25 -53.833 25 -86.5
c0 -32 -8.33301 -60.667 -25 -86s-39.667 -45.166 -69 -59.499s-63 -21.5 -101 -21.5zM216 513c20 0 36.333 6.16699 49 18.5s19 29.833 19 52.5s-6.33301 40.167 -19 52.5s-29 18.5 -49 18.5c-19.333 0 -35.5 -6.16699 -48.5 -18.5s-19.5 -29.833 -19.5 -52.5
c0 -22 6.5 -39.333 19.5 -52s29.167 -19 48.5 -19z" />
    <glyph glyph-name="guillemotright" unicode="&#xbb;" horiz-adv-x="605" 
d="M189 74h-169l135 198l-135 197h169l140 -197zM434 74h-169l135 198l-135 197h169l140 -197z" />
    <glyph glyph-name="onequarter" unicode="&#xbc;" horiz-adv-x="1050" 
d="M300 334l-34 48h116v-97h-313v97h129l-34 -48v322l58 -53h-144v97h222v-366zM215 0l478 700h143l-478 -700h-143zM626 76v82l182 257h142l-183 -257l-60 17h328v-99h-409zM848 0v76l14 99v63h115v-238h-129z" />
    <glyph glyph-name="onehalf" unicode="&#xbd;" horiz-adv-x="1050" 
d="M300 334l-34 48h116v-97h-313v97h129l-34 -48v322l58 -53h-144v97h222v-366zM215 0l478 700h143l-478 -700h-143zM658 0l0.000976562 78.999l166 143c18 14.667 29.667 26.834 35 36.501s8 18.5 8 26.5c0 10.667 -4.5 19.667 -13.5 27s-23.5 11 -43.5 11
c-17.333 0 -33 -3.5 -47 -10.5s-25 -17.167 -33 -30.5l-97 52c15.333 26.667 38.666 48.334 69.999 65.001s71 25 119 25c54.667 0 98.167 -11.833 130.5 -35.5s48.5 -54.834 48.5 -93.501c0 -20 -5.16699 -39.667 -15.5 -59s-31.833 -43.333 -64.5 -72l-127 -109l-23 44
h244v-99h-357z" />
    <glyph glyph-name="threequarters" unicode="&#xbe;" horiz-adv-x="1050" 
d="M202 276c-36 0 -70.999 4.16699 -104.999 12.5s-61.667 19.166 -83 32.499l45 94c20 -12 42.667 -21.333 68 -28s49.666 -10 72.999 -10c24 0 42 3.5 54 10.5s18 16.5 18 28.5c0 10.667 -4.83301 19.334 -14.5 26.001s-26.167 10 -49.5 10h-65v79l124 115l15 -43h-248v97
h348v-79l-125 -115l-58 35h36c56 0 98.5 -11.667 127.5 -35s43.5 -53.333 43.5 -90c0 -23.333 -7.16699 -45.833 -21.5 -67.5s-36.5 -39.167 -66.5 -52.5s-68.667 -20 -116 -20zM215.001 0l478 700h143l-478 -700h-143zM626.001 76v82l182 257h142l-183 -257l-60 17h328v-99
h-409zM848.001 0v76l14 99v63h115v-238h-129z" />
    <glyph glyph-name="questiondown" unicode="&#xbf;" horiz-adv-x="597" 
d="M307 -167c-51.333 0 -96.834 7.16992 -136.501 21.5029s-70.834 35.333 -93.501 63s-34 61.5 -34 101.5c0 26 4 48.667 12 68s18.167 36.166 30.5 50.499s25.333 27.666 39 39.999l39.5 35c12.667 11 23 22.5 31 34.5s12 25.333 12 40h178
c0 -21.333 -3.5 -40.333 -10.5 -57s-15.833 -31.667 -26.5 -45s-22.167 -25.5 -34.5 -36.5l-34.5 -32c-10.667 -10.333 -19.5 -20.833 -26.5 -31.5s-10.5 -22.334 -10.5 -35.001c0 -18.667 8.16699 -33.5 24.5 -44.5s37.5 -16.5 63.5 -16.5
c26.667 0 50.834 6.33301 72.501 19s39.167 30 52.5 52l149 -79c-26 -44.667 -63.667 -80.5 -113 -107.5s-110.666 -40.5 -183.999 -40.5zM295.999 343.003c-33.333 0 -60.666 10 -81.999 30s-32 44.333 -32 73c0 29.333 10.667 54.166 32 74.499s48.666 30.5 81.999 30.5
s60.5 -10.167 81.5 -30.5s31.5 -45.166 31.5 -74.499c0 -28.667 -10.5 -53 -31.5 -73s-48.167 -30 -81.5 -30z" />
    <glyph glyph-name="Agrave" unicode="&#xc0;" horiz-adv-x="786" 
d="M-14 0l309 700h195l310 -700h-206l-242 603h78l-242 -603h-202zM155 136l51 146h342l51 -146h-444zM355 757l-188 152h190l134 -152h-136z" />
    <glyph glyph-name="Aacute" unicode="&#xc1;" horiz-adv-x="786" 
d="M-14 0l309 700h195l310 -700h-206l-242 603h78l-242 -603h-202zM155 136l51 146h342l51 -146h-444zM295 757l134 152h190l-188 -152h-136z" />
    <glyph glyph-name="Acircumflex" unicode="&#xc2;" horiz-adv-x="786" 
d="M-14 0l309 700h195l310 -700h-206l-242 603h78l-242 -603h-202zM155 136l51 146h342l51 -146h-444zM181 757l130 152h164l130 -152h-126l-141 125h110l-141 -125h-126z" />
    <glyph glyph-name="Atilde" unicode="&#xc3;" horiz-adv-x="786" 
d="M-14 0l309 700h195l310 -700h-206l-242 603h78l-242 -603h-202zM155 136l51 146h342l51 -146h-444zM471 750c-18 0 -33.8311 3.16602 -47.498 9.49902s-26.167 13.5 -37.5 21.5l-31 21.5c-9.33301 6.33301 -18.666 9.5 -27.999 9.5c-13.333 0 -24 -4.66699 -32 -14
s-12.667 -22.333 -14 -39h-93c1.33301 48.667 13.166 87.334 35.499 116.001s52.833 43 91.5 43c18 0 34 -3 48 -9s26.5 -13.167 37.5 -21.5s21.333 -15.5 31 -21.5s18.834 -9 27.501 -9c13.333 0 24.166 4.5 32.499 13.5s12.833 21.167 13.5 36.5h93
c-0.666992 -46.667 -12.334 -84.5 -35.001 -113.5s-53.334 -43.5 -92.001 -43.5z" />
    <glyph glyph-name="Adieresis" unicode="&#xc4;" horiz-adv-x="786" 
d="M-14 0l309 700h195l310 -700h-206l-242 603h78l-242 -603h-202zM155 136l51 146h342l51 -146h-444zM499 756c-22 0 -40.667 7.16699 -56 21.5s-23 33.166 -23 56.499s7.66699 42.333 23 57s34 22 56 22s40.667 -7.33301 56 -22s23 -33.667 23 -57
s-7.66699 -42.166 -23 -56.499s-34 -21.5 -56 -21.5zM287 756c-22 0 -40.667 7.16699 -56 21.5s-23 33.166 -23 56.499s7.66699 42.333 23 57s34 22 56 22s40.667 -7.33301 56 -22s23 -33.667 23 -57s-7.66699 -42.166 -23 -56.499s-34 -21.5 -56 -21.5z" />
    <glyph glyph-name="Aring" unicode="&#xc5;" horiz-adv-x="786" 
d="M-14 0l309 700h195l310 -700h-206l-242 603h78l-242 -603h-202zM155 136l51 146h342l51 -146h-444zM393 749c-24.667 0 -47.001 5.66699 -67.001 17s-35.833 26.666 -47.5 45.999s-17.5 40.666 -17.5 63.999c0 24 5.83301 45.5 17.5 64.5s27.5 34.333 47.5 46
s42.333 17.5 67 17.5c25.333 0 47.833 -5.83301 67.5 -17.5s35.334 -27 47.001 -46s17.5 -40.5 17.5 -64.5c0 -23.333 -5.83301 -44.666 -17.5 -63.999s-27.5 -34.666 -47.5 -45.999s-42.333 -17 -67 -17zM392.999 819c16.667 0 30.333 5.33301 41 16s16 24.334 16 41.001
s-5.5 30.5 -16.5 41.5s-24.5 16.5 -40.5 16.5s-29.5 -5.33301 -40.5 -16s-16.5 -24.667 -16.5 -42c0 -16.667 5.5 -30.334 16.5 -41.001s24.5 -16 40.5 -16z" />
    <glyph glyph-name="AE" unicode="&#xc6;" horiz-adv-x="1099" 
d="M-14 0l382 700h197v-153h-168l119 80l-328 -627h-202zM208 136l1 146h356v-146h-357zM679 429h325v-148h-325v148zM693 153h366v-153h-562v700h549v-153h-353v-394z" />
    <glyph glyph-name="Ccedilla" unicode="&#xc7;" horiz-adv-x="738" 
d="M419 -14c-55.333 0 -106.5 8.83594 -153.5 26.5029s-87.667 42.834 -122 75.501s-61.166 71.167 -80.499 115.5s-29 93.166 -29 146.499s9.66699 102.166 29 146.499s46.166 82.833 80.499 115.5s75 57.834 122 75.501s98.167 26.5 153.5 26.5
c64.667 0 122.5 -11.333 173.5 -34s93.5 -55.334 127.5 -98.001l-126 -114c-22.667 26.667 -47.5 47 -74.5 61s-57.167 21 -90.5 21c-28.667 0 -55 -4.66699 -79 -14s-44.5 -22.833 -61.5 -40.5s-30.333 -38.834 -40 -63.501s-14.5 -52 -14.5 -82s4.83301 -57.333 14.5 -82
s23 -45.834 40 -63.501s37.5 -31.167 61.5 -40.5s50.333 -14 79 -14c33.333 0 63.5 7 90.5 21s51.833 34.333 74.5 61l126 -114c-34 -42 -76.5 -74.5 -127.5 -97.5s-108.833 -34.5 -173.5 -34.5zM358 -235.997c-16.667 0 -33.833 2 -51.5 6s-32.167 9 -43.5 15l26 75
c8.66699 -4 18.167 -7.33301 28.5 -10s21.5 -4 33.5 -4c18 0 30.833 2.66699 38.5 8s11.5 12 11.5 20s-3.5 14.167 -10.5 18.5s-18.5 6.5 -34.5 6.5h-37l26 110h99l-14 -60c30.667 -3.33301 52.667 -13 66 -29s20 -33.333 20 -52c0 -32 -14.333 -57.333 -43 -76
s-67 -28 -115 -28z" />
    <glyph glyph-name="Egrave" unicode="&#xc8;" horiz-adv-x="672" 
d="M252 429h325v-148h-325v148zM266 153h366v-153h-562v700h549v-153h-353v-394zM307 757l-188 152h190l134 -152h-136z" />
    <glyph glyph-name="Eacute" unicode="&#xc9;" horiz-adv-x="672" 
d="M252 429h325v-148h-325v148zM266 153h366v-153h-562v700h549v-153h-353v-394zM247 757l134 152h190l-188 -152h-136z" />
    <glyph glyph-name="Ecircumflex" unicode="&#xca;" horiz-adv-x="672" 
d="M252 429h325v-148h-325v148zM266 153h366v-153h-562v700h549v-153h-353v-394zM133 757l130 152h164l130 -152h-126l-141 125h110l-141 -125h-126z" />
    <glyph glyph-name="Edieresis" unicode="&#xcb;" horiz-adv-x="672" 
d="M252 429h325v-148h-325v148zM266 153h366v-153h-562v700h549v-153h-353v-394zM451 756c-22 0 -40.667 7.16699 -56 21.5s-23 33.166 -23 56.499s7.66699 42.333 23 57s34 22 56 22s40.667 -7.33301 56 -22s23 -33.667 23 -57s-7.66699 -42.166 -23 -56.499
s-34 -21.5 -56 -21.5zM239 756c-22 0 -40.667 7.16699 -56 21.5s-23 33.166 -23 56.499s7.66699 42.333 23 57s34 22 56 22s40.667 -7.33301 56 -22s23 -33.667 23 -57s-7.66699 -42.166 -23 -56.499s-34 -21.5 -56 -21.5z" />
    <glyph glyph-name="Igrave" unicode="&#xcc;" horiz-adv-x="339" 
d="M70 0v700h198v-700h-198zM131 757l-188 152h190l134 -152h-136z" />
    <glyph glyph-name="Iacute" unicode="&#xcd;" horiz-adv-x="339" 
d="M70 0v700h198v-700h-198zM71 757l134 152h190l-188 -152h-136z" />
    <glyph glyph-name="Icircumflex" unicode="&#xce;" horiz-adv-x="339" 
d="M70 0v700h198v-700h-198zM-43 757l130 152h164l130 -152h-126l-141 125h110l-141 -125h-126z" />
    <glyph glyph-name="Idieresis" unicode="&#xcf;" horiz-adv-x="339" 
d="M70 0v700h198v-700h-198zM275 756c-22 0 -40.667 7.16699 -56 21.5s-23 33.166 -23 56.499s7.66699 42.333 23 57s34 22 56 22s40.667 -7.33301 56 -22s23 -33.667 23 -57s-7.66699 -42.166 -23 -56.499s-34 -21.5 -56 -21.5zM63 756c-22 0 -40.667 7.16699 -56 21.5
s-23 33.166 -23 56.499s7.66699 42.333 23 57s34 22 56 22s40.667 -7.33301 56 -22s23 -33.667 23 -57s-7.66699 -42.166 -23 -56.499s-34 -21.5 -56 -21.5z" />
    <glyph glyph-name="Eth" unicode="&#xd0;" horiz-adv-x="843" 
d="M87 0v699.999h331c77.333 0 145.333 -14.333 204 -43s104.5 -69 137.5 -121s49.5 -114 49.5 -186c0 -71.333 -16.5 -133.166 -49.5 -185.499s-78.833 -92.833 -137.5 -121.5s-126.667 -43 -204 -43h-331zM285 157.999l125 -0.000976562c40 0 74.833 7.5 104.5 22.5
s52.834 37 69.501 66s25 63.5 25 103.5c0 40.667 -8.33301 75.334 -25 104.001s-39.834 50.5 -69.501 65.5s-64.5 22.5 -104.5 22.5h-125v-384zM-3 293.998v122h450v-122h-450z" />
    <glyph glyph-name="Ntilde" unicode="&#xd1;" horiz-adv-x="806" 
d="M70 0v700h163l386 -466h-77v466h194v-700h-163l-386 466h77v-466h-194zM481 750c-18 0 -33.8311 3.16602 -47.498 9.49902s-26.167 13.5 -37.5 21.5l-31 21.5c-9.33301 6.33301 -18.666 9.5 -27.999 9.5c-13.333 0 -24 -4.66699 -32 -14s-12.667 -22.333 -14 -39h-93
c1.33301 48.667 13.166 87.334 35.499 116.001s52.833 43 91.5 43c18 0 34 -3 48 -9s26.5 -13.167 37.5 -21.5s21.333 -15.5 31 -21.5s18.834 -9 27.501 -9c13.333 0 24.166 4.5 32.499 13.5s12.833 21.167 13.5 36.5h93c-0.666992 -46.667 -12.334 -84.5 -35.001 -113.5
s-53.334 -43.5 -92.001 -43.5z" />
    <glyph glyph-name="Ograve" unicode="&#xd2;" horiz-adv-x="846" 
d="M423 -14c-56 0 -107.667 9 -155 27s-88.5 43.5 -123.5 76.5s-62.167 71.5 -81.5 115.5s-29 92.333 -29 145s9.66699 101 29 145s46.5 82.5 81.5 115.5s76.167 58.5 123.5 76.5s99 27 155 27c56.667 0 108.5 -9 155.5 -27s87.833 -43.5 122.5 -76.5
s61.834 -71.5 81.501 -115.5s29.5 -92.333 29.5 -145s-9.83301 -101.167 -29.5 -145.5s-46.834 -82.833 -81.501 -115.5s-75.5 -58 -122.5 -76s-98.833 -27 -155.5 -27zM423 150c26.667 0 51.5 4.66699 74.5 14s43 22.833 60 40.5s30.333 38.834 40 63.501s14.5 52 14.5 82
c0 30.667 -4.83301 58.167 -14.5 82.5s-23 45.333 -40 63s-37 31.167 -60 40.5s-47.833 14 -74.5 14s-51.5 -4.66699 -74.5 -14s-43 -22.833 -60 -40.5s-30.333 -38.667 -40 -63s-14.5 -51.833 -14.5 -82.5c0 -30 4.83301 -57.333 14.5 -82s23 -45.834 40 -63.501
s37 -31.167 60 -40.5s47.833 -14 74.5 -14zM385 757l-188 152h190l134 -152h-136z" />
    <glyph glyph-name="Oacute" unicode="&#xd3;" horiz-adv-x="846" 
d="M423 -14c-56 0 -107.667 9 -155 27s-88.5 43.5 -123.5 76.5s-62.167 71.5 -81.5 115.5s-29 92.333 -29 145s9.66699 101 29 145s46.5 82.5 81.5 115.5s76.167 58.5 123.5 76.5s99 27 155 27c56.667 0 108.5 -9 155.5 -27s87.833 -43.5 122.5 -76.5
s61.834 -71.5 81.501 -115.5s29.5 -92.333 29.5 -145s-9.83301 -101.167 -29.5 -145.5s-46.834 -82.833 -81.501 -115.5s-75.5 -58 -122.5 -76s-98.833 -27 -155.5 -27zM423 150c26.667 0 51.5 4.66699 74.5 14s43 22.833 60 40.5s30.333 38.834 40 63.501s14.5 52 14.5 82
c0 30.667 -4.83301 58.167 -14.5 82.5s-23 45.333 -40 63s-37 31.167 -60 40.5s-47.833 14 -74.5 14s-51.5 -4.66699 -74.5 -14s-43 -22.833 -60 -40.5s-30.333 -38.667 -40 -63s-14.5 -51.833 -14.5 -82.5c0 -30 4.83301 -57.333 14.5 -82s23 -45.834 40 -63.501
s37 -31.167 60 -40.5s47.833 -14 74.5 -14zM325 757l134 152h190l-188 -152h-136z" />
    <glyph glyph-name="Ocircumflex" unicode="&#xd4;" horiz-adv-x="846" 
d="M423 -14c-56 0 -107.667 9 -155 27s-88.5 43.5 -123.5 76.5s-62.167 71.5 -81.5 115.5s-29 92.333 -29 145s9.66699 101 29 145s46.5 82.5 81.5 115.5s76.167 58.5 123.5 76.5s99 27 155 27c56.667 0 108.5 -9 155.5 -27s87.833 -43.5 122.5 -76.5
s61.834 -71.5 81.501 -115.5s29.5 -92.333 29.5 -145s-9.83301 -101.167 -29.5 -145.5s-46.834 -82.833 -81.501 -115.5s-75.5 -58 -122.5 -76s-98.833 -27 -155.5 -27zM423 150c26.667 0 51.5 4.66699 74.5 14s43 22.833 60 40.5s30.333 38.834 40 63.501s14.5 52 14.5 82
c0 30.667 -4.83301 58.167 -14.5 82.5s-23 45.333 -40 63s-37 31.167 -60 40.5s-47.833 14 -74.5 14s-51.5 -4.66699 -74.5 -14s-43 -22.833 -60 -40.5s-30.333 -38.667 -40 -63s-14.5 -51.833 -14.5 -82.5c0 -30 4.83301 -57.333 14.5 -82s23 -45.834 40 -63.501
s37 -31.167 60 -40.5s47.833 -14 74.5 -14zM211 757l130 152h164l130 -152h-126l-141 125h110l-141 -125h-126z" />
    <glyph glyph-name="Otilde" unicode="&#xd5;" horiz-adv-x="846" 
d="M423 -14c-56 0 -107.667 9 -155 27s-88.5 43.5 -123.5 76.5s-62.167 71.5 -81.5 115.5s-29 92.333 -29 145s9.66699 101 29 145s46.5 82.5 81.5 115.5s76.167 58.5 123.5 76.5s99 27 155 27c56.667 0 108.5 -9 155.5 -27s87.833 -43.5 122.5 -76.5
s61.834 -71.5 81.501 -115.5s29.5 -92.333 29.5 -145s-9.83301 -101.167 -29.5 -145.5s-46.834 -82.833 -81.501 -115.5s-75.5 -58 -122.5 -76s-98.833 -27 -155.5 -27zM423 150c26.667 0 51.5 4.66699 74.5 14s43 22.833 60 40.5s30.333 38.834 40 63.501s14.5 52 14.5 82
c0 30.667 -4.83301 58.167 -14.5 82.5s-23 45.333 -40 63s-37 31.167 -60 40.5s-47.833 14 -74.5 14s-51.5 -4.66699 -74.5 -14s-43 -22.833 -60 -40.5s-30.333 -38.667 -40 -63s-14.5 -51.833 -14.5 -82.5c0 -30 4.83301 -57.333 14.5 -82s23 -45.834 40 -63.501
s37 -31.167 60 -40.5s47.833 -14 74.5 -14zM501 750c-18 0 -33.8311 3.16602 -47.498 9.49902s-26.167 13.5 -37.5 21.5l-31 21.5c-9.33301 6.33301 -18.666 9.5 -27.999 9.5c-13.333 0 -24 -4.66699 -32 -14s-12.667 -22.333 -14 -39h-93
c1.33301 48.667 13.166 87.334 35.499 116.001s52.833 43 91.5 43c18 0 34 -3 48 -9s26.5 -13.167 37.5 -21.5s21.333 -15.5 31 -21.5s18.834 -9 27.501 -9c13.333 0 24.166 4.5 32.499 13.5s12.833 21.167 13.5 36.5h93c-0.666992 -46.667 -12.334 -84.5 -35.001 -113.5
s-53.334 -43.5 -92.001 -43.5z" />
    <glyph glyph-name="Odieresis" unicode="&#xd6;" horiz-adv-x="846" 
d="M423 -14c-56 0 -107.667 9 -155 27s-88.5 43.5 -123.5 76.5s-62.167 71.5 -81.5 115.5s-29 92.333 -29 145s9.66699 101 29 145s46.5 82.5 81.5 115.5s76.167 58.5 123.5 76.5s99 27 155 27c56.667 0 108.5 -9 155.5 -27s87.833 -43.5 122.5 -76.5
s61.834 -71.5 81.501 -115.5s29.5 -92.333 29.5 -145s-9.83301 -101.167 -29.5 -145.5s-46.834 -82.833 -81.501 -115.5s-75.5 -58 -122.5 -76s-98.833 -27 -155.5 -27zM423 150c26.667 0 51.5 4.66699 74.5 14s43 22.833 60 40.5s30.333 38.834 40 63.501s14.5 52 14.5 82
c0 30.667 -4.83301 58.167 -14.5 82.5s-23 45.333 -40 63s-37 31.167 -60 40.5s-47.833 14 -74.5 14s-51.5 -4.66699 -74.5 -14s-43 -22.833 -60 -40.5s-30.333 -38.667 -40 -63s-14.5 -51.833 -14.5 -82.5c0 -30 4.83301 -57.333 14.5 -82s23 -45.834 40 -63.501
s37 -31.167 60 -40.5s47.833 -14 74.5 -14zM529 756c-22 0 -40.667 7.16699 -56 21.5s-23 33.166 -23 56.499s7.66699 42.333 23 57s34 22 56 22s40.667 -7.33301 56 -22s23 -33.667 23 -57s-7.66699 -42.166 -23 -56.499s-34 -21.5 -56 -21.5zM317 756
c-22 0 -40.667 7.16699 -56 21.5s-23 33.166 -23 56.499s7.66699 42.333 23 57s34 22 56 22s40.667 -7.33301 56 -22s23 -33.667 23 -57s-7.66699 -42.166 -23 -56.499s-34 -21.5 -56 -21.5z" />
    <glyph glyph-name="multiply" unicode="&#xd7;" horiz-adv-x="609" 
d="M80 227l348 349l102 -103l-348 -349zM80 473l102 103l348 -349l-102 -103z" />
    <glyph glyph-name="Oslash" unicode="&#xd8;" horiz-adv-x="846" 
d="M423 -14c-56 0 -107.667 9 -155 27s-88.5 43.5 -123.5 76.5s-62.167 71.5 -81.5 115.5s-29 92.333 -29 145s9.66699 101 29 145s46.5 82.5 81.5 115.5s76.167 58.5 123.5 76.5s99 27 155 27c56.667 0 108.5 -9 155.5 -27s87.833 -43.5 122.5 -76.5
s61.834 -71.5 81.501 -115.5s29.5 -92.333 29.5 -145s-9.83301 -101.167 -29.5 -145.5s-46.834 -82.833 -81.501 -115.5s-75.5 -58 -122.5 -76s-98.833 -27 -155.5 -27zM423 150c26.667 0 51.5 4.66699 74.5 14s43 22.833 60 40.5s30.333 38.834 40 63.501s14.5 52 14.5 82
c0 30.667 -4.83301 58.167 -14.5 82.5s-23 45.333 -40 63s-37 31.167 -60 40.5s-47.833 14 -74.5 14s-51.5 -4.66699 -74.5 -14s-43 -22.833 -60 -40.5s-30.333 -38.667 -40 -63s-14.5 -51.833 -14.5 -82.5c0 -30 4.83301 -57.333 14.5 -82s23 -45.834 40 -63.501
s37 -31.167 60 -40.5s47.833 -14 74.5 -14zM66 -70l597 840h117l-597 -840h-117z" />
    <glyph glyph-name="Ugrave" unicode="&#xd9;" horiz-adv-x="786" 
d="M393 -14c-103.333 0 -183.999 28.333 -241.999 85s-87 137 -87 241v388h198v-382c0 -60 11.833 -103 35.5 -129s56.167 -39 97.5 -39s73.666 13 96.999 39s35 69 35 129v382h195v-388c0 -104 -29 -184.333 -87 -241s-138.667 -85 -242 -85zM357.001 757l-188 152h190
l134 -152h-136z" />
    <glyph glyph-name="Uacute" unicode="&#xda;" horiz-adv-x="786" 
d="M393 -14c-103.333 0 -183.999 28.333 -241.999 85s-87 137 -87 241v388h198v-382c0 -60 11.833 -103 35.5 -129s56.167 -39 97.5 -39s73.666 13 96.999 39s35 69 35 129v382h195v-388c0 -104 -29 -184.333 -87 -241s-138.667 -85 -242 -85zM297.001 757l134 152h190
l-188 -152h-136z" />
    <glyph glyph-name="Ucircumflex" unicode="&#xdb;" horiz-adv-x="786" 
d="M393 -14c-103.333 0 -183.999 28.333 -241.999 85s-87 137 -87 241v388h198v-382c0 -60 11.833 -103 35.5 -129s56.167 -39 97.5 -39s73.666 13 96.999 39s35 69 35 129v382h195v-388c0 -104 -29 -184.333 -87 -241s-138.667 -85 -242 -85zM183.001 757l130 152h164
l130 -152h-126l-141 125h110l-141 -125h-126z" />
    <glyph glyph-name="Udieresis" unicode="&#xdc;" horiz-adv-x="786" 
d="M393 -14c-103.333 0 -183.999 28.333 -241.999 85s-87 137 -87 241v388h198v-382c0 -60 11.833 -103 35.5 -129s56.167 -39 97.5 -39s73.666 13 96.999 39s35 69 35 129v382h195v-388c0 -104 -29 -184.333 -87 -241s-138.667 -85 -242 -85zM501.001 756
c-22 0 -40.667 7.16699 -56 21.5s-23 33.166 -23 56.499s7.66699 42.333 23 57s34 22 56 22s40.667 -7.33301 56 -22s23 -33.667 23 -57s-7.66699 -42.166 -23 -56.499s-34 -21.5 -56 -21.5zM289.001 756c-22 0 -40.667 7.16699 -56 21.5s-23 33.166 -23 56.499
s7.66699 42.333 23 57s34 22 56 22s40.667 -7.33301 56 -22s23 -33.667 23 -57s-7.66699 -42.166 -23 -56.499s-34 -21.5 -56 -21.5z" />
    <glyph glyph-name="Yacute" unicode="&#xdd;" horiz-adv-x="693" 
d="M247 0v296l46 -119l-313 523h209l226 -379h-121l227 379h192l-312 -523l44 119v-296h-198zM248 757l134 152h190l-188 -152h-136z" />
    <glyph glyph-name="Thorn" unicode="&#xde;" horiz-adv-x="737" 
d="M227 110v157h151c41.333 0 72.166 9 92.499 27s30.5 43 30.5 75s-10.167 57 -30.5 75s-51.166 27 -92.499 27h-151v157h163c64 0 119.167 -10.5 165.5 -31.5s82.166 -50.833 107.499 -89.5s38 -84.667 38 -138c0 -52.667 -12.667 -98.5 -38 -137.5
s-61.166 -69 -107.499 -90s-101.5 -31.5 -165.5 -31.5h-163zM70 0v701h198v-701h-198z" />
    <glyph glyph-name="germandbls" unicode="&#xdf;" horiz-adv-x="703" 
d="M419 -9c-20 0 -41.501 1.50098 -64.501 4.50098s-41.5 6.83301 -55.5 11.5l20 147c12 -4 23.833 -7 35.5 -9s24.834 -3 39.501 -3c18.667 0 34.5 2.83301 47.5 8.5s23.333 14 31 25s11.5 24.167 11.5 39.5c0 23.333 -8.66699 41.166 -26 53.499
s-41.666 18.5 -72.999 18.5h-53v146c30.667 1.33301 55 9.83301 73 25.5s27 36.5 27 62.5c0 24 -7.66699 43.333 -23 58s-36.333 22 -63 22c-28.667 0 -51.667 -8.5 -69 -25.5s-26 -41.5 -26 -73.5v-502h-190v478c0 60 12.833 110.333 38.5 151s60.167 71.167 103.5 91.5
s91 30.5 143 30.5c56.667 0 105 -9.5 145 -28.5s70.5 -44.667 91.5 -77s31.5 -68.5 31.5 -108.5c0 -31.333 -6.83301 -59.5 -20.5 -84.5s-32.334 -46.333 -56.001 -64s-50 -31.167 -79 -40.5s-58.167 -14 -87.5 -14l44 80c53.333 0 99.5 -7.83301 138.5 -23.5
s69.333 -38.667 91 -69s32.5 -67.5 32.5 -111.5c0 -46 -10.833 -85.333 -32.5 -118s-51.667 -57.667 -90 -75s-83.5 -26 -135.5 -26z" />
    <glyph glyph-name="agrave" unicode="&#xe0;" horiz-adv-x="628" 
d="M392 0l0.000976562 101l-13 25v186c0 30 -9.16699 53.167 -27.5 69.5s-47.5 24.5 -87.5 24.5c-26 0 -52.333 -4.16699 -79 -12.5s-49.334 -19.833 -68.001 -34.5l-64 129c30.667 20 67.5 35.5 110.5 46.5s85.833 16.5 128.5 16.5c88 0 156.167 -20.167 204.5 -60.5
s72.5 -103.5 72.5 -189.5v-301h-177zM232.001 -9c-43.333 0 -80 7.33594 -110 22.0029s-52.833 34.667 -68.5 60s-23.5 53.666 -23.5 84.999c0 33.333 8.5 62.166 25.5 86.499s43.167 43 78.5 56s81 19.5 137 19.5h128v-99h-102c-30.667 0 -52.167 -5 -64.5 -15
s-18.5 -23.333 -18.5 -40s6.33301 -30 19 -40s30 -15 52 -15c20.667 0 39.5 5.16699 56.5 15.5s29.5 26.166 37.5 47.499l26 -70c-10 -37.333 -29.5 -65.5 -58.5 -84.5s-67.167 -28.5 -114.5 -28.5zM275.001 607.003l-188 152h190l134 -152h-136z" />
    <glyph glyph-name="aacute" unicode="&#xe1;" horiz-adv-x="628" 
d="M392 0l0.000976562 101l-13 25v186c0 30 -9.16699 53.167 -27.5 69.5s-47.5 24.5 -87.5 24.5c-26 0 -52.333 -4.16699 -79 -12.5s-49.334 -19.833 -68.001 -34.5l-64 129c30.667 20 67.5 35.5 110.5 46.5s85.833 16.5 128.5 16.5c88 0 156.167 -20.167 204.5 -60.5
s72.5 -103.5 72.5 -189.5v-301h-177zM232.001 -9c-43.333 0 -80 7.33594 -110 22.0029s-52.833 34.667 -68.5 60s-23.5 53.666 -23.5 84.999c0 33.333 8.5 62.166 25.5 86.499s43.167 43 78.5 56s81 19.5 137 19.5h128v-99h-102c-30.667 0 -52.167 -5 -64.5 -15
s-18.5 -23.333 -18.5 -40s6.33301 -30 19 -40s30 -15 52 -15c20.667 0 39.5 5.16699 56.5 15.5s29.5 26.166 37.5 47.499l26 -70c-10 -37.333 -29.5 -65.5 -58.5 -84.5s-67.167 -28.5 -114.5 -28.5zM215.001 607.003l134 152h190l-188 -152h-136z" />
    <glyph glyph-name="acircumflex" unicode="&#xe2;" horiz-adv-x="628" 
d="M392 0l0.000976562 101l-13 25v186c0 30 -9.16699 53.167 -27.5 69.5s-47.5 24.5 -87.5 24.5c-26 0 -52.333 -4.16699 -79 -12.5s-49.334 -19.833 -68.001 -34.5l-64 129c30.667 20 67.5 35.5 110.5 46.5s85.833 16.5 128.5 16.5c88 0 156.167 -20.167 204.5 -60.5
s72.5 -103.5 72.5 -189.5v-301h-177zM232.001 -9c-43.333 0 -80 7.33594 -110 22.0029s-52.833 34.667 -68.5 60s-23.5 53.666 -23.5 84.999c0 33.333 8.5 62.166 25.5 86.499s43.167 43 78.5 56s81 19.5 137 19.5h128v-99h-102c-30.667 0 -52.167 -5 -64.5 -15
s-18.5 -23.333 -18.5 -40s6.33301 -30 19 -40s30 -15 52 -15c20.667 0 39.5 5.16699 56.5 15.5s29.5 26.166 37.5 47.499l26 -70c-10 -37.333 -29.5 -65.5 -58.5 -84.5s-67.167 -28.5 -114.5 -28.5zM101.001 607.003l130 152h164l130 -152h-126l-141 125h110l-141 -125h-126
z" />
    <glyph glyph-name="atilde" unicode="&#xe3;" horiz-adv-x="628" 
d="M392 0l0.000976562 101l-13 25v186c0 30 -9.16699 53.167 -27.5 69.5s-47.5 24.5 -87.5 24.5c-26 0 -52.333 -4.16699 -79 -12.5s-49.334 -19.833 -68.001 -34.5l-64 129c30.667 20 67.5 35.5 110.5 46.5s85.833 16.5 128.5 16.5c88 0 156.167 -20.167 204.5 -60.5
s72.5 -103.5 72.5 -189.5v-301h-177zM232.001 -9c-43.333 0 -80 7.33594 -110 22.0029s-52.833 34.667 -68.5 60s-23.5 53.666 -23.5 84.999c0 33.333 8.5 62.166 25.5 86.499s43.167 43 78.5 56s81 19.5 137 19.5h128v-99h-102c-30.667 0 -52.167 -5 -64.5 -15
s-18.5 -23.333 -18.5 -40s6.33301 -30 19 -40s30 -15 52 -15c20.667 0 39.5 5.16699 56.5 15.5s29.5 26.166 37.5 47.499l26 -70c-10 -37.333 -29.5 -65.5 -58.5 -84.5s-67.167 -28.5 -114.5 -28.5zM391.001 600.003c-18 0 -33.8311 3.16602 -47.498 9.49902
s-26.167 13.5 -37.5 21.5l-31 21.5c-9.33301 6.33301 -18.666 9.5 -27.999 9.5c-13.333 0 -24 -4.66699 -32 -14s-12.667 -22.333 -14 -39h-93c1.33301 48.667 13.166 87.334 35.499 116.001s52.833 43 91.5 43c18 0 34 -3 48 -9s26.5 -13.167 37.5 -21.5
s21.333 -15.5 31 -21.5s18.834 -9 27.501 -9c13.333 0 24.166 4.5 32.499 13.5s12.833 21.167 13.5 36.5h93c-0.666992 -46.667 -12.334 -84.5 -35.001 -113.5s-53.334 -43.5 -92.001 -43.5z" />
    <glyph glyph-name="adieresis" unicode="&#xe4;" horiz-adv-x="628" 
d="M392 0l0.000976562 101l-13 25v186c0 30 -9.16699 53.167 -27.5 69.5s-47.5 24.5 -87.5 24.5c-26 0 -52.333 -4.16699 -79 -12.5s-49.334 -19.833 -68.001 -34.5l-64 129c30.667 20 67.5 35.5 110.5 46.5s85.833 16.5 128.5 16.5c88 0 156.167 -20.167 204.5 -60.5
s72.5 -103.5 72.5 -189.5v-301h-177zM232.001 -9c-43.333 0 -80 7.33594 -110 22.0029s-52.833 34.667 -68.5 60s-23.5 53.666 -23.5 84.999c0 33.333 8.5 62.166 25.5 86.499s43.167 43 78.5 56s81 19.5 137 19.5h128v-99h-102c-30.667 0 -52.167 -5 -64.5 -15
s-18.5 -23.333 -18.5 -40s6.33301 -30 19 -40s30 -15 52 -15c20.667 0 39.5 5.16699 56.5 15.5s29.5 26.166 37.5 47.499l26 -70c-10 -37.333 -29.5 -65.5 -58.5 -84.5s-67.167 -28.5 -114.5 -28.5zM419.001 606.003c-22 0 -40.667 7.16699 -56 21.5s-23 33.166 -23 56.499
s7.66699 42.333 23 57s34 22 56 22s40.667 -7.33301 56 -22s23 -33.667 23 -57s-7.66699 -42.166 -23 -56.499s-34 -21.5 -56 -21.5zM207.001 606.003c-22 0 -40.667 7.16699 -56 21.5s-23 33.166 -23 56.499s7.66699 42.333 23 57s34 22 56 22s40.667 -7.33301 56 -22
s23 -33.667 23 -57s-7.66699 -42.166 -23 -56.499s-34 -21.5 -56 -21.5z" />
    <glyph glyph-name="aring" unicode="&#xe5;" horiz-adv-x="628" 
d="M392 0l0.000976562 101l-13 25v186c0 30 -9.16699 53.167 -27.5 69.5s-47.5 24.5 -87.5 24.5c-26 0 -52.333 -4.16699 -79 -12.5s-49.334 -19.833 -68.001 -34.5l-64 129c30.667 20 67.5 35.5 110.5 46.5s85.833 16.5 128.5 16.5c88 0 156.167 -20.167 204.5 -60.5
s72.5 -103.5 72.5 -189.5v-301h-177zM232.001 -9c-43.333 0 -80 7.33594 -110 22.0029s-52.833 34.667 -68.5 60s-23.5 53.666 -23.5 84.999c0 33.333 8.5 62.166 25.5 86.499s43.167 43 78.5 56s81 19.5 137 19.5h128v-99h-102c-30.667 0 -52.167 -5 -64.5 -15
s-18.5 -23.333 -18.5 -40s6.33301 -30 19 -40s30 -15 52 -15c20.667 0 39.5 5.16699 56.5 15.5s29.5 26.166 37.5 47.499l26 -70c-10 -37.333 -29.5 -65.5 -58.5 -84.5s-67.167 -28.5 -114.5 -28.5zM313.001 591.003c-24.667 0 -47.001 5.66699 -67.001 17
s-35.833 26.666 -47.5 45.999s-17.5 40.666 -17.5 63.999c0 24 5.83301 45.5 17.5 64.5s27.5 34.333 47.5 46s42.333 17.5 67 17.5c25.333 0 47.833 -5.83301 67.5 -17.5s35.334 -27 47.001 -46s17.5 -40.5 17.5 -64.5c0 -23.333 -5.83301 -44.666 -17.5 -63.999
s-27.5 -34.666 -47.5 -45.999s-42.333 -17 -67 -17zM313 661.003c16.667 0 30.333 5.33301 41 16s16 24.334 16 41.001s-5.5 30.5 -16.5 41.5s-24.5 16.5 -40.5 16.5s-29.5 -5.33301 -40.5 -16s-16.5 -24.667 -16.5 -42c0 -16.667 5.5 -30.334 16.5 -41.001
s24.5 -16 40.5 -16z" />
    <glyph glyph-name="ae" unicode="&#xe6;" horiz-adv-x="999" 
d="M266 -9c-73.333 0 -131.003 15.998 -173.003 47.998s-63 73.667 -63 125c0 31.333 8.5 58.833 25.5 82.5s43.167 42.167 78.5 55.5s81 20 137 20h124v-100h-98c-30.667 0 -52.167 -5 -64.5 -15s-18.5 -23 -18.5 -39c0 -17.333 6.33301 -31.166 19 -41.499
s30.667 -15.5 54 -15.5c29.333 0 52 8.16699 68 24.5s24 37.833 24 64.5v112c0 29.333 -9.16699 52.333 -27.5 69s-47.166 25 -86.499 25c-27.333 0 -54.166 -4.16699 -80.499 -12.5s-48.833 -19.833 -67.5 -34.5l-64 129c30.667 20 67.334 35.5 110.001 46.5
s85.334 16.5 128.001 16.5c56 0 104 -9.5 144 -28.5s69.333 -48.167 88 -87.5l-77 1c25.333 36 59 64.167 101 84.5s87.667 30.5 137 30.5c38.667 0 75.334 -6.33301 110.001 -19s65.334 -30.834 92.001 -54.501s47.667 -52.667 63 -87s23 -73.166 23 -116.499
c0 -10 -0.166992 -19.333 -0.5 -28s-1.16602 -16.667 -2.49902 -24h-417v100h283l-43 -27c0 26 -5 47.833 -15 65.5s-23.333 31.334 -40 41.001s-35.334 14.5 -56.001 14.5c-20 0 -38.667 -4.83301 -56 -14.5s-31 -23.5 -41 -41.5s-15 -40 -15 -66v-29
c0 -26.667 5.5 -49.667 16.5 -69s26.667 -34.166 47 -44.499s44.833 -15.5 73.5 -15.5c24.667 0 47 3.83301 67 11.5s39.667 19.5 59 35.5l100 -104c-26.667 -28.667 -59.334 -50.5 -98.001 -65.5s-82.334 -22.5 -131.001 -22.5c-41.333 0 -80.333 5.66699 -117 17
s-69.667 29.5 -99 54.5s-53 57.5 -71 97.5h93c-12.667 -44 -31.334 -78.333 -56.001 -103s-53 -41.834 -85 -51.501s-66 -14.5 -102 -14.5z" />
    <glyph glyph-name="ccedilla" unicode="&#xe7;" horiz-adv-x="603" 
d="M338 -9c-60 0 -113.5 12 -160.5 36s-83.833 57.167 -110.5 99.5s-40 90.833 -40 145.5s13.333 103 40 145s63.5 74.833 110.5 98.5s100.5 35.5 160.5 35.5c61.333 0 114.333 -13 159 -39s76.334 -62.667 95.001 -110l-147 -75
c-12.667 25.333 -28.334 43.833 -47.001 55.5s-39 17.5 -61 17.5s-42 -5 -60 -15s-32.167 -24.5 -42.5 -43.5s-15.5 -42.167 -15.5 -69.5c0 -28 5.16699 -51.667 15.5 -71s24.5 -34 42.5 -44s38 -15 60 -15s42.333 5.83301 61 17.5s34.334 30.167 47.001 55.5l147 -75
c-18.667 -47.333 -50.334 -84 -95.001 -110s-97.667 -39 -159 -39zM275 -236c-16.667 0 -33.833 2 -51.5 6s-32.167 9 -43.5 15l26 75c8.66699 -4 18.167 -7.33301 28.5 -10s21.5 -4 33.5 -4c18 0 30.833 2.66699 38.5 8s11.5 12 11.5 20s-3.5 14.167 -10.5 18.5
s-18.5 6.5 -34.5 6.5h-37l26 110h99l-14 -60c30.667 -3.33301 52.667 -13 66 -29s20 -33.333 20 -52c0 -32 -14.333 -57.333 -43 -76s-67 -28 -115 -28z" />
    <glyph glyph-name="egrave" unicode="&#xe8;" horiz-adv-x="642" 
d="M345 -9c-64 0 -119.833 12.168 -167.5 36.501s-84.667 57.666 -111 99.999s-39.5 90.5 -39.5 144.5s12.833 102.167 38.5 144.5s61.167 75.333 106.5 99s96.333 35.5 153 35.5c53.333 0 102 -10.833 146 -32.5s79 -53.5 105 -95.5s39 -93 39 -153
c0 -6.66699 -0.333008 -14.334 -1 -23.001s-1.33398 -16.667 -2.00098 -24h-429v100h328l-72 -28c0.666992 24.667 -3.83301 46 -13.5 64s-23 32 -40 42s-36.833 15 -59.5 15s-42.5 -5 -59.5 -15s-30.167 -24.167 -39.5 -42.5s-14 -39.833 -14 -64.5v-29
c0 -26.667 5.5 -49.667 16.5 -69s26.833 -34.166 47.5 -44.499s45.334 -15.5 74.001 -15.5c26.667 0 49.5 3.83301 68.5 11.5s37.833 19.5 56.5 35.5l100 -104c-26 -28.667 -58 -50.5 -96 -65.5s-83 -22.5 -135 -22.5zM283 607.001l-188 152h190l134 -152h-136z" />
    <glyph glyph-name="eacute" unicode="&#xe9;" horiz-adv-x="642" 
d="M345 -9c-64 0 -119.833 12.168 -167.5 36.501s-84.667 57.666 -111 99.999s-39.5 90.5 -39.5 144.5s12.833 102.167 38.5 144.5s61.167 75.333 106.5 99s96.333 35.5 153 35.5c53.333 0 102 -10.833 146 -32.5s79 -53.5 105 -95.5s39 -93 39 -153
c0 -6.66699 -0.333008 -14.334 -1 -23.001s-1.33398 -16.667 -2.00098 -24h-429v100h328l-72 -28c0.666992 24.667 -3.83301 46 -13.5 64s-23 32 -40 42s-36.833 15 -59.5 15s-42.5 -5 -59.5 -15s-30.167 -24.167 -39.5 -42.5s-14 -39.833 -14 -64.5v-29
c0 -26.667 5.5 -49.667 16.5 -69s26.833 -34.166 47.5 -44.499s45.334 -15.5 74.001 -15.5c26.667 0 49.5 3.83301 68.5 11.5s37.833 19.5 56.5 35.5l100 -104c-26 -28.667 -58 -50.5 -96 -65.5s-83 -22.5 -135 -22.5zM223 607.001l134 152h190l-188 -152h-136z" />
    <glyph glyph-name="ecircumflex" unicode="&#xea;" horiz-adv-x="642" 
d="M345 -9c-64 0 -119.833 12.168 -167.5 36.501s-84.667 57.666 -111 99.999s-39.5 90.5 -39.5 144.5s12.833 102.167 38.5 144.5s61.167 75.333 106.5 99s96.333 35.5 153 35.5c53.333 0 102 -10.833 146 -32.5s79 -53.5 105 -95.5s39 -93 39 -153
c0 -6.66699 -0.333008 -14.334 -1 -23.001s-1.33398 -16.667 -2.00098 -24h-429v100h328l-72 -28c0.666992 24.667 -3.83301 46 -13.5 64s-23 32 -40 42s-36.833 15 -59.5 15s-42.5 -5 -59.5 -15s-30.167 -24.167 -39.5 -42.5s-14 -39.833 -14 -64.5v-29
c0 -26.667 5.5 -49.667 16.5 -69s26.833 -34.166 47.5 -44.499s45.334 -15.5 74.001 -15.5c26.667 0 49.5 3.83301 68.5 11.5s37.833 19.5 56.5 35.5l100 -104c-26 -28.667 -58 -50.5 -96 -65.5s-83 -22.5 -135 -22.5zM109 607.001l130 152h164l130 -152h-126l-141 125h110
l-141 -125h-126z" />
    <glyph glyph-name="edieresis" unicode="&#xeb;" horiz-adv-x="642" 
d="M345 -9c-64 0 -119.833 12.168 -167.5 36.501s-84.667 57.666 -111 99.999s-39.5 90.5 -39.5 144.5s12.833 102.167 38.5 144.5s61.167 75.333 106.5 99s96.333 35.5 153 35.5c53.333 0 102 -10.833 146 -32.5s79 -53.5 105 -95.5s39 -93 39 -153
c0 -6.66699 -0.333008 -14.334 -1 -23.001s-1.33398 -16.667 -2.00098 -24h-429v100h328l-72 -28c0.666992 24.667 -3.83301 46 -13.5 64s-23 32 -40 42s-36.833 15 -59.5 15s-42.5 -5 -59.5 -15s-30.167 -24.167 -39.5 -42.5s-14 -39.833 -14 -64.5v-29
c0 -26.667 5.5 -49.667 16.5 -69s26.833 -34.166 47.5 -44.499s45.334 -15.5 74.001 -15.5c26.667 0 49.5 3.83301 68.5 11.5s37.833 19.5 56.5 35.5l100 -104c-26 -28.667 -58 -50.5 -96 -65.5s-83 -22.5 -135 -22.5zM427 606.001c-22 0 -40.667 7.16699 -56 21.5
s-23 33.166 -23 56.499s7.66699 42.333 23 57s34 22 56 22s40.667 -7.33301 56 -22s23 -33.667 23 -57s-7.66699 -42.166 -23 -56.499s-34 -21.5 -56 -21.5zM215 606.001c-22 0 -40.667 7.16699 -56 21.5s-23 33.166 -23 56.499s7.66699 42.333 23 57s34 22 56 22
s40.667 -7.33301 56 -22s23 -33.667 23 -57s-7.66699 -42.166 -23 -56.499s-34 -21.5 -56 -21.5z" />
    <glyph glyph-name="igrave" unicode="&#xec;" horiz-adv-x="313" 
d="M61 0v542h190v-542h-190zM118 607l-188 152h190l134 -152h-136z" />
    <glyph glyph-name="iacute" unicode="&#xed;" horiz-adv-x="313" 
d="M61 0v542h190v-542h-190zM58 607l134 152h190l-188 -152h-136z" />
    <glyph glyph-name="icircumflex" unicode="&#xee;" horiz-adv-x="313" 
d="M61 0v542h190v-542h-190zM-31 607l107 152h160l107 -152h-125l-113 125h102l-113 -125h-125z" />
    <glyph glyph-name="idieresis" unicode="&#xef;" horiz-adv-x="313" 
d="M61 0v542h190v-542h-190zM244 606c-20.667 0 -38.167 7.16699 -52.5 21.5s-21.5 33.166 -21.5 56.499s7.16699 42.166 21.5 56.499s31.833 21.5 52.5 21.5s38 -7.16699 52 -21.5s21 -33.166 21 -56.499s-7 -42.166 -21 -56.499s-31.333 -21.5 -52 -21.5zM69 606
c-20.667 0 -38.167 7.16699 -52.5 21.5s-21.5 33.166 -21.5 56.499s7.16699 42.166 21.5 56.499s31.833 21.5 52.5 21.5s38 -7.16699 52 -21.5s21 -33.166 21 -56.499s-7 -42.166 -21 -56.499s-31.333 -21.5 -52 -21.5z" />
    <glyph glyph-name="eth" unicode="&#xf0;" horiz-adv-x="666" 
d="M306 -14c-52.667 0 -100.002 9.83398 -142.002 29.501s-75.333 47.5 -100 83.5s-37 78 -37 126c0 45.333 11.167 84.833 33.5 118.5s52.5 59.667 90.5 78s80 27.5 126 27.5c35.333 0 66.5 -4.83301 93.5 -14.5s50.333 -23.834 70 -42.501s35.167 -41.667 46.5 -69
l-51 -31c2 12.667 3.16699 25.834 3.5 39.501s0.5 30.167 0.5 49.5c0 51.333 -8 93.833 -24 127.5s-39.667 58.834 -71 75.501s-70.333 25 -117 25c-21.333 0 -43.166 -1.66699 -65.499 -5s-43.166 -8.33301 -62.499 -15l-20 142c24.667 5.33301 49.667 9.66602 75 12.999
s53 5 83 5c82.667 0 154 -15.333 214 -46s106.167 -76.334 138.5 -137.001s48.5 -136 48.5 -226c0 -74 -13.667 -137.333 -41 -190s-65.833 -93.167 -115.5 -121.5s-108.5 -42.5 -176.5 -42.5zM320.998 127.001c20.667 0 38.667 4 54 12s27.333 18.667 36 32
s13 28.666 13 45.999c0 18 -4.5 33.833 -13.5 47.5s-21 24.334 -36 32.001s-32.5 11.5 -52.5 11.5c-30 0 -54.5 -8.16699 -73.5 -24.5s-28.5 -38.5 -28.5 -66.5c0 -18 4.5 -33.833 13.5 -47.5s21 -24.167 36 -31.5s32.167 -11 51.5 -11zM146.998 457.001l-33 85l466 174
l33 -86z" />
    <glyph glyph-name="ntilde" unicode="&#xf1;" horiz-adv-x="696" 
d="M414 551c42 0 80 -8.50098 114 -25.501s60.833 -43.167 80.5 -78.5s29.5 -81 29.5 -137v-310h-190v279c0 38.667 -7.83301 66.834 -23.5 84.501s-37.5 26.5 -65.5 26.5c-20 0 -38.333 -4.5 -55 -13.5s-29.667 -22.833 -39 -41.5s-14 -43 -14 -73v-262h-190v542h181v-154
l-35 45c20.667 39.333 49 68.833 85 88.5s76.667 29.5 122 29.5zM430 599.999c-18 0 -33.8311 3.16602 -47.498 9.49902s-26.167 13.5 -37.5 21.5l-31 21.5c-9.33301 6.33301 -18.666 9.5 -27.999 9.5c-13.333 0 -24 -4.66699 -32 -14s-12.667 -22.333 -14 -39h-93
c1.33301 48.667 13.166 87.334 35.499 116.001s52.833 43 91.5 43c18 0 34 -3 48 -9s26.5 -13.167 37.5 -21.5s21.333 -15.5 31 -21.5s18.834 -9 27.501 -9c13.333 0 24.166 4.5 32.499 13.5s12.833 21.167 13.5 36.5h93c-0.666992 -46.667 -12.334 -84.5 -35.001 -113.5
s-53.334 -43.5 -92.001 -43.5z" />
    <glyph glyph-name="ograve" unicode="&#xf2;" horiz-adv-x="666" 
d="M333 -9c-59.333 0 -112 12 -158 36s-82.167 57.167 -108.5 99.5s-39.5 90.833 -39.5 145.5s13.167 103 39.5 145s62.5 74.833 108.5 98.5s98.667 35.5 158 35.5s112.166 -11.833 158.499 -35.5s82.5 -56.5 108.5 -98.5s39 -90.333 39 -145s-13 -103.167 -39 -145.5
s-62.167 -75.5 -108.5 -99.5s-99.166 -36 -158.499 -36zM333 142c22 0 41.5 5 58.5 15s30.5 24.833 40.5 44.5s15 43.167 15 70.5s-5 50.5 -15 69.5s-23.5 33.5 -40.5 43.5s-36.5 15 -58.5 15c-21.333 0 -40.5 -5 -57.5 -15s-30.667 -24.5 -41 -43.5
s-15.5 -42.167 -15.5 -69.5s5.16699 -50.833 15.5 -70.5s24 -34.5 41 -44.5s36.167 -15 57.5 -15zM293 607l-188 152h190l134 -152h-136z" />
    <glyph glyph-name="oacute" unicode="&#xf3;" horiz-adv-x="666" 
d="M333 -9c-59.333 0 -112 12 -158 36s-82.167 57.167 -108.5 99.5s-39.5 90.833 -39.5 145.5s13.167 103 39.5 145s62.5 74.833 108.5 98.5s98.667 35.5 158 35.5s112.166 -11.833 158.499 -35.5s82.5 -56.5 108.5 -98.5s39 -90.333 39 -145s-13 -103.167 -39 -145.5
s-62.167 -75.5 -108.5 -99.5s-99.166 -36 -158.499 -36zM333 142c22 0 41.5 5 58.5 15s30.5 24.833 40.5 44.5s15 43.167 15 70.5s-5 50.5 -15 69.5s-23.5 33.5 -40.5 43.5s-36.5 15 -58.5 15c-21.333 0 -40.5 -5 -57.5 -15s-30.667 -24.5 -41 -43.5
s-15.5 -42.167 -15.5 -69.5s5.16699 -50.833 15.5 -70.5s24 -34.5 41 -44.5s36.167 -15 57.5 -15zM233 607l134 152h190l-188 -152h-136z" />
    <glyph glyph-name="ocircumflex" unicode="&#xf4;" horiz-adv-x="666" 
d="M333 -9c-59.333 0 -112 12 -158 36s-82.167 57.167 -108.5 99.5s-39.5 90.833 -39.5 145.5s13.167 103 39.5 145s62.5 74.833 108.5 98.5s98.667 35.5 158 35.5s112.166 -11.833 158.499 -35.5s82.5 -56.5 108.5 -98.5s39 -90.333 39 -145s-13 -103.167 -39 -145.5
s-62.167 -75.5 -108.5 -99.5s-99.166 -36 -158.499 -36zM333 142c22 0 41.5 5 58.5 15s30.5 24.833 40.5 44.5s15 43.167 15 70.5s-5 50.5 -15 69.5s-23.5 33.5 -40.5 43.5s-36.5 15 -58.5 15c-21.333 0 -40.5 -5 -57.5 -15s-30.667 -24.5 -41 -43.5
s-15.5 -42.167 -15.5 -69.5s5.16699 -50.833 15.5 -70.5s24 -34.5 41 -44.5s36.167 -15 57.5 -15zM119 607l130 152h164l130 -152h-126l-141 125h110l-141 -125h-126z" />
    <glyph glyph-name="otilde" unicode="&#xf5;" horiz-adv-x="666" 
d="M333 -9c-59.333 0 -112 12 -158 36s-82.167 57.167 -108.5 99.5s-39.5 90.833 -39.5 145.5s13.167 103 39.5 145s62.5 74.833 108.5 98.5s98.667 35.5 158 35.5s112.166 -11.833 158.499 -35.5s82.5 -56.5 108.5 -98.5s39 -90.333 39 -145s-13 -103.167 -39 -145.5
s-62.167 -75.5 -108.5 -99.5s-99.166 -36 -158.499 -36zM333 142c22 0 41.5 5 58.5 15s30.5 24.833 40.5 44.5s15 43.167 15 70.5s-5 50.5 -15 69.5s-23.5 33.5 -40.5 43.5s-36.5 15 -58.5 15c-21.333 0 -40.5 -5 -57.5 -15s-30.667 -24.5 -41 -43.5
s-15.5 -42.167 -15.5 -69.5s5.16699 -50.833 15.5 -70.5s24 -34.5 41 -44.5s36.167 -15 57.5 -15zM409 600c-18 0 -33.8311 3.16602 -47.498 9.49902s-26.167 13.5 -37.5 21.5l-31 21.5c-9.33301 6.33301 -18.666 9.5 -27.999 9.5c-13.333 0 -24 -4.66699 -32 -14
s-12.667 -22.333 -14 -39h-93c1.33301 48.667 13.166 87.334 35.499 116.001s52.833 43 91.5 43c18 0 34 -3 48 -9s26.5 -13.167 37.5 -21.5s21.333 -15.5 31 -21.5s18.834 -9 27.501 -9c13.333 0 24.166 4.5 32.499 13.5s12.833 21.167 13.5 36.5h93
c-0.666992 -46.667 -12.334 -84.5 -35.001 -113.5s-53.334 -43.5 -92.001 -43.5z" />
    <glyph glyph-name="odieresis" unicode="&#xf6;" horiz-adv-x="666" 
d="M333 -9c-59.333 0 -112 12 -158 36s-82.167 57.167 -108.5 99.5s-39.5 90.833 -39.5 145.5s13.167 103 39.5 145s62.5 74.833 108.5 98.5s98.667 35.5 158 35.5s112.166 -11.833 158.499 -35.5s82.5 -56.5 108.5 -98.5s39 -90.333 39 -145s-13 -103.167 -39 -145.5
s-62.167 -75.5 -108.5 -99.5s-99.166 -36 -158.499 -36zM333 142c22 0 41.5 5 58.5 15s30.5 24.833 40.5 44.5s15 43.167 15 70.5s-5 50.5 -15 69.5s-23.5 33.5 -40.5 43.5s-36.5 15 -58.5 15c-21.333 0 -40.5 -5 -57.5 -15s-30.667 -24.5 -41 -43.5
s-15.5 -42.167 -15.5 -69.5s5.16699 -50.833 15.5 -70.5s24 -34.5 41 -44.5s36.167 -15 57.5 -15zM437 606c-22 0 -40.667 7.16699 -56 21.5s-23 33.166 -23 56.499s7.66699 42.333 23 57s34 22 56 22s40.667 -7.33301 56 -22s23 -33.667 23 -57
s-7.66699 -42.166 -23 -56.499s-34 -21.5 -56 -21.5zM225 606c-22 0 -40.667 7.16699 -56 21.5s-23 33.166 -23 56.499s7.66699 42.333 23 57s34 22 56 22s40.667 -7.33301 56 -22s23 -33.667 23 -57s-7.66699 -42.166 -23 -56.499s-34 -21.5 -56 -21.5z" />
    <glyph glyph-name="divide" unicode="&#xf7;" horiz-adv-x="609" 
d="M58 277v146h493v-146h-493zM305 40c-27.333 0 -50.333 9 -69 27s-28 41.333 -28 70c0 28 9.33301 50.667 28 68s41.667 26 69 26s50.333 -8.66699 69 -26s28 -40 28 -68c0 -28.667 -9.33301 -52 -28 -70s-41.667 -27 -69 -27zM305 469c-27.333 0 -50.333 9 -69 27
s-28 41 -28 69c0 28.667 9.33301 51.667 28 69s41.667 26 69 26s50.333 -8.66699 69 -26s28 -40.333 28 -69c0 -28 -9.33301 -51 -28 -69s-41.667 -27 -69 -27z" />
    <glyph glyph-name="oslash" unicode="&#xf8;" horiz-adv-x="666" 
d="M333 -9c-59.333 0 -112 12 -158 36s-82.167 57.167 -108.5 99.5s-39.5 90.833 -39.5 145.5s13.167 103 39.5 145s62.5 74.833 108.5 98.5s98.667 35.5 158 35.5s112.166 -11.833 158.499 -35.5s82.5 -56.5 108.5 -98.5s39 -90.333 39 -145s-13 -103.167 -39 -145.5
s-62.167 -75.5 -108.5 -99.5s-99.166 -36 -158.499 -36zM333 142c22 0 41.5 5 58.5 15s30.5 24.833 40.5 44.5s15 43.167 15 70.5s-5 50.5 -15 69.5s-23.5 33.5 -40.5 43.5s-36.5 15 -58.5 15c-21.333 0 -40.5 -5 -57.5 -15s-30.667 -24.5 -41 -43.5
s-15.5 -42.167 -15.5 -69.5s5.16699 -50.833 15.5 -70.5s24 -34.5 41 -44.5s36.167 -15 57.5 -15zM67 -70l441 677h86l-441 -677h-86z" />
    <glyph glyph-name="ugrave" unicode="&#xf9;" horiz-adv-x="692" 
d="M289 -9c-44 0 -83.501 8.66699 -118.501 26s-62.333 44.5 -82 81.5s-29.5 83.833 -29.5 140.5v303h190v-272c0 -42 7.83301 -72 23.5 -90s37.834 -27 66.501 -27c18.667 0 35.667 4.33301 51 13s27.666 22.5 36.999 41.5s14 43.5 14 73.5v261h190v-542h-181v153l35 -43
c-18.667 -40 -45.667 -69.833 -81 -89.5s-73.666 -29.5 -114.999 -29.5zM306.999 607l-188 152h190l134 -152h-136z" />
    <glyph glyph-name="uacute" unicode="&#xfa;" horiz-adv-x="692" 
d="M289 -9c-44 0 -83.501 8.66699 -118.501 26s-62.333 44.5 -82 81.5s-29.5 83.833 -29.5 140.5v303h190v-272c0 -42 7.83301 -72 23.5 -90s37.834 -27 66.501 -27c18.667 0 35.667 4.33301 51 13s27.666 22.5 36.999 41.5s14 43.5 14 73.5v261h190v-542h-181v153l35 -43
c-18.667 -40 -45.667 -69.833 -81 -89.5s-73.666 -29.5 -114.999 -29.5zM246.999 607l134 152h190l-188 -152h-136z" />
    <glyph glyph-name="ucircumflex" unicode="&#xfb;" horiz-adv-x="692" 
d="M289 -9c-44 0 -83.501 8.66699 -118.501 26s-62.333 44.5 -82 81.5s-29.5 83.833 -29.5 140.5v303h190v-272c0 -42 7.83301 -72 23.5 -90s37.834 -27 66.501 -27c18.667 0 35.667 4.33301 51 13s27.666 22.5 36.999 41.5s14 43.5 14 73.5v261h190v-542h-181v153l35 -43
c-18.667 -40 -45.667 -69.833 -81 -89.5s-73.666 -29.5 -114.999 -29.5zM132.999 607l130 152h164l130 -152h-126l-141 125h110l-141 -125h-126z" />
    <glyph glyph-name="udieresis" unicode="&#xfc;" horiz-adv-x="692" 
d="M289 -9c-44 0 -83.501 8.66699 -118.501 26s-62.333 44.5 -82 81.5s-29.5 83.833 -29.5 140.5v303h190v-272c0 -42 7.83301 -72 23.5 -90s37.834 -27 66.501 -27c18.667 0 35.667 4.33301 51 13s27.666 22.5 36.999 41.5s14 43.5 14 73.5v261h190v-542h-181v153l35 -43
c-18.667 -40 -45.667 -69.833 -81 -89.5s-73.666 -29.5 -114.999 -29.5zM450.999 606c-22 0 -40.667 7.16699 -56 21.5s-23 33.166 -23 56.499s7.66699 42.333 23 57s34 22 56 22s40.667 -7.33301 56 -22s23 -33.667 23 -57s-7.66699 -42.166 -23 -56.499
s-34 -21.5 -56 -21.5zM238.999 606c-22 0 -40.667 7.16699 -56 21.5s-23 33.166 -23 56.499s7.66699 42.333 23 57s34 22 56 22s40.667 -7.33301 56 -22s23 -33.667 23 -57s-7.66699 -42.166 -23 -56.499s-34 -21.5 -56 -21.5z" />
    <glyph glyph-name="yacute" unicode="&#xfd;" horiz-adv-x="620" 
d="M154 -203c-28.667 0 -57.5 4.5 -86.5 13.5s-52.5 20.833 -70.5 35.5l66 133c11.333 -10 24.5 -17.833 39.5 -23.5s29.833 -8.5 44.5 -8.5c20.667 0 37 4.66699 49 14s22.333 24 31 44l25 63l15 19l184 455h181l-234 -564c-18.667 -46.667 -40.167 -83.167 -64.5 -109.5
s-51.333 -44.833 -81 -55.5s-62.5 -16 -98.5 -16zM228 -23l-239 565h195l176 -438zM202 607l134 152h190l-188 -152h-136z" />
    <glyph glyph-name="thorn" unicode="&#xfe;" horiz-adv-x="695" 
d="M402 -9c-46 0 -85.333 10.167 -118 30.5s-57.5 51 -74.5 92s-25.5 93.5 -25.5 157.5c0 64.667 8 117.5 24 158.5s40.167 71.5 72.5 91.5s72.833 30 121.5 30c49.333 0 94.166 -11.5 134.499 -34.5s72.333 -55.333 96 -97s35.5 -91.167 35.5 -148.5
s-11.833 -107 -35.5 -149s-55.667 -74.333 -96 -97s-85.166 -34 -134.499 -34zM61 -194v936h190v-292l-10 -179l10 -180v-285h-190zM362 142c21.333 0 40.5 5 57.5 15s30.667 24.667 41 44s15.5 42.666 15.5 69.999s-5.16699 50.666 -15.5 69.999s-24 34 -41 44
s-36.167 15 -57.5 15s-40.5 -5 -57.5 -15s-30.667 -24.667 -41 -44s-15.5 -42.666 -15.5 -69.999s5.16699 -50.666 15.5 -69.999s24 -34 41 -44s36.167 -15 57.5 -15z" />
    <glyph glyph-name="ydieresis" unicode="&#xff;" horiz-adv-x="620" 
d="M154 -203c-28.667 0 -57.5 4.5 -86.5 13.5s-52.5 20.833 -70.5 35.5l66 133c11.333 -10 24.5 -17.833 39.5 -23.5s29.833 -8.5 44.5 -8.5c20.667 0 37 4.66699 49 14s22.333 24 31 44l25 63l15 19l184 455h181l-234 -564c-18.667 -46.667 -40.167 -83.167 -64.5 -109.5
s-51.333 -44.833 -81 -55.5s-62.5 -16 -98.5 -16zM228 -23l-239 565h195l176 -438zM406 606c-22 0 -40.667 7.16699 -56 21.5s-23 33.166 -23 56.499s7.66699 42.333 23 57s34 22 56 22s40.667 -7.33301 56 -22s23 -33.667 23 -57s-7.66699 -42.166 -23 -56.499
s-34 -21.5 -56 -21.5zM194 606c-22 0 -40.667 7.16699 -56 21.5s-23 33.166 -23 56.499s7.66699 42.333 23 57s34 22 56 22s40.667 -7.33301 56 -22s23 -33.667 23 -57s-7.66699 -42.166 -23 -56.499s-34 -21.5 -56 -21.5z" />
    <glyph glyph-name="Amacron" unicode="&#x100;" horiz-adv-x="786" 
d="M-14 0l309 700h195l310 -700h-206l-242 603h78l-242 -603h-202zM155 136l51 146h342l51 -146h-444zM196 782v102h394v-102h-394z" />
    <glyph glyph-name="amacron" unicode="&#x101;" horiz-adv-x="628" 
d="M392 0l0.000976562 101l-13 25v186c0 30 -9.16699 53.167 -27.5 69.5s-47.5 24.5 -87.5 24.5c-26 0 -52.333 -4.16699 -79 -12.5s-49.334 -19.833 -68.001 -34.5l-64 129c30.667 20 67.5 35.5 110.5 46.5s85.833 16.5 128.5 16.5c88 0 156.167 -20.167 204.5 -60.5
s72.5 -103.5 72.5 -189.5v-301h-177zM232.001 -9c-43.333 0 -80 7.33594 -110 22.0029s-52.833 34.667 -68.5 60s-23.5 53.666 -23.5 84.999c0 33.333 8.5 62.166 25.5 86.499s43.167 43 78.5 56s81 19.5 137 19.5h128v-99h-102c-30.667 0 -52.167 -5 -64.5 -15
s-18.5 -23.333 -18.5 -40s6.33301 -30 19 -40s30 -15 52 -15c20.667 0 39.5 5.16699 56.5 15.5s29.5 26.166 37.5 47.499l26 -70c-10 -37.333 -29.5 -65.5 -58.5 -84.5s-67.167 -28.5 -114.5 -28.5zM116.001 632.003v102h394v-102h-394z" />
    <glyph glyph-name="Abreve" unicode="&#x102;" horiz-adv-x="786" 
d="M-14 0l309 700h195l310 -700h-206l-242 603h78l-242 -603h-202zM155 136l51 146h342l51 -146h-444zM393 748c-56 0 -102.167 14.333 -138.5 43s-55.5 68 -57.5 118h116c1.33301 -20.667 9.5 -36.834 24.5 -48.501s33.5 -17.5 55.5 -17.5s40.667 5.83301 56 17.5
s23.333 27.834 24 48.501h116c-2 -50 -21.167 -89.333 -57.5 -118s-82.5 -43 -138.5 -43z" />
    <glyph glyph-name="abreve" unicode="&#x103;" horiz-adv-x="628" 
d="M392 0l0.000976562 101l-13 25v186c0 30 -9.16699 53.167 -27.5 69.5s-47.5 24.5 -87.5 24.5c-26 0 -52.333 -4.16699 -79 -12.5s-49.334 -19.833 -68.001 -34.5l-64 129c30.667 20 67.5 35.5 110.5 46.5s85.833 16.5 128.5 16.5c88 0 156.167 -20.167 204.5 -60.5
s72.5 -103.5 72.5 -189.5v-301h-177zM232.001 -9c-43.333 0 -80 7.33594 -110 22.0029s-52.833 34.667 -68.5 60s-23.5 53.666 -23.5 84.999c0 33.333 8.5 62.166 25.5 86.499s43.167 43 78.5 56s81 19.5 137 19.5h128v-99h-102c-30.667 0 -52.167 -5 -64.5 -15
s-18.5 -23.333 -18.5 -40s6.33301 -30 19 -40s30 -15 52 -15c20.667 0 39.5 5.16699 56.5 15.5s29.5 26.166 37.5 47.499l26 -70c-10 -37.333 -29.5 -65.5 -58.5 -84.5s-67.167 -28.5 -114.5 -28.5zM313.001 598.003c-56 0 -102.167 14.333 -138.5 43s-55.5 68 -57.5 118
h116c1.33301 -20.667 9.5 -36.834 24.5 -48.501s33.5 -17.5 55.5 -17.5s40.667 5.83301 56 17.5s23.333 27.834 24 48.501h116c-2 -50 -21.167 -89.333 -57.5 -118s-82.5 -43 -138.5 -43z" />
    <glyph glyph-name="Aogonek" unicode="&#x104;" horiz-adv-x="786" 
d="M-14 0l309 700h195l310 -700h-206l-242 603h78l-242 -603h-202zM155 136l51 146h342l51 -146h-444zM717 -236c-46.667 0 -83 10.832 -109 32.499s-39 49.834 -39 84.501c0 23.333 6 45 18 65s29.833 38.5 53.5 55.5s53.167 31.5 88.5 43.5l70 -45
c-28 -12.667 -50.5 -24.667 -67.5 -36s-29.167 -22.333 -36.5 -33s-11 -21.667 -11 -33c0 -12.667 4.66699 -23.167 14 -31.5s23 -12.5 41 -12.5c11.333 0 22.333 1.5 33 4.5s19.667 6.5 27 10.5l25 -82c-12.667 -6.66699 -28.667 -12.167 -48 -16.5s-39 -6.5 -59 -6.5z" />
    <glyph glyph-name="aogonek" unicode="&#x105;" horiz-adv-x="628" 
d="M392 0l0.000976562 101l-13 25v186c0 30 -9.16699 53.167 -27.5 69.5s-47.5 24.5 -87.5 24.5c-26 0 -52.333 -4.16699 -79 -12.5s-49.334 -19.833 -68.001 -34.5l-64 129c30.667 20 67.5 35.5 110.5 46.5s85.833 16.5 128.5 16.5c88 0 156.167 -20.167 204.5 -60.5
s72.5 -103.5 72.5 -189.5v-301h-177zM232.001 -9c-43.333 0 -80 7.33594 -110 22.0029s-52.833 34.667 -68.5 60s-23.5 53.666 -23.5 84.999c0 33.333 8.5 62.166 25.5 86.499s43.167 43 78.5 56s81 19.5 137 19.5h128v-99h-102c-30.667 0 -52.167 -5 -64.5 -15
s-18.5 -23.333 -18.5 -40s6.33301 -30 19 -40s30 -15 52 -15c20.667 0 39.5 5.16699 56.5 15.5s29.5 26.166 37.5 47.499l26 -70c-10 -37.333 -29.5 -65.5 -58.5 -84.5s-67.167 -28.5 -114.5 -28.5zM487.001 -235.997c-46.667 0 -83 10.832 -109 32.499
s-39 49.834 -39 84.501c0 23.333 6 45 18 65s29.833 38.5 53.5 55.5s53.167 31.5 88.5 43.5l70 -45c-28 -12.667 -50.5 -24.667 -67.5 -36s-29.167 -22.333 -36.5 -33s-11 -21.667 -11 -33c0 -12.667 4.66699 -23.167 14 -31.5s23 -12.5 41 -12.5
c11.333 0 22.333 1.5 33 4.5s19.667 6.5 27 10.5l25 -82c-12.667 -6.66699 -28.667 -12.167 -48 -16.5s-39 -6.5 -59 -6.5z" />
    <glyph glyph-name="Cacute" unicode="&#x106;" horiz-adv-x="738" 
d="M419 -14c-55.333 0 -106.5 8.83594 -153.5 26.5029s-87.667 42.834 -122 75.501s-61.166 71.167 -80.499 115.5s-29 93.166 -29 146.499s9.66699 102.166 29 146.499s46.166 82.833 80.499 115.5s75 57.834 122 75.501s98.167 26.5 153.5 26.5
c64.667 0 122.5 -11.333 173.5 -34s93.5 -55.334 127.5 -98.001l-126 -114c-22.667 26.667 -47.5 47 -74.5 61s-57.167 21 -90.5 21c-28.667 0 -55 -4.66699 -79 -14s-44.5 -22.833 -61.5 -40.5s-30.333 -38.834 -40 -63.501s-14.5 -52 -14.5 -82s4.83301 -57.333 14.5 -82
s23 -45.834 40 -63.501s37.5 -31.167 61.5 -40.5s50.333 -14 79 -14c33.333 0 63.5 7 90.5 21s51.833 34.333 74.5 61l126 -114c-34 -42 -76.5 -74.5 -127.5 -97.5s-108.833 -34.5 -173.5 -34.5zM318 758.003l134 152h190l-188 -152h-136z" />
    <glyph glyph-name="cacute" unicode="&#x107;" horiz-adv-x="603" 
d="M338 -9c-60 0 -113.5 12 -160.5 36s-83.833 57.167 -110.5 99.5s-40 90.833 -40 145.5s13.333 103 40 145s63.5 74.833 110.5 98.5s100.5 35.5 160.5 35.5c61.333 0 114.333 -13 159 -39s76.334 -62.667 95.001 -110l-147 -75
c-12.667 25.333 -28.334 43.833 -47.001 55.5s-39 17.5 -61 17.5s-42 -5 -60 -15s-32.167 -24.5 -42.5 -43.5s-15.5 -42.167 -15.5 -69.5c0 -28 5.16699 -51.667 15.5 -71s24.5 -34 42.5 -44s38 -15 60 -15s42.333 5.83301 61 17.5s34.334 30.167 47.001 55.5l147 -75
c-18.667 -47.333 -50.334 -84 -95.001 -110s-97.667 -39 -159 -39zM220 607l134 152h190l-188 -152h-136z" />
    <glyph glyph-name="Ccircumflex" unicode="&#x108;" horiz-adv-x="738" 
d="M419 -14c-55.333 0 -106.5 8.83594 -153.5 26.5029s-87.667 42.834 -122 75.501s-61.166 71.167 -80.499 115.5s-29 93.166 -29 146.499s9.66699 102.166 29 146.499s46.166 82.833 80.499 115.5s75 57.834 122 75.501s98.167 26.5 153.5 26.5
c64.667 0 122.5 -11.333 173.5 -34s93.5 -55.334 127.5 -98.001l-126 -114c-22.667 26.667 -47.5 47 -74.5 61s-57.167 21 -90.5 21c-28.667 0 -55 -4.66699 -79 -14s-44.5 -22.833 -61.5 -40.5s-30.333 -38.834 -40 -63.501s-14.5 -52 -14.5 -82s4.83301 -57.333 14.5 -82
s23 -45.834 40 -63.501s37.5 -31.167 61.5 -40.5s50.333 -14 79 -14c33.333 0 63.5 7 90.5 21s51.833 34.333 74.5 61l126 -114c-34 -42 -76.5 -74.5 -127.5 -97.5s-108.833 -34.5 -173.5 -34.5zM204 758.003l130 152h164l130 -152h-126l-141 125h110l-141 -125h-126z" />
    <glyph glyph-name="ccircumflex" unicode="&#x109;" horiz-adv-x="603" 
d="M338 -9c-60 0 -113.5 12 -160.5 36s-83.833 57.167 -110.5 99.5s-40 90.833 -40 145.5s13.333 103 40 145s63.5 74.833 110.5 98.5s100.5 35.5 160.5 35.5c61.333 0 114.333 -13 159 -39s76.334 -62.667 95.001 -110l-147 -75
c-12.667 25.333 -28.334 43.833 -47.001 55.5s-39 17.5 -61 17.5s-42 -5 -60 -15s-32.167 -24.5 -42.5 -43.5s-15.5 -42.167 -15.5 -69.5c0 -28 5.16699 -51.667 15.5 -71s24.5 -34 42.5 -44s38 -15 60 -15s42.333 5.83301 61 17.5s34.334 30.167 47.001 55.5l147 -75
c-18.667 -47.333 -50.334 -84 -95.001 -110s-97.667 -39 -159 -39zM106 607l130 152h164l130 -152h-126l-141 125h110l-141 -125h-126z" />
    <glyph glyph-name="Cdotaccent" unicode="&#x10a;" horiz-adv-x="738" 
d="M419 -14c-55.333 0 -106.5 8.83594 -153.5 26.5029s-87.667 42.834 -122 75.501s-61.166 71.167 -80.499 115.5s-29 93.166 -29 146.499s9.66699 102.166 29 146.499s46.166 82.833 80.499 115.5s75 57.834 122 75.501s98.167 26.5 153.5 26.5
c64.667 0 122.5 -11.333 173.5 -34s93.5 -55.334 127.5 -98.001l-126 -114c-22.667 26.667 -47.5 47 -74.5 61s-57.167 21 -90.5 21c-28.667 0 -55 -4.66699 -79 -14s-44.5 -22.833 -61.5 -40.5s-30.333 -38.834 -40 -63.501s-14.5 -52 -14.5 -82s4.83301 -57.333 14.5 -82
s23 -45.834 40 -63.501s37.5 -31.167 61.5 -40.5s50.333 -14 79 -14c33.333 0 63.5 7 90.5 21s51.833 34.333 74.5 61l126 -114c-34 -42 -76.5 -74.5 -127.5 -97.5s-108.833 -34.5 -173.5 -34.5zM416 756.003c-28.667 0 -52.334 9.16699 -71.001 27.5s-28 42.166 -28 71.499
c0 28.667 9.33301 52.167 28 70.5s42.334 27.5 71.001 27.5s52.334 -9.16699 71.001 -27.5s28 -41.833 28 -70.5c0 -29.333 -9.33301 -53.166 -28 -71.499s-42.334 -27.5 -71.001 -27.5z" />
    <glyph glyph-name="cdotaccent" unicode="&#x10b;" horiz-adv-x="603" 
d="M338 -9c-60 0 -113.5 12 -160.5 36s-83.833 57.167 -110.5 99.5s-40 90.833 -40 145.5s13.333 103 40 145s63.5 74.833 110.5 98.5s100.5 35.5 160.5 35.5c61.333 0 114.333 -13 159 -39s76.334 -62.667 95.001 -110l-147 -75
c-12.667 25.333 -28.334 43.833 -47.001 55.5s-39 17.5 -61 17.5s-42 -5 -60 -15s-32.167 -24.5 -42.5 -43.5s-15.5 -42.167 -15.5 -69.5c0 -28 5.16699 -51.667 15.5 -71s24.5 -34 42.5 -44s38 -15 60 -15s42.333 5.83301 61 17.5s34.334 30.167 47.001 55.5l147 -75
c-18.667 -47.333 -50.334 -84 -95.001 -110s-97.667 -39 -159 -39zM318 605c-28.667 0 -52.334 9.16699 -71.001 27.5s-28 42.166 -28 71.499c0 28.667 9.33301 52.167 28 70.5s42.334 27.5 71.001 27.5s52.334 -9.16699 71.001 -27.5s28 -41.833 28 -70.5
c0 -29.333 -9.33301 -53.166 -28 -71.499s-42.334 -27.5 -71.001 -27.5z" />
    <glyph glyph-name="Ccaron" unicode="&#x10c;" horiz-adv-x="738" 
d="M419 -14c-55.333 0 -106.5 8.83594 -153.5 26.5029s-87.667 42.834 -122 75.501s-61.166 71.167 -80.499 115.5s-29 93.166 -29 146.499s9.66699 102.166 29 146.499s46.166 82.833 80.499 115.5s75 57.834 122 75.501s98.167 26.5 153.5 26.5
c64.667 0 122.5 -11.333 173.5 -34s93.5 -55.334 127.5 -98.001l-126 -114c-22.667 26.667 -47.5 47 -74.5 61s-57.167 21 -90.5 21c-28.667 0 -55 -4.66699 -79 -14s-44.5 -22.833 -61.5 -40.5s-30.333 -38.834 -40 -63.501s-14.5 -52 -14.5 -82s4.83301 -57.333 14.5 -82
s23 -45.834 40 -63.501s37.5 -31.167 61.5 -40.5s50.333 -14 79 -14c33.333 0 63.5 7 90.5 21s51.833 34.333 74.5 61l126 -114c-34 -42 -76.5 -74.5 -127.5 -97.5s-108.833 -34.5 -173.5 -34.5zM334 758.003l-130 152h126l141 -124h-110l141 124h126l-130 -152h-164z" />
    <glyph glyph-name="ccaron" unicode="&#x10d;" horiz-adv-x="603" 
d="M338 -9c-60 0 -113.5 12 -160.5 36s-83.833 57.167 -110.5 99.5s-40 90.833 -40 145.5s13.333 103 40 145s63.5 74.833 110.5 98.5s100.5 35.5 160.5 35.5c61.333 0 114.333 -13 159 -39s76.334 -62.667 95.001 -110l-147 -75
c-12.667 25.333 -28.334 43.833 -47.001 55.5s-39 17.5 -61 17.5s-42 -5 -60 -15s-32.167 -24.5 -42.5 -43.5s-15.5 -42.167 -15.5 -69.5c0 -28 5.16699 -51.667 15.5 -71s24.5 -34 42.5 -44s38 -15 60 -15s42.333 5.83301 61 17.5s34.334 30.167 47.001 55.5l147 -75
c-18.667 -47.333 -50.334 -84 -95.001 -110s-97.667 -39 -159 -39zM236 607l-130 152h126l141 -124h-110l141 124h126l-130 -152h-164z" />
    <glyph glyph-name="Dcaron" unicode="&#x10e;" horiz-adv-x="826" 
d="M70 0v699.999h331c77.333 0 145.333 -14.333 204 -43s104.5 -69 137.5 -121s49.5 -114 49.5 -186c0 -71.333 -16.5 -133.166 -49.5 -185.499s-78.833 -92.833 -137.5 -121.5s-126.667 -43 -204 -43h-331zM268 157.999l125 -0.000976562c40 0 74.833 7.5 104.5 22.5
s52.834 37 69.501 66s25 63.5 25 103.5c0 40.667 -8.33301 75.334 -25 104.001s-39.834 50.5 -69.501 65.5s-64.5 22.5 -104.5 22.5h-125v-384zM283 756.998l-130 152h126l141 -124h-110l141 124h126l-130 -152h-164z" />
    <glyph glyph-name="dcaron" unicode="&#x10f;" horiz-adv-x="698" 
d="M297 -9c-49.333 0 -94.166 11.498 -134.499 34.498s-72.5 55.333 -96.5 97s-36 91.5 -36 149.5c0 57.333 12 106.833 36 148.5s56.167 73.834 96.5 96.501s85.166 34 134.499 34c46.667 0 86.167 -10 118.5 -30s56.833 -50.667 73.5 -92s25 -93.666 25 -156.999
c0 -64.667 -8 -117.667 -24 -159s-40 -72 -72 -92s-72.333 -30 -121 -30zM337 141.998c21.333 0 40.5 5 57.5 15s30.5 24.833 40.5 44.5s15 43.167 15 70.5s-5 50.5 -15 69.5s-23.5 33.5 -40.5 43.5s-36.167 15 -57.5 15c-22 0 -41.5 -5 -58.5 -15s-30.5 -24.5 -40.5 -43.5
s-15 -42.167 -15 -69.5s5 -50.833 15 -70.5s23.5 -34.5 40.5 -44.5s36.5 -15 58.5 -15zM456 -0.00195312v93l1 179l-10 179v291h190v-742h-181zM715 581.998v205h137l-25 -205h-112z" />
    <glyph glyph-name="Dcroat" unicode="&#x110;" horiz-adv-x="843" 
d="M87 0v699.999h331c77.333 0 145.333 -14.333 204 -43s104.5 -69 137.5 -121s49.5 -114 49.5 -186c0 -71.333 -16.5 -133.166 -49.5 -185.499s-78.833 -92.833 -137.5 -121.5s-126.667 -43 -204 -43h-331zM285 157.999l125 -0.000976562c40 0 74.833 7.5 104.5 22.5
s52.834 37 69.501 66s25 63.5 25 103.5c0 40.667 -8.33301 75.334 -25 104.001s-39.834 50.5 -69.501 65.5s-64.5 22.5 -104.5 22.5h-125v-384zM-3 293.998v122h450v-122h-450z" />
    <glyph glyph-name="dcroat" unicode="&#x111;" horiz-adv-x="698" 
d="M297 -9c-49.333 0 -94.166 11.498 -134.499 34.498s-72.5 55.333 -96.5 97s-36 91.5 -36 149.5c0 57.333 12 106.833 36 148.5s56.167 73.834 96.5 96.501s85.166 34 134.499 34c46.667 0 86.167 -10 118.5 -30s56.833 -50.667 73.5 -92s25 -93.666 25 -156.999
c0 -64.667 -8 -117.667 -24 -159s-40 -72 -72 -92s-72.333 -30 -121 -30zM337 141.998c21.333 0 40.5 5 57.5 15s30.5 24.833 40.5 44.5s15 43.167 15 70.5s-5 50.5 -15 69.5s-23.5 33.5 -40.5 43.5s-36.167 15 -57.5 15c-22 0 -41.5 -5 -58.5 -15s-30.5 -24.5 -40.5 -43.5
s-15 -42.167 -15 -69.5s5 -50.833 15 -70.5s23.5 -34.5 40.5 -44.5s36.5 -15 58.5 -15zM456 -0.00195312v93l1 179l-10 179v291h190v-742h-181zM280 588.998v99h420v-99h-420z" />
    <glyph glyph-name="Emacron" unicode="&#x112;" horiz-adv-x="672" 
d="M252 429h325v-148h-325v148zM266 153h366v-153h-562v700h549v-153h-353v-394zM148 782v102h394v-102h-394z" />
    <glyph glyph-name="emacron" unicode="&#x113;" horiz-adv-x="642" 
d="M345 -9c-64 0 -119.833 12.168 -167.5 36.501s-84.667 57.666 -111 99.999s-39.5 90.5 -39.5 144.5s12.833 102.167 38.5 144.5s61.167 75.333 106.5 99s96.333 35.5 153 35.5c53.333 0 102 -10.833 146 -32.5s79 -53.5 105 -95.5s39 -93 39 -153
c0 -6.66699 -0.333008 -14.334 -1 -23.001s-1.33398 -16.667 -2.00098 -24h-429v100h328l-72 -28c0.666992 24.667 -3.83301 46 -13.5 64s-23 32 -40 42s-36.833 15 -59.5 15s-42.5 -5 -59.5 -15s-30.167 -24.167 -39.5 -42.5s-14 -39.833 -14 -64.5v-29
c0 -26.667 5.5 -49.667 16.5 -69s26.833 -34.166 47.5 -44.499s45.334 -15.5 74.001 -15.5c26.667 0 49.5 3.83301 68.5 11.5s37.833 19.5 56.5 35.5l100 -104c-26 -28.667 -58 -50.5 -96 -65.5s-83 -22.5 -135 -22.5zM124 632.001v102h394v-102h-394z" />
    <glyph glyph-name="Ebreve" unicode="&#x114;" horiz-adv-x="672" 
d="M252 429h325v-148h-325v148zM266 153h366v-153h-562v700h549v-153h-353v-394zM345 748c-56 0 -102.167 14.333 -138.5 43s-55.5 68 -57.5 118h116c1.33301 -20.667 9.5 -36.834 24.5 -48.501s33.5 -17.5 55.5 -17.5s40.667 5.83301 56 17.5s23.333 27.834 24 48.501h116
c-2 -50 -21.167 -89.333 -57.5 -118s-82.5 -43 -138.5 -43z" />
    <glyph glyph-name="ebreve" unicode="&#x115;" horiz-adv-x="642" 
d="M345 -9c-64 0 -119.833 12.168 -167.5 36.501s-84.667 57.666 -111 99.999s-39.5 90.5 -39.5 144.5s12.833 102.167 38.5 144.5s61.167 75.333 106.5 99s96.333 35.5 153 35.5c53.333 0 102 -10.833 146 -32.5s79 -53.5 105 -95.5s39 -93 39 -153
c0 -6.66699 -0.333008 -14.334 -1 -23.001s-1.33398 -16.667 -2.00098 -24h-429v100h328l-72 -28c0.666992 24.667 -3.83301 46 -13.5 64s-23 32 -40 42s-36.833 15 -59.5 15s-42.5 -5 -59.5 -15s-30.167 -24.167 -39.5 -42.5s-14 -39.833 -14 -64.5v-29
c0 -26.667 5.5 -49.667 16.5 -69s26.833 -34.166 47.5 -44.499s45.334 -15.5 74.001 -15.5c26.667 0 49.5 3.83301 68.5 11.5s37.833 19.5 56.5 35.5l100 -104c-26 -28.667 -58 -50.5 -96 -65.5s-83 -22.5 -135 -22.5zM321 598.001c-56 0 -102.167 14.333 -138.5 43
s-55.5 68 -57.5 118h116c1.33301 -20.667 9.5 -36.834 24.5 -48.501s33.5 -17.5 55.5 -17.5s40.667 5.83301 56 17.5s23.333 27.834 24 48.501h116c-2 -50 -21.167 -89.333 -57.5 -118s-82.5 -43 -138.5 -43z" />
    <glyph glyph-name="Edotaccent" unicode="&#x116;" horiz-adv-x="672" 
d="M252 429h325v-148h-325v148zM266 153h366v-153h-562v700h549v-153h-353v-394zM345 755c-28.667 0 -52.334 9.16699 -71.001 27.5s-28 42.166 -28 71.499c0 28.667 9.33301 52.167 28 70.5s42.334 27.5 71.001 27.5s52.334 -9.16699 71.001 -27.5s28 -41.833 28 -70.5
c0 -29.333 -9.33301 -53.166 -28 -71.499s-42.334 -27.5 -71.001 -27.5z" />
    <glyph glyph-name="edotaccent" unicode="&#x117;" horiz-adv-x="642" 
d="M345 -9c-64 0 -119.833 12.168 -167.5 36.501s-84.667 57.666 -111 99.999s-39.5 90.5 -39.5 144.5s12.833 102.167 38.5 144.5s61.167 75.333 106.5 99s96.333 35.5 153 35.5c53.333 0 102 -10.833 146 -32.5s79 -53.5 105 -95.5s39 -93 39 -153
c0 -6.66699 -0.333008 -14.334 -1 -23.001s-1.33398 -16.667 -2.00098 -24h-429v100h328l-72 -28c0.666992 24.667 -3.83301 46 -13.5 64s-23 32 -40 42s-36.833 15 -59.5 15s-42.5 -5 -59.5 -15s-30.167 -24.167 -39.5 -42.5s-14 -39.833 -14 -64.5v-29
c0 -26.667 5.5 -49.667 16.5 -69s26.833 -34.166 47.5 -44.499s45.334 -15.5 74.001 -15.5c26.667 0 49.5 3.83301 68.5 11.5s37.833 19.5 56.5 35.5l100 -104c-26 -28.667 -58 -50.5 -96 -65.5s-83 -22.5 -135 -22.5zM321 605.001c-28.667 0 -52.334 9.16699 -71.001 27.5
s-28 42.166 -28 71.499c0 28.667 9.33301 52.167 28 70.5s42.334 27.5 71.001 27.5s52.334 -9.16699 71.001 -27.5s28 -41.833 28 -70.5c0 -29.333 -9.33301 -53.166 -28 -71.499s-42.334 -27.5 -71.001 -27.5z" />
    <glyph glyph-name="Eogonek" unicode="&#x118;" horiz-adv-x="672" 
d="M252 429h325v-148h-325v148zM266 153h366v-153h-562v700h549v-153h-353v-394zM550 -236c-46.667 0 -83 10.832 -109 32.499s-39 49.834 -39 84.501c0 23.333 6 45 18 65s29.833 38.5 53.5 55.5s53.167 31.5 88.5 43.5l70 -45c-28 -12.667 -50.5 -24.667 -67.5 -36
s-29.167 -22.333 -36.5 -33s-11 -21.667 -11 -33c0 -12.667 4.66699 -23.167 14 -31.5s23 -12.5 41 -12.5c11.333 0 22.333 1.5 33 4.5s19.667 6.5 27 10.5l25 -82c-12.667 -6.66699 -28.667 -12.167 -48 -16.5s-39 -6.5 -59 -6.5z" />
    <glyph glyph-name="eogonek" unicode="&#x119;" horiz-adv-x="642" 
d="M456 -236c-46 0 -82.165 11 -108.498 33s-39.5 51.333 -39.5 88c0 27.333 9.16699 54 27.5 80s43.166 45.667 74.499 59l27 -23c-14 -3.33301 -28.667 -5.83301 -44 -7.5s-31.333 -2.5 -48 -2.5c-64 0 -119.833 12.167 -167.5 36.5s-84.667 57.666 -111 99.999
s-39.5 90.5 -39.5 144.5s12.833 102.167 38.5 144.5s61.167 75.333 106.5 99s96.333 35.5 153 35.5c53.333 0 102 -10.833 146 -32.5s79 -53.5 105 -95.5s39 -93 39 -153c0 -6.66699 -0.333008 -14.334 -1 -23.001s-1.33398 -16.667 -2.00098 -24h-429v100h328l-72 -28
c0.666992 24.667 -3.83301 46 -13.5 64s-23 32 -40 42s-36.833 15 -59.5 15s-42.5 -5 -59.5 -15s-30.167 -24.167 -39.5 -42.5s-14 -39.833 -14 -64.5v-29c0 -26.667 5.5 -49.667 16.5 -69s26.833 -34.166 47.5 -44.499s45.334 -15.5 74.001 -15.5
c26.667 0 49.5 3.83301 68.5 11.5s37.833 19.5 56.5 35.5l100 -104c-6 -6.66699 -12.5 -13.167 -19.5 -19.5s-14.167 -12.166 -21.5 -17.499c-30.667 -20.667 -54 -39.167 -70 -55.5s-27 -31 -33 -44s-9 -25.833 -9 -38.5c0 -14.667 5.16699 -26.667 15.5 -36
s24.166 -14 41.499 -14c10 0 20.333 1.5 31 4.5s19.667 6.5 27 10.5l25 -82c-12 -6.66699 -27.833 -12.167 -47.5 -16.5s-39.5 -6.5 -59.5 -6.5z" />
    <glyph glyph-name="Ecaron" unicode="&#x11a;" horiz-adv-x="672" 
d="M252 429h325v-148h-325v148zM266 153h366v-153h-562v700h549v-153h-353v-394zM263 757l-130 152h126l141 -124h-110l141 124h126l-130 -152h-164z" />
    <glyph glyph-name="ecaron" unicode="&#x11b;" horiz-adv-x="642" 
d="M345 -9c-64 0 -119.833 12.168 -167.5 36.501s-84.667 57.666 -111 99.999s-39.5 90.5 -39.5 144.5s12.833 102.167 38.5 144.5s61.167 75.333 106.5 99s96.333 35.5 153 35.5c53.333 0 102 -10.833 146 -32.5s79 -53.5 105 -95.5s39 -93 39 -153
c0 -6.66699 -0.333008 -14.334 -1 -23.001s-1.33398 -16.667 -2.00098 -24h-429v100h328l-72 -28c0.666992 24.667 -3.83301 46 -13.5 64s-23 32 -40 42s-36.833 15 -59.5 15s-42.5 -5 -59.5 -15s-30.167 -24.167 -39.5 -42.5s-14 -39.833 -14 -64.5v-29
c0 -26.667 5.5 -49.667 16.5 -69s26.833 -34.166 47.5 -44.499s45.334 -15.5 74.001 -15.5c26.667 0 49.5 3.83301 68.5 11.5s37.833 19.5 56.5 35.5l100 -104c-26 -28.667 -58 -50.5 -96 -65.5s-83 -22.5 -135 -22.5zM239 607.001l-130 152h126l141 -124h-110l141 124h126
l-130 -152h-164z" />
    <glyph glyph-name="Gcircumflex" unicode="&#x11c;" horiz-adv-x="770" 
d="M420 -14c-55.333 0 -106.668 8.83496 -154.001 26.502s-88.166 42.834 -122.499 75.501s-61.166 71.167 -80.499 115.5s-29 93.166 -29 146.499s9.66699 102.166 29 146.499s46.333 82.833 81 115.5s75.834 57.834 123.501 75.501s99.834 26.5 156.501 26.5
c66 0 125 -11 177 -33s95 -53.667 129 -95l-126 -114c-24 26 -49.833 45.5 -77.5 58.5s-58.5 19.5 -92.5 19.5c-30 0 -57.333 -4.66699 -82 -14s-45.667 -22.833 -63 -40.5s-30.833 -38.667 -40.5 -63s-14.5 -51.833 -14.5 -82.5c0 -29.333 4.83301 -56.333 14.5 -81
s23.167 -45.834 40.5 -63.501s38.166 -31.334 62.499 -41.001s51.166 -14.5 80.499 -14.5s58 4.83301 86 14.5s56.333 26.167 85 49.5l111 -139c-40 -28.667 -86.333 -50.667 -139 -66s-104.334 -23 -155.001 -23zM538.998 101.002v264h175v-290zM207.998 758.002l130 152
h164l130 -152h-126l-141 125h110l-141 -125h-126z" />
    <glyph glyph-name="gcircumflex" unicode="&#x11d;" horiz-adv-x="705" 
d="M326 -203c-52 0 -101.502 6 -148.502 18s-87.167 29.667 -120.5 53l69 133c22.667 -18 50.834 -32.167 84.501 -42.5s66.5 -15.5 98.5 -15.5c51.333 0 88.333 11.167 111 33.5s34 54.833 34 97.5v64l10 152l-1 153v99h181v-443c0 -102.667 -27.667 -178.667 -83 -228
s-133.666 -74 -234.999 -74zM292.998 28c-48 0 -92.167 10.834 -132.5 32.501s-72.666 52 -96.999 91s-36.5 85.167 -36.5 138.5s12.167 99.5 36.5 138.5s56.666 69.167 96.999 90.5s84.5 32 132.5 32c46 0 85.333 -9.16699 118 -27.5s57.5 -46.833 74.5 -85.5
s25.5 -88 25.5 -148s-8.5 -109.333 -25.5 -148s-41.833 -67.334 -74.5 -86.001s-72 -28 -118 -28zM337.998 179.001c22.667 0 42.834 4.66699 60.501 14s31.667 22.333 42 39s15.5 36 15.5 58s-5.16699 41.333 -15.5 58s-24.333 29.5 -42 38.5s-37.834 13.5 -60.501 13.5
s-43 -4.5 -61 -13.5s-32.167 -21.833 -42.5 -38.5s-15.5 -36 -15.5 -58s5.16699 -41.333 15.5 -58s24.5 -29.667 42.5 -39s38.333 -14 61 -14zM135.998 607.001l130 152h164l130 -152h-126l-141 125h110l-141 -125h-126z" />
    <glyph glyph-name="Gbreve" unicode="&#x11e;" horiz-adv-x="770" 
d="M420 -14c-55.333 0 -106.668 8.83496 -154.001 26.502s-88.166 42.834 -122.499 75.501s-61.166 71.167 -80.499 115.5s-29 93.166 -29 146.499s9.66699 102.166 29 146.499s46.333 82.833 81 115.5s75.834 57.834 123.501 75.501s99.834 26.5 156.501 26.5
c66 0 125 -11 177 -33s95 -53.667 129 -95l-126 -114c-24 26 -49.833 45.5 -77.5 58.5s-58.5 19.5 -92.5 19.5c-30 0 -57.333 -4.66699 -82 -14s-45.667 -22.833 -63 -40.5s-30.833 -38.667 -40.5 -63s-14.5 -51.833 -14.5 -82.5c0 -29.333 4.83301 -56.333 14.5 -81
s23.167 -45.834 40.5 -63.501s38.166 -31.334 62.499 -41.001s51.166 -14.5 80.499 -14.5s58 4.83301 86 14.5s56.333 26.167 85 49.5l111 -139c-40 -28.667 -86.333 -50.667 -139 -66s-104.334 -23 -155.001 -23zM538.998 101.002v264h175v-290zM419.998 749.002
c-56 0 -102.167 14.333 -138.5 43s-55.5 68 -57.5 118h116c1.33301 -20.667 9.5 -36.834 24.5 -48.501s33.5 -17.5 55.5 -17.5s40.667 5.83301 56 17.5s23.333 27.834 24 48.501h116c-2 -50 -21.167 -89.333 -57.5 -118s-82.5 -43 -138.5 -43z" />
    <glyph glyph-name="gbreve" unicode="&#x11f;" horiz-adv-x="705" 
d="M326 -203c-52 0 -101.502 6 -148.502 18s-87.167 29.667 -120.5 53l69 133c22.667 -18 50.834 -32.167 84.501 -42.5s66.5 -15.5 98.5 -15.5c51.333 0 88.333 11.167 111 33.5s34 54.833 34 97.5v64l10 152l-1 153v99h181v-443c0 -102.667 -27.667 -178.667 -83 -228
s-133.666 -74 -234.999 -74zM292.998 28c-48 0 -92.167 10.834 -132.5 32.501s-72.666 52 -96.999 91s-36.5 85.167 -36.5 138.5s12.167 99.5 36.5 138.5s56.666 69.167 96.999 90.5s84.5 32 132.5 32c46 0 85.333 -9.16699 118 -27.5s57.5 -46.833 74.5 -85.5
s25.5 -88 25.5 -148s-8.5 -109.333 -25.5 -148s-41.833 -67.334 -74.5 -86.001s-72 -28 -118 -28zM337.998 179.001c22.667 0 42.834 4.66699 60.501 14s31.667 22.333 42 39s15.5 36 15.5 58s-5.16699 41.333 -15.5 58s-24.333 29.5 -42 38.5s-37.834 13.5 -60.501 13.5
s-43 -4.5 -61 -13.5s-32.167 -21.833 -42.5 -38.5s-15.5 -36 -15.5 -58s5.16699 -41.333 15.5 -58s24.5 -29.667 42.5 -39s38.333 -14 61 -14zM347.998 598.001c-56 0 -102.167 14.333 -138.5 43s-55.5 68 -57.5 118h116c1.33301 -20.667 9.5 -36.834 24.5 -48.501
s33.5 -17.5 55.5 -17.5s40.667 5.83301 56 17.5s23.333 27.834 24 48.501h116c-2 -50 -21.167 -89.333 -57.5 -118s-82.5 -43 -138.5 -43z" />
    <glyph glyph-name="Gdotaccent" unicode="&#x120;" horiz-adv-x="770" 
d="M420 -14c-55.333 0 -106.668 8.83496 -154.001 26.502s-88.166 42.834 -122.499 75.501s-61.166 71.167 -80.499 115.5s-29 93.166 -29 146.499s9.66699 102.166 29 146.499s46.333 82.833 81 115.5s75.834 57.834 123.501 75.501s99.834 26.5 156.501 26.5
c66 0 125 -11 177 -33s95 -53.667 129 -95l-126 -114c-24 26 -49.833 45.5 -77.5 58.5s-58.5 19.5 -92.5 19.5c-30 0 -57.333 -4.66699 -82 -14s-45.667 -22.833 -63 -40.5s-30.833 -38.667 -40.5 -63s-14.5 -51.833 -14.5 -82.5c0 -29.333 4.83301 -56.333 14.5 -81
s23.167 -45.834 40.5 -63.501s38.166 -31.334 62.499 -41.001s51.166 -14.5 80.499 -14.5s58 4.83301 86 14.5s56.333 26.167 85 49.5l111 -139c-40 -28.667 -86.333 -50.667 -139 -66s-104.334 -23 -155.001 -23zM538.998 101.002v264h175v-290zM419.998 756.002
c-28.667 0 -52.334 9.16699 -71.001 27.5s-28 42.166 -28 71.499c0 28.667 9.33301 52.167 28 70.5s42.334 27.5 71.001 27.5s52.334 -9.16699 71.001 -27.5s28 -41.833 28 -70.5c0 -29.333 -9.33301 -53.166 -28 -71.499s-42.334 -27.5 -71.001 -27.5z" />
    <glyph glyph-name="gdotaccent" unicode="&#x121;" horiz-adv-x="705" 
d="M326 -203c-52 0 -101.502 6 -148.502 18s-87.167 29.667 -120.5 53l69 133c22.667 -18 50.834 -32.167 84.501 -42.5s66.5 -15.5 98.5 -15.5c51.333 0 88.333 11.167 111 33.5s34 54.833 34 97.5v64l10 152l-1 153v99h181v-443c0 -102.667 -27.667 -178.667 -83 -228
s-133.666 -74 -234.999 -74zM292.998 28c-48 0 -92.167 10.834 -132.5 32.501s-72.666 52 -96.999 91s-36.5 85.167 -36.5 138.5s12.167 99.5 36.5 138.5s56.666 69.167 96.999 90.5s84.5 32 132.5 32c46 0 85.333 -9.16699 118 -27.5s57.5 -46.833 74.5 -85.5
s25.5 -88 25.5 -148s-8.5 -109.333 -25.5 -148s-41.833 -67.334 -74.5 -86.001s-72 -28 -118 -28zM337.998 179.001c22.667 0 42.834 4.66699 60.501 14s31.667 22.333 42 39s15.5 36 15.5 58s-5.16699 41.333 -15.5 58s-24.333 29.5 -42 38.5s-37.834 13.5 -60.501 13.5
s-43 -4.5 -61 -13.5s-32.167 -21.833 -42.5 -38.5s-15.5 -36 -15.5 -58s5.16699 -41.333 15.5 -58s24.5 -29.667 42.5 -39s38.333 -14 61 -14zM347.998 605.001c-28.667 0 -52.334 9.16699 -71.001 27.5s-28 42.166 -28 71.499c0 28.667 9.33301 52.167 28 70.5
s42.334 27.5 71.001 27.5s52.334 -9.16699 71.001 -27.5s28 -41.833 28 -70.5c0 -29.333 -9.33301 -53.166 -28 -71.499s-42.334 -27.5 -71.001 -27.5z" />
    <glyph glyph-name="uni0122" unicode="&#x122;" horiz-adv-x="770" 
d="M420 -14c-55.333 0 -106.668 8.83496 -154.001 26.502s-88.166 42.834 -122.499 75.501s-61.166 71.167 -80.499 115.5s-29 93.166 -29 146.499s9.66699 102.166 29 146.499s46.333 82.833 81 115.5s75.834 57.834 123.501 75.501s99.834 26.5 156.501 26.5
c66 0 125 -11 177 -33s95 -53.667 129 -95l-126 -114c-24 26 -49.833 45.5 -77.5 58.5s-58.5 19.5 -92.5 19.5c-30 0 -57.333 -4.66699 -82 -14s-45.667 -22.833 -63 -40.5s-30.833 -38.667 -40.5 -63s-14.5 -51.833 -14.5 -82.5c0 -29.333 4.83301 -56.333 14.5 -81
s23.167 -45.834 40.5 -63.501s38.166 -31.334 62.499 -41.001s51.166 -14.5 80.499 -14.5s58 4.83301 86 14.5s56.333 26.167 85 49.5l111 -139c-40 -28.667 -86.333 -50.667 -139 -66s-104.334 -23 -155.001 -23zM538.998 101.002v264h175v-290zM342.998 -267.998
l44.001 136.001l21 -63c-26 0 -45.667 6 -59 18s-20 28 -20 48s7 36.167 21 48.5s33.333 18.5 58 18.5s44 -6.16699 58 -18.5s21 -28.5 21 -48.5c0 -8.66699 -1.33301 -18.834 -4 -30.501s-8.33398 -25.5 -17.001 -41.5l-37 -67h-86z" />
    <glyph glyph-name="uni0123" unicode="&#x123;" horiz-adv-x="705" 
d="M326 -203c-52 0 -101.502 6 -148.502 18s-87.167 29.667 -120.5 53l69 133c22.667 -18 50.834 -32.167 84.501 -42.5s66.5 -15.5 98.5 -15.5c51.333 0 88.333 11.167 111 33.5s34 54.833 34 97.5v64l10 152l-1 153v99h181v-443c0 -102.667 -27.667 -178.667 -83 -228
s-133.666 -74 -234.999 -74zM292.998 28c-48 0 -92.167 10.834 -132.5 32.501s-72.666 52 -96.999 91s-36.5 85.167 -36.5 138.5s12.167 99.5 36.5 138.5s56.666 69.167 96.999 90.5s84.5 32 132.5 32c46 0 85.333 -9.16699 118 -27.5s57.5 -46.833 74.5 -85.5
s25.5 -88 25.5 -148s-8.5 -109.333 -25.5 -148s-41.833 -67.334 -74.5 -86.001s-72 -28 -118 -28zM337.998 179.001c22.667 0 42.834 4.66699 60.501 14s31.667 22.333 42 39s15.5 36 15.5 58s-5.16699 41.333 -15.5 58s-24.333 29.5 -42 38.5s-37.834 13.5 -60.501 13.5
s-43 -4.5 -61 -13.5s-32.167 -21.833 -42.5 -38.5s-15.5 -36 -15.5 -58s5.16699 -41.333 15.5 -58s24.5 -29.667 42.5 -39s38.333 -14 61 -14zM347.998 598.001c-31.333 0 -54.6689 6.16797 -70.002 18.501s-23 28.5 -23 48.5c0 8.66699 1.83301 18.667 5.5 30
s10.5 25.333 20.5 42l49 88h101l-58 -157l-25 63c30.667 0 53.834 -5.83301 69.501 -17.5s23.5 -27.834 23.5 -48.501c0 -20 -7.66699 -36.167 -23 -48.5s-38.666 -18.5 -69.999 -18.5z" />
    <glyph glyph-name="Hcircumflex" unicode="&#x124;" horiz-adv-x="806" 
d="M538 700h198v-700h-198v700zM268 0h-198v700h198v-700zM552 273h-298v164h298v-164zM191 757l130 152h164l130 -152h-126l-141 125h110l-141 -125h-126z" />
    <glyph glyph-name="hcircumflex" unicode="&#x125;" horiz-adv-x="696" 
d="M414 551c42 0 80 -8.50098 114 -25.501s60.833 -43.167 80.5 -78.5s29.5 -81 29.5 -137v-310h-190v279c0 38.667 -7.83301 66.834 -23.5 84.501s-37.5 26.5 -65.5 26.5c-20 0 -38.333 -4.5 -55 -13.5s-29.667 -22.833 -39 -41.5s-14 -43 -14 -73v-262h-190v742h190v-354
l-44 45c20.667 39.333 49 68.833 85 88.5s76.667 29.5 122 29.5zM-56 798.999l130 152h164l130 -152h-126l-141 125h110l-141 -125h-126z" />
    <glyph glyph-name="Hbar" unicode="&#x126;" horiz-adv-x="839" 
d="M555 700h198v-700h-198v700zM285 0h-198v700h198v-700zM569 273h-298v164h298v-164zM-4 509v121h847v-121h-847z" />
    <glyph glyph-name="hbar" unicode="&#x127;" horiz-adv-x="696" 
d="M414 551c42 0 80 -8.50098 114 -25.501s60.833 -43.167 80.5 -78.5s29.5 -81 29.5 -137v-310h-190v279c0 38.667 -7.83301 66.834 -23.5 84.501s-37.5 26.5 -65.5 26.5c-20 0 -38.333 -4.5 -55 -13.5s-29.667 -22.833 -39 -41.5s-14 -43 -14 -73v-262h-190v742h190v-354
l-44 45c20.667 39.333 49 68.833 85 88.5s76.667 29.5 122 29.5zM0 588.999v99h420v-99h-420z" />
    <glyph glyph-name="Itilde" unicode="&#x128;" horiz-adv-x="339" 
d="M70 0v700h198v-700h-198zM247 750c-18 0 -33.8311 3.16602 -47.498 9.49902s-26.167 13.5 -37.5 21.5l-31 21.5c-9.33301 6.33301 -18.666 9.5 -27.999 9.5c-13.333 0 -24 -4.66699 -32 -14s-12.667 -22.333 -14 -39h-93c1.33301 48.667 13.166 87.334 35.499 116.001
s52.833 43 91.5 43c18 0 34 -3 48 -9s26.5 -13.167 37.5 -21.5s21.333 -15.5 31 -21.5s18.834 -9 27.501 -9c13.333 0 24.166 4.5 32.499 13.5s12.833 21.167 13.5 36.5h93c-0.666992 -46.667 -12.334 -84.5 -35.001 -113.5s-53.334 -43.5 -92.001 -43.5z" />
    <glyph glyph-name="itilde" unicode="&#x129;" horiz-adv-x="313" 
d="M61 0v542h190v-542h-190zM225 600c-16 0 -30.502 3.33105 -43.502 9.99805s-24.333 14.334 -34 23.001l-26 22.5c-7.66699 6.33301 -14.834 9.5 -21.501 9.5c-10 0 -17.5 -4.83301 -22.5 -14.5s-7.5 -23.5 -7.5 -41.5h-91c0 52.667 9.33301 92.334 28 119.001
s45.334 40 80.001 40c16.667 0 31.334 -3.16699 44.001 -9.5s23.834 -13.833 33.501 -22.5l26 -22.5c7.66699 -6.33301 14.834 -9.5 21.501 -9.5c10 0 17.5 4.5 22.5 13.5s7.5 22.167 7.5 39.5h91c0 -51.333 -9.33301 -90.333 -28 -117s-45.334 -40 -80.001 -40z" />
    <glyph glyph-name="Imacron" unicode="&#x12a;" horiz-adv-x="339" 
d="M70 0v700h198v-700h-198zM9 781v102h320v-102h-320z" />
    <glyph glyph-name="imacron" unicode="&#x12b;" horiz-adv-x="313" 
d="M61 0v542h190v-542h-190zM-4 632v102h320v-102h-320z" />
    <glyph glyph-name="Ibreve" unicode="&#x12c;" horiz-adv-x="339" 
d="M70 0v700h198v-700h-198zM169 748c-56 0 -102.167 14.333 -138.5 43s-55.5 68 -57.5 118h116c1.33301 -20.667 9.5 -36.834 24.5 -48.501s33.5 -17.5 55.5 -17.5s40.667 5.83301 56 17.5s23.333 27.834 24 48.501h116c-2 -50 -21.167 -89.333 -57.5 -118
s-82.5 -43 -138.5 -43z" />
    <glyph glyph-name="ibreve" unicode="&#x12d;" horiz-adv-x="313" 
d="M61 0v542h190v-542h-190zM156 598c-48.667 0 -89.1689 14.333 -121.502 43s-48.833 68 -49.5 118h111c0 -20.667 5.33301 -37.167 16 -49.5s25.334 -18.5 44.001 -18.5s33.334 6.16699 44.001 18.5s16 28.833 16 49.5h111c-0.666992 -50 -17 -89.333 -49 -118
s-72.667 -43 -122 -43z" />
    <glyph glyph-name="Iogonek" unicode="&#x12e;" horiz-adv-x="339" 
d="M70 0v700h198v-700h-198zM217 -236c-39.333 0 -71.168 10.666 -95.501 31.999s-36.5 50 -36.5 86c0 34 11.167 65.167 33.5 93.5s54.5 51.833 96.5 70.5l53 -46c-26 -18.667 -43.667 -36 -53 -52s-14 -32.333 -14 -49c0 -13.333 3.83301 -24.166 11.5 -32.499
s17.167 -12.5 28.5 -12.5c5.33301 0 10.833 1 16.5 3s10.834 4.66699 15.501 8l23 -79c-20.667 -14.667 -47 -22 -79 -22z" />
    <glyph glyph-name="iogonek" unicode="&#x12f;" horiz-adv-x="313" 
d="M61 0v542h190v-542h-190zM156 602c-34.667 0 -62.667 9.66699 -84 29s-32 43.333 -32 72s10.667 52.667 32 72s49.333 29 84 29s62.667 -9.16699 84 -27.5s32 -41.833 32 -70.5c0 -30 -10.5 -54.833 -31.5 -74.5s-49.167 -29.5 -84.5 -29.5zM200 -236
c-39.333 0 -71.168 10.666 -95.501 31.999s-36.5 50 -36.5 86c0 34 11.167 65.167 33.5 93.5s54.5 51.833 96.5 70.5l53 -46c-26 -18.667 -43.667 -36 -53 -52s-14 -32.333 -14 -49c0 -13.333 3.83301 -24.166 11.5 -32.499s17.167 -12.5 28.5 -12.5
c5.33301 0 10.833 1 16.5 3s10.834 4.66699 15.501 8l23 -79c-20.667 -14.667 -47 -22 -79 -22z" />
    <glyph glyph-name="Idotaccent" unicode="&#x130;" horiz-adv-x="339" 
d="M70 0v700h198v-700h-198zM169 755c-28.667 0 -52.334 9.16699 -71.001 27.5s-28 42.166 -28 71.499c0 28.667 9.33301 52.167 28 70.5s42.334 27.5 71.001 27.5s52.334 -9.16699 71.001 -27.5s28 -41.833 28 -70.5c0 -29.333 -9.33301 -53.166 -28 -71.499
s-42.334 -27.5 -71.001 -27.5z" />
    <glyph glyph-name="dotlessi" unicode="&#x131;" horiz-adv-x="313" 
d="M61 0v542h190v-542h-190z" />
    <glyph glyph-name="IJ" unicode="&#x132;" horiz-adv-x="727" 
d="M328 -14c-56.667 0 -109 7.33398 -157 22.001s-89.333 34.334 -124 59.001l72 144c32.667 -20.667 66.5 -36.5 101.5 -47.5s68.5 -16.5 100.5 -16.5c48 0 83.833 13.167 107.5 39.5s35.5 67.166 35.5 122.499v391h198v-380c0 -72 -13.833 -132.833 -41.5 -182.5
s-66.667 -87.334 -117 -113.001s-108.833 -38.5 -175.5 -38.5zM64 329.001v371h198v-371h-198z" />
    <glyph glyph-name="ij" unicode="&#x133;" horiz-adv-x="633" 
d="M61 0v542h190v-542h-190zM156 602c-34.667 0 -62.667 9.66699 -84 29s-32 43.333 -32 72s10.667 52.667 32 72s49.333 29 84 29s62.667 -9.16699 84 -27.5s32 -41.833 32 -70.5c0 -30 -10.5 -54.833 -31.5 -74.5s-49.167 -29.5 -84.5 -29.5zM351 -203
c-25.333 0 -49.5 2.5 -72.5 7.5s-42.833 11.833 -59.5 20.5l48 135c17.333 -10.667 37 -16 59 -16c16.667 0 30.167 5.66699 40.5 17s15.5 29.333 15.5 54v527h190v-528c0 -66 -19.333 -118.667 -58 -158s-93 -59 -163 -59zM477 602c-34.667 0 -62.667 9.66699 -84 29
s-32 43.333 -32 72s10.667 52.667 32 72s49.333 29 84 29s62.667 -9.16699 84 -27.5s32 -41.833 32 -70.5c0 -30 -10.5 -54.833 -31.5 -74.5s-49.167 -29.5 -84.5 -29.5z" />
    <glyph glyph-name="Jcircumflex" unicode="&#x134;" horiz-adv-x="557" 
d="M223 -14c-51.333 0 -97.833 8.83301 -139.5 26.5s-76.167 43.167 -103.5 76.5l108 128c18.667 -24 38 -42.167 58 -54.5s41 -18.5 63 -18.5c58.667 0 88 34 88 102v301h-242v153h438v-442c0 -91.333 -23 -159.5 -69 -204.5s-113 -67.5 -201 -67.5zM62 757l130 152h164
l130 -152h-126l-141 125h110l-141 -125h-126z" />
    <glyph glyph-name="jcircumflex" unicode="&#x135;" horiz-adv-x="320" 
d="M38 -203c-25.333 0 -49.5 2.5 -72.5 7.5s-42.833 11.833 -59.5 20.5l48 135c17.333 -10.667 37 -16 59 -16c16.667 0 30.167 5.66699 40.5 17s15.5 29.333 15.5 54v527h190v-528c0 -66 -19.333 -118.667 -58 -158s-93 -59 -163 -59zM-23 607l107 152h160l107 -152h-125
l-113 125h102l-113 -125h-125z" />
    <glyph glyph-name="uni0136" unicode="&#x136;" horiz-adv-x="752" 
d="M247 155l-11 222l301 323h218l-300 -325l-110 -115zM70 0v700h196v-700h-196zM540 0l-228 289l129 138l329 -427h-230zM317 -268l44.001 136.001l21 -63c-26 0 -45.667 6 -59 18s-20 28 -20 48s7 36.167 21 48.5s33.333 18.5 58 18.5s44 -6.16699 58 -18.5
s21 -28.5 21 -48.5c0 -8.66699 -1.33301 -18.834 -4 -30.501s-8.33398 -25.5 -17.001 -41.5l-37 -67h-86z" />
    <glyph glyph-name="uni0137" unicode="&#x137;" horiz-adv-x="686" 
d="M219 100l5 227l221 215h225l-245 -253l-97 -78zM61 0v742h190v-742h-190zM459 0l-166 208l118 146l278 -354h-230zM255 -268l44.001 136.001l21 -63c-26 0 -45.667 6 -59 18s-20 28 -20 48s7 36.167 21 48.5s33.333 18.5 58 18.5s44 -6.16699 58 -18.5s21 -28.5 21 -48.5
c0 -8.66699 -1.33301 -18.834 -4 -30.501s-8.33398 -25.5 -17.001 -41.5l-37 -67h-86z" />
    <glyph glyph-name="kgreenlandic" unicode="&#x138;" horiz-adv-x="667" 
d="M219 100l5 227l221 215h225l-245 -253l-97 -78zM61 0v542h190v-542h-190zM459 0l-166 208l118 146l278 -354h-230z" />
    <glyph glyph-name="Lacute" unicode="&#x139;" horiz-adv-x="610" 
d="M70 0v700h198v-543h334v-157h-532zM71 757l134 152h190l-188 -152h-136z" />
    <glyph glyph-name="lacute" unicode="&#x13a;" horiz-adv-x="313" 
d="M61 0v742h190v-742h-190zM58 807l134 152h190l-188 -152h-136z" />
    <glyph glyph-name="uni013B" unicode="&#x13b;" horiz-adv-x="610" 
d="M70 0v700h198v-543h334v-157h-532zM283 -268l44.001 136.001l21 -63c-26 0 -45.667 6 -59 18s-20 28 -20 48s7 36.167 21 48.5s33.333 18.5 58 18.5s44 -6.16699 58 -18.5s21 -28.5 21 -48.5c0 -8.66699 -1.33301 -18.834 -4 -30.501s-8.33398 -25.5 -17.001 -41.5
l-37 -67h-86z" />
    <glyph glyph-name="uni013C" unicode="&#x13c;" horiz-adv-x="313" 
d="M61 0v742h190v-742h-190zM91 -268l44.001 136.001l21 -63c-26 0 -45.667 6 -59 18s-20 28 -20 48s7 36.167 21 48.5s33.333 18.5 58 18.5s44 -6.16699 58 -18.5s21 -28.5 21 -48.5c0 -8.66699 -1.33301 -18.834 -4 -30.501s-8.33398 -25.5 -17.001 -41.5l-37 -67h-86z
" />
    <glyph glyph-name="Lcaron" unicode="&#x13d;" horiz-adv-x="610" 
d="M70 0v700h198v-543h334v-157h-532zM427 540v205h137l-25 -205h-112z" />
    <glyph glyph-name="lcaron" unicode="&#x13e;" horiz-adv-x="313" 
d="M61 0v742h190v-742h-190zM326 582v205h137l-25 -205h-112z" />
    <glyph glyph-name="Ldot" unicode="&#x13f;" horiz-adv-x="610" 
d="M70 0v700h198v-543h334v-157h-532zM475 328c-28.667 0 -52.334 9.33301 -71.001 28s-28 42.667 -28 72s9.33301 53.333 28 72s42.334 28 71.001 28s52.334 -9.33301 71.001 -28s28 -42.667 28 -72s-9.33301 -53.333 -28 -72s-42.334 -28 -71.001 -28z" />
    <glyph glyph-name="ldot" unicode="&#x140;" horiz-adv-x="462" 
d="M61 0v742h190v-742h-190zM387 276c-26 0 -47.5 8.5 -64.5 25.5s-25.5 38.5 -25.5 64.5s8.5 47.5 25.5 64.5s38.5 25.5 64.5 25.5c26.667 0 48.5 -8.5 65.5 -25.5s25.5 -38.5 25.5 -64.5s-8.5 -47.5 -25.5 -64.5s-38.833 -25.5 -65.5 -25.5z" />
    <glyph glyph-name="Lslash" unicode="&#x141;" horiz-adv-x="627" 
d="M87 0v700h198v-543h334v-157h-532zM40 216l-64 88l409 306l64 -89z" />
    <glyph glyph-name="lslash" unicode="&#x142;" horiz-adv-x="346" 
d="M78 0v742h190v-742h-190zM27 189l-64 89l357 266l63 -90z" />
    <glyph glyph-name="Nacute" unicode="&#x143;" horiz-adv-x="806" 
d="M70 0v700h163l386 -466h-77v466h194v-700h-163l-386 466h77v-466h-194zM305 757l134 152h190l-188 -152h-136z" />
    <glyph glyph-name="nacute" unicode="&#x144;" horiz-adv-x="696" 
d="M414 551c42 0 80 -8.50098 114 -25.501s60.833 -43.167 80.5 -78.5s29.5 -81 29.5 -137v-310h-190v279c0 38.667 -7.83301 66.834 -23.5 84.501s-37.5 26.5 -65.5 26.5c-20 0 -38.333 -4.5 -55 -13.5s-29.667 -22.833 -39 -41.5s-14 -43 -14 -73v-262h-190v542h181v-154
l-35 45c20.667 39.333 49 68.833 85 88.5s76.667 29.5 122 29.5zM254 606.999l134 152h190l-188 -152h-136z" />
    <glyph glyph-name="uni0145" unicode="&#x145;" horiz-adv-x="806" 
d="M70 0v700h163l386 -466h-77v466h194v-700h-163l-386 466h77v-466h-194zM338 -268l44.001 136.001l21 -63c-26 0 -45.667 6 -59 18s-20 28 -20 48s7 36.167 21 48.5s33.333 18.5 58 18.5s44 -6.16699 58 -18.5s21 -28.5 21 -48.5c0 -8.66699 -1.33301 -18.834 -4 -30.501
s-8.33398 -25.5 -17.001 -41.5l-37 -67h-86z" />
    <glyph glyph-name="uni0146" unicode="&#x146;" horiz-adv-x="696" 
d="M414 551c42 0 80 -8.50098 114 -25.501s60.833 -43.167 80.5 -78.5s29.5 -81 29.5 -137v-310h-190v279c0 38.667 -7.83301 66.834 -23.5 84.501s-37.5 26.5 -65.5 26.5c-20 0 -38.333 -4.5 -55 -13.5s-29.667 -22.833 -39 -41.5s-14 -43 -14 -73v-262h-190v542h181v-154
l-35 45c20.667 39.333 49 68.833 85 88.5s76.667 29.5 122 29.5zM287 -268.001l44.001 136.001l21 -63c-26 0 -45.667 6 -59 18s-20 28 -20 48s7 36.167 21 48.5s33.333 18.5 58 18.5s44 -6.16699 58 -18.5s21 -28.5 21 -48.5c0 -8.66699 -1.33301 -18.834 -4 -30.501
s-8.33398 -25.5 -17.001 -41.5l-37 -67h-86z" />
    <glyph glyph-name="Ncaron" unicode="&#x147;" horiz-adv-x="806" 
d="M70 0v700h163l386 -466h-77v466h194v-700h-163l-386 466h77v-466h-194zM321 757l-130 152h126l141 -124h-110l141 124h126l-130 -152h-164z" />
    <glyph glyph-name="ncaron" unicode="&#x148;" horiz-adv-x="696" 
d="M414 551c42 0 80 -8.50098 114 -25.501s60.833 -43.167 80.5 -78.5s29.5 -81 29.5 -137v-310h-190v279c0 38.667 -7.83301 66.834 -23.5 84.501s-37.5 26.5 -65.5 26.5c-20 0 -38.333 -4.5 -55 -13.5s-29.667 -22.833 -39 -41.5s-14 -43 -14 -73v-262h-190v542h181v-154
l-35 45c20.667 39.333 49 68.833 85 88.5s76.667 29.5 122 29.5zM270 606.999l-130 152h126l141 -124h-110l141 124h126l-130 -152h-164z" />
    <glyph glyph-name="napostrophe" unicode="&#x149;" horiz-adv-x="837" 
d="M-11 378l74.9971 260l27 -108c-33.333 0 -60.666 9.83301 -81.999 29.5s-32 46.167 -32 79.5c0 34 10.833 61.167 32.5 81.5s48.834 30.5 81.501 30.5s59.667 -10.167 81 -30.5s32 -47.5 32 -81.5c0 -9.33301 -0.666992 -18.833 -2 -28.5s-4.16602 -21 -8.49902 -34
s-11.5 -30.5 -21.5 -52.5l-64 -146h-119zM554.997 551c42 0 80 -8.50098 114 -25.501s60.833 -43.167 80.5 -78.5s29.5 -81 29.5 -137v-310h-190v279c0 38.667 -7.83301 66.834 -23.5 84.501s-37.5 26.5 -65.5 26.5c-20 0 -38.333 -4.5 -55 -13.5s-29.667 -22.833 -39 -41.5
s-14 -43 -14 -73v-262h-190v542h181v-154l-35 45c20.667 39.333 49 68.833 85 88.5s76.667 29.5 122 29.5z" />
    <glyph glyph-name="Eng" unicode="&#x14a;" horiz-adv-x="806" 
d="M70 0v700h163l386 -466l-46 -234l-386 466h77v-466h-194zM469 -203c-37.333 0 -72.168 4.83301 -104.501 14.5s-61.5 24.5 -87.5 44.5l91 134c12.667 -11.333 26.167 -20 40.5 -26s29.833 -9 46.5 -9c58 0 87 34 87 102v643h194v-614c0 -100 -22.667 -173.167 -68 -219.5
s-111.666 -69.5 -198.999 -69.5z" />
    <glyph glyph-name="eng" unicode="&#x14b;" horiz-adv-x="696" 
d="M414 551c42 0 80 -8.50098 114 -25.501s60.833 -43.167 80.5 -78.5s29.5 -81 29.5 -137v-296c0 -66 -19.333 -118.667 -58 -158s-93 -59 -163 -59c-25.333 0 -49.5 2.5 -72.5 7.5s-42.833 11.833 -59.5 20.5l48 135c17.333 -10.667 37 -16 59 -16
c16.667 0 30.167 5.66699 40.5 17s15.5 29.333 15.5 54v264c0 38.667 -7.83301 66.834 -23.5 84.501s-37.5 26.5 -65.5 26.5c-20 0 -38.333 -4.5 -55 -13.5s-29.667 -22.833 -39 -41.5s-14 -43 -14 -73v-262h-190v542h181v-154l-35 45c20.667 39.333 49 68.833 85 88.5
s76.667 29.5 122 29.5z" />
    <glyph glyph-name="Omacron" unicode="&#x14c;" horiz-adv-x="846" 
d="M423 -14c-56 0 -107.667 9 -155 27s-88.5 43.5 -123.5 76.5s-62.167 71.5 -81.5 115.5s-29 92.333 -29 145s9.66699 101 29 145s46.5 82.5 81.5 115.5s76.167 58.5 123.5 76.5s99 27 155 27c56.667 0 108.5 -9 155.5 -27s87.833 -43.5 122.5 -76.5
s61.834 -71.5 81.501 -115.5s29.5 -92.333 29.5 -145s-9.83301 -101.167 -29.5 -145.5s-46.834 -82.833 -81.501 -115.5s-75.5 -58 -122.5 -76s-98.833 -27 -155.5 -27zM423 150c26.667 0 51.5 4.66699 74.5 14s43 22.833 60 40.5s30.333 38.834 40 63.501s14.5 52 14.5 82
c0 30.667 -4.83301 58.167 -14.5 82.5s-23 45.333 -40 63s-37 31.167 -60 40.5s-47.833 14 -74.5 14s-51.5 -4.66699 -74.5 -14s-43 -22.833 -60 -40.5s-30.333 -38.667 -40 -63s-14.5 -51.833 -14.5 -82.5c0 -30 4.83301 -57.333 14.5 -82s23 -45.834 40 -63.501
s37 -31.167 60 -40.5s47.833 -14 74.5 -14zM226 782v102h394v-102h-394z" />
    <glyph glyph-name="omacron" unicode="&#x14d;" horiz-adv-x="666" 
d="M333 -9c-59.333 0 -112 12 -158 36s-82.167 57.167 -108.5 99.5s-39.5 90.833 -39.5 145.5s13.167 103 39.5 145s62.5 74.833 108.5 98.5s98.667 35.5 158 35.5s112.166 -11.833 158.499 -35.5s82.5 -56.5 108.5 -98.5s39 -90.333 39 -145s-13 -103.167 -39 -145.5
s-62.167 -75.5 -108.5 -99.5s-99.166 -36 -158.499 -36zM333 142c22 0 41.5 5 58.5 15s30.5 24.833 40.5 44.5s15 43.167 15 70.5s-5 50.5 -15 69.5s-23.5 33.5 -40.5 43.5s-36.5 15 -58.5 15c-21.333 0 -40.5 -5 -57.5 -15s-30.667 -24.5 -41 -43.5
s-15.5 -42.167 -15.5 -69.5s5.16699 -50.833 15.5 -70.5s24 -34.5 41 -44.5s36.167 -15 57.5 -15zM134 632v102h394v-102h-394z" />
    <glyph glyph-name="Obreve" unicode="&#x14e;" horiz-adv-x="846" 
d="M423 -14c-56 0 -107.667 9 -155 27s-88.5 43.5 -123.5 76.5s-62.167 71.5 -81.5 115.5s-29 92.333 -29 145s9.66699 101 29 145s46.5 82.5 81.5 115.5s76.167 58.5 123.5 76.5s99 27 155 27c56.667 0 108.5 -9 155.5 -27s87.833 -43.5 122.5 -76.5
s61.834 -71.5 81.501 -115.5s29.5 -92.333 29.5 -145s-9.83301 -101.167 -29.5 -145.5s-46.834 -82.833 -81.501 -115.5s-75.5 -58 -122.5 -76s-98.833 -27 -155.5 -27zM423 150c26.667 0 51.5 4.66699 74.5 14s43 22.833 60 40.5s30.333 38.834 40 63.501s14.5 52 14.5 82
c0 30.667 -4.83301 58.167 -14.5 82.5s-23 45.333 -40 63s-37 31.167 -60 40.5s-47.833 14 -74.5 14s-51.5 -4.66699 -74.5 -14s-43 -22.833 -60 -40.5s-30.333 -38.667 -40 -63s-14.5 -51.833 -14.5 -82.5c0 -30 4.83301 -57.333 14.5 -82s23 -45.834 40 -63.501
s37 -31.167 60 -40.5s47.833 -14 74.5 -14zM423 748c-56 0 -102.167 14.333 -138.5 43s-55.5 68 -57.5 118h116c1.33301 -20.667 9.5 -36.834 24.5 -48.501s33.5 -17.5 55.5 -17.5s40.667 5.83301 56 17.5s23.333 27.834 24 48.501h116c-2 -50 -21.167 -89.333 -57.5 -118
s-82.5 -43 -138.5 -43z" />
    <glyph glyph-name="obreve" unicode="&#x14f;" horiz-adv-x="666" 
d="M333 -9c-59.333 0 -112 12 -158 36s-82.167 57.167 -108.5 99.5s-39.5 90.833 -39.5 145.5s13.167 103 39.5 145s62.5 74.833 108.5 98.5s98.667 35.5 158 35.5s112.166 -11.833 158.499 -35.5s82.5 -56.5 108.5 -98.5s39 -90.333 39 -145s-13 -103.167 -39 -145.5
s-62.167 -75.5 -108.5 -99.5s-99.166 -36 -158.499 -36zM333 142c22 0 41.5 5 58.5 15s30.5 24.833 40.5 44.5s15 43.167 15 70.5s-5 50.5 -15 69.5s-23.5 33.5 -40.5 43.5s-36.5 15 -58.5 15c-21.333 0 -40.5 -5 -57.5 -15s-30.667 -24.5 -41 -43.5
s-15.5 -42.167 -15.5 -69.5s5.16699 -50.833 15.5 -70.5s24 -34.5 41 -44.5s36.167 -15 57.5 -15zM331 598c-56 0 -102.167 14.333 -138.5 43s-55.5 68 -57.5 118h116c1.33301 -20.667 9.5 -36.834 24.5 -48.501s33.5 -17.5 55.5 -17.5s40.667 5.83301 56 17.5
s23.333 27.834 24 48.501h116c-2 -50 -21.167 -89.333 -57.5 -118s-82.5 -43 -138.5 -43z" />
    <glyph glyph-name="Ohungarumlaut" unicode="&#x150;" horiz-adv-x="846" 
d="M423 -14c-56 0 -107.667 9 -155 27s-88.5 43.5 -123.5 76.5s-62.167 71.5 -81.5 115.5s-29 92.333 -29 145s9.66699 101 29 145s46.5 82.5 81.5 115.5s76.167 58.5 123.5 76.5s99 27 155 27c56.667 0 108.5 -9 155.5 -27s87.833 -43.5 122.5 -76.5
s61.834 -71.5 81.501 -115.5s29.5 -92.333 29.5 -145s-9.83301 -101.167 -29.5 -145.5s-46.834 -82.833 -81.501 -115.5s-75.5 -58 -122.5 -76s-98.833 -27 -155.5 -27zM423 150c26.667 0 51.5 4.66699 74.5 14s43 22.833 60 40.5s30.333 38.834 40 63.501s14.5 52 14.5 82
c0 30.667 -4.83301 58.167 -14.5 82.5s-23 45.333 -40 63s-37 31.167 -60 40.5s-47.833 14 -74.5 14s-51.5 -4.66699 -74.5 -14s-43 -22.833 -60 -40.5s-30.333 -38.667 -40 -63s-14.5 -51.833 -14.5 -82.5c0 -30 4.83301 -57.333 14.5 -82s23 -45.834 40 -63.501
s37 -31.167 60 -40.5s47.833 -14 74.5 -14zM466 757l62 152h170l-100 -152h-132zM248 757l63 152h170l-101 -152h-132z" />
    <glyph glyph-name="ohungarumlaut" unicode="&#x151;" horiz-adv-x="666" 
d="M333 -9c-59.333 0 -112 12 -158 36s-82.167 57.167 -108.5 99.5s-39.5 90.833 -39.5 145.5s13.167 103 39.5 145s62.5 74.833 108.5 98.5s98.667 35.5 158 35.5s112.166 -11.833 158.499 -35.5s82.5 -56.5 108.5 -98.5s39 -90.333 39 -145s-13 -103.167 -39 -145.5
s-62.167 -75.5 -108.5 -99.5s-99.166 -36 -158.499 -36zM333 142c22 0 41.5 5 58.5 15s30.5 24.833 40.5 44.5s15 43.167 15 70.5s-5 50.5 -15 69.5s-23.5 33.5 -40.5 43.5s-36.5 15 -58.5 15c-21.333 0 -40.5 -5 -57.5 -15s-30.667 -24.5 -41 -43.5
s-15.5 -42.167 -15.5 -69.5s5.16699 -50.833 15.5 -70.5s24 -34.5 41 -44.5s36.167 -15 57.5 -15zM374 607l62 152h170l-100 -152h-132zM156 607l63 152h170l-101 -152h-132z" />
    <glyph glyph-name="OE" unicode="&#x152;" horiz-adv-x="1142" 
d="M425 0c-77.333 0 -145.333 14.3359 -204 43.0029s-104.5 69.167 -137.5 121.5s-49.5 114.166 -49.5 185.499s16.5 133.166 49.5 185.499s78.833 92.833 137.5 121.5s126.667 43 204 43h166v-158h-158c-39.333 0 -74 -7.5 -104 -22.5s-53.333 -36.833 -70 -65.5
s-25 -63.334 -25 -104.001c0 -40 8.33301 -74.5 25 -103.5s40 -51 70 -66s64.667 -22.5 104 -22.5h158v-158h-166zM722 429.003h325v-148h-325v148zM736 153.003h366v-153h-561v700h548v-153h-353v-394z" />
    <glyph glyph-name="oe" unicode="&#x153;" horiz-adv-x="1063" 
d="M330 -9c-58 0 -109.833 12 -155.5 36s-81.667 57.167 -108 99.5s-39.5 90.833 -39.5 145.5s13.167 103 39.5 145s62.333 74.833 108 98.5s97.5 35.5 155.5 35.5c58.667 0 109.167 -11.833 151.5 -35.5s75 -56.5 98 -98.5s34.5 -90.333 34.5 -145
s-11.5 -103.167 -34.5 -145.5s-55.667 -75.5 -98 -99.5s-92.833 -36 -151.5 -36zM333 142c22 0 41.5 5 58.5 15s30.5 24.833 40.5 44.5s15 43.167 15 70.5s-5 50.5 -15 69.5s-23.5 33.5 -40.5 43.5s-36.5 15 -58.5 15c-21.333 0 -40.5 -5 -57.5 -15s-30.667 -24.5 -41 -43.5
s-15.5 -42.167 -15.5 -69.5s5.16699 -50.833 15.5 -70.5s24 -34.5 41 -44.5s36.167 -15 57.5 -15zM766 -9c-63.333 0 -117.668 12.167 -163.001 36.5s-80 57.666 -104 99.999s-36 90.5 -36 144.5s11.833 102.167 35.5 144.5s56.834 75.333 99.501 99s92 35.5 148 35.5
c52.667 0 101 -10.833 145 -32.5s79.167 -53.334 105.5 -95.001s39.5 -92.167 39.5 -151.5c0 -8.66699 -0.166992 -17.167 -0.5 -25.5s-1.16602 -16.166 -2.49902 -23.499h-416v100h282l-41 -28c0 24.667 -4.5 46 -13.5 64s-22 32 -39 42s-36.833 15 -59.5 15
c-23.333 0 -43.5 -5 -60.5 -15s-30.333 -24.167 -40 -42.5s-14.5 -39.833 -14.5 -64.5v-29c0 -26.667 5.5 -49.667 16.5 -69s27.167 -34.166 48.5 -44.499s46.333 -15.5 75 -15.5c24.667 0 46.667 3.83301 66 11.5s38.333 19.5 57 35.5l103 -104
c-26.667 -28.667 -59.834 -50.5 -99.501 -65.5s-83.5 -22.5 -131.5 -22.5z" />
    <glyph glyph-name="Racute" unicode="&#x154;" horiz-adv-x="740" 
d="M70 0v699.999h320c64 0 119.167 -10.333 165.5 -31s82.166 -50.5 107.499 -89.5s38 -85.167 38 -138.5c0 -52.667 -12.667 -98.167 -38 -136.5s-61.166 -67.666 -107.499 -87.999s-101.5 -30.5 -165.5 -30.5h-210l88 83v-269h-198zM503 -0.000976562l-174 255h211
l175 -255h-212zM268 247.999l-88 91h198c41.333 0 72.166 9 92.499 27s30.5 43 30.5 75c0 32.667 -10.167 58 -30.5 76s-51.166 27 -92.499 27h-198l88 91v-387zM279 756.999l134 152h190l-188 -152h-136z" />
    <glyph glyph-name="racute" unicode="&#x155;" horiz-adv-x="443" 
d="M61 0l-0.000976562 542.001h181v-158l-27 45c16 40.667 42 71.167 78 91.5s79.667 30.5 131 30.5v-171c-8.66699 1.33301 -16.167 2.16602 -22.5 2.49902s-13.166 0.5 -20.499 0.5c-38.667 0 -70 -10.5 -94 -31.5s-36 -55.167 -36 -102.5v-249h-190zM143.999 607.001
l134 152h190l-188 -152h-136z" />
    <glyph glyph-name="uni0156" unicode="&#x156;" horiz-adv-x="740" 
d="M70 0v699.999h320c64 0 119.167 -10.333 165.5 -31s82.166 -50.5 107.499 -89.5s38 -85.167 38 -138.5c0 -52.667 -12.667 -98.167 -38 -136.5s-61.166 -67.666 -107.499 -87.999s-101.5 -30.5 -165.5 -30.5h-210l88 83v-269h-198zM503 -0.000976562l-174 255h211
l175 -255h-212zM268 247.999l-88 91h198c41.333 0 72.166 9 92.499 27s30.5 43 30.5 75c0 32.667 -10.167 58 -30.5 76s-51.166 27 -92.499 27h-198l88 91v-387zM312 -268.001l44.001 136.001l21 -63c-26 0 -45.667 6 -59 18s-20 28 -20 48s7 36.167 21 48.5
s33.333 18.5 58 18.5s44 -6.16699 58 -18.5s21 -28.5 21 -48.5c0 -8.66699 -1.33301 -18.834 -4 -30.501s-8.33398 -25.5 -17.001 -41.5l-37 -67h-86z" />
    <glyph glyph-name="uni0157" unicode="&#x157;" horiz-adv-x="443" 
d="M61 0l-0.000976562 542.001h181v-158l-27 45c16 40.667 42 71.167 78 91.5s79.667 30.5 131 30.5v-171c-8.66699 1.33301 -16.167 2.16602 -22.5 2.49902s-13.166 0.5 -20.499 0.5c-38.667 0 -70 -10.5 -94 -31.5s-36 -55.167 -36 -102.5v-249h-190zM90.999 -267.999
l44.001 136.001l21 -63c-26 0 -45.667 6 -59 18s-20 28 -20 48s7 36.167 21 48.5s33.333 18.5 58 18.5s44 -6.16699 58 -18.5s21 -28.5 21 -48.5c0 -8.66699 -1.33301 -18.834 -4 -30.501s-8.33398 -25.5 -17.001 -41.5l-37 -67h-86z" />
    <glyph glyph-name="Rcaron" unicode="&#x158;" horiz-adv-x="740" 
d="M70 0v699.999h320c64 0 119.167 -10.333 165.5 -31s82.166 -50.5 107.499 -89.5s38 -85.167 38 -138.5c0 -52.667 -12.667 -98.167 -38 -136.5s-61.166 -67.666 -107.499 -87.999s-101.5 -30.5 -165.5 -30.5h-210l88 83v-269h-198zM503 -0.000976562l-174 255h211
l175 -255h-212zM268 247.999l-88 91h198c41.333 0 72.166 9 92.499 27s30.5 43 30.5 75c0 32.667 -10.167 58 -30.5 76s-51.166 27 -92.499 27h-198l88 91v-387zM295 756.999l-130 152h126l141 -124h-110l141 124h126l-130 -152h-164z" />
    <glyph glyph-name="rcaron" unicode="&#x159;" horiz-adv-x="443" 
d="M61 0l-0.000976562 542.001h181v-158l-27 45c16 40.667 42 71.167 78 91.5s79.667 30.5 131 30.5v-171c-8.66699 1.33301 -16.167 2.16602 -22.5 2.49902s-13.166 0.5 -20.499 0.5c-38.667 0 -70 -10.5 -94 -31.5s-36 -55.167 -36 -102.5v-249h-190zM159.999 607.001
l-130 152h126l141 -124h-110l141 124h126l-130 -152h-164z" />
    <glyph glyph-name="Sacute" unicode="&#x15a;" horiz-adv-x="647" 
d="M316 -14c-57.333 0 -112.5 7.16895 -165.5 21.502s-96.167 32.833 -129.5 55.5l65 146c31.333 -20 67.5 -36.5 108.5 -49.5s81.833 -19.5 122.5 -19.5c27.333 0 49.333 2.5 66 7.5s28.834 11.667 36.501 20s11.5 18.166 11.5 29.499c0 16 -7.33301 28.667 -22 38
s-33.667 17 -57 23s-49.166 12 -77.499 18s-56.666 13.667 -84.999 23s-54.166 21.5 -77.499 36.5s-42.333 34.667 -57 59s-22 55.166 -22 92.499c0 42 11.5 80 34.5 114s57.5 61.333 103.5 82s103.333 31 172 31c46 0 91.167 -5.16699 135.5 -15.5
s83.833 -25.5 118.5 -45.5l-61 -147c-33.333 18 -66.333 31.5 -99 40.5s-64.334 13.5 -95.001 13.5c-27.333 0 -49.333 -2.83301 -66 -8.5s-28.667 -13.167 -36 -22.5s-11 -20 -11 -32c0 -15.333 7.16699 -27.5 21.5 -36.5s33.333 -16.333 57 -22s49.667 -11.5 78 -17.5
s56.666 -13.5 84.999 -22.5s54.166 -21 77.499 -36s42.166 -34.667 56.499 -59s21.5 -54.833 21.5 -91.5c0 -40.667 -11.5 -78.167 -34.5 -112.5s-57.333 -61.833 -103 -82.5s-103.167 -31 -172.5 -31zM229 757.002l134 152h190l-188 -152h-136z" />
    <glyph glyph-name="sacute" unicode="&#x15b;" horiz-adv-x="547" 
d="M258 -9c-46 0 -90.8291 5.33496 -134.496 16.002s-78.834 24 -105.501 40l57 130c25.333 -15.333 55 -27.5 89 -36.5s67.333 -13.5 100 -13.5c32 0 54.167 3.33301 66.5 10s18.5 15.667 18.5 27c0 10.667 -5.83301 18.5 -17.5 23.5s-27 8.83301 -46 11.5l-62.5 9
c-22.667 3.33301 -45.5 7.83301 -68.5 13.5s-44 14.334 -63 26.001s-34.167 27.5 -45.5 47.5s-17 45.333 -17 76c0 34.667 10.167 65.5 30.5 92.5s50.166 48.333 89.499 64s87.333 23.5 144 23.5c38 0 76.5 -3.83301 115.5 -11.5s71.833 -19.167 98.5 -34.5l-57 -129
c-26.667 15.333 -53.334 25.833 -80.001 31.5s-52 8.5 -76 8.5c-32 0 -54.5 -3.66699 -67.5 -11s-19.5 -16.333 -19.5 -27s5.66699 -18.834 17 -24.501s26.5 -10 45.5 -13s39.833 -6 62.5 -9s45.5 -7.5 68.5 -13.5s44 -14.833 63 -26.5s34.167 -27.334 45.5 -47.001
s17 -44.834 17 -75.501c0 -33.333 -10.167 -63.333 -30.5 -90s-50.333 -48 -90 -64s-88.834 -24 -147.501 -24zM170.004 607.002l134 152h190l-188 -152h-136z" />
    <glyph glyph-name="Scircumflex" unicode="&#x15c;" horiz-adv-x="647" 
d="M316 -14c-57.333 0 -112.5 7.16895 -165.5 21.502s-96.167 32.833 -129.5 55.5l65 146c31.333 -20 67.5 -36.5 108.5 -49.5s81.833 -19.5 122.5 -19.5c27.333 0 49.333 2.5 66 7.5s28.834 11.667 36.501 20s11.5 18.166 11.5 29.499c0 16 -7.33301 28.667 -22 38
s-33.667 17 -57 23s-49.166 12 -77.499 18s-56.666 13.667 -84.999 23s-54.166 21.5 -77.499 36.5s-42.333 34.667 -57 59s-22 55.166 -22 92.499c0 42 11.5 80 34.5 114s57.5 61.333 103.5 82s103.333 31 172 31c46 0 91.167 -5.16699 135.5 -15.5
s83.833 -25.5 118.5 -45.5l-61 -147c-33.333 18 -66.333 31.5 -99 40.5s-64.334 13.5 -95.001 13.5c-27.333 0 -49.333 -2.83301 -66 -8.5s-28.667 -13.167 -36 -22.5s-11 -20 -11 -32c0 -15.333 7.16699 -27.5 21.5 -36.5s33.333 -16.333 57 -22s49.667 -11.5 78 -17.5
s56.666 -13.5 84.999 -22.5s54.166 -21 77.499 -36s42.166 -34.667 56.499 -59s21.5 -54.833 21.5 -91.5c0 -40.667 -11.5 -78.167 -34.5 -112.5s-57.333 -61.833 -103 -82.5s-103.167 -31 -172.5 -31zM115 757.002l130 152h164l130 -152h-126l-141 125h110l-141 -125h-126z
" />
    <glyph glyph-name="scircumflex" unicode="&#x15d;" horiz-adv-x="547" 
d="M258 -9c-46 0 -90.8291 5.33496 -134.496 16.002s-78.834 24 -105.501 40l57 130c25.333 -15.333 55 -27.5 89 -36.5s67.333 -13.5 100 -13.5c32 0 54.167 3.33301 66.5 10s18.5 15.667 18.5 27c0 10.667 -5.83301 18.5 -17.5 23.5s-27 8.83301 -46 11.5l-62.5 9
c-22.667 3.33301 -45.5 7.83301 -68.5 13.5s-44 14.334 -63 26.001s-34.167 27.5 -45.5 47.5s-17 45.333 -17 76c0 34.667 10.167 65.5 30.5 92.5s50.166 48.333 89.499 64s87.333 23.5 144 23.5c38 0 76.5 -3.83301 115.5 -11.5s71.833 -19.167 98.5 -34.5l-57 -129
c-26.667 15.333 -53.334 25.833 -80.001 31.5s-52 8.5 -76 8.5c-32 0 -54.5 -3.66699 -67.5 -11s-19.5 -16.333 -19.5 -27s5.66699 -18.834 17 -24.501s26.5 -10 45.5 -13s39.833 -6 62.5 -9s45.5 -7.5 68.5 -13.5s44 -14.833 63 -26.5s34.167 -27.334 45.5 -47.001
s17 -44.834 17 -75.501c0 -33.333 -10.167 -63.333 -30.5 -90s-50.333 -48 -90 -64s-88.834 -24 -147.501 -24zM56.0039 607.002l130 152h164l130 -152h-126l-141 125h110l-141 -125h-126z" />
    <glyph glyph-name="Scedilla" unicode="&#x15e;" horiz-adv-x="647" 
d="M316 -14c-57.333 0 -112.5 7.16895 -165.5 21.502s-96.167 32.833 -129.5 55.5l65 146c31.333 -20 67.5 -36.5 108.5 -49.5s81.833 -19.5 122.5 -19.5c27.333 0 49.333 2.5 66 7.5s28.834 11.667 36.501 20s11.5 18.166 11.5 29.499c0 16 -7.33301 28.667 -22 38
s-33.667 17 -57 23s-49.166 12 -77.499 18s-56.666 13.667 -84.999 23s-54.166 21.5 -77.499 36.5s-42.333 34.667 -57 59s-22 55.166 -22 92.499c0 42 11.5 80 34.5 114s57.5 61.333 103.5 82s103.333 31 172 31c46 0 91.167 -5.16699 135.5 -15.5
s83.833 -25.5 118.5 -45.5l-61 -147c-33.333 18 -66.333 31.5 -99 40.5s-64.334 13.5 -95.001 13.5c-27.333 0 -49.333 -2.83301 -66 -8.5s-28.667 -13.167 -36 -22.5s-11 -20 -11 -32c0 -15.333 7.16699 -27.5 21.5 -36.5s33.333 -16.333 57 -22s49.667 -11.5 78 -17.5
s56.666 -13.5 84.999 -22.5s54.166 -21 77.499 -36s42.166 -34.667 56.499 -59s21.5 -54.833 21.5 -91.5c0 -40.667 -11.5 -78.167 -34.5 -112.5s-57.333 -61.833 -103 -82.5s-103.167 -31 -172.5 -31zM290 -235.998c-16.667 0 -33.833 2 -51.5 6s-32.167 9 -43.5 15l26 75
c8.66699 -4 18.167 -7.33301 28.5 -10s21.5 -4 33.5 -4c18 0 30.833 2.66699 38.5 8s11.5 12 11.5 20s-3.5 14.167 -10.5 18.5s-18.5 6.5 -34.5 6.5h-37l26 110h99l-14 -60c30.667 -3.33301 52.667 -13 66 -29s20 -33.333 20 -52c0 -32 -14.333 -57.333 -43 -76
s-67 -28 -115 -28z" />
    <glyph glyph-name="scedilla" unicode="&#x15f;" horiz-adv-x="547" 
d="M258 -9c-46 0 -90.8291 5.33496 -134.496 16.002s-78.834 24 -105.501 40l57 130c25.333 -15.333 55 -27.5 89 -36.5s67.333 -13.5 100 -13.5c32 0 54.167 3.33301 66.5 10s18.5 15.667 18.5 27c0 10.667 -5.83301 18.5 -17.5 23.5s-27 8.83301 -46 11.5l-62.5 9
c-22.667 3.33301 -45.5 7.83301 -68.5 13.5s-44 14.334 -63 26.001s-34.167 27.5 -45.5 47.5s-17 45.333 -17 76c0 34.667 10.167 65.5 30.5 92.5s50.166 48.333 89.499 64s87.333 23.5 144 23.5c38 0 76.5 -3.83301 115.5 -11.5s71.833 -19.167 98.5 -34.5l-57 -129
c-26.667 15.333 -53.334 25.833 -80.001 31.5s-52 8.5 -76 8.5c-32 0 -54.5 -3.66699 -67.5 -11s-19.5 -16.333 -19.5 -27s5.66699 -18.834 17 -24.501s26.5 -10 45.5 -13s39.833 -6 62.5 -9s45.5 -7.5 68.5 -13.5s44 -14.833 63 -26.5s34.167 -27.334 45.5 -47.001
s17 -44.834 17 -75.501c0 -33.333 -10.167 -63.333 -30.5 -90s-50.333 -48 -90 -64s-88.834 -24 -147.501 -24zM231.004 -235.998c-16.667 0 -33.833 2 -51.5 6s-32.167 9 -43.5 15l26 75c8.66699 -4 18.167 -7.33301 28.5 -10s21.5 -4 33.5 -4c18 0 30.833 2.66699 38.5 8
s11.5 12 11.5 20s-3.5 14.167 -10.5 18.5s-18.5 6.5 -34.5 6.5h-37l26 110h99l-14 -60c30.667 -3.33301 52.667 -13 66 -29s20 -33.333 20 -52c0 -32 -14.333 -57.333 -43 -76s-67 -28 -115 -28z" />
    <glyph glyph-name="Scaron" unicode="&#x160;" horiz-adv-x="647" 
d="M316 -14c-57.333 0 -112.5 7.16895 -165.5 21.502s-96.167 32.833 -129.5 55.5l65 146c31.333 -20 67.5 -36.5 108.5 -49.5s81.833 -19.5 122.5 -19.5c27.333 0 49.333 2.5 66 7.5s28.834 11.667 36.501 20s11.5 18.166 11.5 29.499c0 16 -7.33301 28.667 -22 38
s-33.667 17 -57 23s-49.166 12 -77.499 18s-56.666 13.667 -84.999 23s-54.166 21.5 -77.499 36.5s-42.333 34.667 -57 59s-22 55.166 -22 92.499c0 42 11.5 80 34.5 114s57.5 61.333 103.5 82s103.333 31 172 31c46 0 91.167 -5.16699 135.5 -15.5
s83.833 -25.5 118.5 -45.5l-61 -147c-33.333 18 -66.333 31.5 -99 40.5s-64.334 13.5 -95.001 13.5c-27.333 0 -49.333 -2.83301 -66 -8.5s-28.667 -13.167 -36 -22.5s-11 -20 -11 -32c0 -15.333 7.16699 -27.5 21.5 -36.5s33.333 -16.333 57 -22s49.667 -11.5 78 -17.5
s56.666 -13.5 84.999 -22.5s54.166 -21 77.499 -36s42.166 -34.667 56.499 -59s21.5 -54.833 21.5 -91.5c0 -40.667 -11.5 -78.167 -34.5 -112.5s-57.333 -61.833 -103 -82.5s-103.167 -31 -172.5 -31zM245 757.002l-130 152h126l141 -124h-110l141 124h126l-130 -152h-164z
" />
    <glyph glyph-name="scaron" unicode="&#x161;" horiz-adv-x="547" 
d="M258 -9c-46 0 -90.8291 5.33496 -134.496 16.002s-78.834 24 -105.501 40l57 130c25.333 -15.333 55 -27.5 89 -36.5s67.333 -13.5 100 -13.5c32 0 54.167 3.33301 66.5 10s18.5 15.667 18.5 27c0 10.667 -5.83301 18.5 -17.5 23.5s-27 8.83301 -46 11.5l-62.5 9
c-22.667 3.33301 -45.5 7.83301 -68.5 13.5s-44 14.334 -63 26.001s-34.167 27.5 -45.5 47.5s-17 45.333 -17 76c0 34.667 10.167 65.5 30.5 92.5s50.166 48.333 89.499 64s87.333 23.5 144 23.5c38 0 76.5 -3.83301 115.5 -11.5s71.833 -19.167 98.5 -34.5l-57 -129
c-26.667 15.333 -53.334 25.833 -80.001 31.5s-52 8.5 -76 8.5c-32 0 -54.5 -3.66699 -67.5 -11s-19.5 -16.333 -19.5 -27s5.66699 -18.834 17 -24.501s26.5 -10 45.5 -13s39.833 -6 62.5 -9s45.5 -7.5 68.5 -13.5s44 -14.833 63 -26.5s34.167 -27.334 45.5 -47.001
s17 -44.834 17 -75.501c0 -33.333 -10.167 -63.333 -30.5 -90s-50.333 -48 -90 -64s-88.834 -24 -147.501 -24zM186.004 607.002l-130 152h126l141 -124h-110l141 124h126l-130 -152h-164z" />
    <glyph glyph-name="uni0162" unicode="&#x162;" horiz-adv-x="635" 
d="M219 0v543h-215v157h627v-157h-214v-543h-198zM281 -236c-16.667 0 -33.833 2 -51.5 6s-32.167 9 -43.5 15l26 75c8.66699 -4 18.167 -7.33301 28.5 -10s21.5 -4 33.5 -4c18 0 30.833 2.66699 38.5 8s11.5 12 11.5 20s-3.5 14.167 -10.5 18.5s-18.5 6.5 -34.5 6.5h-37
l26 110h99l-14 -60c30.667 -3.33301 52.667 -13 66 -29s20 -33.333 20 -52c0 -32 -14.333 -57.333 -43 -76s-67 -28 -115 -28z" />
    <glyph glyph-name="uni0163" unicode="&#x163;" horiz-adv-x="447" 
d="M303 -9c-69.333 0 -123.335 17.168 -162.002 51.501s-58 86.166 -58 155.499v465h190v-463c0 -19.333 5.33301 -34.5 16 -45.5s24.334 -16.5 41.001 -16.5c22.667 0 42 5.66699 58 17l47 -133c-16 -10.667 -35.667 -18.5 -59 -23.5s-47.666 -7.5 -72.999 -7.5z
M3.99805 380.001v142h393v-142h-393zM230.998 -235.999c-16.667 0 -33.833 2 -51.5 6s-32.167 9 -43.5 15l26 75c8.66699 -4 18.167 -7.33301 28.5 -10s21.5 -4 33.5 -4c18 0 30.833 2.66699 38.5 8s11.5 12 11.5 20s-3.5 14.167 -10.5 18.5s-18.5 6.5 -34.5 6.5h-37l26 110
h99l-14 -60c30.667 -3.33301 52.667 -13 66 -29s20 -33.333 20 -52c0 -32 -14.333 -57.333 -43 -76s-67 -28 -115 -28z" />
    <glyph glyph-name="Tcaron" unicode="&#x164;" horiz-adv-x="635" 
d="M219 0v543h-215v157h627v-157h-214v-543h-198zM236 757l-130 152h126l141 -124h-110l141 124h126l-130 -152h-164z" />
    <glyph glyph-name="tcaron" unicode="&#x165;" horiz-adv-x="447" 
d="M303 -9c-69.333 0 -123.335 17.168 -162.002 51.501s-58 86.166 -58 155.499v465h190v-463c0 -19.333 5.33301 -34.5 16 -45.5s24.334 -16.5 41.001 -16.5c22.667 0 42 5.66699 58 17l47 -133c-16 -10.667 -35.667 -18.5 -59 -23.5s-47.666 -7.5 -72.999 -7.5z
M3.99805 380.001v142h393v-142h-393zM330.998 572.001v197h129l-18 -197h-111z" />
    <glyph glyph-name="Tbar" unicode="&#x166;" horiz-adv-x="635" 
d="M219 0v543h-215v157h627v-157h-214v-543h-198zM93 261v122h450v-122h-450z" />
    <glyph glyph-name="tbar" unicode="&#x167;" horiz-adv-x="457" 
d="M308 -9c-69.333 0 -123.335 17.168 -162.002 51.501s-58 86.166 -58 155.499v465h190v-463c0 -19.333 5.33301 -34.5 16 -45.5s24.334 -16.5 41.001 -16.5c22.667 0 42 5.66699 58 17l47 -133c-16 -10.667 -35.667 -18.5 -59 -23.5s-47.666 -7.5 -72.999 -7.5z
M8.99805 380.001v142h393v-142h-393zM21.998 219.001v100h367v-100h-367z" />
    <glyph glyph-name="Utilde" unicode="&#x168;" horiz-adv-x="786" 
d="M393 -14c-103.333 0 -183.999 28.333 -241.999 85s-87 137 -87 241v388h198v-382c0 -60 11.833 -103 35.5 -129s56.167 -39 97.5 -39s73.666 13 96.999 39s35 69 35 129v382h195v-388c0 -104 -29 -184.333 -87 -241s-138.667 -85 -242 -85zM473.001 750
c-18 0 -33.8311 3.16602 -47.498 9.49902s-26.167 13.5 -37.5 21.5l-31 21.5c-9.33301 6.33301 -18.666 9.5 -27.999 9.5c-13.333 0 -24 -4.66699 -32 -14s-12.667 -22.333 -14 -39h-93c1.33301 48.667 13.166 87.334 35.499 116.001s52.833 43 91.5 43c18 0 34 -3 48 -9
s26.5 -13.167 37.5 -21.5s21.333 -15.5 31 -21.5s18.834 -9 27.501 -9c13.333 0 24.166 4.5 32.499 13.5s12.833 21.167 13.5 36.5h93c-0.666992 -46.667 -12.334 -84.5 -35.001 -113.5s-53.334 -43.5 -92.001 -43.5z" />
    <glyph glyph-name="utilde" unicode="&#x169;" horiz-adv-x="692" 
d="M289 -9c-44 0 -83.501 8.66699 -118.501 26s-62.333 44.5 -82 81.5s-29.5 83.833 -29.5 140.5v303h190v-272c0 -42 7.83301 -72 23.5 -90s37.834 -27 66.501 -27c18.667 0 35.667 4.33301 51 13s27.666 22.5 36.999 41.5s14 43.5 14 73.5v261h190v-542h-181v153l35 -43
c-18.667 -40 -45.667 -69.833 -81 -89.5s-73.666 -29.5 -114.999 -29.5zM422.999 600c-18 0 -33.8311 3.16602 -47.498 9.49902s-26.167 13.5 -37.5 21.5l-31 21.5c-9.33301 6.33301 -18.666 9.5 -27.999 9.5c-13.333 0 -24 -4.66699 -32 -14s-12.667 -22.333 -14 -39h-93
c1.33301 48.667 13.166 87.334 35.499 116.001s52.833 43 91.5 43c18 0 34 -3 48 -9s26.5 -13.167 37.5 -21.5s21.333 -15.5 31 -21.5s18.834 -9 27.501 -9c13.333 0 24.166 4.5 32.499 13.5s12.833 21.167 13.5 36.5h93c-0.666992 -46.667 -12.334 -84.5 -35.001 -113.5
s-53.334 -43.5 -92.001 -43.5z" />
    <glyph glyph-name="Umacron" unicode="&#x16a;" horiz-adv-x="786" 
d="M393 -14c-103.333 0 -183.999 28.333 -241.999 85s-87 137 -87 241v388h198v-382c0 -60 11.833 -103 35.5 -129s56.167 -39 97.5 -39s73.666 13 96.999 39s35 69 35 129v382h195v-388c0 -104 -29 -184.333 -87 -241s-138.667 -85 -242 -85zM198.001 782v102h394v-102
h-394z" />
    <glyph glyph-name="umacron" unicode="&#x16b;" horiz-adv-x="692" 
d="M289 -9c-44 0 -83.501 8.66699 -118.501 26s-62.333 44.5 -82 81.5s-29.5 83.833 -29.5 140.5v303h190v-272c0 -42 7.83301 -72 23.5 -90s37.834 -27 66.501 -27c18.667 0 35.667 4.33301 51 13s27.666 22.5 36.999 41.5s14 43.5 14 73.5v261h190v-542h-181v153l35 -43
c-18.667 -40 -45.667 -69.833 -81 -89.5s-73.666 -29.5 -114.999 -29.5zM147.999 632v102h394v-102h-394z" />
    <glyph glyph-name="Ubreve" unicode="&#x16c;" horiz-adv-x="786" 
d="M393 -14c-103.333 0 -183.999 28.333 -241.999 85s-87 137 -87 241v388h198v-382c0 -60 11.833 -103 35.5 -129s56.167 -39 97.5 -39s73.666 13 96.999 39s35 69 35 129v382h195v-388c0 -104 -29 -184.333 -87 -241s-138.667 -85 -242 -85zM395.001 748
c-56 0 -102.167 14.333 -138.5 43s-55.5 68 -57.5 118h116c1.33301 -20.667 9.5 -36.834 24.5 -48.501s33.5 -17.5 55.5 -17.5s40.667 5.83301 56 17.5s23.333 27.834 24 48.501h116c-2 -50 -21.167 -89.333 -57.5 -118s-82.5 -43 -138.5 -43z" />
    <glyph glyph-name="ubreve" unicode="&#x16d;" horiz-adv-x="692" 
d="M289 -9c-44 0 -83.501 8.66699 -118.501 26s-62.333 44.5 -82 81.5s-29.5 83.833 -29.5 140.5v303h190v-272c0 -42 7.83301 -72 23.5 -90s37.834 -27 66.501 -27c18.667 0 35.667 4.33301 51 13s27.666 22.5 36.999 41.5s14 43.5 14 73.5v261h190v-542h-181v153l35 -43
c-18.667 -40 -45.667 -69.833 -81 -89.5s-73.666 -29.5 -114.999 -29.5zM344.999 598c-56 0 -102.167 14.333 -138.5 43s-55.5 68 -57.5 118h116c1.33301 -20.667 9.5 -36.834 24.5 -48.501s33.5 -17.5 55.5 -17.5s40.667 5.83301 56 17.5s23.333 27.834 24 48.501h116
c-2 -50 -21.167 -89.333 -57.5 -118s-82.5 -43 -138.5 -43z" />
    <glyph glyph-name="Uring" unicode="&#x16e;" horiz-adv-x="786" 
d="M393 -14c-103.333 0 -183.999 28.333 -241.999 85s-87 137 -87 241v388h198v-382c0 -60 11.833 -103 35.5 -129s56.167 -39 97.5 -39s73.666 13 96.999 39s35 69 35 129v382h195v-388c0 -104 -29 -184.333 -87 -241s-138.667 -85 -242 -85zM395.001 749
c-24.667 0 -47.001 5.66699 -67.001 17s-35.833 26.666 -47.5 45.999s-17.5 40.666 -17.5 63.999c0 24 5.83301 45.5 17.5 64.5s27.5 34.333 47.5 46s42.333 17.5 67 17.5c25.333 0 47.833 -5.83301 67.5 -17.5s35.334 -27 47.001 -46s17.5 -40.5 17.5 -64.5
c0 -23.333 -5.83301 -44.666 -17.5 -63.999s-27.5 -34.666 -47.5 -45.999s-42.333 -17 -67 -17zM395 819c16.667 0 30.333 5.33301 41 16s16 24.334 16 41.001s-5.5 30.5 -16.5 41.5s-24.5 16.5 -40.5 16.5s-29.5 -5.33301 -40.5 -16s-16.5 -24.667 -16.5 -42
c0 -16.667 5.5 -30.334 16.5 -41.001s24.5 -16 40.5 -16z" />
    <glyph glyph-name="uring" unicode="&#x16f;" horiz-adv-x="692" 
d="M289 -9c-44 0 -83.501 8.66699 -118.501 26s-62.333 44.5 -82 81.5s-29.5 83.833 -29.5 140.5v303h190v-272c0 -42 7.83301 -72 23.5 -90s37.834 -27 66.501 -27c18.667 0 35.667 4.33301 51 13s27.666 22.5 36.999 41.5s14 43.5 14 73.5v261h190v-542h-181v153l35 -43
c-18.667 -40 -45.667 -69.833 -81 -89.5s-73.666 -29.5 -114.999 -29.5zM344.999 591c-24.667 0 -47.001 5.66699 -67.001 17s-35.833 26.666 -47.5 45.999s-17.5 40.666 -17.5 63.999c0 24 5.83301 45.5 17.5 64.5s27.5 34.333 47.5 46s42.333 17.5 67 17.5
c25.333 0 47.833 -5.83301 67.5 -17.5s35.334 -27 47.001 -46s17.5 -40.5 17.5 -64.5c0 -23.333 -5.83301 -44.666 -17.5 -63.999s-27.5 -34.666 -47.5 -45.999s-42.333 -17 -67 -17zM344.998 661c16.667 0 30.333 5.33301 41 16s16 24.334 16 41.001s-5.5 30.5 -16.5 41.5
s-24.5 16.5 -40.5 16.5s-29.5 -5.33301 -40.5 -16s-16.5 -24.667 -16.5 -42c0 -16.667 5.5 -30.334 16.5 -41.001s24.5 -16 40.5 -16z" />
    <glyph glyph-name="Uhungarumlaut" unicode="&#x170;" horiz-adv-x="786" 
d="M393 -14c-103.333 0 -183.999 28.333 -241.999 85s-87 137 -87 241v388h198v-382c0 -60 11.833 -103 35.5 -129s56.167 -39 97.5 -39s73.666 13 96.999 39s35 69 35 129v382h195v-388c0 -104 -29 -184.333 -87 -241s-138.667 -85 -242 -85zM438.001 757l62 152h170
l-100 -152h-132zM220.001 757l63 152h170l-101 -152h-132z" />
    <glyph glyph-name="uhungarumlaut" unicode="&#x171;" horiz-adv-x="692" 
d="M289 -9c-44 0 -83.501 8.66699 -118.501 26s-62.333 44.5 -82 81.5s-29.5 83.833 -29.5 140.5v303h190v-272c0 -42 7.83301 -72 23.5 -90s37.834 -27 66.501 -27c18.667 0 35.667 4.33301 51 13s27.666 22.5 36.999 41.5s14 43.5 14 73.5v261h190v-542h-181v153l35 -43
c-18.667 -40 -45.667 -69.833 -81 -89.5s-73.666 -29.5 -114.999 -29.5zM387.999 607l62 152h170l-100 -152h-132zM169.999 607l63 152h170l-101 -152h-132z" />
    <glyph glyph-name="Uogonek" unicode="&#x172;" horiz-adv-x="786" 
d="M527 700l195.003 -0.000976562v-388c0 -82.667 -17.5 -148.667 -52.5 -198s-80.833 -85 -137.5 -107c-36.667 -14 -65.167 -27.333 -85.5 -40s-34.333 -24.5 -42 -35.5s-11.5 -22.167 -11.5 -33.5c0 -12.667 4.5 -23.167 13.5 -31.5s22.833 -12.5 41.5 -12.5
c11.333 0 22.166 1.5 32.499 4.5s19.166 6.5 26.499 10.5l25 -82c-12 -6.66699 -27.667 -12.167 -47 -16.5s-39 -6.5 -59 -6.5c-47.333 0 -83.833 10.833 -109.5 32.5s-38.5 49.834 -38.5 84.501c0 23.333 5.83301 45 17.5 65s29.5 38.5 53.5 55.5s53.667 31.5 89 43.5
l3 -57c-8 -0.666992 -16 -1.16699 -24 -1.5s-16 -0.5 -24 -0.5c-103.333 0 -184 28.333 -242 85s-87 137 -87 241v388h198v-382c0 -60 11.833 -103 35.5 -129s56.167 -39 97.5 -39s73.666 13 96.999 39s35 69 35 129v382z" />
    <glyph glyph-name="uogonek" unicode="&#x173;" horiz-adv-x="692" 
d="M289 -9c-44 0 -83.501 8.66699 -118.501 26s-62.333 44.5 -82 81.5s-29.5 83.833 -29.5 140.5v303h190v-272c0 -42 7.83301 -72 23.5 -90s37.834 -27 66.501 -27c18.667 0 35.667 4.33301 51 13s27.666 22.5 36.999 41.5s14 43.5 14 73.5v261h190v-542h-181v153l35 -43
c-18.667 -40 -45.667 -69.833 -81 -89.5s-73.666 -29.5 -114.999 -29.5zM547.999 -236c-46.667 0 -83 10.832 -109 32.499s-39 49.834 -39 84.501c0 23.333 6 45 18 65s29.833 38.5 53.5 55.5s53.167 31.5 88.5 43.5l70 -45c-28 -12.667 -50.5 -24.667 -67.5 -36
s-29.167 -22.333 -36.5 -33s-11 -21.667 -11 -33c0 -12.667 4.66699 -23.167 14 -31.5s23 -12.5 41 -12.5c11.333 0 22.333 1.5 33 4.5s19.667 6.5 27 10.5l25 -82c-12.667 -6.66699 -28.667 -12.167 -48 -16.5s-39 -6.5 -59 -6.5z" />
    <glyph glyph-name="Wcircumflex" unicode="&#x174;" horiz-adv-x="1184" 
d="M243 0l-227 700h204l191 -606h-103l201 606h182l190 -606h-99l197 606h189l-227 -700h-212l-162 515h57l-169 -515h-212zM380 757l130 152h164l130 -152h-126l-141 125h110l-141 -125h-126z" />
    <glyph glyph-name="wcircumflex" unicode="&#x175;" horiz-adv-x="956" 
d="M190 0l-193 542h180l153 -453h-86l159 453h162l153 -453h-84l158 453h167l-193 -542h-184l-130 375h56l-134 -375h-184zM266 606l130 152h164l130 -152h-126l-141 125h110l-141 -125h-126z" />
    <glyph glyph-name="Ycircumflex" unicode="&#x176;" horiz-adv-x="693" 
d="M247 0v296l46 -119l-313 523h209l226 -379h-121l227 379h192l-312 -523l44 119v-296h-198zM134 757l130 152h164l130 -152h-126l-141 125h110l-141 -125h-126z" />
    <glyph glyph-name="ycircumflex" unicode="&#x177;" horiz-adv-x="620" 
d="M154 -203c-28.667 0 -57.5 4.5 -86.5 13.5s-52.5 20.833 -70.5 35.5l66 133c11.333 -10 24.5 -17.833 39.5 -23.5s29.833 -8.5 44.5 -8.5c20.667 0 37 4.66699 49 14s22.333 24 31 44l25 63l15 19l184 455h181l-234 -564c-18.667 -46.667 -40.167 -83.167 -64.5 -109.5
s-51.333 -44.833 -81 -55.5s-62.5 -16 -98.5 -16zM228 -23l-239 565h195l176 -438zM88 607l130 152h164l130 -152h-126l-141 125h110l-141 -125h-126z" />
    <glyph glyph-name="Ydieresis" unicode="&#x178;" horiz-adv-x="693" 
d="M247 0v296l46 -119l-313 523h209l226 -379h-121l227 379h192l-312 -523l44 119v-296h-198zM452 756c-22 0 -40.667 7.16699 -56 21.5s-23 33.166 -23 56.499s7.66699 42.333 23 57s34 22 56 22s40.667 -7.33301 56 -22s23 -33.667 23 -57s-7.66699 -42.166 -23 -56.499
s-34 -21.5 -56 -21.5zM240 756c-22 0 -40.667 7.16699 -56 21.5s-23 33.166 -23 56.499s7.66699 42.333 23 57s34 22 56 22s40.667 -7.33301 56 -22s23 -33.667 23 -57s-7.66699 -42.166 -23 -56.499s-34 -21.5 -56 -21.5z" />
    <glyph glyph-name="Zacute" unicode="&#x179;" horiz-adv-x="679" 
d="M35 0v124l412 489l24 -70h-427v157h603v-124l-412 -489l-24 70h451v-157h-627zM251 757l134 152h190l-188 -152h-136z" />
    <glyph glyph-name="zacute" unicode="&#x17a;" horiz-adv-x="556" 
d="M33 0v112l304 350l32 -61h-329v141h483v-111l-305 -351l-32 62h347v-142h-500zM184 607l134 152h190l-188 -152h-136z" />
    <glyph glyph-name="Zdotaccent" unicode="&#x17b;" horiz-adv-x="679" 
d="M35 0v124l412 489l24 -70h-427v157h603v-124l-412 -489l-24 70h451v-157h-627zM349 755c-28.667 0 -52.334 9.16699 -71.001 27.5s-28 42.166 -28 71.499c0 28.667 9.33301 52.167 28 70.5s42.334 27.5 71.001 27.5s52.334 -9.16699 71.001 -27.5s28 -41.833 28 -70.5
c0 -29.333 -9.33301 -53.166 -28 -71.499s-42.334 -27.5 -71.001 -27.5z" />
    <glyph glyph-name="zdotaccent" unicode="&#x17c;" horiz-adv-x="556" 
d="M33 0v112l304 350l32 -61h-329v141h483v-111l-305 -351l-32 62h347v-142h-500zM282 605c-28.667 0 -52.334 9.16699 -71.001 27.5s-28 42.166 -28 71.499c0 28.667 9.33301 52.167 28 70.5s42.334 27.5 71.001 27.5s52.334 -9.16699 71.001 -27.5s28 -41.833 28 -70.5
c0 -29.333 -9.33301 -53.166 -28 -71.499s-42.334 -27.5 -71.001 -27.5z" />
    <glyph glyph-name="Zcaron" unicode="&#x17d;" horiz-adv-x="679" 
d="M35 0v124l412 489l24 -70h-427v157h603v-124l-412 -489l-24 70h451v-157h-627zM267 757l-130 152h126l141 -124h-110l141 124h126l-130 -152h-164z" />
    <glyph glyph-name="zcaron" unicode="&#x17e;" horiz-adv-x="556" 
d="M33 0v112l304 350l32 -61h-329v141h483v-111l-305 -351l-32 62h347v-142h-500zM200 607l-130 152h126l141 -124h-110l141 124h126l-130 -152h-164z" />
    <glyph glyph-name="longs" unicode="&#x17f;" horiz-adv-x="349" 
d="M95 0l0.000976562 536c0 65.333 19.667 117.5 59 156.5s95 58.5 167 58.5c23.333 0 46.333 -2.33301 69 -7s41.667 -11.667 57 -21l-47 -134c-8 4.66699 -16.833 8.5 -26.5 11.5s-19.834 4.5 -30.501 4.5c-19.333 0 -33.833 -5.83301 -43.5 -17.5
s-14.5 -29.5 -14.5 -53.5v-534h-190zM16.001 380v142h179v-142h-179z" />
    <glyph glyph-name="uni018F" unicode="&#x18f;" horiz-adv-x="818" 
d="M409 -14c-54.667 0 -104.999 8.83594 -150.999 26.5029s-85.667 43 -119 76s-59.166 72.333 -77.499 118s-27.5 96.167 -27.5 151.5v36h571v-119h-435l64 47c0 -28.667 3.83301 -54.334 11.5 -77.001s19.167 -42.167 34.5 -58.5s33.666 -28.833 54.999 -37.5
s46 -13 74 -13s52.667 4.33301 74 13s39.5 21.167 54.5 37.5s26.5 35.666 34.5 57.999s12 47.833 12 76.5v37c0 28 -4.83301 53.833 -14.5 77.5s-23 44 -40 61s-37.167 30.167 -60.5 39.5s-49 14 -77 14c-20.667 0 -42.834 -3 -66.501 -9s-46.334 -15.167 -68.001 -27.5
s-40.5 -27.5 -56.5 -45.5l-117 124c22 23.333 49.333 44.166 82 62.499s68.5 32.833 107.5 43.5s79.167 16 120.5 16c56.667 0 108.834 -8.83301 156.501 -26.5s89 -42.834 124 -75.501s61.833 -71.167 80.5 -115.5s28 -93.166 28 -146.499s-9.33301 -102.333 -28 -147
s-44.667 -83.167 -78 -115.5s-72.833 -57.333 -118.5 -75s-95.5 -26.5 -149.5 -26.5z" />
    <glyph glyph-name="florin" unicode="&#x192;" horiz-adv-x="500" 
d="M36 -203c-25.333 0 -49.334 2.5 -72.001 7.5s-42 12.167 -58 21.5l63 134c16.667 -10.667 35.334 -16 56.001 -16c17.333 0 32 5.66699 44 17s19.333 29.333 22 54l64 521c8 65.333 33.667 117.5 77 156.5s100.666 58.5 171.999 58.5c23.333 0 46.5 -2.33301 69.5 -7
s41.5 -12 55.5 -22l-63 -134c-7.33301 4.66699 -15.666 8.5 -24.999 11.5s-19.333 4.5 -30 4.5c-19.333 0 -35.5 -5.66699 -48.5 -17s-21.167 -29.333 -24.5 -54l-4 -38l-4 -79l-50 -404c-8 -65.333 -33.5 -117.5 -76.5 -156.5s-98.833 -58.5 -167.5 -58.5zM55.999 375
l17 142h392l-17 -142h-392z" />
    <glyph glyph-name="Ohorn" unicode="&#x1a0;" horiz-adv-x="846" 
d="M423 -14c-56 0 -107.666 8.99805 -154.999 26.998s-88.5 43.5 -123.5 76.5s-62.167 71.667 -81.5 116s-29 92.5 -29 144.5c0 52.667 9.66699 101.167 29 145.5s46.666 82.833 81.999 115.5s77.333 58 126 76s102 27 160 27c36.667 0 70 -2.16699 100 -6.5
s56.333 -6.5 79 -6.5s40.834 5.16699 54.501 15.5s20.5 25.833 20.5 46.5c0 11.333 -2 22 -6 32s-8.66699 18.667 -14 26l109 39c10.667 -14 19.167 -29.667 25.5 -47s9.5 -36.666 9.5 -57.999c0 -54 -18.667 -95 -56 -123s-87.333 -42 -150 -42
c-29.333 0 -57.333 1.66699 -84 5l-77 10l224 29c29.333 -20 54.833 -44.333 76.5 -73s38.667 -60.667 51 -96s18.5 -73.666 18.5 -114.999c0 -52.667 -9.83301 -101.167 -29.5 -145.5s-46.834 -82.833 -81.501 -115.5s-75.5 -58 -122.5 -76s-98.833 -27 -155.5 -27z
M423.001 149.998c26.667 0 51.5 4.66602 74.5 13.999s43 22.833 60 40.5s30.333 38.834 40 63.501s14.5 52 14.5 82s-4.83301 57.333 -14.5 82s-23 45.834 -40 63.501s-37 31.167 -60 40.5s-47.833 14 -74.5 14s-51.5 -4.66699 -74.5 -14s-43 -22.833 -60 -40.5
s-30.333 -38.667 -40 -63s-14.5 -51.833 -14.5 -82.5c0 -30 4.83301 -57.333 14.5 -82s23 -45.834 40 -63.501s37 -31.167 60 -40.5s47.833 -14 74.5 -14z" />
    <glyph glyph-name="ohorn" unicode="&#x1a1;" horiz-adv-x="666" 
d="M333 -9c-59.333 0 -112.003 12 -158.003 36s-82.167 57.167 -108.5 99.5s-39.5 90.833 -39.5 145.5s13.167 103 39.5 145s62.833 74.833 109.5 98.5s99.667 35.5 159 35.5c17.333 0 32.833 -0.666992 46.5 -2s26.334 -2.83301 38.001 -4.5s22.834 -2.5 33.501 -2.5
c19.333 0 33.833 5.83301 43.5 17.5s14.5 26.834 14.5 45.501c0 11.333 -2.16699 22.166 -6.5 32.499s-9.5 18.833 -15.5 25.5l109 40c10.667 -14.667 19.334 -30.667 26.001 -48s10 -36.666 10 -57.999c0 -33.333 -8.16699 -62.5 -24.5 -87.5s-39.333 -44.333 -69 -58
s-63.5 -20.5 -101.5 -20.5c-18 0 -35.5 1 -52.5 3s-32.833 4.33301 -47.5 7l125 85c54 -20.667 96.667 -53.334 128 -98.001s47 -96.667 47 -156c0 -54.667 -13.167 -103.167 -39.5 -145.5s-62.5 -75.5 -108.5 -99.5s-98.667 -36 -158 -36zM332.997 142
c21.333 0 40.5 5 57.5 15s30.667 24.833 41 44.5s15.5 43.167 15.5 70.5s-5 50.5 -15 69.5s-23.5 33.5 -40.5 43.5s-36.5 15 -58.5 15c-21.333 0 -40.5 -5 -57.5 -15s-30.667 -24.5 -41 -43.5s-15.5 -42.167 -15.5 -69.5s5.16699 -50.833 15.5 -70.5s24 -34.5 41 -44.5
s36.167 -15 57.5 -15z" />
    <glyph glyph-name="Uhorn" unicode="&#x1af;" horiz-adv-x="802" 
d="M393 -14c-103.333 0 -183.999 28.333 -241.999 85s-87 137 -87 241v388h198v-382c0 -60 11.833 -103 35.5 -129s56.167 -39 97.5 -39s73.666 13 96.999 39s35 69 35 129v382h195v-388c0 -104 -29 -184.333 -87 -241s-138.667 -85 -242 -85zM619.001 580
l-0.000976562 119.999h34c16 0 29.5 5.83301 40.5 17.5s16.5 26.834 16.5 45.501c0 11.333 -1.83301 22.166 -5.5 32.499s-8.5 18.833 -14.5 25.5l110 39c10.667 -14 19.167 -29.667 25.5 -47s9.5 -36.666 9.5 -57.999c0 -55.333 -16.667 -98.333 -50 -129
s-79.666 -46 -138.999 -46h-27z" />
    <glyph glyph-name="uhorn" unicode="&#x1b0;" horiz-adv-x="709" 
d="M289 -9c-44 0 -83.501 8.66699 -118.501 26s-62.333 44.5 -82 81.5s-29.5 83.833 -29.5 140.5v303h190v-272c0 -42 7.83301 -72 23.5 -90s37.834 -27 66.501 -27c18.667 0 35.667 4.33301 51 13s27.666 22.5 36.999 41.5s14 43.5 14 73.5v261h190v-542h-181v153l35 -43
c-18.667 -40 -45.667 -69.833 -81 -89.5s-73.666 -29.5 -114.999 -29.5zM508.999 422l-0.000976562 119.999h34c16 0 29.5 5.83301 40.5 17.5s16.5 26.834 16.5 45.501c0 11.333 -1.83301 22.166 -5.5 32.499s-8.5 18.833 -14.5 25.5l110 39
c10.667 -14 19.167 -29.667 25.5 -47s9.5 -36.666 9.5 -57.999c0 -55.333 -16.667 -98.333 -50 -129s-79.666 -46 -138.999 -46h-27z" />
    <glyph glyph-name="uni01B7" unicode="&#x1b7;" horiz-adv-x="646" 
d="M300 -14c-50 0 -100.167 5.99902 -150.5 17.999s-93.166 29 -128.499 51l65 148c29.333 -18.667 62.5 -33 99.5 -43s72.833 -15 107.5 -15c37.333 0 67.166 6.33301 89.499 19s33.5 31 33.5 55c0 21.333 -9.33301 38 -28 50s-48.667 18 -90 18h-84v125l200 203l18 -68
h-380v153h526v-124l-200 -203l-94 54h54c61.333 0 112.5 -8.83301 153.5 -26.5s72 -42.167 93 -73.5s31.5 -67 31.5 -107c0 -40.667 -11 -78.667 -33 -114s-56.333 -64.166 -103 -86.499s-106.667 -33.5 -180 -33.5z" />
    <glyph glyph-name="uni01C4" unicode="&#x1c4;" horiz-adv-x="1445" 
d="M70 0v699.999h331c77.333 0 145.333 -14.333 204 -43s104.5 -69 137.5 -121s49.5 -114 49.5 -186c0 -71.333 -16.5 -133.166 -49.5 -185.499s-78.833 -92.833 -137.5 -121.5s-126.667 -43 -204 -43h-331zM268 157.999l125 -0.000976562c40 0 74.833 7.5 104.5 22.5
s52.834 37 69.501 66s25 63.5 25 103.5c0 40.667 -8.33301 75.334 -25 104.001s-39.834 50.5 -69.501 65.5s-64.5 22.5 -104.5 22.5h-125v-384zM803 -0.00195312v124l412 489l24 -70h-427v157h603v-124l-412 -489l-24 70h451v-157h-627zM1035 756.998l-130 152h126l141 -124
h-110l141 124h126l-130 -152h-164z" />
    <glyph glyph-name="uni01C5" unicode="&#x1c5;" horiz-adv-x="1382" 
d="M70 0v699.999h331c77.333 0 145.333 -14.333 204 -43s104.5 -69 137.5 -121s49.5 -114 49.5 -186c0 -71.333 -16.5 -133.166 -49.5 -185.499s-78.833 -92.833 -137.5 -121.5s-126.667 -43 -204 -43h-331zM268 157.999l125 -0.000976562c40 0 74.833 7.5 104.5 22.5
s52.834 37 69.501 66s25 63.5 25 103.5c0 40.667 -8.33301 75.334 -25 104.001s-39.834 50.5 -69.501 65.5s-64.5 22.5 -104.5 22.5h-125v-384zM859 -0.00195312v112l304 350l32 -61h-329v141h483v-111l-305 -351l-32 62h347v-142h-500zM1026 606.998l-130 152h126l141 -124
h-110l141 124h126l-130 -152h-164z" />
    <glyph glyph-name="uni01C6" unicode="&#x1c6;" horiz-adv-x="1245" 
d="M297 -9c-49.333 0 -94.166 11.498 -134.499 34.498s-72.5 55.333 -96.5 97s-36 91.5 -36 149.5c0 57.333 12 106.833 36 148.5s56.167 73.834 96.5 96.501s85.166 34 134.499 34c46.667 0 86.167 -10 118.5 -30s56.833 -50.667 73.5 -92s25 -93.666 25 -156.999
c0 -64.667 -8 -117.667 -24 -159s-40 -72 -72 -92s-72.333 -30 -121 -30zM337 141.998c21.333 0 40.5 5 57.5 15s30.5 24.833 40.5 44.5s15 43.167 15 70.5s-5 50.5 -15 69.5s-23.5 33.5 -40.5 43.5s-36.167 15 -57.5 15c-22 0 -41.5 -5 -58.5 -15s-30.5 -24.5 -40.5 -43.5
s-15 -42.167 -15 -69.5s5 -50.833 15 -70.5s23.5 -34.5 40.5 -44.5s36.5 -15 58.5 -15zM456 -0.00195312v93l1 179l-10 179v291h190v-742h-181zM720 -0.00195312v112l304 350l32 -61h-329v141h483v-111l-305 -351l-32 62h347v-142h-500zM887 606.998l-130 152h126l141 -124
h-110l141 124h126l-130 -152h-164z" />
    <glyph glyph-name="uni01C7" unicode="&#x1c7;" horiz-adv-x="1168" 
d="M70 0v700h198v-543h334v-157h-532zM833 -14c-51.333 0 -97.833 8.83301 -139.5 26.5s-76.167 43.167 -103.5 76.5l108 128c18.667 -24 38 -42.167 58 -54.5s41 -18.5 63 -18.5c58.667 0 88 34 88 102v301h-242v153h438v-442c0 -91.333 -23 -159.5 -69 -204.5
s-113 -67.5 -201 -67.5z" />
    <glyph glyph-name="uni01C8" unicode="&#x1c8;" horiz-adv-x="931" 
d="M70 0v700h198v-543h334v-157h-532zM648 -203c-25.333 0 -49.5 2.5 -72.5 7.5s-42.833 11.833 -59.5 20.5l48 135c17.333 -10.667 37 -16 59 -16c16.667 0 30.167 5.66699 40.5 17s15.5 29.333 15.5 54v527h190v-528c0 -66 -19.333 -118.667 -58 -158s-93 -59 -163 -59z
M774 602c-34.667 0 -62.667 9.66699 -84 29s-32 43.333 -32 72s10.667 52.667 32 72s49.333 29 84 29s62.667 -9.16699 84 -27.5s32 -41.833 32 -70.5c0 -30 -10.5 -54.833 -31.5 -74.5s-49.167 -29.5 -84.5 -29.5z" />
    <glyph glyph-name="uni01C9" unicode="&#x1c9;" horiz-adv-x="633" 
d="M61 0v742h190v-742h-190zM351 -203c-25.333 0 -49.5 2.5 -72.5 7.5s-42.833 11.833 -59.5 20.5l48 135c17.333 -10.667 37 -16 59 -16c16.667 0 30.167 5.66699 40.5 17s15.5 29.333 15.5 54v527h190v-528c0 -66 -19.333 -118.667 -58 -158s-93 -59 -163 -59zM477 602
c-34.667 0 -62.667 9.66699 -84 29s-32 43.333 -32 72s10.667 52.667 32 72s49.333 29 84 29s62.667 -9.16699 84 -27.5s32 -41.833 32 -70.5c0 -30 -10.5 -54.833 -31.5 -74.5s-49.167 -29.5 -84.5 -29.5z" />
    <glyph glyph-name="uni01CA" unicode="&#x1ca;" horiz-adv-x="1363" 
d="M70 0v700h163l386 -466h-77v466h194v-700h-163l-386 466h77v-466h-194zM1029 -14c-51.333 0 -97.833 8.83301 -139.5 26.5s-76.167 43.167 -103.5 76.5l108 128c18.667 -24 38 -42.167 58 -54.5s41 -18.5 63 -18.5c58.667 0 88 34 88 102v301h-242v153h438v-442
c0 -91.333 -23 -159.5 -69 -204.5s-113 -67.5 -201 -67.5z" />
    <glyph glyph-name="uni01CB" unicode="&#x1cb;" horiz-adv-x="1126" 
d="M70 0v700h163l386 -466h-77v466h194v-700h-163l-386 466h77v-466h-194zM844 -203c-25.333 0 -49.5 2.5 -72.5 7.5s-42.833 11.833 -59.5 20.5l48 135c17.333 -10.667 37 -16 59 -16c16.667 0 30.167 5.66699 40.5 17s15.5 29.333 15.5 54v527h190v-528
c0 -66 -19.333 -118.667 -58 -158s-93 -59 -163 -59zM970 602c-34.667 0 -62.667 9.66699 -84 29s-32 43.333 -32 72s10.667 52.667 32 72s49.333 29 84 29s62.667 -9.16699 84 -27.5s32 -41.833 32 -70.5c0 -30 -10.5 -54.833 -31.5 -74.5s-49.167 -29.5 -84.5 -29.5z" />
    <glyph glyph-name="uni01CC" unicode="&#x1cc;" horiz-adv-x="1016" 
d="M414 551c42 0 80 -8.50098 114 -25.501s60.833 -43.167 80.5 -78.5s29.5 -81 29.5 -137v-310h-190v279c0 38.667 -7.83301 66.834 -23.5 84.501s-37.5 26.5 -65.5 26.5c-20 0 -38.333 -4.5 -55 -13.5s-29.667 -22.833 -39 -41.5s-14 -43 -14 -73v-262h-190v542h181v-154
l-35 45c20.667 39.333 49 68.833 85 88.5s76.667 29.5 122 29.5zM734 -203.001c-25.333 0 -49.5 2.5 -72.5 7.5s-42.833 11.833 -59.5 20.5l48 135c17.333 -10.667 37 -16 59 -16c16.667 0 30.167 5.66699 40.5 17s15.5 29.333 15.5 54v527h190v-528
c0 -66 -19.333 -118.667 -58 -158s-93 -59 -163 -59zM860 601.999c-34.667 0 -62.667 9.66699 -84 29s-32 43.333 -32 72s10.667 52.667 32 72s49.333 29 84 29s62.667 -9.16699 84 -27.5s32 -41.833 32 -70.5c0 -30 -10.5 -54.833 -31.5 -74.5s-49.167 -29.5 -84.5 -29.5z
" />
    <glyph glyph-name="uni01CD" unicode="&#x1cd;" horiz-adv-x="786" 
d="M-14 0l309 700h195l310 -700h-206l-242 603h78l-242 -603h-202zM155 136l51 146h342l51 -146h-444zM311 757l-130 152h126l141 -124h-110l141 124h126l-130 -152h-164z" />
    <glyph glyph-name="uni01CE" unicode="&#x1ce;" horiz-adv-x="628" 
d="M392 0l0.000976562 101l-13 25v186c0 30 -9.16699 53.167 -27.5 69.5s-47.5 24.5 -87.5 24.5c-26 0 -52.333 -4.16699 -79 -12.5s-49.334 -19.833 -68.001 -34.5l-64 129c30.667 20 67.5 35.5 110.5 46.5s85.833 16.5 128.5 16.5c88 0 156.167 -20.167 204.5 -60.5
s72.5 -103.5 72.5 -189.5v-301h-177zM232.001 -9c-43.333 0 -80 7.33594 -110 22.0029s-52.833 34.667 -68.5 60s-23.5 53.666 -23.5 84.999c0 33.333 8.5 62.166 25.5 86.499s43.167 43 78.5 56s81 19.5 137 19.5h128v-99h-102c-30.667 0 -52.167 -5 -64.5 -15
s-18.5 -23.333 -18.5 -40s6.33301 -30 19 -40s30 -15 52 -15c20.667 0 39.5 5.16699 56.5 15.5s29.5 26.166 37.5 47.499l26 -70c-10 -37.333 -29.5 -65.5 -58.5 -84.5s-67.167 -28.5 -114.5 -28.5zM231.001 607.003l-130 152h126l141 -124h-110l141 124h126l-130 -152h-164
z" />
    <glyph glyph-name="uni01D3" unicode="&#x1d3;" horiz-adv-x="786" 
d="M393 -14c-103.333 0 -183.999 28.333 -241.999 85s-87 137 -87 241v388h198v-382c0 -60 11.833 -103 35.5 -129s56.167 -39 97.5 -39s73.666 13 96.999 39s35 69 35 129v382h195v-388c0 -104 -29 -184.333 -87 -241s-138.667 -85 -242 -85zM313.001 757l-130 152h126
l141 -124h-110l141 124h126l-130 -152h-164z" />
    <glyph glyph-name="uni01D4" unicode="&#x1d4;" horiz-adv-x="692" 
d="M289 -9c-44 0 -83.501 8.66699 -118.501 26s-62.333 44.5 -82 81.5s-29.5 83.833 -29.5 140.5v303h190v-272c0 -42 7.83301 -72 23.5 -90s37.834 -27 66.501 -27c18.667 0 35.667 4.33301 51 13s27.666 22.5 36.999 41.5s14 43.5 14 73.5v261h190v-542h-181v153l35 -43
c-18.667 -40 -45.667 -69.833 -81 -89.5s-73.666 -29.5 -114.999 -29.5zM262.999 607l-130 152h126l141 -124h-110l141 124h126l-130 -152h-164z" />
    <glyph glyph-name="uni01E4" unicode="&#x1e4;" horiz-adv-x="814" 
d="M391 201v121h406v-121h-406zM420 -14c-55.333 0 -106.668 8.83496 -154.001 26.502s-88.166 42.834 -122.499 75.501s-61.166 71.167 -80.499 115.5s-29 93.166 -29 146.499s9.66699 102.166 29 146.499s46.333 82.833 81 115.5s75.834 57.834 123.501 75.501
s99.834 26.5 156.501 26.5c66 0 125 -11 177 -33s95 -53.667 129 -95l-126 -114c-24 26 -49.833 45.5 -77.5 58.5s-58.5 19.5 -92.5 19.5c-30 0 -57.333 -4.66699 -82 -14s-45.667 -22.833 -63 -40.5s-30.833 -38.667 -40.5 -63s-14.5 -51.833 -14.5 -82.5
c0 -29.333 4.83301 -56.333 14.5 -81s23.167 -45.834 40.5 -63.501s38.166 -31.334 62.499 -41.001s51.166 -14.5 80.499 -14.5s58 4.83301 86 14.5s56.333 26.167 85 49.5l111 -139c-40 -28.667 -86.333 -50.667 -139 -66s-104.334 -23 -155.001 -23zM538.998 101.002v264
h175v-290z" />
    <glyph glyph-name="uni01E5" unicode="&#x1e5;" horiz-adv-x="718" 
d="M324 -203c-51.333 0 -100.668 6.16699 -148.001 18.5s-87 29.833 -119 52.5l69 126c21.333 -17.333 48.833 -31.333 82.5 -42s67.834 -16 102.501 -16c48.667 0 84.667 10.833 108 32.5s35 54.5 35 98.5v64l10 159l-1 153v99h181v-443
c0 -100.667 -27.167 -176.167 -81.5 -226.5s-133.833 -75.5 -238.5 -75.5zM267.998 -25v78l439 1v-78zM285.998 78c-52 0 -97.333 10.167 -136 30.5s-68.834 48.333 -90.501 84s-32.5 76.5 -32.5 122.5s10.833 86.667 32.5 122s51.834 63 90.501 83s83.667 30 135 30
c45.333 0 84.833 -8.66699 118.5 -26s60 -43.333 79 -78s28.5 -79 28.5 -133c0 -53.333 -9.33301 -97.333 -28 -132s-45 -60.5 -79 -77.5s-73.333 -25.5 -118 -25.5zM337.998 211c24 0 44.833 4.16699 62.5 12.5s31.334 20.333 41.001 36s14.5 34.167 14.5 55.5
s-4.83301 39.666 -14.5 54.999s-23.334 27.166 -41.001 35.499s-38.5 12.5 -62.5 12.5s-45 -4.16699 -63 -12.5s-31.833 -20.166 -41.5 -35.499s-14.5 -33.666 -14.5 -54.999s4.83301 -39.833 14.5 -55.5s23.5 -27.667 41.5 -36s39 -12.5 63 -12.5z" />
    <glyph glyph-name="Gcaron" unicode="&#x1e6;" horiz-adv-x="770" 
d="M420 -14c-55.333 0 -106.668 8.83496 -154.001 26.502s-88.166 42.834 -122.499 75.501s-61.166 71.167 -80.499 115.5s-29 93.166 -29 146.499s9.66699 102.166 29 146.499s46.333 82.833 81 115.5s75.834 57.834 123.501 75.501s99.834 26.5 156.501 26.5
c66 0 125 -11 177 -33s95 -53.667 129 -95l-126 -114c-24 26 -49.833 45.5 -77.5 58.5s-58.5 19.5 -92.5 19.5c-30 0 -57.333 -4.66699 -82 -14s-45.667 -22.833 -63 -40.5s-30.833 -38.667 -40.5 -63s-14.5 -51.833 -14.5 -82.5c0 -29.333 4.83301 -56.333 14.5 -81
s23.167 -45.834 40.5 -63.501s38.166 -31.334 62.499 -41.001s51.166 -14.5 80.499 -14.5s58 4.83301 86 14.5s56.333 26.167 85 49.5l111 -139c-40 -28.667 -86.333 -50.667 -139 -66s-104.334 -23 -155.001 -23zM538.998 101.002v264h175v-290zM337.998 758.002l-130 152
h126l141 -124h-110l141 124h126l-130 -152h-164z" />
    <glyph glyph-name="gcaron" unicode="&#x1e7;" horiz-adv-x="705" 
d="M326 -203c-52 0 -101.502 6 -148.502 18s-87.167 29.667 -120.5 53l69 133c22.667 -18 50.834 -32.167 84.501 -42.5s66.5 -15.5 98.5 -15.5c51.333 0 88.333 11.167 111 33.5s34 54.833 34 97.5v64l10 152l-1 153v99h181v-443c0 -102.667 -27.667 -178.667 -83 -228
s-133.666 -74 -234.999 -74zM292.998 28c-48 0 -92.167 10.834 -132.5 32.501s-72.666 52 -96.999 91s-36.5 85.167 -36.5 138.5s12.167 99.5 36.5 138.5s56.666 69.167 96.999 90.5s84.5 32 132.5 32c46 0 85.333 -9.16699 118 -27.5s57.5 -46.833 74.5 -85.5
s25.5 -88 25.5 -148s-8.5 -109.333 -25.5 -148s-41.833 -67.334 -74.5 -86.001s-72 -28 -118 -28zM337.998 179.001c22.667 0 42.834 4.66699 60.501 14s31.667 22.333 42 39s15.5 36 15.5 58s-5.16699 41.333 -15.5 58s-24.333 29.5 -42 38.5s-37.834 13.5 -60.501 13.5
s-43 -4.5 -61 -13.5s-32.167 -21.833 -42.5 -38.5s-15.5 -36 -15.5 -58s5.16699 -41.333 15.5 -58s24.5 -29.667 42.5 -39s38.333 -14 61 -14zM265.998 607.001l-130 152h126l141 -124h-110l141 124h126l-130 -152h-164z" />
    <glyph glyph-name="uni01E8" unicode="&#x1e8;" horiz-adv-x="752" 
d="M247 155l-11 222l301 323h218l-300 -325l-110 -115zM70 0v700h196v-700h-196zM540 0l-228 289l129 138l329 -427h-230zM300 757l-130 152h126l141 -124h-110l141 124h126l-130 -152h-164z" />
    <glyph glyph-name="uni01E9" unicode="&#x1e9;" horiz-adv-x="686" 
d="M219 100l5 227l221 215h225l-245 -253l-97 -78zM61 0v742h190v-742h-190zM459 0l-166 208l118 146l278 -354h-230zM74 807l-130 152h126l141 -124h-110l141 124h126l-130 -152h-164z" />
    <glyph glyph-name="uni01EA" unicode="&#x1ea;" horiz-adv-x="846" 
d="M451 -236c-46.667 0 -83 10.833 -109 32.5s-39 49.834 -39 84.501c0 23.333 5.83301 45.166 17.5 65.499s29.5 38.833 53.5 55.5s53.667 31 89 43l10 -56c-10.667 -0.666992 -20 -1.33398 -28 -2.00098s-15.333 -1 -22 -1c-56 0 -107.667 9 -155 27
s-88.5 43.333 -123.5 76s-62.167 71.167 -81.5 115.5s-29 92.833 -29 145.5s9.66699 101.167 29 145.5s46.5 82.833 81.5 115.5s76.167 58 123.5 76s99 27 155 27c56.667 0 108.5 -9 155.5 -27s87.833 -43.333 122.5 -76s61.834 -71.167 81.501 -115.5
s29.5 -92.833 29.5 -145.5c0 -58 -11.5 -110.167 -34.5 -156.5s-54 -85.333 -93 -117s-82.833 -55.5 -131.5 -71.5c-32.667 -10 -59 -20.833 -79 -32.5s-34.333 -23.667 -43 -36s-13 -25.166 -13 -38.499c0 -12.667 4.66699 -23.167 14 -31.5s23 -12.5 41 -12.5
c11.333 0 22.166 1.5 32.499 4.5s19.5 6.5 27.5 10.5l24 -82c-12 -6.66699 -27.667 -12.167 -47 -16.5s-39 -6.5 -59 -6.5zM423 150c26.667 0 51.5 4.66699 74.5 14s43 22.833 60 40.5s30.333 38.834 40 63.501s14.5 52 14.5 82c0 30.667 -4.83301 58.167 -14.5 82.5
s-23 45.333 -40 63s-37 31.167 -60 40.5s-47.833 14 -74.5 14s-51.5 -4.66699 -74.5 -14s-43 -22.833 -60 -40.5s-30.333 -38.667 -40 -63s-14.5 -51.833 -14.5 -82.5c0 -30 4.83301 -57.333 14.5 -82s23 -45.834 40 -63.501s37 -31.167 60 -40.5s47.833 -14 74.5 -14z" />
    <glyph glyph-name="uni01EB" unicode="&#x1eb;" horiz-adv-x="666" 
d="M364 -236c-46.667 0 -83.001 10.833 -109.001 32.5s-39 49.834 -39 84.501c0 22.667 6 44.167 18 64.5s29.833 38.5 53.5 54.5s52.834 28.667 87.501 38l7 -43c-8.66699 -0.666992 -17 -1.5 -25 -2.5s-16 -1.5 -24 -1.5c-59.333 0 -112 12 -158 36
s-82.167 57.167 -108.5 99.5s-39.5 90.833 -39.5 145.5s13.167 103 39.5 145s62.5 74.833 108.5 98.5s98.667 35.5 158 35.5s112.166 -11.833 158.499 -35.5s82.5 -56.5 108.5 -98.5s39 -90.333 39 -145c0 -60.667 -16.5 -113.667 -49.5 -159s-77.167 -79 -132.5 -101
c-34 -12.667 -60 -25.5 -78 -38.5s-30.5 -25.667 -37.5 -38s-10.5 -24.5 -10.5 -36.5c0 -12.667 4.66699 -23.334 14 -32.001s23.333 -13 42 -13c10.667 0 21.334 1.5 32.001 4.5s19.667 6.5 27 10.5l25 -82c-12 -6.66699 -27.833 -12.167 -47.5 -16.5
s-39.5 -6.5 -59.5 -6.5zM332.999 142c22 0 41.5 5 58.5 15s30.5 24.833 40.5 44.5s15 43.167 15 70.5s-5 50.5 -15 69.5s-23.5 33.5 -40.5 43.5s-36.5 15 -58.5 15c-21.333 0 -40.5 -5 -57.5 -15s-30.667 -24.5 -41 -43.5s-15.5 -42.167 -15.5 -69.5
s5.16699 -50.833 15.5 -70.5s24 -34.5 41 -44.5s36.167 -15 57.5 -15z" />
    <glyph glyph-name="uni01EE" unicode="&#x1ee;" horiz-adv-x="646" 
d="M300 -14c-50 0 -100.167 5.99902 -150.5 17.999s-93.166 29 -128.499 51l65 148c29.333 -18.667 62.5 -33 99.5 -43s72.833 -15 107.5 -15c37.333 0 67.166 6.33301 89.499 19s33.5 31 33.5 55c0 21.333 -9.33301 38 -28 50s-48.667 18 -90 18h-84v125l200 203l18 -68
h-380v153h526v-124l-200 -203l-94 54h54c61.333 0 112.5 -8.83301 153.5 -26.5s72 -42.167 93 -73.5s31.5 -67 31.5 -107c0 -40.667 -11 -78.667 -33 -114s-56.333 -64.166 -103 -86.499s-106.667 -33.5 -180 -33.5zM231 756.999l-130 152h126l141 -124h-110l141 124h126
l-130 -152h-164z" />
    <glyph glyph-name="uni01EF" unicode="&#x1ef;" horiz-adv-x="569" 
d="M249 -203c-48.667 0 -96.667 6.33301 -144 19s-88.333 30.667 -123 54l66 149c28 -20 59 -35.333 93 -46s67.667 -16 101 -16c34.667 0 62 7 82 21s30 34 30 60c0 24 -8.33301 42.833 -25 56.5s-44 20.5 -82 20.5h-83v124l186 218l18 -68h-355v153h501v-124l-187 -218
l-93 55h53c86.667 0 152.167 -20.167 196.5 -60.5s66.5 -92.5 66.5 -156.5c0 -42 -10.667 -81.167 -32 -117.5s-54 -66 -98 -89s-101 -34.5 -171 -34.5zM176 607l-130 152h126l141 -124h-110l141 124h126l-130 -152h-164z" />
    <glyph glyph-name="Aringacute" unicode="&#x1fa;" horiz-adv-x="786" 
d="M-14 0l309 700h195l310 -700h-206l-242 603h78l-242 -603h-202zM155 136l51 146h342l51 -146h-444zM393 749c-24.667 0 -47.001 5.66699 -67.001 17s-35.833 26.666 -47.5 45.999s-17.5 40.666 -17.5 63.999c0 24 5.83301 45.5 17.5 64.5s27.5 34.333 47.5 46
s42.333 17.5 67 17.5c25.333 0 47.833 -5.83301 67.5 -17.5s35.334 -27 47.001 -46s17.5 -40.5 17.5 -64.5c0 -23.333 -5.83301 -44.666 -17.5 -63.999s-27.5 -34.666 -47.5 -45.999s-42.333 -17 -67 -17zM392.999 819c16.667 0 30.333 5.33301 41 16s16 24.334 16 41.001
s-5.5 30.5 -16.5 41.5s-24.5 16.5 -40.5 16.5s-29.5 -5.33301 -40.5 -16s-16.5 -24.667 -16.5 -42c0 -16.667 5.5 -30.334 16.5 -41.001s24.5 -16 40.5 -16zM490.998 927l-88 28l128 133l93 -70z" />
    <glyph glyph-name="aringacute" unicode="&#x1fb;" horiz-adv-x="628" 
d="M392 0l0.000976562 101l-13 25v186c0 30 -9.16699 53.167 -27.5 69.5s-47.5 24.5 -87.5 24.5c-26 0 -52.333 -4.16699 -79 -12.5s-49.334 -19.833 -68.001 -34.5l-64 129c30.667 20 67.5 35.5 110.5 46.5s85.833 16.5 128.5 16.5c88 0 156.167 -20.167 204.5 -60.5
s72.5 -103.5 72.5 -189.5v-301h-177zM232.001 -9c-43.333 0 -80 7.33594 -110 22.0029s-52.833 34.667 -68.5 60s-23.5 53.666 -23.5 84.999c0 33.333 8.5 62.166 25.5 86.499s43.167 43 78.5 56s81 19.5 137 19.5h128v-99h-102c-30.667 0 -52.167 -5 -64.5 -15
s-18.5 -23.333 -18.5 -40s6.33301 -30 19 -40s30 -15 52 -15c20.667 0 39.5 5.16699 56.5 15.5s29.5 26.166 37.5 47.499l26 -70c-10 -37.333 -29.5 -65.5 -58.5 -84.5s-67.167 -28.5 -114.5 -28.5zM313.001 591.003c-24.667 0 -47.001 5.66699 -67.001 17
s-35.833 26.666 -47.5 45.999s-17.5 40.666 -17.5 63.999c0 24 5.83301 45.5 17.5 64.5s27.5 34.333 47.5 46s42.333 17.5 67 17.5c25.333 0 47.833 -5.83301 67.5 -17.5s35.334 -27 47.001 -46s17.5 -40.5 17.5 -64.5c0 -23.333 -5.83301 -44.666 -17.5 -63.999
s-27.5 -34.666 -47.5 -45.999s-42.333 -17 -67 -17zM313 661.003c16.667 0 30.333 5.33301 41 16s16 24.334 16 41.001s-5.5 30.5 -16.5 41.5s-24.5 16.5 -40.5 16.5s-29.5 -5.33301 -40.5 -16s-16.5 -24.667 -16.5 -42c0 -16.667 5.5 -30.334 16.5 -41.001
s24.5 -16 40.5 -16zM410.999 769.003l-88 28l128 133l93 -70z" />
    <glyph glyph-name="AEacute" unicode="&#x1fc;" horiz-adv-x="1099" 
d="M-14 0l382 700h197v-153h-168l119 80l-328 -627h-202zM208 136l1 146h356v-146h-357zM679 429h325v-148h-325v148zM693 153h366v-153h-562v700h549v-153h-353v-394zM497 757l134 152h190l-188 -152h-136z" />
    <glyph glyph-name="aeacute" unicode="&#x1fd;" horiz-adv-x="999" 
d="M266 -9c-73.333 0 -131.003 15.998 -173.003 47.998s-63 73.667 -63 125c0 31.333 8.5 58.833 25.5 82.5s43.167 42.167 78.5 55.5s81 20 137 20h124v-100h-98c-30.667 0 -52.167 -5 -64.5 -15s-18.5 -23 -18.5 -39c0 -17.333 6.33301 -31.166 19 -41.499
s30.667 -15.5 54 -15.5c29.333 0 52 8.16699 68 24.5s24 37.833 24 64.5v112c0 29.333 -9.16699 52.333 -27.5 69s-47.166 25 -86.499 25c-27.333 0 -54.166 -4.16699 -80.499 -12.5s-48.833 -19.833 -67.5 -34.5l-64 129c30.667 20 67.334 35.5 110.001 46.5
s85.334 16.5 128.001 16.5c56 0 104 -9.5 144 -28.5s69.333 -48.167 88 -87.5l-77 1c25.333 36 59 64.167 101 84.5s87.667 30.5 137 30.5c38.667 0 75.334 -6.33301 110.001 -19s65.334 -30.834 92.001 -54.501s47.667 -52.667 63 -87s23 -73.166 23 -116.499
c0 -10 -0.166992 -19.333 -0.5 -28s-1.16602 -16.667 -2.49902 -24h-417v100h283l-43 -27c0 26 -5 47.833 -15 65.5s-23.333 31.334 -40 41.001s-35.334 14.5 -56.001 14.5c-20 0 -38.667 -4.83301 -56 -14.5s-31 -23.5 -41 -41.5s-15 -40 -15 -66v-29
c0 -26.667 5.5 -49.667 16.5 -69s26.667 -34.166 47 -44.499s44.833 -15.5 73.5 -15.5c24.667 0 47 3.83301 67 11.5s39.667 19.5 59 35.5l100 -104c-26.667 -28.667 -59.334 -50.5 -98.001 -65.5s-82.334 -22.5 -131.001 -22.5c-41.333 0 -80.333 5.66699 -117 17
s-69.667 29.5 -99 54.5s-53 57.5 -71 97.5h93c-12.667 -44 -31.334 -78.333 -56.001 -103s-53 -41.834 -85 -51.501s-66 -14.5 -102 -14.5zM375.997 606.998l134 152h190l-188 -152h-136z" />
    <glyph glyph-name="Oslashacute" unicode="&#x1fe;" horiz-adv-x="846" 
d="M423 -14c-56 0 -107.667 9 -155 27s-88.5 43.5 -123.5 76.5s-62.167 71.5 -81.5 115.5s-29 92.333 -29 145s9.66699 101 29 145s46.5 82.5 81.5 115.5s76.167 58.5 123.5 76.5s99 27 155 27c56.667 0 108.5 -9 155.5 -27s87.833 -43.5 122.5 -76.5
s61.834 -71.5 81.501 -115.5s29.5 -92.333 29.5 -145s-9.83301 -101.167 -29.5 -145.5s-46.834 -82.833 -81.501 -115.5s-75.5 -58 -122.5 -76s-98.833 -27 -155.5 -27zM423 150c26.667 0 51.5 4.66699 74.5 14s43 22.833 60 40.5s30.333 38.834 40 63.501s14.5 52 14.5 82
c0 30.667 -4.83301 58.167 -14.5 82.5s-23 45.333 -40 63s-37 31.167 -60 40.5s-47.833 14 -74.5 14s-51.5 -4.66699 -74.5 -14s-43 -22.833 -60 -40.5s-30.333 -38.667 -40 -63s-14.5 -51.833 -14.5 -82.5c0 -30 4.83301 -57.333 14.5 -82s23 -45.834 40 -63.501
s37 -31.167 60 -40.5s47.833 -14 74.5 -14zM66 -70l597 840h117l-597 -840h-117zM325 757l134 152h190l-188 -152h-136z" />
    <glyph glyph-name="oslashacute" unicode="&#x1ff;" horiz-adv-x="666" 
d="M333 -9c-59.333 0 -112 12 -158 36s-82.167 57.167 -108.5 99.5s-39.5 90.833 -39.5 145.5s13.167 103 39.5 145s62.5 74.833 108.5 98.5s98.667 35.5 158 35.5s112.166 -11.833 158.499 -35.5s82.5 -56.5 108.5 -98.5s39 -90.333 39 -145s-13 -103.167 -39 -145.5
s-62.167 -75.5 -108.5 -99.5s-99.166 -36 -158.499 -36zM333 142c22 0 41.5 5 58.5 15s30.5 24.833 40.5 44.5s15 43.167 15 70.5s-5 50.5 -15 69.5s-23.5 33.5 -40.5 43.5s-36.5 15 -58.5 15c-21.333 0 -40.5 -5 -57.5 -15s-30.667 -24.5 -41 -43.5
s-15.5 -42.167 -15.5 -69.5s5.16699 -50.833 15.5 -70.5s24 -34.5 41 -44.5s36.167 -15 57.5 -15zM67 -70l441 677h86l-441 -677h-86zM230 607l134 152h190l-188 -152h-136z" />
    <glyph glyph-name="uni0200" unicode="&#x200;" horiz-adv-x="786" 
d="M-14 0l309 700h195l310 -700h-206l-242 603h78l-242 -603h-202zM155 136l51 146h342l51 -146h-444zM436 757l-101 152h170l63 -152h-132zM218 757l-100 152h170l62 -152h-132z" />
    <glyph glyph-name="uni0201" unicode="&#x201;" horiz-adv-x="628" 
d="M392 0l0.000976562 101l-13 25v186c0 30 -9.16699 53.167 -27.5 69.5s-47.5 24.5 -87.5 24.5c-26 0 -52.333 -4.16699 -79 -12.5s-49.334 -19.833 -68.001 -34.5l-64 129c30.667 20 67.5 35.5 110.5 46.5s85.833 16.5 128.5 16.5c88 0 156.167 -20.167 204.5 -60.5
s72.5 -103.5 72.5 -189.5v-301h-177zM232.001 -9c-43.333 0 -80 7.33594 -110 22.0029s-52.833 34.667 -68.5 60s-23.5 53.666 -23.5 84.999c0 33.333 8.5 62.166 25.5 86.499s43.167 43 78.5 56s81 19.5 137 19.5h128v-99h-102c-30.667 0 -52.167 -5 -64.5 -15
s-18.5 -23.333 -18.5 -40s6.33301 -30 19 -40s30 -15 52 -15c20.667 0 39.5 5.16699 56.5 15.5s29.5 26.166 37.5 47.499l26 -70c-10 -37.333 -29.5 -65.5 -58.5 -84.5s-67.167 -28.5 -114.5 -28.5zM356.001 607.003l-101 152h170l63 -152h-132zM138.001 607.003l-100 152
h170l62 -152h-132z" />
    <glyph glyph-name="uni0202" unicode="&#x202;" horiz-adv-x="786" 
d="M-14 0l309 700h195l310 -700h-206l-242 603h78l-242 -603h-202zM155 136l51 146h342l51 -146h-444zM197 757c2 50 21.167 89.333 57.5 118s82.5 43 138.5 43s102.167 -14.333 138.5 -43s55.5 -68 57.5 -118h-116c-0.666992 20 -8.66699 36 -24 48s-34 18 -56 18
s-40.5 -6 -55.5 -18s-23.167 -28 -24.5 -48h-116z" />
    <glyph glyph-name="uni0203" unicode="&#x203;" horiz-adv-x="628" 
d="M392 0l0.000976562 101l-13 25v186c0 30 -9.16699 53.167 -27.5 69.5s-47.5 24.5 -87.5 24.5c-26 0 -52.333 -4.16699 -79 -12.5s-49.334 -19.833 -68.001 -34.5l-64 129c30.667 20 67.5 35.5 110.5 46.5s85.833 16.5 128.5 16.5c88 0 156.167 -20.167 204.5 -60.5
s72.5 -103.5 72.5 -189.5v-301h-177zM232.001 -9c-43.333 0 -80 7.33594 -110 22.0029s-52.833 34.667 -68.5 60s-23.5 53.666 -23.5 84.999c0 33.333 8.5 62.166 25.5 86.499s43.167 43 78.5 56s81 19.5 137 19.5h128v-99h-102c-30.667 0 -52.167 -5 -64.5 -15
s-18.5 -23.333 -18.5 -40s6.33301 -30 19 -40s30 -15 52 -15c20.667 0 39.5 5.16699 56.5 15.5s29.5 26.166 37.5 47.499l26 -70c-10 -37.333 -29.5 -65.5 -58.5 -84.5s-67.167 -28.5 -114.5 -28.5zM117.001 607.003c2 50 21.167 89.333 57.5 118s82.5 43 138.5 43
s102.167 -14.333 138.5 -43s55.5 -68 57.5 -118h-116c-0.666992 20 -8.66699 36 -24 48s-34 18 -56 18s-40.5 -6 -55.5 -18s-23.167 -28 -24.5 -48h-116z" />
    <glyph glyph-name="uni0204" unicode="&#x204;" horiz-adv-x="672" 
d="M252 429h325v-148h-325v148zM266 153h366v-153h-562v700h549v-153h-353v-394zM388 757l-101 152h170l63 -152h-132zM170 757l-100 152h170l62 -152h-132z" />
    </font>
</defs>
</svg>
